<?xml version="1.0" encoding="UTF-8"?>
<svg xmlns="http://www.w3.org/2000/svg" xmlns:xlink="http://www.w3.org/1999/xlink" width="180pt" height="112pt" viewBox="0 0 180 112">
<rect x="-18" y="-11.2" width="216" height="134.4" fill="rgb(100%, 100%, 100%)" fill-opacity="1"/>
<path fill-rule="evenodd" fill="rgb(88.626099%, 91.763306%, 98.822021%)" fill-opacity="1" d="M 3 10.066406 L 10.300781 10.066406 L 10.300781 2.949219 L 3 2.949219 Z M 3 10.066406 "/>
<path fill-rule="evenodd" fill="rgb(81.959534%, 87.057495%, 98.431396%)" fill-opacity="1" d="M 10.25 10.066406 L 17.550781 10.066406 L 17.550781 2.949219 L 10.25 2.949219 Z M 10.25 10.066406 "/>
<path fill-rule="evenodd" fill="rgb(76.469421%, 83.135986%, 97.647095%)" fill-opacity="1" d="M 17.5 10.066406 L 24.800781 10.066406 L 24.800781 2.949219 L 17.5 2.949219 Z M 17.5 10.066406 "/>
<path fill-rule="evenodd" fill="rgb(86.273193%, 90.194702%, 98.822021%)" fill-opacity="1" d="M 24.75 10.066406 L 32.050781 10.066406 L 32.050781 2.949219 L 24.75 2.949219 Z M 24.75 10.066406 "/>
<path fill-rule="evenodd" fill="rgb(73.332214%, 80.783081%, 97.647095%)" fill-opacity="1" d="M 32 10.066406 L 39.300781 10.066406 L 39.300781 2.949219 L 32 2.949219 Z M 32 10.066406 "/>
<path fill-rule="evenodd" fill="rgb(72.155762%, 79.998779%, 97.647095%)" fill-opacity="1" d="M 39.25 10.066406 L 46.550781 10.066406 L 46.550781 2.949219 L 39.25 2.949219 Z M 39.25 10.066406 "/>
<path fill-rule="evenodd" fill="rgb(76.077271%, 83.135986%, 97.647095%)" fill-opacity="1" d="M 46.5 10.066406 L 53.800781 10.066406 L 53.800781 2.949219 L 46.5 2.949219 Z M 46.5 10.066406 "/>
<path fill-rule="evenodd" fill="rgb(90.194702%, 92.939758%, 99.215698%)" fill-opacity="1" d="M 53.75 10.066406 L 61.050781 10.066406 L 61.050781 2.949219 L 53.75 2.949219 Z M 53.75 10.066406 "/>
<path fill-rule="evenodd" fill="rgb(100%, 99.606323%, 99.606323%)" fill-opacity="1" d="M 61 10.066406 L 68.300781 10.066406 L 68.300781 2.949219 L 61 2.949219 Z M 61 10.066406 "/>
<path fill-rule="evenodd" fill="rgb(95.292664%, 96.861267%, 99.606323%)" fill-opacity="1" d="M 68.25 10.066406 L 75.550781 10.066406 L 75.550781 2.949219 L 68.25 2.949219 Z M 68.25 10.066406 "/>
<path fill-rule="evenodd" fill="rgb(91.763306%, 94.116211%, 99.215698%)" fill-opacity="1" d="M 75.5 10.066406 L 82.800781 10.066406 L 82.800781 2.949219 L 75.5 2.949219 Z M 75.5 10.066406 "/>
<path fill-rule="evenodd" fill="rgb(93.331909%, 95.292664%, 99.215698%)" fill-opacity="1" d="M 82.75 10.066406 L 90.050781 10.066406 L 90.050781 2.949219 L 82.75 2.949219 Z M 82.75 10.066406 "/>
<path fill-rule="evenodd" fill="rgb(95.684814%, 96.861267%, 99.606323%)" fill-opacity="1" d="M 90 10.066406 L 97.300781 10.066406 L 97.300781 2.949219 L 90 2.949219 Z M 90 10.066406 "/>
<path fill-rule="evenodd" fill="rgb(95.292664%, 96.469116%, 99.606323%)" fill-opacity="1" d="M 97.25 10.066406 L 104.550781 10.066406 L 104.550781 2.949219 L 97.25 2.949219 Z M 97.25 10.066406 "/>
<path fill-rule="evenodd" fill="rgb(96.469116%, 97.647095%, 99.606323%)" fill-opacity="1" d="M 104.5 10.066406 L 111.800781 10.066406 L 111.800781 2.949219 L 104.5 2.949219 Z M 104.5 10.066406 "/>
<path fill-rule="evenodd" fill="rgb(97.647095%, 98.431396%, 99.606323%)" fill-opacity="1" d="M 111.75 10.066406 L 119.050781 10.066406 L 119.050781 2.949219 L 111.75 2.949219 Z M 111.75 10.066406 "/>
<path fill-rule="evenodd" fill="rgb(95.292664%, 96.861267%, 99.606323%)" fill-opacity="1" d="M 119 10.066406 L 126.300781 10.066406 L 126.300781 2.949219 L 119 2.949219 Z M 119 10.066406 "/>
<path fill-rule="evenodd" fill="rgb(92.155457%, 94.116211%, 99.215698%)" fill-opacity="1" d="M 126.25 10.066406 L 133.550781 10.066406 L 133.550781 2.949219 L 126.25 2.949219 Z M 126.25 10.066406 "/>
<path fill-rule="evenodd" fill="rgb(88.233948%, 91.763306%, 98.822021%)" fill-opacity="1" d="M 133.5 10.066406 L 140.800781 10.066406 L 140.800781 2.949219 L 133.5 2.949219 Z M 133.5 10.066406 "/>
<path fill-rule="evenodd" fill="rgb(90.979004%, 93.331909%, 99.215698%)" fill-opacity="1" d="M 140.75 10.066406 L 148.050781 10.066406 L 148.050781 2.949219 L 140.75 2.949219 Z M 140.75 10.066406 "/>
<path fill-rule="evenodd" fill="rgb(92.155457%, 94.508362%, 99.215698%)" fill-opacity="1" d="M 148 10.066406 L 155.300781 10.066406 L 155.300781 2.949219 L 148 2.949219 Z M 148 10.066406 "/>
<path fill-rule="evenodd" fill="rgb(93.72406%, 95.292664%, 99.215698%)" fill-opacity="1" d="M 155.25 10.066406 L 162.550781 10.066406 L 162.550781 2.949219 L 155.25 2.949219 Z M 155.25 10.066406 "/>
<path fill-rule="evenodd" fill="rgb(92.939758%, 94.900513%, 99.215698%)" fill-opacity="1" d="M 162.5 10.066406 L 169.800781 10.066406 L 169.800781 2.949219 L 162.5 2.949219 Z M 162.5 10.066406 "/>
<path fill-rule="evenodd" fill="rgb(92.547607%, 94.508362%, 99.215698%)" fill-opacity="1" d="M 169.75 10.066406 L 177.050781 10.066406 L 177.050781 2.949219 L 169.75 2.949219 Z M 169.75 10.066406 "/>
<path fill-rule="evenodd" fill="rgb(98.822021%, 92.547607%, 92.547607%)" fill-opacity="1" d="M 3 17.132812 L 10.300781 17.132812 L 10.300781 10.015625 L 3 10.015625 Z M 3 17.132812 "/>
<path fill-rule="evenodd" fill="rgb(99.215698%, 94.508362%, 94.508362%)" fill-opacity="1" d="M 10.25 17.132812 L 17.550781 17.132812 L 17.550781 10.015625 L 10.25 10.015625 Z M 10.25 17.132812 "/>
<path fill-rule="evenodd" fill="rgb(99.215698%, 94.116211%, 94.116211%)" fill-opacity="1" d="M 17.5 17.132812 L 24.800781 17.132812 L 24.800781 10.015625 L 17.5 10.015625 Z M 17.5 17.132812 "/>
<path fill-rule="evenodd" fill="rgb(98.431396%, 90.586853%, 90.586853%)" fill-opacity="1" d="M 24.75 17.132812 L 32.050781 17.132812 L 32.050781 10.015625 L 24.75 10.015625 Z M 24.75 17.132812 "/>
<path fill-rule="evenodd" fill="rgb(98.822021%, 93.72406%, 93.72406%)" fill-opacity="1" d="M 32 17.132812 L 39.300781 17.132812 L 39.300781 10.015625 L 32 10.015625 Z M 32 17.132812 "/>
<path fill-rule="evenodd" fill="rgb(99.215698%, 94.508362%, 94.508362%)" fill-opacity="1" d="M 39.25 17.132812 L 46.550781 17.132812 L 46.550781 10.015625 L 39.25 10.015625 Z M 39.25 17.132812 "/>
<path fill-rule="evenodd" fill="rgb(99.215698%, 95.292664%, 95.292664%)" fill-opacity="1" d="M 46.5 17.132812 L 53.800781 17.132812 L 53.800781 10.015625 L 46.5 10.015625 Z M 46.5 17.132812 "/>
<path fill-rule="evenodd" fill="rgb(98.822021%, 93.72406%, 93.72406%)" fill-opacity="1" d="M 53.75 17.132812 L 61.050781 17.132812 L 61.050781 10.015625 L 53.75 10.015625 Z M 53.75 17.132812 "/>
<path fill-rule="evenodd" fill="rgb(99.606323%, 98.03772%, 98.03772%)" fill-opacity="1" d="M 61 17.132812 L 68.300781 17.132812 L 68.300781 10.015625 L 61 10.015625 Z M 61 17.132812 "/>
<path fill-rule="evenodd" fill="rgb(99.215698%, 99.606323%, 100%)" fill-opacity="1" d="M 68.25 17.132812 L 75.550781 17.132812 L 75.550781 10.015625 L 68.25 10.015625 Z M 68.25 17.132812 "/>
<path fill-rule="evenodd" fill="rgb(99.606323%, 98.431396%, 98.431396%)" fill-opacity="1" d="M 75.5 17.132812 L 82.800781 17.132812 L 82.800781 10.015625 L 75.5 10.015625 Z M 75.5 17.132812 "/>
<path fill-rule="evenodd" fill="rgb(99.215698%, 95.292664%, 95.292664%)" fill-opacity="1" d="M 82.75 17.132812 L 90.050781 17.132812 L 90.050781 10.015625 L 82.75 10.015625 Z M 82.75 17.132812 "/>
<path fill-rule="evenodd" fill="rgb(99.215698%, 95.292664%, 95.292664%)" fill-opacity="1" d="M 90 17.132812 L 97.300781 17.132812 L 97.300781 10.015625 L 90 10.015625 Z M 90 17.132812 "/>
<path fill-rule="evenodd" fill="rgb(99.215698%, 95.292664%, 95.292664%)" fill-opacity="1" d="M 97.25 17.132812 L 104.550781 17.132812 L 104.550781 10.015625 L 97.25 10.015625 Z M 97.25 17.132812 "/>
<path fill-rule="evenodd" fill="rgb(99.215698%, 95.684814%, 95.684814%)" fill-opacity="1" d="M 104.5 17.132812 L 111.800781 17.132812 L 111.800781 10.015625 L 104.5 10.015625 Z M 104.5 17.132812 "/>
<path fill-rule="evenodd" fill="rgb(99.215698%, 94.508362%, 94.508362%)" fill-opacity="1" d="M 111.75 17.132812 L 119.050781 17.132812 L 119.050781 10.015625 L 111.75 10.015625 Z M 111.75 17.132812 "/>
<path fill-rule="evenodd" fill="rgb(99.606323%, 96.469116%, 96.469116%)" fill-opacity="1" d="M 119 17.132812 L 126.300781 17.132812 L 126.300781 10.015625 L 119 10.015625 Z M 119 17.132812 "/>
<path fill-rule="evenodd" fill="rgb(99.606323%, 96.861267%, 96.861267%)" fill-opacity="1" d="M 126.25 17.132812 L 133.550781 17.132812 L 133.550781 10.015625 L 126.25 10.015625 Z M 126.25 17.132812 "/>
<path fill-rule="evenodd" fill="rgb(100%, 98.822021%, 98.822021%)" fill-opacity="1" d="M 133.5 17.132812 L 140.800781 17.132812 L 140.800781 10.015625 L 133.5 10.015625 Z M 133.5 17.132812 "/>
<path fill-rule="evenodd" fill="rgb(100%, 98.822021%, 98.822021%)" fill-opacity="1" d="M 140.75 17.132812 L 148.050781 17.132812 L 148.050781 10.015625 L 140.75 10.015625 Z M 140.75 17.132812 "/>
<path fill-rule="evenodd" fill="rgb(100%, 99.606323%, 99.606323%)" fill-opacity="1" d="M 148 17.132812 L 155.300781 17.132812 L 155.300781 10.015625 L 148 10.015625 Z M 148 17.132812 "/>
<path fill-rule="evenodd" fill="rgb(99.606323%, 97.253418%, 97.253418%)" fill-opacity="1" d="M 155.25 17.132812 L 162.550781 17.132812 L 162.550781 10.015625 L 155.25 10.015625 Z M 155.25 17.132812 "/>
<path fill-rule="evenodd" fill="rgb(99.215698%, 96.076965%, 96.076965%)" fill-opacity="1" d="M 162.5 17.132812 L 169.800781 17.132812 L 169.800781 10.015625 L 162.5 10.015625 Z M 162.5 17.132812 "/>
<path fill-rule="evenodd" fill="rgb(99.215698%, 95.684814%, 95.684814%)" fill-opacity="1" d="M 169.75 17.132812 L 177.050781 17.132812 L 177.050781 10.015625 L 169.75 10.015625 Z M 169.75 17.132812 "/>
<path fill-rule="evenodd" fill="rgb(87.449646%, 90.979004%, 98.822021%)" fill-opacity="1" d="M 3 24.199219 L 10.300781 24.199219 L 10.300781 17.082031 L 3 17.082031 Z M 3 24.199219 "/>
<path fill-rule="evenodd" fill="rgb(81.567383%, 86.665344%, 98.431396%)" fill-opacity="1" d="M 10.25 24.199219 L 17.550781 24.199219 L 17.550781 17.082031 L 10.25 17.082031 Z M 10.25 24.199219 "/>
<path fill-rule="evenodd" fill="rgb(76.469421%, 83.135986%, 98.03772%)" fill-opacity="1" d="M 17.5 24.199219 L 24.800781 24.199219 L 24.800781 17.082031 L 17.5 17.082031 Z M 17.5 24.199219 "/>
<path fill-rule="evenodd" fill="rgb(88.626099%, 91.763306%, 98.822021%)" fill-opacity="1" d="M 24.75 24.199219 L 32.050781 24.199219 L 32.050781 17.082031 L 24.75 17.082031 Z M 24.75 24.199219 "/>
<path fill-rule="evenodd" fill="rgb(75.68512%, 82.743835%, 97.647095%)" fill-opacity="1" d="M 32 24.199219 L 39.300781 24.199219 L 39.300781 17.082031 L 32 17.082031 Z M 32 24.199219 "/>
<path fill-rule="evenodd" fill="rgb(75.292969%, 82.351685%, 97.647095%)" fill-opacity="1" d="M 39.25 24.199219 L 46.550781 24.199219 L 46.550781 17.082031 L 39.25 17.082031 Z M 39.25 24.199219 "/>
<path fill-rule="evenodd" fill="rgb(81.175232%, 86.665344%, 98.431396%)" fill-opacity="1" d="M 46.5 24.199219 L 53.800781 24.199219 L 53.800781 17.082031 L 46.5 17.082031 Z M 46.5 24.199219 "/>
<path fill-rule="evenodd" fill="rgb(91.371155%, 93.72406%, 99.215698%)" fill-opacity="1" d="M 53.75 24.199219 L 61.050781 24.199219 L 61.050781 17.082031 L 53.75 17.082031 Z M 53.75 24.199219 "/>
<path fill-rule="evenodd" fill="rgb(99.215698%, 99.215698%, 100%)" fill-opacity="1" d="M 61 24.199219 L 68.300781 24.199219 L 68.300781 17.082031 L 61 17.082031 Z M 61 24.199219 "/>
<path fill-rule="evenodd" fill="rgb(95.684814%, 96.861267%, 99.606323%)" fill-opacity="1" d="M 68.25 24.199219 L 75.550781 24.199219 L 75.550781 17.082031 L 68.25 17.082031 Z M 68.25 24.199219 "/>
<path fill-rule="evenodd" fill="rgb(92.547607%, 94.900513%, 99.215698%)" fill-opacity="1" d="M 75.5 24.199219 L 82.800781 24.199219 L 82.800781 17.082031 L 75.5 17.082031 Z M 75.5 24.199219 "/>
<path fill-rule="evenodd" fill="rgb(95.684814%, 96.861267%, 99.606323%)" fill-opacity="1" d="M 82.75 24.199219 L 90.050781 24.199219 L 90.050781 17.082031 L 82.75 17.082031 Z M 82.75 24.199219 "/>
<path fill-rule="evenodd" fill="rgb(97.647095%, 98.431396%, 99.606323%)" fill-opacity="1" d="M 90 24.199219 L 97.300781 24.199219 L 97.300781 17.082031 L 90 17.082031 Z M 90 24.199219 "/>
<path fill-rule="evenodd" fill="rgb(98.431396%, 98.822021%, 100%)" fill-opacity="1" d="M 97.25 24.199219 L 104.550781 24.199219 L 104.550781 17.082031 L 97.25 17.082031 Z M 97.25 24.199219 "/>
<path fill-rule="evenodd" fill="rgb(100%, 100%, 100%)" fill-opacity="1" d="M 104.5 24.199219 L 111.800781 24.199219 L 111.800781 17.082031 L 104.5 17.082031 Z M 104.5 24.199219 "/>
<path fill-rule="evenodd" fill="rgb(99.606323%, 98.431396%, 98.431396%)" fill-opacity="1" d="M 111.75 24.199219 L 119.050781 24.199219 L 119.050781 17.082031 L 111.75 17.082031 Z M 111.75 24.199219 "/>
<path fill-rule="evenodd" fill="rgb(98.431396%, 98.822021%, 100%)" fill-opacity="1" d="M 119 24.199219 L 126.300781 24.199219 L 126.300781 17.082031 L 119 17.082031 Z M 119 24.199219 "/>
<path fill-rule="evenodd" fill="rgb(97.253418%, 98.03772%, 99.606323%)" fill-opacity="1" d="M 126.25 24.199219 L 133.550781 24.199219 L 133.550781 17.082031 L 126.25 17.082031 Z M 126.25 24.199219 "/>
<path fill-rule="evenodd" fill="rgb(94.900513%, 96.469116%, 99.606323%)" fill-opacity="1" d="M 133.5 24.199219 L 140.800781 24.199219 L 140.800781 17.082031 L 133.5 17.082031 Z M 133.5 24.199219 "/>
<path fill-rule="evenodd" fill="rgb(95.292664%, 96.469116%, 99.606323%)" fill-opacity="1" d="M 140.75 24.199219 L 148.050781 24.199219 L 148.050781 17.082031 L 140.75 17.082031 Z M 140.75 24.199219 "/>
<path fill-rule="evenodd" fill="rgb(94.900513%, 96.469116%, 99.606323%)" fill-opacity="1" d="M 148 24.199219 L 155.300781 24.199219 L 155.300781 17.082031 L 148 17.082031 Z M 148 24.199219 "/>
<path fill-rule="evenodd" fill="rgb(94.116211%, 95.684814%, 99.606323%)" fill-opacity="1" d="M 155.25 24.199219 L 162.550781 24.199219 L 162.550781 17.082031 L 155.25 17.082031 Z M 155.25 24.199219 "/>
<path fill-rule="evenodd" fill="rgb(92.547607%, 94.900513%, 99.215698%)" fill-opacity="1" d="M 162.5 24.199219 L 169.800781 24.199219 L 169.800781 17.082031 L 162.5 17.082031 Z M 162.5 24.199219 "/>
<path fill-rule="evenodd" fill="rgb(93.72406%, 95.684814%, 99.606323%)" fill-opacity="1" d="M 169.75 24.199219 L 177.050781 24.199219 L 177.050781 17.082031 L 169.75 17.082031 Z M 169.75 24.199219 "/>
<path fill-rule="evenodd" fill="rgb(99.606323%, 98.03772%, 98.03772%)" fill-opacity="1" d="M 3 31.265625 L 10.300781 31.265625 L 10.300781 24.148438 L 3 24.148438 Z M 3 31.265625 "/>
<path fill-rule="evenodd" fill="rgb(97.253418%, 98.03772%, 99.606323%)" fill-opacity="1" d="M 10.25 31.265625 L 17.550781 31.265625 L 17.550781 24.148438 L 10.25 24.148438 Z M 10.25 31.265625 "/>
<path fill-rule="evenodd" fill="rgb(95.684814%, 96.861267%, 99.606323%)" fill-opacity="1" d="M 17.5 31.265625 L 24.800781 31.265625 L 24.800781 24.148438 L 17.5 24.148438 Z M 17.5 31.265625 "/>
<path fill-rule="evenodd" fill="rgb(99.215698%, 94.508362%, 94.508362%)" fill-opacity="1" d="M 24.75 31.265625 L 32.050781 31.265625 L 32.050781 24.148438 L 24.75 24.148438 Z M 24.75 31.265625 "/>
<path fill-rule="evenodd" fill="rgb(95.684814%, 96.861267%, 99.606323%)" fill-opacity="1" d="M 32 31.265625 L 39.300781 31.265625 L 39.300781 24.148438 L 32 24.148438 Z M 32 31.265625 "/>
<path fill-rule="evenodd" fill="rgb(94.900513%, 96.469116%, 99.606323%)" fill-opacity="1" d="M 39.25 31.265625 L 46.550781 31.265625 L 46.550781 24.148438 L 39.25 24.148438 Z M 39.25 31.265625 "/>
<path fill-rule="evenodd" fill="rgb(97.253418%, 98.03772%, 99.606323%)" fill-opacity="1" d="M 46.5 31.265625 L 53.800781 31.265625 L 53.800781 24.148438 L 46.5 24.148438 Z M 46.5 31.265625 "/>
<path fill-rule="evenodd" fill="rgb(99.606323%, 96.469116%, 96.469116%)" fill-opacity="1" d="M 53.75 31.265625 L 61.050781 31.265625 L 61.050781 24.148438 L 53.75 24.148438 Z M 53.75 31.265625 "/>
<path fill-rule="evenodd" fill="rgb(99.606323%, 98.03772%, 98.03772%)" fill-opacity="1" d="M 61 31.265625 L 68.300781 31.265625 L 68.300781 24.148438 L 61 24.148438 Z M 61 31.265625 "/>
<path fill-rule="evenodd" fill="rgb(97.647095%, 98.431396%, 99.606323%)" fill-opacity="1" d="M 68.25 31.265625 L 75.550781 31.265625 L 75.550781 24.148438 L 68.25 24.148438 Z M 68.25 31.265625 "/>
<path fill-rule="evenodd" fill="rgb(98.431396%, 98.822021%, 100%)" fill-opacity="1" d="M 75.5 31.265625 L 82.800781 31.265625 L 82.800781 24.148438 L 75.5 24.148438 Z M 75.5 31.265625 "/>
<path fill-rule="evenodd" fill="rgb(99.606323%, 96.469116%, 96.469116%)" fill-opacity="1" d="M 82.75 31.265625 L 90.050781 31.265625 L 90.050781 24.148438 L 82.75 24.148438 Z M 82.75 31.265625 "/>
<path fill-rule="evenodd" fill="rgb(99.215698%, 95.292664%, 95.292664%)" fill-opacity="1" d="M 90 31.265625 L 97.300781 31.265625 L 97.300781 24.148438 L 90 24.148438 Z M 90 31.265625 "/>
<path fill-rule="evenodd" fill="rgb(99.215698%, 94.508362%, 94.508362%)" fill-opacity="1" d="M 97.25 31.265625 L 104.550781 31.265625 L 104.550781 24.148438 L 97.25 24.148438 Z M 97.25 31.265625 "/>
<path fill-rule="evenodd" fill="rgb(99.215698%, 94.508362%, 94.508362%)" fill-opacity="1" d="M 104.5 31.265625 L 111.800781 31.265625 L 111.800781 24.148438 L 104.5 24.148438 Z M 104.5 31.265625 "/>
<path fill-rule="evenodd" fill="rgb(98.822021%, 92.547607%, 92.547607%)" fill-opacity="1" d="M 111.75 31.265625 L 119.050781 31.265625 L 119.050781 24.148438 L 111.75 24.148438 Z M 111.75 31.265625 "/>
<path fill-rule="evenodd" fill="rgb(99.215698%, 96.076965%, 96.076965%)" fill-opacity="1" d="M 119 31.265625 L 126.300781 31.265625 L 126.300781 24.148438 L 119 24.148438 Z M 119 31.265625 "/>
<path fill-rule="evenodd" fill="rgb(99.606323%, 97.253418%, 97.253418%)" fill-opacity="1" d="M 126.25 31.265625 L 133.550781 31.265625 L 133.550781 24.148438 L 126.25 24.148438 Z M 126.25 31.265625 "/>
<path fill-rule="evenodd" fill="rgb(100%, 100%, 100%)" fill-opacity="1" d="M 133.5 31.265625 L 140.800781 31.265625 L 140.800781 24.148438 L 133.5 24.148438 Z M 133.5 31.265625 "/>
<path fill-rule="evenodd" fill="rgb(99.606323%, 99.606323%, 100%)" fill-opacity="1" d="M 140.75 31.265625 L 148.050781 31.265625 L 148.050781 24.148438 L 140.75 24.148438 Z M 140.75 31.265625 "/>
<path fill-rule="evenodd" fill="rgb(98.822021%, 99.215698%, 100%)" fill-opacity="1" d="M 148 31.265625 L 155.300781 31.265625 L 155.300781 24.148438 L 148 24.148438 Z M 148 31.265625 "/>
<path fill-rule="evenodd" fill="rgb(100%, 99.606323%, 99.606323%)" fill-opacity="1" d="M 155.25 31.265625 L 162.550781 31.265625 L 162.550781 24.148438 L 155.25 24.148438 Z M 155.25 31.265625 "/>
<path fill-rule="evenodd" fill="rgb(99.606323%, 98.822021%, 98.822021%)" fill-opacity="1" d="M 162.5 31.265625 L 169.800781 31.265625 L 169.800781 24.148438 L 162.5 24.148438 Z M 162.5 31.265625 "/>
<path fill-rule="evenodd" fill="rgb(99.606323%, 97.647095%, 97.647095%)" fill-opacity="1" d="M 169.75 31.265625 L 177.050781 31.265625 L 177.050781 24.148438 L 169.75 24.148438 Z M 169.75 31.265625 "/>
<path fill-rule="evenodd" fill="rgb(93.72406%, 60.783386%, 60.783386%)" fill-opacity="1" d="M 3 38.332031 L 10.300781 38.332031 L 10.300781 31.214844 L 3 31.214844 Z M 3 38.332031 "/>
<path fill-rule="evenodd" fill="rgb(94.116211%, 63.920593%, 63.920593%)" fill-opacity="1" d="M 10.25 38.332031 L 17.550781 38.332031 L 17.550781 31.214844 L 10.25 31.214844 Z M 10.25 38.332031 "/>
<path fill-rule="evenodd" fill="rgb(94.116211%, 64.312744%, 64.312744%)" fill-opacity="1" d="M 17.5 38.332031 L 24.800781 38.332031 L 24.800781 31.214844 L 17.5 31.214844 Z M 17.5 38.332031 "/>
<path fill-rule="evenodd" fill="rgb(92.939758%, 56.469727%, 56.469727%)" fill-opacity="1" d="M 24.75 38.332031 L 32.050781 38.332031 L 32.050781 31.214844 L 24.75 31.214844 Z M 24.75 38.332031 "/>
<path fill-rule="evenodd" fill="rgb(94.116211%, 63.528442%, 63.528442%)" fill-opacity="1" d="M 32 38.332031 L 39.300781 38.332031 L 39.300781 31.214844 L 32 31.214844 Z M 32 38.332031 "/>
<path fill-rule="evenodd" fill="rgb(93.331909%, 59.606934%, 59.606934%)" fill-opacity="1" d="M 39.25 38.332031 L 46.550781 38.332031 L 46.550781 31.214844 L 39.25 31.214844 Z M 39.25 38.332031 "/>
<path fill-rule="evenodd" fill="rgb(92.547607%, 53.33252%, 53.33252%)" fill-opacity="1" d="M 46.5 38.332031 L 53.800781 38.332031 L 53.800781 31.214844 L 46.5 31.214844 Z M 46.5 38.332031 "/>
<path fill-rule="evenodd" fill="rgb(92.547607%, 52.940369%, 52.940369%)" fill-opacity="1" d="M 53.75 38.332031 L 61.050781 38.332031 L 61.050781 31.214844 L 53.75 31.214844 Z M 53.75 38.332031 "/>
<path fill-rule="evenodd" fill="rgb(93.331909%, 59.606934%, 59.606934%)" fill-opacity="1" d="M 61 38.332031 L 68.300781 38.332031 L 68.300781 31.214844 L 61 31.214844 Z M 61 38.332031 "/>
<path fill-rule="evenodd" fill="rgb(94.116211%, 64.312744%, 64.312744%)" fill-opacity="1" d="M 68.25 38.332031 L 75.550781 38.332031 L 75.550781 31.214844 L 68.25 31.214844 Z M 68.25 38.332031 "/>
<path fill-rule="evenodd" fill="rgb(94.900513%, 68.626404%, 68.626404%)" fill-opacity="1" d="M 75.5 38.332031 L 82.800781 38.332031 L 82.800781 31.214844 L 75.5 31.214844 Z M 75.5 38.332031 "/>
<path fill-rule="evenodd" fill="rgb(94.508362%, 67.0578%, 67.0578%)" fill-opacity="1" d="M 82.75 38.332031 L 90.050781 38.332031 L 90.050781 31.214844 L 82.75 31.214844 Z M 82.75 38.332031 "/>
<path fill-rule="evenodd" fill="rgb(94.116211%, 62.744141%, 62.744141%)" fill-opacity="1" d="M 90 38.332031 L 97.300781 38.332031 L 97.300781 31.214844 L 90 31.214844 Z M 90 38.332031 "/>
<path fill-rule="evenodd" fill="rgb(93.331909%, 59.214783%, 59.214783%)" fill-opacity="1" d="M 97.25 38.332031 L 104.550781 38.332031 L 104.550781 31.214844 L 97.25 31.214844 Z M 97.25 38.332031 "/>
<path fill-rule="evenodd" fill="rgb(94.116211%, 63.528442%, 63.528442%)" fill-opacity="1" d="M 104.5 38.332031 L 111.800781 38.332031 L 111.800781 31.214844 L 104.5 31.214844 Z M 104.5 38.332031 "/>
<path fill-rule="evenodd" fill="rgb(92.939758%, 57.254028%, 57.254028%)" fill-opacity="1" d="M 111.75 38.332031 L 119.050781 38.332031 L 119.050781 31.214844 L 111.75 31.214844 Z M 111.75 38.332031 "/>
<path fill-rule="evenodd" fill="rgb(94.116211%, 62.744141%, 62.744141%)" fill-opacity="1" d="M 119 38.332031 L 126.300781 38.332031 L 126.300781 31.214844 L 119 31.214844 Z M 119 38.332031 "/>
<path fill-rule="evenodd" fill="rgb(94.508362%, 67.0578%, 67.0578%)" fill-opacity="1" d="M 126.25 38.332031 L 133.550781 38.332031 L 133.550781 31.214844 L 126.25 31.214844 Z M 126.25 38.332031 "/>
<path fill-rule="evenodd" fill="rgb(94.508362%, 65.489197%, 65.489197%)" fill-opacity="1" d="M 133.5 38.332031 L 140.800781 38.332031 L 140.800781 31.214844 L 133.5 31.214844 Z M 133.5 38.332031 "/>
<path fill-rule="evenodd" fill="rgb(94.508362%, 65.489197%, 65.489197%)" fill-opacity="1" d="M 140.75 38.332031 L 148.050781 38.332031 L 148.050781 31.214844 L 140.75 31.214844 Z M 140.75 38.332031 "/>
<path fill-rule="evenodd" fill="rgb(93.72406%, 61.175537%, 61.175537%)" fill-opacity="1" d="M 148 38.332031 L 155.300781 38.332031 L 155.300781 31.214844 L 148 31.214844 Z M 148 38.332031 "/>
<path fill-rule="evenodd" fill="rgb(93.72406%, 60.783386%, 60.783386%)" fill-opacity="1" d="M 155.25 38.332031 L 162.550781 38.332031 L 162.550781 31.214844 L 155.25 31.214844 Z M 155.25 38.332031 "/>
<path fill-rule="evenodd" fill="rgb(93.331909%, 58.430481%, 58.430481%)" fill-opacity="1" d="M 162.5 38.332031 L 169.800781 38.332031 L 169.800781 31.214844 L 162.5 31.214844 Z M 162.5 38.332031 "/>
<path fill-rule="evenodd" fill="rgb(92.547607%, 54.901123%, 54.901123%)" fill-opacity="1" d="M 169.75 38.332031 L 177.050781 38.332031 L 177.050781 31.214844 L 169.75 31.214844 Z M 169.75 38.332031 "/>
<path fill-rule="evenodd" fill="rgb(76.861572%, 83.528137%, 98.03772%)" fill-opacity="1" d="M 3 45.398438 L 10.300781 45.398438 L 10.300781 38.285156 L 3 38.285156 Z M 3 45.398438 "/>
<path fill-rule="evenodd" fill="rgb(81.175232%, 86.665344%, 98.431396%)" fill-opacity="1" d="M 10.25 45.398438 L 17.550781 45.398438 L 17.550781 38.285156 L 10.25 38.285156 Z M 10.25 45.398438 "/>
<path fill-rule="evenodd" fill="rgb(81.959534%, 87.057495%, 98.431396%)" fill-opacity="1" d="M 17.5 45.398438 L 24.800781 45.398438 L 24.800781 38.285156 L 17.5 38.285156 Z M 17.5 45.398438 "/>
<path fill-rule="evenodd" fill="rgb(72.155762%, 79.998779%, 97.253418%)" fill-opacity="1" d="M 24.75 45.398438 L 32.050781 45.398438 L 32.050781 38.285156 L 24.75 38.285156 Z M 24.75 45.398438 "/>
<path fill-rule="evenodd" fill="rgb(81.567383%, 86.665344%, 98.431396%)" fill-opacity="1" d="M 32 45.398438 L 39.300781 45.398438 L 39.300781 38.285156 L 32 38.285156 Z M 32 45.398438 "/>
<path fill-rule="evenodd" fill="rgb(79.998779%, 85.488892%, 98.03772%)" fill-opacity="1" d="M 39.25 45.398438 L 46.550781 45.398438 L 46.550781 38.285156 L 39.25 38.285156 Z M 39.25 45.398438 "/>
<path fill-rule="evenodd" fill="rgb(76.077271%, 82.743835%, 97.647095%)" fill-opacity="1" d="M 46.5 45.398438 L 53.800781 45.398438 L 53.800781 38.285156 L 46.5 38.285156 Z M 46.5 45.398438 "/>
<path fill-rule="evenodd" fill="rgb(72.547913%, 80.39093%, 97.647095%)" fill-opacity="1" d="M 53.75 45.398438 L 61.050781 45.398438 L 61.050781 38.285156 L 53.75 38.285156 Z M 53.75 45.398438 "/>
<path fill-rule="evenodd" fill="rgb(78.822327%, 84.70459%, 98.03772%)" fill-opacity="1" d="M 61 45.398438 L 68.300781 45.398438 L 68.300781 38.285156 L 61 38.285156 Z M 61 45.398438 "/>
<path fill-rule="evenodd" fill="rgb(83.920288%, 88.233948%, 98.431396%)" fill-opacity="1" d="M 68.25 45.398438 L 75.550781 45.398438 L 75.550781 38.285156 L 68.25 38.285156 Z M 68.25 45.398438 "/>
<path fill-rule="evenodd" fill="rgb(84.70459%, 89.01825%, 98.431396%)" fill-opacity="1" d="M 75.5 45.398438 L 82.800781 45.398438 L 82.800781 38.285156 L 75.5 38.285156 Z M 75.5 45.398438 "/>
<path fill-rule="evenodd" fill="rgb(79.998779%, 85.881042%, 98.03772%)" fill-opacity="1" d="M 82.75 45.398438 L 90.050781 45.398438 L 90.050781 38.285156 L 82.75 38.285156 Z M 82.75 45.398438 "/>
<path fill-rule="evenodd" fill="rgb(77.253723%, 83.920288%, 98.03772%)" fill-opacity="1" d="M 90 45.398438 L 97.300781 45.398438 L 97.300781 38.285156 L 90 38.285156 Z M 90 45.398438 "/>
<path fill-rule="evenodd" fill="rgb(75.292969%, 82.351685%, 97.647095%)" fill-opacity="1" d="M 97.25 45.398438 L 104.550781 45.398438 L 104.550781 38.285156 L 97.25 38.285156 Z M 97.25 45.398438 "/>
<path fill-rule="evenodd" fill="rgb(77.645874%, 83.920288%, 98.03772%)" fill-opacity="1" d="M 104.5 45.398438 L 111.800781 45.398438 L 111.800781 38.285156 L 104.5 38.285156 Z M 104.5 45.398438 "/>
<path fill-rule="evenodd" fill="rgb(72.940063%, 80.783081%, 97.647095%)" fill-opacity="1" d="M 111.75 45.398438 L 119.050781 45.398438 L 119.050781 38.285156 L 111.75 38.285156 Z M 111.75 45.398438 "/>
<path fill-rule="evenodd" fill="rgb(78.430176%, 84.70459%, 98.03772%)" fill-opacity="1" d="M 119 45.398438 L 126.300781 45.398438 L 126.300781 38.285156 L 119 38.285156 Z M 119 45.398438 "/>
<path fill-rule="evenodd" fill="rgb(81.175232%, 86.273193%, 98.431396%)" fill-opacity="1" d="M 126.25 45.398438 L 133.550781 45.398438 L 133.550781 38.285156 L 126.25 38.285156 Z M 126.25 45.398438 "/>
<path fill-rule="evenodd" fill="rgb(82.351685%, 87.449646%, 98.431396%)" fill-opacity="1" d="M 133.5 45.398438 L 140.800781 45.398438 L 140.800781 38.285156 L 133.5 38.285156 Z M 133.5 45.398438 "/>
<path fill-rule="evenodd" fill="rgb(82.351685%, 87.449646%, 98.431396%)" fill-opacity="1" d="M 140.75 45.398438 L 148.050781 45.398438 L 148.050781 38.285156 L 140.75 38.285156 Z M 140.75 45.398438 "/>
<path fill-rule="evenodd" fill="rgb(81.175232%, 86.665344%, 98.431396%)" fill-opacity="1" d="M 148 45.398438 L 155.300781 45.398438 L 155.300781 38.285156 L 148 38.285156 Z M 148 45.398438 "/>
<path fill-rule="evenodd" fill="rgb(79.606628%, 85.096741%, 98.03772%)" fill-opacity="1" d="M 155.25 45.398438 L 162.550781 45.398438 L 162.550781 38.285156 L 155.25 38.285156 Z M 155.25 45.398438 "/>
<path fill-rule="evenodd" fill="rgb(77.645874%, 83.920288%, 98.03772%)" fill-opacity="1" d="M 162.5 45.398438 L 169.800781 45.398438 L 169.800781 38.285156 L 162.5 38.285156 Z M 162.5 45.398438 "/>
<path fill-rule="evenodd" fill="rgb(74.900818%, 81.959534%, 97.647095%)" fill-opacity="1" d="M 169.75 45.398438 L 177.050781 45.398438 L 177.050781 38.285156 L 169.75 38.285156 Z M 169.75 45.398438 "/>
<path fill-rule="evenodd" fill="rgb(73.332214%, 80.783081%, 97.647095%)" fill-opacity="1" d="M 3 52.464844 L 10.300781 52.464844 L 10.300781 45.351562 L 3 45.351562 Z M 3 52.464844 "/>
<path fill-rule="evenodd" fill="rgb(73.332214%, 80.783081%, 97.647095%)" fill-opacity="1" d="M 10.25 52.464844 L 17.550781 52.464844 L 17.550781 45.351562 L 10.25 45.351562 Z M 10.25 52.464844 "/>
<path fill-rule="evenodd" fill="rgb(73.332214%, 81.175232%, 97.647095%)" fill-opacity="1" d="M 17.5 52.464844 L 24.800781 52.464844 L 24.800781 45.351562 L 17.5 45.351562 Z M 17.5 52.464844 "/>
<path fill-rule="evenodd" fill="rgb(76.861572%, 83.528137%, 98.03772%)" fill-opacity="1" d="M 24.75 52.464844 L 32.050781 52.464844 L 32.050781 45.351562 L 24.75 45.351562 Z M 24.75 52.464844 "/>
<path fill-rule="evenodd" fill="rgb(76.077271%, 82.743835%, 97.647095%)" fill-opacity="1" d="M 32 52.464844 L 39.300781 52.464844 L 39.300781 45.351562 L 32 45.351562 Z M 32 52.464844 "/>
<path fill-rule="evenodd" fill="rgb(72.155762%, 79.998779%, 97.253418%)" fill-opacity="1" d="M 39.25 52.464844 L 46.550781 52.464844 L 46.550781 45.351562 L 39.25 45.351562 Z M 39.25 52.464844 "/>
<path fill-rule="evenodd" fill="rgb(69.018555%, 77.645874%, 97.253418%)" fill-opacity="1" d="M 46.5 52.464844 L 53.800781 52.464844 L 53.800781 45.351562 L 46.5 45.351562 Z M 46.5 52.464844 "/>
<path fill-rule="evenodd" fill="rgb(69.018555%, 77.645874%, 97.253418%)" fill-opacity="1" d="M 53.75 52.464844 L 61.050781 52.464844 L 61.050781 45.351562 L 53.75 45.351562 Z M 53.75 52.464844 "/>
<path fill-rule="evenodd" fill="rgb(67.842102%, 77.253723%, 97.253418%)" fill-opacity="1" d="M 61 52.464844 L 68.300781 52.464844 L 68.300781 45.351562 L 61 45.351562 Z M 61 52.464844 "/>
<path fill-rule="evenodd" fill="rgb(69.018555%, 78.038025%, 97.253418%)" fill-opacity="1" d="M 68.25 52.464844 L 75.550781 52.464844 L 75.550781 45.351562 L 68.25 45.351562 Z M 68.25 52.464844 "/>
<path fill-rule="evenodd" fill="rgb(75.68512%, 82.743835%, 97.647095%)" fill-opacity="1" d="M 75.5 52.464844 L 82.800781 52.464844 L 82.800781 45.351562 L 75.5 45.351562 Z M 75.5 52.464844 "/>
<path fill-rule="evenodd" fill="rgb(80.39093%, 85.881042%, 98.03772%)" fill-opacity="1" d="M 82.75 52.464844 L 90.050781 52.464844 L 90.050781 45.351562 L 82.75 45.351562 Z M 82.75 52.464844 "/>
<path fill-rule="evenodd" fill="rgb(77.645874%, 83.920288%, 98.03772%)" fill-opacity="1" d="M 90 52.464844 L 97.300781 52.464844 L 97.300781 45.351562 L 90 45.351562 Z M 90 52.464844 "/>
<path fill-rule="evenodd" fill="rgb(76.077271%, 82.743835%, 97.647095%)" fill-opacity="1" d="M 97.25 52.464844 L 104.550781 52.464844 L 104.550781 45.351562 L 97.25 45.351562 Z M 97.25 52.464844 "/>
<path fill-rule="evenodd" fill="rgb(79.214478%, 85.096741%, 98.03772%)" fill-opacity="1" d="M 104.5 52.464844 L 111.800781 52.464844 L 111.800781 45.351562 L 104.5 45.351562 Z M 104.5 52.464844 "/>
<path fill-rule="evenodd" fill="rgb(76.077271%, 82.743835%, 97.647095%)" fill-opacity="1" d="M 111.75 52.464844 L 119.050781 52.464844 L 119.050781 45.351562 L 111.75 45.351562 Z M 111.75 52.464844 "/>
<path fill-rule="evenodd" fill="rgb(76.861572%, 83.528137%, 98.03772%)" fill-opacity="1" d="M 119 52.464844 L 126.300781 52.464844 L 126.300781 45.351562 L 119 45.351562 Z M 119 52.464844 "/>
<path fill-rule="evenodd" fill="rgb(81.567383%, 86.665344%, 98.431396%)" fill-opacity="1" d="M 126.25 52.464844 L 133.550781 52.464844 L 133.550781 45.351562 L 126.25 45.351562 Z M 126.25 52.464844 "/>
<path fill-rule="evenodd" fill="rgb(79.214478%, 85.096741%, 98.03772%)" fill-opacity="1" d="M 133.5 52.464844 L 140.800781 52.464844 L 140.800781 45.351562 L 133.5 45.351562 Z M 133.5 52.464844 "/>
<path fill-rule="evenodd" fill="rgb(76.469421%, 83.135986%, 97.647095%)" fill-opacity="1" d="M 140.75 52.464844 L 148.050781 52.464844 L 148.050781 45.351562 L 140.75 45.351562 Z M 140.75 52.464844 "/>
<path fill-rule="evenodd" fill="rgb(70.587158%, 78.822327%, 97.253418%)" fill-opacity="1" d="M 148 52.464844 L 155.300781 52.464844 L 155.300781 45.351562 L 148 45.351562 Z M 148 52.464844 "/>
<path fill-rule="evenodd" fill="rgb(70.587158%, 78.822327%, 97.253418%)" fill-opacity="1" d="M 155.25 52.464844 L 162.550781 52.464844 L 162.550781 45.351562 L 155.25 45.351562 Z M 155.25 52.464844 "/>
<path fill-rule="evenodd" fill="rgb(69.410706%, 78.038025%, 97.253418%)" fill-opacity="1" d="M 162.5 52.464844 L 169.800781 52.464844 L 169.800781 45.351562 L 162.5 45.351562 Z M 162.5 52.464844 "/>
<path fill-rule="evenodd" fill="rgb(69.018555%, 77.645874%, 97.253418%)" fill-opacity="1" d="M 169.75 52.464844 L 177.050781 52.464844 L 177.050781 45.351562 L 169.75 45.351562 Z M 169.75 52.464844 "/>
<path fill-rule="evenodd" fill="rgb(91.763306%, 48.234558%, 48.234558%)" fill-opacity="1" d="M 3 59.535156 L 10.300781 59.535156 L 10.300781 52.417969 L 3 52.417969 Z M 3 59.535156 "/>
<path fill-rule="evenodd" fill="rgb(90.979004%, 44.7052%, 44.7052%)" fill-opacity="1" d="M 10.25 59.535156 L 17.550781 59.535156 L 17.550781 52.417969 L 10.25 52.417969 Z M 10.25 59.535156 "/>
<path fill-rule="evenodd" fill="rgb(89.802551%, 36.862183%, 36.862183%)" fill-opacity="1" d="M 17.5 59.535156 L 24.800781 59.535156 L 24.800781 52.417969 L 17.5 52.417969 Z M 17.5 59.535156 "/>
<path fill-rule="evenodd" fill="rgb(89.802551%, 36.862183%, 36.862183%)" fill-opacity="1" d="M 24.75 59.535156 L 32.050781 59.535156 L 32.050781 52.417969 L 24.75 52.417969 Z M 24.75 59.535156 "/>
<path fill-rule="evenodd" fill="rgb(89.01825%, 31.37207%, 31.37207%)" fill-opacity="1" d="M 32 59.535156 L 39.300781 59.535156 L 39.300781 52.417969 L 32 52.417969 Z M 32 59.535156 "/>
<path fill-rule="evenodd" fill="rgb(88.626099%, 28.627014%, 28.627014%)" fill-opacity="1" d="M 39.25 59.535156 L 46.550781 59.535156 L 46.550781 52.417969 L 39.25 52.417969 Z M 39.25 59.535156 "/>
<path fill-rule="evenodd" fill="rgb(88.626099%, 30.587769%, 30.587769%)" fill-opacity="1" d="M 46.5 59.535156 L 53.800781 59.535156 L 53.800781 52.417969 L 46.5 52.417969 Z M 46.5 59.535156 "/>
<path fill-rule="evenodd" fill="rgb(91.371155%, 45.881653%, 45.881653%)" fill-opacity="1" d="M 53.75 59.535156 L 61.050781 59.535156 L 61.050781 52.417969 L 53.75 52.417969 Z M 53.75 59.535156 "/>
<path fill-rule="evenodd" fill="rgb(95.292664%, 72.155762%, 72.155762%)" fill-opacity="1" d="M 61 59.535156 L 68.300781 59.535156 L 68.300781 52.417969 L 61 52.417969 Z M 61 59.535156 "/>
<path fill-rule="evenodd" fill="rgb(95.684814%, 72.940063%, 72.940063%)" fill-opacity="1" d="M 68.25 59.535156 L 75.550781 59.535156 L 75.550781 52.417969 L 68.25 52.417969 Z M 68.25 59.535156 "/>
<path fill-rule="evenodd" fill="rgb(94.508362%, 67.0578%, 67.0578%)" fill-opacity="1" d="M 75.5 59.535156 L 82.800781 59.535156 L 82.800781 52.417969 L 75.5 52.417969 Z M 75.5 59.535156 "/>
<path fill-rule="evenodd" fill="rgb(93.72406%, 61.567688%, 61.567688%)" fill-opacity="1" d="M 82.75 59.535156 L 90.050781 59.535156 L 90.050781 52.417969 L 82.75 52.417969 Z M 82.75 59.535156 "/>
<path fill-rule="evenodd" fill="rgb(93.72406%, 61.175537%, 61.175537%)" fill-opacity="1" d="M 90 59.535156 L 97.300781 59.535156 L 97.300781 52.417969 L 90 52.417969 Z M 90 59.535156 "/>
<path fill-rule="evenodd" fill="rgb(93.331909%, 58.430481%, 58.430481%)" fill-opacity="1" d="M 97.25 59.535156 L 104.550781 59.535156 L 104.550781 52.417969 L 97.25 52.417969 Z M 97.25 59.535156 "/>
<path fill-rule="evenodd" fill="rgb(94.116211%, 63.528442%, 63.528442%)" fill-opacity="1" d="M 104.5 59.535156 L 111.800781 59.535156 L 111.800781 52.417969 L 104.5 52.417969 Z M 104.5 59.535156 "/>
<path fill-rule="evenodd" fill="rgb(93.331909%, 58.822632%, 58.822632%)" fill-opacity="1" d="M 111.75 59.535156 L 119.050781 59.535156 L 119.050781 52.417969 L 111.75 52.417969 Z M 111.75 59.535156 "/>
<path fill-rule="evenodd" fill="rgb(94.116211%, 63.528442%, 63.528442%)" fill-opacity="1" d="M 119 59.535156 L 126.300781 59.535156 L 126.300781 52.417969 L 119 52.417969 Z M 119 59.535156 "/>
<path fill-rule="evenodd" fill="rgb(93.72406%, 61.959839%, 61.959839%)" fill-opacity="1" d="M 126.25 59.535156 L 133.550781 59.535156 L 133.550781 52.417969 L 126.25 52.417969 Z M 126.25 59.535156 "/>
<path fill-rule="evenodd" fill="rgb(93.331909%, 59.214783%, 59.214783%)" fill-opacity="1" d="M 133.5 59.535156 L 140.800781 59.535156 L 140.800781 52.417969 L 133.5 52.417969 Z M 133.5 59.535156 "/>
<path fill-rule="evenodd" fill="rgb(94.116211%, 63.528442%, 63.528442%)" fill-opacity="1" d="M 140.75 59.535156 L 148.050781 59.535156 L 148.050781 52.417969 L 140.75 52.417969 Z M 140.75 59.535156 "/>
<path fill-rule="evenodd" fill="rgb(94.116211%, 63.920593%, 63.920593%)" fill-opacity="1" d="M 148 59.535156 L 155.300781 59.535156 L 155.300781 52.417969 L 148 52.417969 Z M 148 59.535156 "/>
<path fill-rule="evenodd" fill="rgb(93.72406%, 62.35199%, 62.35199%)" fill-opacity="1" d="M 155.25 59.535156 L 162.550781 59.535156 L 162.550781 52.417969 L 155.25 52.417969 Z M 155.25 59.535156 "/>
<path fill-rule="evenodd" fill="rgb(93.331909%, 58.03833%, 58.03833%)" fill-opacity="1" d="M 162.5 59.535156 L 169.800781 59.535156 L 169.800781 52.417969 L 162.5 52.417969 Z M 162.5 59.535156 "/>
<path fill-rule="evenodd" fill="rgb(92.547607%, 53.33252%, 53.33252%)" fill-opacity="1" d="M 169.75 59.535156 L 177.050781 59.535156 L 177.050781 52.417969 L 169.75 52.417969 Z M 169.75 59.535156 "/>
<path fill-rule="evenodd" fill="rgb(82.351685%, 87.449646%, 98.431396%)" fill-opacity="1" d="M 3 66.601562 L 10.300781 66.601562 L 10.300781 59.484375 L 3 59.484375 Z M 3 66.601562 "/>
<path fill-rule="evenodd" fill="rgb(77.253723%, 83.528137%, 98.03772%)" fill-opacity="1" d="M 10.25 66.601562 L 17.550781 66.601562 L 17.550781 59.484375 L 10.25 59.484375 Z M 10.25 66.601562 "/>
<path fill-rule="evenodd" fill="rgb(70.195007%, 78.430176%, 97.253418%)" fill-opacity="1" d="M 17.5 66.601562 L 24.800781 66.601562 L 24.800781 59.484375 L 17.5 59.484375 Z M 17.5 66.601562 "/>
<path fill-rule="evenodd" fill="rgb(78.430176%, 84.70459%, 98.03772%)" fill-opacity="1" d="M 24.75 66.601562 L 32.050781 66.601562 L 32.050781 59.484375 L 24.75 59.484375 Z M 24.75 66.601562 "/>
<path fill-rule="evenodd" fill="rgb(67.0578%, 76.469421%, 96.861267%)" fill-opacity="1" d="M 32 66.601562 L 39.300781 66.601562 L 39.300781 59.484375 L 32 59.484375 Z M 32 66.601562 "/>
<path fill-rule="evenodd" fill="rgb(68.234253%, 77.253723%, 97.253418%)" fill-opacity="1" d="M 39.25 66.601562 L 46.550781 66.601562 L 46.550781 59.484375 L 39.25 59.484375 Z M 39.25 66.601562 "/>
<path fill-rule="evenodd" fill="rgb(76.861572%, 83.528137%, 98.03772%)" fill-opacity="1" d="M 46.5 66.601562 L 53.800781 66.601562 L 53.800781 59.484375 L 46.5 59.484375 Z M 46.5 66.601562 "/>
<path fill-rule="evenodd" fill="rgb(88.626099%, 91.763306%, 98.822021%)" fill-opacity="1" d="M 53.75 66.601562 L 61.050781 66.601562 L 61.050781 59.484375 L 53.75 59.484375 Z M 53.75 66.601562 "/>
<path fill-rule="evenodd" fill="rgb(99.215698%, 94.508362%, 94.508362%)" fill-opacity="1" d="M 61 66.601562 L 68.300781 66.601562 L 68.300781 59.484375 L 61 59.484375 Z M 61 66.601562 "/>
<path fill-rule="evenodd" fill="rgb(99.606323%, 96.861267%, 96.861267%)" fill-opacity="1" d="M 68.25 66.601562 L 75.550781 66.601562 L 75.550781 59.484375 L 68.25 59.484375 Z M 68.25 66.601562 "/>
<path fill-rule="evenodd" fill="rgb(94.900513%, 96.469116%, 99.606323%)" fill-opacity="1" d="M 75.5 66.601562 L 82.800781 66.601562 L 82.800781 59.484375 L 75.5 59.484375 Z M 75.5 66.601562 "/>
<path fill-rule="evenodd" fill="rgb(92.939758%, 94.900513%, 99.215698%)" fill-opacity="1" d="M 82.75 66.601562 L 90.050781 66.601562 L 90.050781 59.484375 L 82.75 59.484375 Z M 82.75 66.601562 "/>
<path fill-rule="evenodd" fill="rgb(96.076965%, 97.253418%, 99.606323%)" fill-opacity="1" d="M 90 66.601562 L 97.300781 66.601562 L 97.300781 59.484375 L 90 59.484375 Z M 90 66.601562 "/>
<path fill-rule="evenodd" fill="rgb(96.861267%, 98.03772%, 99.606323%)" fill-opacity="1" d="M 97.25 66.601562 L 104.550781 66.601562 L 104.550781 59.484375 L 97.25 59.484375 Z M 97.25 66.601562 "/>
<path fill-rule="evenodd" fill="rgb(98.822021%, 99.215698%, 100%)" fill-opacity="1" d="M 104.5 66.601562 L 111.800781 66.601562 L 111.800781 59.484375 L 104.5 59.484375 Z M 104.5 66.601562 "/>
<path fill-rule="evenodd" fill="rgb(99.606323%, 99.606323%, 100%)" fill-opacity="1" d="M 111.75 66.601562 L 119.050781 66.601562 L 119.050781 59.484375 L 111.75 59.484375 Z M 111.75 66.601562 "/>
<path fill-rule="evenodd" fill="rgb(98.822021%, 99.215698%, 100%)" fill-opacity="1" d="M 119 66.601562 L 126.300781 66.601562 L 126.300781 59.484375 L 119 59.484375 Z M 119 66.601562 "/>
<path fill-rule="evenodd" fill="rgb(95.684814%, 96.861267%, 99.606323%)" fill-opacity="1" d="M 126.25 66.601562 L 133.550781 66.601562 L 133.550781 59.484375 L 126.25 59.484375 Z M 126.25 66.601562 "/>
<path fill-rule="evenodd" fill="rgb(95.292664%, 96.469116%, 99.606323%)" fill-opacity="1" d="M 133.5 66.601562 L 140.800781 66.601562 L 140.800781 59.484375 L 133.5 59.484375 Z M 133.5 66.601562 "/>
<path fill-rule="evenodd" fill="rgb(97.253418%, 98.03772%, 99.606323%)" fill-opacity="1" d="M 140.75 66.601562 L 148.050781 66.601562 L 148.050781 59.484375 L 140.75 59.484375 Z M 140.75 66.601562 "/>
<path fill-rule="evenodd" fill="rgb(100%, 100%, 100%)" fill-opacity="1" d="M 148 66.601562 L 155.300781 66.601562 L 155.300781 59.484375 L 148 59.484375 Z M 148 66.601562 "/>
<path fill-rule="evenodd" fill="rgb(96.861267%, 97.647095%, 99.606323%)" fill-opacity="1" d="M 155.25 66.601562 L 162.550781 66.601562 L 162.550781 59.484375 L 155.25 59.484375 Z M 155.25 66.601562 "/>
<path fill-rule="evenodd" fill="rgb(94.116211%, 95.684814%, 99.606323%)" fill-opacity="1" d="M 162.5 66.601562 L 169.800781 66.601562 L 169.800781 59.484375 L 162.5 59.484375 Z M 162.5 66.601562 "/>
<path fill-rule="evenodd" fill="rgb(94.508362%, 96.076965%, 99.606323%)" fill-opacity="1" d="M 169.75 66.601562 L 177.050781 66.601562 L 177.050781 59.484375 L 169.75 59.484375 Z M 169.75 66.601562 "/>
<path fill-rule="evenodd" fill="rgb(99.606323%, 96.469116%, 96.469116%)" fill-opacity="1" d="M 3 73.667969 L 10.300781 73.667969 L 10.300781 66.550781 L 3 66.550781 Z M 3 73.667969 "/>
<path fill-rule="evenodd" fill="rgb(97.647095%, 86.273193%, 86.273193%)" fill-opacity="1" d="M 10.25 73.667969 L 17.550781 73.667969 L 17.550781 66.550781 L 10.25 66.550781 Z M 10.25 73.667969 "/>
<path fill-rule="evenodd" fill="rgb(96.076965%, 76.077271%, 76.077271%)" fill-opacity="1" d="M 17.5 73.667969 L 24.800781 73.667969 L 24.800781 66.550781 L 17.5 66.550781 Z M 17.5 73.667969 "/>
<path fill-rule="evenodd" fill="rgb(97.647095%, 85.488892%, 85.488892%)" fill-opacity="1" d="M 24.75 73.667969 L 32.050781 73.667969 L 32.050781 66.550781 L 24.75 66.550781 Z M 24.75 73.667969 "/>
<path fill-rule="evenodd" fill="rgb(94.900513%, 67.449951%, 67.449951%)" fill-opacity="1" d="M 32 73.667969 L 39.300781 73.667969 L 39.300781 66.550781 L 32 66.550781 Z M 32 73.667969 "/>
<path fill-rule="evenodd" fill="rgb(95.292664%, 70.195007%, 70.195007%)" fill-opacity="1" d="M 39.25 73.667969 L 46.550781 73.667969 L 46.550781 66.550781 L 39.25 66.550781 Z M 39.25 73.667969 "/>
<path fill-rule="evenodd" fill="rgb(96.861267%, 80.39093%, 80.39093%)" fill-opacity="1" d="M 46.5 73.667969 L 53.800781 73.667969 L 53.800781 66.550781 L 46.5 66.550781 Z M 46.5 73.667969 "/>
<path fill-rule="evenodd" fill="rgb(96.469116%, 97.647095%, 99.606323%)" fill-opacity="1" d="M 53.75 73.667969 L 61.050781 73.667969 L 61.050781 66.550781 L 53.75 66.550781 Z M 53.75 73.667969 "/>
<path fill-rule="evenodd" fill="rgb(72.155762%, 79.998779%, 97.253418%)" fill-opacity="1" d="M 61 73.667969 L 68.300781 73.667969 L 68.300781 66.550781 L 61 66.550781 Z M 61 73.667969 "/>
<path fill-rule="evenodd" fill="rgb(79.214478%, 85.096741%, 98.03772%)" fill-opacity="1" d="M 68.25 73.667969 L 75.550781 73.667969 L 75.550781 66.550781 L 68.25 66.550781 Z M 68.25 73.667969 "/>
<path fill-rule="evenodd" fill="rgb(94.116211%, 95.684814%, 99.606323%)" fill-opacity="1" d="M 75.5 73.667969 L 82.800781 73.667969 L 82.800781 66.550781 L 75.5 66.550781 Z M 75.5 73.667969 "/>
<path fill-rule="evenodd" fill="rgb(99.215698%, 99.215698%, 100%)" fill-opacity="1" d="M 82.75 73.667969 L 90.050781 73.667969 L 90.050781 66.550781 L 82.75 66.550781 Z M 82.75 73.667969 "/>
<path fill-rule="evenodd" fill="rgb(93.331909%, 95.292664%, 99.215698%)" fill-opacity="1" d="M 90 73.667969 L 97.300781 73.667969 L 97.300781 66.550781 L 90 66.550781 Z M 90 73.667969 "/>
<path fill-rule="evenodd" fill="rgb(92.547607%, 94.900513%, 99.215698%)" fill-opacity="1" d="M 97.25 73.667969 L 104.550781 73.667969 L 104.550781 66.550781 L 97.25 66.550781 Z M 97.25 73.667969 "/>
<path fill-rule="evenodd" fill="rgb(92.547607%, 94.900513%, 99.215698%)" fill-opacity="1" d="M 104.5 73.667969 L 111.800781 73.667969 L 111.800781 66.550781 L 104.5 66.550781 Z M 104.5 73.667969 "/>
<path fill-rule="evenodd" fill="rgb(89.01825%, 92.155457%, 98.822021%)" fill-opacity="1" d="M 111.75 73.667969 L 119.050781 73.667969 L 119.050781 66.550781 L 111.75 66.550781 Z M 111.75 73.667969 "/>
<path fill-rule="evenodd" fill="rgb(91.371155%, 93.72406%, 99.215698%)" fill-opacity="1" d="M 119 73.667969 L 126.300781 73.667969 L 126.300781 66.550781 L 119 66.550781 Z M 119 73.667969 "/>
<path fill-rule="evenodd" fill="rgb(99.606323%, 98.431396%, 98.431396%)" fill-opacity="1" d="M 126.25 73.667969 L 133.550781 73.667969 L 133.550781 66.550781 L 126.25 66.550781 Z M 126.25 73.667969 "/>
<path fill-rule="evenodd" fill="rgb(99.215698%, 96.076965%, 96.076965%)" fill-opacity="1" d="M 133.5 73.667969 L 140.800781 73.667969 L 140.800781 66.550781 L 133.5 66.550781 Z M 133.5 73.667969 "/>
<path fill-rule="evenodd" fill="rgb(96.469116%, 97.253418%, 99.606323%)" fill-opacity="1" d="M 140.75 73.667969 L 148.050781 73.667969 L 148.050781 66.550781 L 140.75 66.550781 Z M 140.75 73.667969 "/>
<path fill-rule="evenodd" fill="rgb(87.841797%, 91.371155%, 98.822021%)" fill-opacity="1" d="M 148 73.667969 L 155.300781 73.667969 L 155.300781 66.550781 L 148 66.550781 Z M 148 73.667969 "/>
<path fill-rule="evenodd" fill="rgb(87.449646%, 90.979004%, 98.822021%)" fill-opacity="1" d="M 155.25 73.667969 L 162.550781 73.667969 L 162.550781 66.550781 L 155.25 66.550781 Z M 155.25 73.667969 "/>
<path fill-rule="evenodd" fill="rgb(88.626099%, 91.763306%, 98.822021%)" fill-opacity="1" d="M 162.5 73.667969 L 169.800781 73.667969 L 169.800781 66.550781 L 162.5 66.550781 Z M 162.5 73.667969 "/>
<path fill-rule="evenodd" fill="rgb(90.194702%, 92.939758%, 99.215698%)" fill-opacity="1" d="M 169.75 73.667969 L 177.050781 73.667969 L 177.050781 66.550781 L 169.75 66.550781 Z M 169.75 73.667969 "/>
<path fill-rule="evenodd" fill="rgb(74.508667%, 81.959534%, 97.647095%)" fill-opacity="1" d="M 3 80.734375 L 10.300781 80.734375 L 10.300781 73.617188 L 3 73.617188 Z M 3 80.734375 "/>
<path fill-rule="evenodd" fill="rgb(76.469421%, 83.135986%, 97.647095%)" fill-opacity="1" d="M 10.25 80.734375 L 17.550781 80.734375 L 17.550781 73.617188 L 10.25 73.617188 Z M 10.25 80.734375 "/>
<path fill-rule="evenodd" fill="rgb(77.253723%, 83.528137%, 98.03772%)" fill-opacity="1" d="M 17.5 80.734375 L 24.800781 80.734375 L 24.800781 73.617188 L 17.5 73.617188 Z M 17.5 80.734375 "/>
<path fill-rule="evenodd" fill="rgb(76.077271%, 82.743835%, 97.647095%)" fill-opacity="1" d="M 24.75 80.734375 L 32.050781 80.734375 L 32.050781 73.617188 L 24.75 73.617188 Z M 24.75 80.734375 "/>
<path fill-rule="evenodd" fill="rgb(78.822327%, 85.096741%, 98.03772%)" fill-opacity="1" d="M 32 80.734375 L 39.300781 80.734375 L 39.300781 73.617188 L 32 73.617188 Z M 32 80.734375 "/>
<path fill-rule="evenodd" fill="rgb(75.68512%, 82.743835%, 97.647095%)" fill-opacity="1" d="M 39.25 80.734375 L 46.550781 80.734375 L 46.550781 73.617188 L 39.25 73.617188 Z M 39.25 80.734375 "/>
<path fill-rule="evenodd" fill="rgb(71.763611%, 79.606628%, 97.253418%)" fill-opacity="1" d="M 46.5 80.734375 L 53.800781 80.734375 L 53.800781 73.617188 L 46.5 73.617188 Z M 46.5 80.734375 "/>
<path fill-rule="evenodd" fill="rgb(69.802856%, 78.430176%, 97.253418%)" fill-opacity="1" d="M 53.75 80.734375 L 61.050781 80.734375 L 61.050781 73.617188 L 53.75 73.617188 Z M 53.75 80.734375 "/>
<path fill-rule="evenodd" fill="rgb(70.195007%, 78.822327%, 97.253418%)" fill-opacity="1" d="M 61 80.734375 L 68.300781 80.734375 L 68.300781 73.617188 L 61 73.617188 Z M 61 80.734375 "/>
<path fill-rule="evenodd" fill="rgb(72.547913%, 80.39093%, 97.647095%)" fill-opacity="1" d="M 68.25 80.734375 L 75.550781 80.734375 L 75.550781 73.617188 L 68.25 73.617188 Z M 68.25 80.734375 "/>
<path fill-rule="evenodd" fill="rgb(78.038025%, 84.312439%, 98.03772%)" fill-opacity="1" d="M 75.5 80.734375 L 82.800781 80.734375 L 82.800781 73.617188 L 75.5 73.617188 Z M 75.5 80.734375 "/>
<path fill-rule="evenodd" fill="rgb(79.998779%, 85.881042%, 98.03772%)" fill-opacity="1" d="M 82.75 80.734375 L 90.050781 80.734375 L 90.050781 73.617188 L 82.75 73.617188 Z M 82.75 80.734375 "/>
<path fill-rule="evenodd" fill="rgb(77.253723%, 83.528137%, 98.03772%)" fill-opacity="1" d="M 90 80.734375 L 97.300781 80.734375 L 97.300781 73.617188 L 90 73.617188 Z M 90 80.734375 "/>
<path fill-rule="evenodd" fill="rgb(75.292969%, 82.351685%, 97.647095%)" fill-opacity="1" d="M 97.25 80.734375 L 104.550781 80.734375 L 104.550781 73.617188 L 97.25 73.617188 Z M 97.25 80.734375 "/>
<path fill-rule="evenodd" fill="rgb(78.430176%, 84.312439%, 98.03772%)" fill-opacity="1" d="M 104.5 80.734375 L 111.800781 80.734375 L 111.800781 73.617188 L 104.5 73.617188 Z M 104.5 80.734375 "/>
<path fill-rule="evenodd" fill="rgb(74.508667%, 81.567383%, 97.647095%)" fill-opacity="1" d="M 111.75 80.734375 L 119.050781 80.734375 L 119.050781 73.617188 L 111.75 73.617188 Z M 111.75 80.734375 "/>
<path fill-rule="evenodd" fill="rgb(76.861572%, 83.528137%, 98.03772%)" fill-opacity="1" d="M 119 80.734375 L 126.300781 80.734375 L 126.300781 73.617188 L 119 73.617188 Z M 119 80.734375 "/>
<path fill-rule="evenodd" fill="rgb(81.175232%, 86.665344%, 98.431396%)" fill-opacity="1" d="M 126.25 80.734375 L 133.550781 80.734375 L 133.550781 73.617188 L 126.25 73.617188 Z M 126.25 80.734375 "/>
<path fill-rule="evenodd" fill="rgb(79.606628%, 85.488892%, 98.03772%)" fill-opacity="1" d="M 133.5 80.734375 L 140.800781 80.734375 L 140.800781 73.617188 L 133.5 73.617188 Z M 133.5 80.734375 "/>
<path fill-rule="evenodd" fill="rgb(77.645874%, 83.920288%, 98.03772%)" fill-opacity="1" d="M 140.75 80.734375 L 148.050781 80.734375 L 148.050781 73.617188 L 140.75 73.617188 Z M 140.75 80.734375 "/>
<path fill-rule="evenodd" fill="rgb(72.940063%, 80.783081%, 97.647095%)" fill-opacity="1" d="M 148 80.734375 L 155.300781 80.734375 L 155.300781 73.617188 L 148 73.617188 Z M 148 80.734375 "/>
<path fill-rule="evenodd" fill="rgb(72.547913%, 80.39093%, 97.647095%)" fill-opacity="1" d="M 155.25 80.734375 L 162.550781 80.734375 L 162.550781 73.617188 L 155.25 73.617188 Z M 155.25 80.734375 "/>
<path fill-rule="evenodd" fill="rgb(71.37146%, 79.606628%, 97.253418%)" fill-opacity="1" d="M 162.5 80.734375 L 169.800781 80.734375 L 169.800781 73.617188 L 162.5 73.617188 Z M 162.5 80.734375 "/>
<path fill-rule="evenodd" fill="rgb(70.195007%, 78.822327%, 97.253418%)" fill-opacity="1" d="M 169.75 80.734375 L 177.050781 80.734375 L 177.050781 73.617188 L 169.75 73.617188 Z M 169.75 80.734375 "/>
<path fill-rule="evenodd" fill="rgb(83.920288%, 88.626099%, 98.431396%)" fill-opacity="1" d="M 3 87.800781 L 10.300781 87.800781 L 10.300781 80.683594 L 3 80.683594 Z M 3 87.800781 "/>
<path fill-rule="evenodd" fill="rgb(85.881042%, 90.194702%, 98.822021%)" fill-opacity="1" d="M 10.25 87.800781 L 17.550781 87.800781 L 17.550781 80.683594 L 10.25 80.683594 Z M 10.25 87.800781 "/>
<path fill-rule="evenodd" fill="rgb(81.175232%, 86.665344%, 98.431396%)" fill-opacity="1" d="M 17.5 87.800781 L 24.800781 87.800781 L 24.800781 80.683594 L 17.5 80.683594 Z M 17.5 87.800781 "/>
<path fill-rule="evenodd" fill="rgb(84.312439%, 89.01825%, 98.431396%)" fill-opacity="1" d="M 24.75 87.800781 L 32.050781 87.800781 L 32.050781 80.683594 L 24.75 80.683594 Z M 24.75 87.800781 "/>
<path fill-rule="evenodd" fill="rgb(83.135986%, 87.841797%, 98.431396%)" fill-opacity="1" d="M 32 87.800781 L 39.300781 87.800781 L 39.300781 80.683594 L 32 80.683594 Z M 32 87.800781 "/>
<path fill-rule="evenodd" fill="rgb(87.057495%, 90.586853%, 98.822021%)" fill-opacity="1" d="M 39.25 87.800781 L 46.550781 87.800781 L 46.550781 80.683594 L 39.25 80.683594 Z M 39.25 87.800781 "/>
<path fill-rule="evenodd" fill="rgb(98.431396%, 98.822021%, 100%)" fill-opacity="1" d="M 46.5 87.800781 L 53.800781 87.800781 L 53.800781 80.683594 L 46.5 80.683594 Z M 46.5 87.800781 "/>
<path fill-rule="evenodd" fill="rgb(95.684814%, 96.861267%, 99.606323%)" fill-opacity="1" d="M 53.75 87.800781 L 61.050781 87.800781 L 61.050781 80.683594 L 53.75 80.683594 Z M 53.75 87.800781 "/>
<path fill-rule="evenodd" fill="rgb(98.431396%, 91.371155%, 91.371155%)" fill-opacity="1" d="M 61 87.800781 L 68.300781 87.800781 L 68.300781 80.683594 L 61 80.683594 Z M 61 87.800781 "/>
<path fill-rule="evenodd" fill="rgb(98.03772%, 87.449646%, 87.449646%)" fill-opacity="1" d="M 68.25 87.800781 L 75.550781 87.800781 L 75.550781 80.683594 L 68.25 80.683594 Z M 68.25 87.800781 "/>
<path fill-rule="evenodd" fill="rgb(99.215698%, 96.076965%, 96.076965%)" fill-opacity="1" d="M 75.5 87.800781 L 82.800781 87.800781 L 82.800781 80.683594 L 75.5 80.683594 Z M 75.5 87.800781 "/>
<path fill-rule="evenodd" fill="rgb(99.215698%, 99.215698%, 100%)" fill-opacity="1" d="M 82.75 87.800781 L 90.050781 87.800781 L 90.050781 80.683594 L 82.75 80.683594 Z M 82.75 87.800781 "/>
<path fill-rule="evenodd" fill="rgb(99.606323%, 98.431396%, 98.431396%)" fill-opacity="1" d="M 90 87.800781 L 97.300781 87.800781 L 97.300781 80.683594 L 90 80.683594 Z M 90 87.800781 "/>
<path fill-rule="evenodd" fill="rgb(99.215698%, 94.900513%, 94.900513%)" fill-opacity="1" d="M 97.25 87.800781 L 104.550781 87.800781 L 104.550781 80.683594 L 97.25 80.683594 Z M 97.25 87.800781 "/>
<path fill-rule="evenodd" fill="rgb(98.822021%, 93.72406%, 93.72406%)" fill-opacity="1" d="M 104.5 87.800781 L 111.800781 87.800781 L 111.800781 80.683594 L 104.5 80.683594 Z M 104.5 87.800781 "/>
<path fill-rule="evenodd" fill="rgb(98.822021%, 93.72406%, 93.72406%)" fill-opacity="1" d="M 111.75 87.800781 L 119.050781 87.800781 L 119.050781 80.683594 L 111.75 80.683594 Z M 111.75 87.800781 "/>
<path fill-rule="evenodd" fill="rgb(98.822021%, 92.547607%, 92.547607%)" fill-opacity="1" d="M 119 87.800781 L 126.300781 87.800781 L 126.300781 80.683594 L 119 80.683594 Z M 119 87.800781 "/>
<path fill-rule="evenodd" fill="rgb(98.431396%, 90.979004%, 90.979004%)" fill-opacity="1" d="M 126.25 87.800781 L 133.550781 87.800781 L 133.550781 80.683594 L 126.25 80.683594 Z M 126.25 87.800781 "/>
<path fill-rule="evenodd" fill="rgb(97.647095%, 85.488892%, 85.488892%)" fill-opacity="1" d="M 133.5 87.800781 L 140.800781 87.800781 L 140.800781 80.683594 L 133.5 80.683594 Z M 133.5 87.800781 "/>
<path fill-rule="evenodd" fill="rgb(98.03772%, 87.841797%, 87.841797%)" fill-opacity="1" d="M 140.75 87.800781 L 148.050781 87.800781 L 148.050781 80.683594 L 140.75 80.683594 Z M 140.75 87.800781 "/>
<path fill-rule="evenodd" fill="rgb(97.647095%, 85.881042%, 85.881042%)" fill-opacity="1" d="M 148 87.800781 L 155.300781 87.800781 L 155.300781 80.683594 L 148 80.683594 Z M 148 87.800781 "/>
<path fill-rule="evenodd" fill="rgb(99.215698%, 95.684814%, 95.684814%)" fill-opacity="1" d="M 155.25 87.800781 L 162.550781 87.800781 L 162.550781 80.683594 L 155.25 80.683594 Z M 155.25 87.800781 "/>
<path fill-rule="evenodd" fill="rgb(99.606323%, 99.606323%, 100%)" fill-opacity="1" d="M 162.5 87.800781 L 169.800781 87.800781 L 169.800781 80.683594 L 162.5 80.683594 Z M 162.5 87.800781 "/>
<path fill-rule="evenodd" fill="rgb(99.606323%, 97.253418%, 97.253418%)" fill-opacity="1" d="M 169.75 87.800781 L 177.050781 87.800781 L 177.050781 80.683594 L 169.75 80.683594 Z M 169.75 87.800781 "/>
<path fill-rule="evenodd" fill="rgb(92.939758%, 94.900513%, 99.215698%)" fill-opacity="1" d="M 3 94.867188 L 10.300781 94.867188 L 10.300781 87.75 L 3 87.75 Z M 3 94.867188 "/>
<path fill-rule="evenodd" fill="rgb(91.371155%, 93.72406%, 99.215698%)" fill-opacity="1" d="M 10.25 94.867188 L 17.550781 94.867188 L 17.550781 87.75 L 10.25 87.75 Z M 10.25 94.867188 "/>
<path fill-rule="evenodd" fill="rgb(90.979004%, 93.331909%, 99.215698%)" fill-opacity="1" d="M 17.5 94.867188 L 24.800781 94.867188 L 24.800781 87.75 L 17.5 87.75 Z M 17.5 94.867188 "/>
<path fill-rule="evenodd" fill="rgb(94.508362%, 96.076965%, 99.606323%)" fill-opacity="1" d="M 24.75 94.867188 L 32.050781 94.867188 L 32.050781 87.75 L 24.75 87.75 Z M 24.75 94.867188 "/>
<path fill-rule="evenodd" fill="rgb(90.979004%, 93.72406%, 99.215698%)" fill-opacity="1" d="M 32 94.867188 L 39.300781 94.867188 L 39.300781 87.75 L 32 87.75 Z M 32 94.867188 "/>
<path fill-rule="evenodd" fill="rgb(89.4104%, 92.547607%, 99.215698%)" fill-opacity="1" d="M 39.25 94.867188 L 46.550781 94.867188 L 46.550781 87.75 L 39.25 87.75 Z M 39.25 94.867188 "/>
<path fill-rule="evenodd" fill="rgb(88.626099%, 91.763306%, 98.822021%)" fill-opacity="1" d="M 46.5 94.867188 L 53.800781 94.867188 L 53.800781 87.75 L 46.5 87.75 Z M 46.5 94.867188 "/>
<path fill-rule="evenodd" fill="rgb(90.979004%, 93.72406%, 99.215698%)" fill-opacity="1" d="M 53.75 94.867188 L 61.050781 94.867188 L 61.050781 87.75 L 53.75 87.75 Z M 53.75 94.867188 "/>
<path fill-rule="evenodd" fill="rgb(90.586853%, 93.331909%, 99.215698%)" fill-opacity="1" d="M 61 94.867188 L 68.300781 94.867188 L 68.300781 87.75 L 61 87.75 Z M 61 94.867188 "/>
<path fill-rule="evenodd" fill="rgb(89.4104%, 92.155457%, 98.822021%)" fill-opacity="1" d="M 68.25 94.867188 L 75.550781 94.867188 L 75.550781 87.75 L 68.25 87.75 Z M 68.25 94.867188 "/>
<path fill-rule="evenodd" fill="rgb(91.763306%, 94.116211%, 99.215698%)" fill-opacity="1" d="M 75.5 94.867188 L 82.800781 94.867188 L 82.800781 87.75 L 75.5 87.75 Z M 75.5 94.867188 "/>
<path fill-rule="evenodd" fill="rgb(94.508362%, 96.076965%, 99.606323%)" fill-opacity="1" d="M 82.75 94.867188 L 90.050781 94.867188 L 90.050781 87.75 L 82.75 87.75 Z M 82.75 94.867188 "/>
<path fill-rule="evenodd" fill="rgb(94.116211%, 95.684814%, 99.606323%)" fill-opacity="1" d="M 90 94.867188 L 97.300781 94.867188 L 97.300781 87.75 L 90 87.75 Z M 90 94.867188 "/>
<path fill-rule="evenodd" fill="rgb(93.331909%, 95.292664%, 99.215698%)" fill-opacity="1" d="M 97.25 94.867188 L 104.550781 94.867188 L 104.550781 87.75 L 97.25 87.75 Z M 97.25 94.867188 "/>
<path fill-rule="evenodd" fill="rgb(94.508362%, 96.076965%, 99.606323%)" fill-opacity="1" d="M 104.5 94.867188 L 111.800781 94.867188 L 111.800781 87.75 L 104.5 87.75 Z M 104.5 94.867188 "/>
<path fill-rule="evenodd" fill="rgb(93.72406%, 95.684814%, 99.606323%)" fill-opacity="1" d="M 111.75 94.867188 L 119.050781 94.867188 L 119.050781 87.75 L 111.75 87.75 Z M 111.75 94.867188 "/>
<path fill-rule="evenodd" fill="rgb(92.939758%, 94.900513%, 99.215698%)" fill-opacity="1" d="M 119 94.867188 L 126.300781 94.867188 L 126.300781 87.75 L 119 87.75 Z M 119 94.867188 "/>
<path fill-rule="evenodd" fill="rgb(93.72406%, 95.684814%, 99.606323%)" fill-opacity="1" d="M 126.25 94.867188 L 133.550781 94.867188 L 133.550781 87.75 L 126.25 87.75 Z M 126.25 94.867188 "/>
<path fill-rule="evenodd" fill="rgb(91.763306%, 94.116211%, 99.215698%)" fill-opacity="1" d="M 133.5 94.867188 L 140.800781 94.867188 L 140.800781 87.75 L 133.5 87.75 Z M 133.5 94.867188 "/>
<path fill-rule="evenodd" fill="rgb(91.371155%, 93.72406%, 99.215698%)" fill-opacity="1" d="M 140.75 94.867188 L 148.050781 94.867188 L 148.050781 87.75 L 140.75 87.75 Z M 140.75 94.867188 "/>
<path fill-rule="evenodd" fill="rgb(89.4104%, 92.547607%, 99.215698%)" fill-opacity="1" d="M 148 94.867188 L 155.300781 94.867188 L 155.300781 87.75 L 148 87.75 Z M 148 94.867188 "/>
<path fill-rule="evenodd" fill="rgb(90.586853%, 93.331909%, 99.215698%)" fill-opacity="1" d="M 155.25 94.867188 L 162.550781 94.867188 L 162.550781 87.75 L 155.25 87.75 Z M 155.25 94.867188 "/>
<path fill-rule="evenodd" fill="rgb(90.979004%, 93.331909%, 99.215698%)" fill-opacity="1" d="M 162.5 94.867188 L 169.800781 94.867188 L 169.800781 87.75 L 162.5 87.75 Z M 162.5 94.867188 "/>
<path fill-rule="evenodd" fill="rgb(90.586853%, 93.331909%, 99.215698%)" fill-opacity="1" d="M 169.75 94.867188 L 177.050781 94.867188 L 177.050781 87.75 L 169.75 87.75 Z M 169.75 94.867188 "/>
<path fill-rule="evenodd" fill="rgb(98.03772%, 88.233948%, 88.233948%)" fill-opacity="1" d="M 3 101.933594 L 10.300781 101.933594 L 10.300781 94.816406 L 3 94.816406 Z M 3 101.933594 "/>
<path fill-rule="evenodd" fill="rgb(98.03772%, 87.841797%, 87.841797%)" fill-opacity="1" d="M 10.25 101.933594 L 17.550781 101.933594 L 17.550781 94.816406 L 10.25 94.816406 Z M 10.25 101.933594 "/>
<path fill-rule="evenodd" fill="rgb(98.03772%, 88.626099%, 88.626099%)" fill-opacity="1" d="M 17.5 101.933594 L 24.800781 101.933594 L 24.800781 94.816406 L 17.5 94.816406 Z M 17.5 101.933594 "/>
<path fill-rule="evenodd" fill="rgb(98.431396%, 89.4104%, 89.4104%)" fill-opacity="1" d="M 24.75 101.933594 L 32.050781 101.933594 L 32.050781 94.816406 L 24.75 94.816406 Z M 24.75 101.933594 "/>
<path fill-rule="evenodd" fill="rgb(98.431396%, 89.4104%, 89.4104%)" fill-opacity="1" d="M 32 101.933594 L 39.300781 101.933594 L 39.300781 94.816406 L 32 94.816406 Z M 32 101.933594 "/>
<path fill-rule="evenodd" fill="rgb(97.647095%, 86.273193%, 86.273193%)" fill-opacity="1" d="M 39.25 101.933594 L 46.550781 101.933594 L 46.550781 94.816406 L 39.25 94.816406 Z M 39.25 101.933594 "/>
<path fill-rule="evenodd" fill="rgb(97.253418%, 82.351685%, 82.351685%)" fill-opacity="1" d="M 46.5 101.933594 L 53.800781 101.933594 L 53.800781 94.816406 L 46.5 94.816406 Z M 46.5 101.933594 "/>
<path fill-rule="evenodd" fill="rgb(97.253418%, 83.135986%, 83.135986%)" fill-opacity="1" d="M 53.75 101.933594 L 61.050781 101.933594 L 61.050781 94.816406 L 53.75 94.816406 Z M 53.75 101.933594 "/>
<path fill-rule="evenodd" fill="rgb(96.861267%, 80.39093%, 80.39093%)" fill-opacity="1" d="M 61 101.933594 L 68.300781 101.933594 L 68.300781 94.816406 L 61 94.816406 Z M 61 101.933594 "/>
<path fill-rule="evenodd" fill="rgb(96.861267%, 80.39093%, 80.39093%)" fill-opacity="1" d="M 68.25 101.933594 L 75.550781 101.933594 L 75.550781 94.816406 L 68.25 94.816406 Z M 68.25 101.933594 "/>
<path fill-rule="evenodd" fill="rgb(97.647095%, 85.488892%, 85.488892%)" fill-opacity="1" d="M 75.5 101.933594 L 82.800781 101.933594 L 82.800781 94.816406 L 75.5 94.816406 Z M 75.5 101.933594 "/>
<path fill-rule="evenodd" fill="rgb(98.03772%, 88.626099%, 88.626099%)" fill-opacity="1" d="M 82.75 101.933594 L 90.050781 101.933594 L 90.050781 94.816406 L 82.75 94.816406 Z M 82.75 101.933594 "/>
<path fill-rule="evenodd" fill="rgb(98.03772%, 86.665344%, 86.665344%)" fill-opacity="1" d="M 90 101.933594 L 97.300781 101.933594 L 97.300781 94.816406 L 90 94.816406 Z M 90 101.933594 "/>
<path fill-rule="evenodd" fill="rgb(97.647095%, 85.096741%, 85.096741%)" fill-opacity="1" d="M 97.25 101.933594 L 104.550781 101.933594 L 104.550781 94.816406 L 97.25 94.816406 Z M 97.25 101.933594 "/>
<path fill-rule="evenodd" fill="rgb(97.647095%, 86.273193%, 86.273193%)" fill-opacity="1" d="M 104.5 101.933594 L 111.800781 101.933594 L 111.800781 94.816406 L 104.5 94.816406 Z M 104.5 101.933594 "/>
<path fill-rule="evenodd" fill="rgb(97.647095%, 84.70459%, 84.70459%)" fill-opacity="1" d="M 111.75 101.933594 L 119.050781 101.933594 L 119.050781 94.816406 L 111.75 94.816406 Z M 111.75 101.933594 "/>
<path fill-rule="evenodd" fill="rgb(97.647095%, 85.096741%, 85.096741%)" fill-opacity="1" d="M 119 101.933594 L 126.300781 101.933594 L 126.300781 94.816406 L 119 94.816406 Z M 119 101.933594 "/>
<path fill-rule="evenodd" fill="rgb(98.03772%, 87.057495%, 87.057495%)" fill-opacity="1" d="M 126.25 101.933594 L 133.550781 101.933594 L 133.550781 94.816406 L 126.25 94.816406 Z M 126.25 101.933594 "/>
<path fill-rule="evenodd" fill="rgb(97.647095%, 84.312439%, 84.312439%)" fill-opacity="1" d="M 133.5 101.933594 L 140.800781 101.933594 L 140.800781 94.816406 L 133.5 94.816406 Z M 133.5 101.933594 "/>
<path fill-rule="evenodd" fill="rgb(97.253418%, 83.528137%, 83.528137%)" fill-opacity="1" d="M 140.75 101.933594 L 148.050781 101.933594 L 148.050781 94.816406 L 140.75 94.816406 Z M 140.75 101.933594 "/>
<path fill-rule="evenodd" fill="rgb(96.861267%, 80.39093%, 80.39093%)" fill-opacity="1" d="M 148 101.933594 L 155.300781 101.933594 L 155.300781 94.816406 L 148 94.816406 Z M 148 101.933594 "/>
<path fill-rule="evenodd" fill="rgb(97.253418%, 82.351685%, 82.351685%)" fill-opacity="1" d="M 155.25 101.933594 L 162.550781 101.933594 L 162.550781 94.816406 L 155.25 94.816406 Z M 155.25 101.933594 "/>
<path fill-rule="evenodd" fill="rgb(97.253418%, 82.743835%, 82.743835%)" fill-opacity="1" d="M 162.5 101.933594 L 169.800781 101.933594 L 169.800781 94.816406 L 162.5 94.816406 Z M 162.5 101.933594 "/>
<path fill-rule="evenodd" fill="rgb(96.861267%, 81.567383%, 81.567383%)" fill-opacity="1" d="M 169.75 101.933594 L 177.050781 101.933594 L 177.050781 94.816406 L 169.75 94.816406 Z M 169.75 101.933594 "/>
<path fill-rule="evenodd" fill="rgb(83.920288%, 88.233948%, 98.431396%)" fill-opacity="1" d="M 3 109 L 10.300781 109 L 10.300781 101.882812 L 3 101.882812 Z M 3 109 "/>
<path fill-rule="evenodd" fill="rgb(83.135986%, 87.841797%, 98.431396%)" fill-opacity="1" d="M 10.25 109 L 17.550781 109 L 17.550781 101.882812 L 10.25 101.882812 Z M 10.25 109 "/>
<path fill-rule="evenodd" fill="rgb(81.567383%, 87.057495%, 98.431396%)" fill-opacity="1" d="M 17.5 109 L 24.800781 109 L 24.800781 101.882812 L 17.5 101.882812 Z M 17.5 109 "/>
<path fill-rule="evenodd" fill="rgb(77.253723%, 83.920288%, 98.03772%)" fill-opacity="1" d="M 24.75 109 L 32.050781 109 L 32.050781 101.882812 L 24.75 101.882812 Z M 24.75 109 "/>
<path fill-rule="evenodd" fill="rgb(78.430176%, 84.70459%, 98.03772%)" fill-opacity="1" d="M 32 109 L 39.300781 109 L 39.300781 101.882812 L 32 101.882812 Z M 32 109 "/>
<path fill-rule="evenodd" fill="rgb(76.469421%, 83.135986%, 97.647095%)" fill-opacity="1" d="M 39.25 109 L 46.550781 109 L 46.550781 101.882812 L 39.25 101.882812 Z M 39.25 109 "/>
<path fill-rule="evenodd" fill="rgb(72.940063%, 80.783081%, 97.647095%)" fill-opacity="1" d="M 46.5 109 L 53.800781 109 L 53.800781 101.882812 L 46.5 101.882812 Z M 46.5 109 "/>
<path fill-rule="evenodd" fill="rgb(78.822327%, 84.70459%, 98.03772%)" fill-opacity="1" d="M 53.75 109 L 61.050781 109 L 61.050781 101.882812 L 53.75 101.882812 Z M 53.75 109 "/>
<path fill-rule="evenodd" fill="rgb(86.665344%, 90.586853%, 98.822021%)" fill-opacity="1" d="M 61 109 L 68.300781 109 L 68.300781 101.882812 L 61 101.882812 Z M 61 109 "/>
<path fill-rule="evenodd" fill="rgb(87.057495%, 90.586853%, 98.822021%)" fill-opacity="1" d="M 68.25 109 L 75.550781 109 L 75.550781 101.882812 L 68.25 101.882812 Z M 68.25 109 "/>
<path fill-rule="evenodd" fill="rgb(86.273193%, 90.194702%, 98.822021%)" fill-opacity="1" d="M 75.5 109 L 82.800781 109 L 82.800781 101.882812 L 75.5 101.882812 Z M 75.5 109 "/>
<path fill-rule="evenodd" fill="rgb(83.920288%, 88.233948%, 98.431396%)" fill-opacity="1" d="M 82.75 109 L 90.050781 109 L 90.050781 101.882812 L 82.75 101.882812 Z M 82.75 109 "/>
<path fill-rule="evenodd" fill="rgb(82.743835%, 87.449646%, 98.431396%)" fill-opacity="1" d="M 90 109 L 97.300781 109 L 97.300781 101.882812 L 90 101.882812 Z M 90 109 "/>
<path fill-rule="evenodd" fill="rgb(79.998779%, 85.881042%, 98.03772%)" fill-opacity="1" d="M 97.25 109 L 104.550781 109 L 104.550781 101.882812 L 97.25 101.882812 Z M 97.25 109 "/>
<path fill-rule="evenodd" fill="rgb(81.567383%, 86.665344%, 98.431396%)" fill-opacity="1" d="M 104.5 109 L 111.800781 109 L 111.800781 101.882812 L 104.5 101.882812 Z M 104.5 109 "/>
<path fill-rule="evenodd" fill="rgb(79.214478%, 85.096741%, 98.03772%)" fill-opacity="1" d="M 111.75 109 L 119.050781 109 L 119.050781 101.882812 L 111.75 101.882812 Z M 111.75 109 "/>
<path fill-rule="evenodd" fill="rgb(81.959534%, 87.057495%, 98.431396%)" fill-opacity="1" d="M 119 109 L 126.300781 109 L 126.300781 101.882812 L 119 101.882812 Z M 119 109 "/>
<path fill-rule="evenodd" fill="rgb(80.783081%, 86.273193%, 98.03772%)" fill-opacity="1" d="M 126.25 109 L 133.550781 109 L 133.550781 101.882812 L 126.25 101.882812 Z M 126.25 109 "/>
<path fill-rule="evenodd" fill="rgb(78.822327%, 84.70459%, 98.03772%)" fill-opacity="1" d="M 133.5 109 L 140.800781 109 L 140.800781 101.882812 L 133.5 101.882812 Z M 133.5 109 "/>
<path fill-rule="evenodd" fill="rgb(81.567383%, 87.057495%, 98.431396%)" fill-opacity="1" d="M 140.75 109 L 148.050781 109 L 148.050781 101.882812 L 140.75 101.882812 Z M 140.75 109 "/>
<path fill-rule="evenodd" fill="rgb(82.351685%, 87.057495%, 98.431396%)" fill-opacity="1" d="M 148 109 L 155.300781 109 L 155.300781 101.882812 L 148 101.882812 Z M 148 109 "/>
<path fill-rule="evenodd" fill="rgb(83.920288%, 88.626099%, 98.431396%)" fill-opacity="1" d="M 155.25 109 L 162.550781 109 L 162.550781 101.882812 L 155.25 101.882812 Z M 155.25 109 "/>
<path fill-rule="evenodd" fill="rgb(83.528137%, 88.233948%, 98.431396%)" fill-opacity="1" d="M 162.5 109 L 169.800781 109 L 169.800781 101.882812 L 162.5 101.882812 Z M 162.5 109 "/>
<path fill-rule="evenodd" fill="rgb(79.998779%, 85.881042%, 98.03772%)" fill-opacity="1" d="M 169.75 109 L 177.050781 109 L 177.050781 101.882812 L 169.75 101.882812 Z M 169.75 109 "/>
<path fill="none" stroke-width="0.55" stroke-linecap="butt" stroke-linejoin="miter" stroke="rgb(6.666565%, 9.411621%, 15.293884%)" stroke-opacity="1" stroke-miterlimit="10" d="M 3 3 L 177 3 L 177 109 L 3 109 Z M 3 3 " transform="matrix(1, 0, 0, -1, 0, 112)"/>
</svg>
