<?xml version="1.0" encoding="UTF-8"?>
<svg xmlns="http://www.w3.org/2000/svg" xmlns:xlink="http://www.w3.org/1999/xlink" width="180pt" height="112pt" viewBox="0 0 180 112">
<rect x="-18" y="-11.2" width="216" height="134.4" fill="rgb(100%, 100%, 100%)" fill-opacity="1"/>
<path fill-rule="evenodd" fill="rgb(99.606323%, 99.606323%, 100%)" fill-opacity="1" d="M 3 11.832031 L 10.300781 11.832031 L 10.300781 2.949219 L 3 2.949219 Z M 3 11.832031 "/>
<path fill-rule="evenodd" fill="rgb(99.606323%, 99.606323%, 100%)" fill-opacity="1" d="M 10.25 11.832031 L 17.550781 11.832031 L 17.550781 2.949219 L 10.25 2.949219 Z M 10.25 11.832031 "/>
<path fill-rule="evenodd" fill="rgb(99.606323%, 99.606323%, 100%)" fill-opacity="1" d="M 17.5 11.832031 L 24.800781 11.832031 L 24.800781 2.949219 L 17.5 2.949219 Z M 17.5 11.832031 "/>
<path fill-rule="evenodd" fill="rgb(99.606323%, 99.606323%, 100%)" fill-opacity="1" d="M 24.75 11.832031 L 32.050781 11.832031 L 32.050781 2.949219 L 24.75 2.949219 Z M 24.75 11.832031 "/>
<path fill-rule="evenodd" fill="rgb(99.606323%, 100%, 100%)" fill-opacity="1" d="M 32 11.832031 L 39.300781 11.832031 L 39.300781 2.949219 L 32 2.949219 Z M 32 11.832031 "/>
<path fill-rule="evenodd" fill="rgb(100%, 100%, 100%)" fill-opacity="1" d="M 39.25 11.832031 L 46.550781 11.832031 L 46.550781 2.949219 L 39.25 2.949219 Z M 39.25 11.832031 "/>
<path fill-rule="evenodd" fill="rgb(99.215698%, 99.606323%, 100%)" fill-opacity="1" d="M 46.5 11.832031 L 53.800781 11.832031 L 53.800781 2.949219 L 46.5 2.949219 Z M 46.5 11.832031 "/>
<path fill-rule="evenodd" fill="rgb(99.215698%, 99.606323%, 100%)" fill-opacity="1" d="M 53.75 11.832031 L 61.050781 11.832031 L 61.050781 2.949219 L 53.75 2.949219 Z M 53.75 11.832031 "/>
<path fill-rule="evenodd" fill="rgb(99.606323%, 99.606323%, 100%)" fill-opacity="1" d="M 61 11.832031 L 68.300781 11.832031 L 68.300781 2.949219 L 61 2.949219 Z M 61 11.832031 "/>
<path fill-rule="evenodd" fill="rgb(99.606323%, 100%, 100%)" fill-opacity="1" d="M 68.25 11.832031 L 75.550781 11.832031 L 75.550781 2.949219 L 68.25 2.949219 Z M 68.25 11.832031 "/>
<path fill-rule="evenodd" fill="rgb(100%, 100%, 100%)" fill-opacity="1" d="M 75.5 11.832031 L 82.800781 11.832031 L 82.800781 2.949219 L 75.5 2.949219 Z M 75.5 11.832031 "/>
<path fill-rule="evenodd" fill="rgb(100%, 100%, 100%)" fill-opacity="1" d="M 82.75 11.832031 L 90.050781 11.832031 L 90.050781 2.949219 L 82.75 2.949219 Z M 82.75 11.832031 "/>
<path fill-rule="evenodd" fill="rgb(99.606323%, 99.606323%, 100%)" fill-opacity="1" d="M 90 11.832031 L 97.300781 11.832031 L 97.300781 2.949219 L 90 2.949219 Z M 90 11.832031 "/>
<path fill-rule="evenodd" fill="rgb(98.822021%, 99.215698%, 100%)" fill-opacity="1" d="M 97.25 11.832031 L 104.550781 11.832031 L 104.550781 2.949219 L 97.25 2.949219 Z M 97.25 11.832031 "/>
<path fill-rule="evenodd" fill="rgb(100%, 99.606323%, 99.606323%)" fill-opacity="1" d="M 104.5 11.832031 L 111.800781 11.832031 L 111.800781 2.949219 L 104.5 2.949219 Z M 104.5 11.832031 "/>
<path fill-rule="evenodd" fill="rgb(100%, 99.606323%, 99.606323%)" fill-opacity="1" d="M 111.75 11.832031 L 119.050781 11.832031 L 119.050781 2.949219 L 111.75 2.949219 Z M 111.75 11.832031 "/>
<path fill-rule="evenodd" fill="rgb(100%, 100%, 100%)" fill-opacity="1" d="M 119 11.832031 L 126.300781 11.832031 L 126.300781 2.949219 L 119 2.949219 Z M 119 11.832031 "/>
<path fill-rule="evenodd" fill="rgb(100%, 100%, 100%)" fill-opacity="1" d="M 126.25 11.832031 L 133.550781 11.832031 L 133.550781 2.949219 L 126.25 2.949219 Z M 126.25 11.832031 "/>
<path fill-rule="evenodd" fill="rgb(100%, 100%, 100%)" fill-opacity="1" d="M 133.5 11.832031 L 140.800781 11.832031 L 140.800781 2.949219 L 133.5 2.949219 Z M 133.5 11.832031 "/>
<path fill-rule="evenodd" fill="rgb(99.606323%, 100%, 100%)" fill-opacity="1" d="M 140.75 11.832031 L 148.050781 11.832031 L 148.050781 2.949219 L 140.75 2.949219 Z M 140.75 11.832031 "/>
<path fill-rule="evenodd" fill="rgb(98.431396%, 98.822021%, 100%)" fill-opacity="1" d="M 148 11.832031 L 155.300781 11.832031 L 155.300781 2.949219 L 148 2.949219 Z M 148 11.832031 "/>
<path fill-rule="evenodd" fill="rgb(99.215698%, 99.215698%, 100%)" fill-opacity="1" d="M 155.25 11.832031 L 162.550781 11.832031 L 162.550781 2.949219 L 155.25 2.949219 Z M 155.25 11.832031 "/>
<path fill-rule="evenodd" fill="rgb(99.606323%, 99.606323%, 100%)" fill-opacity="1" d="M 162.5 11.832031 L 169.800781 11.832031 L 169.800781 2.949219 L 162.5 2.949219 Z M 162.5 11.832031 "/>
<path fill-rule="evenodd" fill="rgb(99.606323%, 99.606323%, 100%)" fill-opacity="1" d="M 169.75 11.832031 L 177.050781 11.832031 L 177.050781 2.949219 L 169.75 2.949219 Z M 169.75 11.832031 "/>
<path fill-rule="evenodd" fill="rgb(99.215698%, 99.606323%, 100%)" fill-opacity="1" d="M 3 20.667969 L 10.300781 20.667969 L 10.300781 11.785156 L 3 11.785156 Z M 3 20.667969 "/>
<path fill-rule="evenodd" fill="rgb(100%, 100%, 100%)" fill-opacity="1" d="M 10.25 20.667969 L 17.550781 20.667969 L 17.550781 11.785156 L 10.25 11.785156 Z M 10.25 20.667969 "/>
<path fill-rule="evenodd" fill="rgb(99.215698%, 99.606323%, 100%)" fill-opacity="1" d="M 17.5 20.667969 L 24.800781 20.667969 L 24.800781 11.785156 L 17.5 11.785156 Z M 17.5 20.667969 "/>
<path fill-rule="evenodd" fill="rgb(99.215698%, 99.606323%, 100%)" fill-opacity="1" d="M 24.75 20.667969 L 32.050781 20.667969 L 32.050781 11.785156 L 24.75 11.785156 Z M 24.75 20.667969 "/>
<path fill-rule="evenodd" fill="rgb(99.215698%, 99.215698%, 100%)" fill-opacity="1" d="M 32 20.667969 L 39.300781 20.667969 L 39.300781 11.785156 L 32 11.785156 Z M 32 20.667969 "/>
<path fill-rule="evenodd" fill="rgb(100%, 99.606323%, 99.606323%)" fill-opacity="1" d="M 39.25 20.667969 L 46.550781 20.667969 L 46.550781 11.785156 L 39.25 11.785156 Z M 39.25 20.667969 "/>
<path fill-rule="evenodd" fill="rgb(98.822021%, 99.215698%, 100%)" fill-opacity="1" d="M 46.5 20.667969 L 53.800781 20.667969 L 53.800781 11.785156 L 46.5 11.785156 Z M 46.5 20.667969 "/>
<path fill-rule="evenodd" fill="rgb(99.215698%, 99.606323%, 100%)" fill-opacity="1" d="M 53.75 20.667969 L 61.050781 20.667969 L 61.050781 11.785156 L 53.75 11.785156 Z M 53.75 20.667969 "/>
<path fill-rule="evenodd" fill="rgb(100%, 99.606323%, 99.606323%)" fill-opacity="1" d="M 61 20.667969 L 68.300781 20.667969 L 68.300781 11.785156 L 61 11.785156 Z M 61 20.667969 "/>
<path fill-rule="evenodd" fill="rgb(99.606323%, 99.606323%, 100%)" fill-opacity="1" d="M 68.25 20.667969 L 75.550781 20.667969 L 75.550781 11.785156 L 68.25 11.785156 Z M 68.25 20.667969 "/>
<path fill-rule="evenodd" fill="rgb(100%, 99.606323%, 99.606323%)" fill-opacity="1" d="M 75.5 20.667969 L 82.800781 20.667969 L 82.800781 11.785156 L 75.5 11.785156 Z M 75.5 20.667969 "/>
<path fill-rule="evenodd" fill="rgb(99.606323%, 98.822021%, 98.822021%)" fill-opacity="1" d="M 82.75 20.667969 L 90.050781 20.667969 L 90.050781 11.785156 L 82.75 11.785156 Z M 82.75 20.667969 "/>
<path fill-rule="evenodd" fill="rgb(100%, 100%, 100%)" fill-opacity="1" d="M 90 20.667969 L 97.300781 20.667969 L 97.300781 11.785156 L 90 11.785156 Z M 90 20.667969 "/>
<path fill-rule="evenodd" fill="rgb(100%, 98.822021%, 98.822021%)" fill-opacity="1" d="M 97.25 20.667969 L 104.550781 20.667969 L 104.550781 11.785156 L 97.25 11.785156 Z M 97.25 20.667969 "/>
<path fill-rule="evenodd" fill="rgb(100%, 99.215698%, 99.215698%)" fill-opacity="1" d="M 104.5 20.667969 L 111.800781 20.667969 L 111.800781 11.785156 L 104.5 11.785156 Z M 104.5 20.667969 "/>
<path fill-rule="evenodd" fill="rgb(100%, 99.606323%, 99.606323%)" fill-opacity="1" d="M 111.75 20.667969 L 119.050781 20.667969 L 119.050781 11.785156 L 111.75 11.785156 Z M 111.75 20.667969 "/>
<path fill-rule="evenodd" fill="rgb(100%, 99.606323%, 99.606323%)" fill-opacity="1" d="M 119 20.667969 L 126.300781 20.667969 L 126.300781 11.785156 L 119 11.785156 Z M 119 20.667969 "/>
<path fill-rule="evenodd" fill="rgb(100%, 98.822021%, 98.822021%)" fill-opacity="1" d="M 126.25 20.667969 L 133.550781 20.667969 L 133.550781 11.785156 L 126.25 11.785156 Z M 126.25 20.667969 "/>
<path fill-rule="evenodd" fill="rgb(100%, 99.215698%, 99.215698%)" fill-opacity="1" d="M 133.5 20.667969 L 140.800781 20.667969 L 140.800781 11.785156 L 133.5 11.785156 Z M 133.5 20.667969 "/>
<path fill-rule="evenodd" fill="rgb(99.606323%, 98.431396%, 98.431396%)" fill-opacity="1" d="M 140.75 20.667969 L 148.050781 20.667969 L 148.050781 11.785156 L 140.75 11.785156 Z M 140.75 20.667969 "/>
<path fill-rule="evenodd" fill="rgb(99.606323%, 97.253418%, 97.253418%)" fill-opacity="1" d="M 148 20.667969 L 155.300781 20.667969 L 155.300781 11.785156 L 148 11.785156 Z M 148 20.667969 "/>
<path fill-rule="evenodd" fill="rgb(99.606323%, 97.647095%, 97.647095%)" fill-opacity="1" d="M 155.25 20.667969 L 162.550781 20.667969 L 162.550781 11.785156 L 155.25 11.785156 Z M 155.25 20.667969 "/>
<path fill-rule="evenodd" fill="rgb(99.606323%, 98.431396%, 98.431396%)" fill-opacity="1" d="M 162.5 20.667969 L 169.800781 20.667969 L 169.800781 11.785156 L 162.5 11.785156 Z M 162.5 20.667969 "/>
<path fill-rule="evenodd" fill="rgb(99.215698%, 99.606323%, 100%)" fill-opacity="1" d="M 169.75 20.667969 L 177.050781 20.667969 L 177.050781 11.785156 L 169.75 11.785156 Z M 169.75 20.667969 "/>
<path fill-rule="evenodd" fill="rgb(96.469116%, 78.038025%, 78.038025%)" fill-opacity="1" d="M 3 29.5 L 10.300781 29.5 L 10.300781 20.617188 L 3 20.617188 Z M 3 29.5 "/>
<path fill-rule="evenodd" fill="rgb(98.03772%, 87.841797%, 87.841797%)" fill-opacity="1" d="M 10.25 29.5 L 17.550781 29.5 L 17.550781 20.617188 L 10.25 20.617188 Z M 10.25 29.5 "/>
<path fill-rule="evenodd" fill="rgb(96.076965%, 76.077271%, 76.077271%)" fill-opacity="1" d="M 17.5 29.5 L 24.800781 29.5 L 24.800781 20.617188 L 17.5 20.617188 Z M 17.5 29.5 "/>
<path fill-rule="evenodd" fill="rgb(96.076965%, 76.077271%, 76.077271%)" fill-opacity="1" d="M 24.75 29.5 L 32.050781 29.5 L 32.050781 20.617188 L 24.75 20.617188 Z M 24.75 29.5 "/>
<path fill-rule="evenodd" fill="rgb(96.469116%, 79.214478%, 79.214478%)" fill-opacity="1" d="M 32 29.5 L 39.300781 29.5 L 39.300781 20.617188 L 32 20.617188 Z M 32 29.5 "/>
<path fill-rule="evenodd" fill="rgb(96.861267%, 79.214478%, 79.214478%)" fill-opacity="1" d="M 39.25 29.5 L 46.550781 29.5 L 46.550781 20.617188 L 39.25 20.617188 Z M 39.25 29.5 "/>
<path fill-rule="evenodd" fill="rgb(96.469116%, 78.430176%, 78.430176%)" fill-opacity="1" d="M 46.5 29.5 L 53.800781 29.5 L 53.800781 20.617188 L 46.5 20.617188 Z M 46.5 29.5 "/>
<path fill-rule="evenodd" fill="rgb(97.253418%, 83.135986%, 83.135986%)" fill-opacity="1" d="M 53.75 29.5 L 61.050781 29.5 L 61.050781 20.617188 L 53.75 20.617188 Z M 53.75 29.5 "/>
<path fill-rule="evenodd" fill="rgb(96.076965%, 76.077271%, 76.077271%)" fill-opacity="1" d="M 61 29.5 L 68.300781 29.5 L 68.300781 20.617188 L 61 20.617188 Z M 61 29.5 "/>
<path fill-rule="evenodd" fill="rgb(97.253418%, 83.920288%, 83.920288%)" fill-opacity="1" d="M 68.25 29.5 L 75.550781 29.5 L 75.550781 20.617188 L 68.25 20.617188 Z M 68.25 29.5 "/>
<path fill-rule="evenodd" fill="rgb(98.03772%, 87.057495%, 87.057495%)" fill-opacity="1" d="M 75.5 29.5 L 82.800781 29.5 L 82.800781 20.617188 L 75.5 20.617188 Z M 75.5 29.5 "/>
<path fill-rule="evenodd" fill="rgb(96.076965%, 76.077271%, 76.077271%)" fill-opacity="1" d="M 82.75 29.5 L 90.050781 29.5 L 90.050781 20.617188 L 82.75 20.617188 Z M 82.75 29.5 "/>
<path fill-rule="evenodd" fill="rgb(92.939758%, 56.077576%, 56.077576%)" fill-opacity="1" d="M 90 29.5 L 97.300781 29.5 L 97.300781 20.617188 L 90 20.617188 Z M 90 29.5 "/>
<path fill-rule="evenodd" fill="rgb(86.273193%, 14.901733%, 14.901733%)" fill-opacity="1" d="M 97.25 29.5 L 104.550781 29.5 L 104.550781 20.617188 L 97.25 20.617188 Z M 97.25 29.5 "/>
<path fill-rule="evenodd" fill="rgb(89.4104%, 34.509277%, 34.509277%)" fill-opacity="1" d="M 104.5 29.5 L 111.800781 29.5 L 111.800781 20.617188 L 104.5 20.617188 Z M 104.5 29.5 "/>
<path fill-rule="evenodd" fill="rgb(96.469116%, 79.214478%, 79.214478%)" fill-opacity="1" d="M 111.75 29.5 L 119.050781 29.5 L 119.050781 20.617188 L 111.75 20.617188 Z M 111.75 29.5 "/>
<path fill-rule="evenodd" fill="rgb(96.861267%, 79.998779%, 79.998779%)" fill-opacity="1" d="M 119 29.5 L 126.300781 29.5 L 126.300781 20.617188 L 119 20.617188 Z M 119 29.5 "/>
<path fill-rule="evenodd" fill="rgb(96.861267%, 79.606628%, 79.606628%)" fill-opacity="1" d="M 126.25 29.5 L 133.550781 29.5 L 133.550781 20.617188 L 126.25 20.617188 Z M 126.25 29.5 "/>
<path fill-rule="evenodd" fill="rgb(96.469116%, 78.038025%, 78.038025%)" fill-opacity="1" d="M 133.5 29.5 L 140.800781 29.5 L 140.800781 20.617188 L 133.5 20.617188 Z M 133.5 29.5 "/>
<path fill-rule="evenodd" fill="rgb(94.116211%, 62.35199%, 62.35199%)" fill-opacity="1" d="M 140.75 29.5 L 148.050781 29.5 L 148.050781 20.617188 L 140.75 20.617188 Z M 140.75 29.5 "/>
<path fill-rule="evenodd" fill="rgb(91.371155%, 46.665955%, 46.665955%)" fill-opacity="1" d="M 148 29.5 L 155.300781 29.5 L 155.300781 20.617188 L 148 20.617188 Z M 148 29.5 "/>
<path fill-rule="evenodd" fill="rgb(91.371155%, 47.450256%, 47.450256%)" fill-opacity="1" d="M 155.25 29.5 L 162.550781 29.5 L 162.550781 20.617188 L 155.25 20.617188 Z M 155.25 29.5 "/>
<path fill-rule="evenodd" fill="rgb(95.292664%, 70.979309%, 70.979309%)" fill-opacity="1" d="M 162.5 29.5 L 169.800781 29.5 L 169.800781 20.617188 L 162.5 20.617188 Z M 162.5 29.5 "/>
<path fill-rule="evenodd" fill="rgb(96.469116%, 77.645874%, 77.645874%)" fill-opacity="1" d="M 169.75 29.5 L 177.050781 29.5 L 177.050781 20.617188 L 169.75 20.617188 Z M 169.75 29.5 "/>
<path fill-rule="evenodd" fill="rgb(99.606323%, 99.606323%, 100%)" fill-opacity="1" d="M 3 38.332031 L 10.300781 38.332031 L 10.300781 29.449219 L 3 29.449219 Z M 3 38.332031 "/>
<path fill-rule="evenodd" fill="rgb(100%, 100%, 100%)" fill-opacity="1" d="M 10.25 38.332031 L 17.550781 38.332031 L 17.550781 29.449219 L 10.25 29.449219 Z M 10.25 38.332031 "/>
<path fill-rule="evenodd" fill="rgb(99.606323%, 99.606323%, 100%)" fill-opacity="1" d="M 17.5 38.332031 L 24.800781 38.332031 L 24.800781 29.449219 L 17.5 29.449219 Z M 17.5 38.332031 "/>
<path fill-rule="evenodd" fill="rgb(99.606323%, 99.606323%, 100%)" fill-opacity="1" d="M 24.75 38.332031 L 32.050781 38.332031 L 32.050781 29.449219 L 24.75 29.449219 Z M 24.75 38.332031 "/>
<path fill-rule="evenodd" fill="rgb(99.215698%, 99.606323%, 100%)" fill-opacity="1" d="M 32 38.332031 L 39.300781 38.332031 L 39.300781 29.449219 L 32 29.449219 Z M 32 38.332031 "/>
<path fill-rule="evenodd" fill="rgb(100%, 100%, 100%)" fill-opacity="1" d="M 39.25 38.332031 L 46.550781 38.332031 L 46.550781 29.449219 L 39.25 29.449219 Z M 39.25 38.332031 "/>
<path fill-rule="evenodd" fill="rgb(100%, 99.606323%, 99.606323%)" fill-opacity="1" d="M 46.5 38.332031 L 53.800781 38.332031 L 53.800781 29.449219 L 46.5 29.449219 Z M 46.5 38.332031 "/>
<path fill-rule="evenodd" fill="rgb(99.215698%, 99.606323%, 100%)" fill-opacity="1" d="M 53.75 38.332031 L 61.050781 38.332031 L 61.050781 29.449219 L 53.75 29.449219 Z M 53.75 38.332031 "/>
<path fill-rule="evenodd" fill="rgb(99.606323%, 99.606323%, 100%)" fill-opacity="1" d="M 61 38.332031 L 68.300781 38.332031 L 68.300781 29.449219 L 61 29.449219 Z M 61 38.332031 "/>
<path fill-rule="evenodd" fill="rgb(99.606323%, 99.606323%, 100%)" fill-opacity="1" d="M 68.25 38.332031 L 75.550781 38.332031 L 75.550781 29.449219 L 68.25 29.449219 Z M 68.25 38.332031 "/>
<path fill-rule="evenodd" fill="rgb(100%, 100%, 100%)" fill-opacity="1" d="M 75.5 38.332031 L 82.800781 38.332031 L 82.800781 29.449219 L 75.5 29.449219 Z M 75.5 38.332031 "/>
<path fill-rule="evenodd" fill="rgb(100%, 99.215698%, 99.215698%)" fill-opacity="1" d="M 82.75 38.332031 L 90.050781 38.332031 L 90.050781 29.449219 L 82.75 29.449219 Z M 82.75 38.332031 "/>
<path fill-rule="evenodd" fill="rgb(99.606323%, 99.606323%, 100%)" fill-opacity="1" d="M 90 38.332031 L 97.300781 38.332031 L 97.300781 29.449219 L 90 29.449219 Z M 90 38.332031 "/>
<path fill-rule="evenodd" fill="rgb(99.215698%, 99.606323%, 100%)" fill-opacity="1" d="M 97.25 38.332031 L 104.550781 38.332031 L 104.550781 29.449219 L 97.25 29.449219 Z M 97.25 38.332031 "/>
<path fill-rule="evenodd" fill="rgb(98.822021%, 99.215698%, 100%)" fill-opacity="1" d="M 104.5 38.332031 L 111.800781 38.332031 L 111.800781 29.449219 L 104.5 29.449219 Z M 104.5 38.332031 "/>
<path fill-rule="evenodd" fill="rgb(100%, 100%, 100%)" fill-opacity="1" d="M 111.75 38.332031 L 119.050781 38.332031 L 119.050781 29.449219 L 111.75 29.449219 Z M 111.75 38.332031 "/>
<path fill-rule="evenodd" fill="rgb(100%, 99.606323%, 99.606323%)" fill-opacity="1" d="M 119 38.332031 L 126.300781 38.332031 L 126.300781 29.449219 L 119 29.449219 Z M 119 38.332031 "/>
<path fill-rule="evenodd" fill="rgb(100%, 98.822021%, 98.822021%)" fill-opacity="1" d="M 126.25 38.332031 L 133.550781 38.332031 L 133.550781 29.449219 L 126.25 29.449219 Z M 126.25 38.332031 "/>
<path fill-rule="evenodd" fill="rgb(100%, 98.822021%, 98.822021%)" fill-opacity="1" d="M 133.5 38.332031 L 140.800781 38.332031 L 140.800781 29.449219 L 133.5 29.449219 Z M 133.5 38.332031 "/>
<path fill-rule="evenodd" fill="rgb(99.606323%, 98.431396%, 98.431396%)" fill-opacity="1" d="M 140.75 38.332031 L 148.050781 38.332031 L 148.050781 29.449219 L 140.75 29.449219 Z M 140.75 38.332031 "/>
<path fill-rule="evenodd" fill="rgb(99.606323%, 98.03772%, 98.03772%)" fill-opacity="1" d="M 148 38.332031 L 155.300781 38.332031 L 155.300781 29.449219 L 148 29.449219 Z M 148 38.332031 "/>
<path fill-rule="evenodd" fill="rgb(99.606323%, 98.431396%, 98.431396%)" fill-opacity="1" d="M 155.25 38.332031 L 162.550781 38.332031 L 162.550781 29.449219 L 155.25 29.449219 Z M 155.25 38.332031 "/>
<path fill-rule="evenodd" fill="rgb(100%, 100%, 100%)" fill-opacity="1" d="M 162.5 38.332031 L 169.800781 38.332031 L 169.800781 29.449219 L 162.5 29.449219 Z M 162.5 38.332031 "/>
<path fill-rule="evenodd" fill="rgb(99.606323%, 99.606323%, 100%)" fill-opacity="1" d="M 169.75 38.332031 L 177.050781 38.332031 L 177.050781 29.449219 L 169.75 29.449219 Z M 169.75 38.332031 "/>
<path fill-rule="evenodd" fill="rgb(99.215698%, 99.606323%, 100%)" fill-opacity="1" d="M 3 47.167969 L 10.300781 47.167969 L 10.300781 38.285156 L 3 38.285156 Z M 3 47.167969 "/>
<path fill-rule="evenodd" fill="rgb(100%, 100%, 100%)" fill-opacity="1" d="M 10.25 47.167969 L 17.550781 47.167969 L 17.550781 38.285156 L 10.25 38.285156 Z M 10.25 47.167969 "/>
<path fill-rule="evenodd" fill="rgb(98.822021%, 99.215698%, 100%)" fill-opacity="1" d="M 17.5 47.167969 L 24.800781 47.167969 L 24.800781 38.285156 L 17.5 38.285156 Z M 17.5 47.167969 "/>
<path fill-rule="evenodd" fill="rgb(98.822021%, 99.215698%, 100%)" fill-opacity="1" d="M 24.75 47.167969 L 32.050781 47.167969 L 32.050781 38.285156 L 24.75 38.285156 Z M 24.75 47.167969 "/>
<path fill-rule="evenodd" fill="rgb(98.431396%, 98.822021%, 100%)" fill-opacity="1" d="M 32 47.167969 L 39.300781 47.167969 L 39.300781 38.285156 L 32 38.285156 Z M 32 47.167969 "/>
<path fill-rule="evenodd" fill="rgb(99.215698%, 99.606323%, 100%)" fill-opacity="1" d="M 39.25 47.167969 L 46.550781 47.167969 L 46.550781 38.285156 L 39.25 38.285156 Z M 39.25 47.167969 "/>
<path fill-rule="evenodd" fill="rgb(98.822021%, 99.215698%, 100%)" fill-opacity="1" d="M 46.5 47.167969 L 53.800781 47.167969 L 53.800781 38.285156 L 46.5 38.285156 Z M 46.5 47.167969 "/>
<path fill-rule="evenodd" fill="rgb(99.215698%, 99.606323%, 100%)" fill-opacity="1" d="M 53.75 47.167969 L 61.050781 47.167969 L 61.050781 38.285156 L 53.75 38.285156 Z M 53.75 47.167969 "/>
<path fill-rule="evenodd" fill="rgb(99.215698%, 99.606323%, 100%)" fill-opacity="1" d="M 61 47.167969 L 68.300781 47.167969 L 68.300781 38.285156 L 61 38.285156 Z M 61 47.167969 "/>
<path fill-rule="evenodd" fill="rgb(99.606323%, 99.606323%, 100%)" fill-opacity="1" d="M 68.25 47.167969 L 75.550781 47.167969 L 75.550781 38.285156 L 68.25 38.285156 Z M 68.25 47.167969 "/>
<path fill-rule="evenodd" fill="rgb(100%, 100%, 100%)" fill-opacity="1" d="M 75.5 47.167969 L 82.800781 47.167969 L 82.800781 38.285156 L 75.5 38.285156 Z M 75.5 47.167969 "/>
<path fill-rule="evenodd" fill="rgb(100%, 99.606323%, 99.606323%)" fill-opacity="1" d="M 82.75 47.167969 L 90.050781 47.167969 L 90.050781 38.285156 L 82.75 38.285156 Z M 82.75 47.167969 "/>
<path fill-rule="evenodd" fill="rgb(98.822021%, 99.215698%, 100%)" fill-opacity="1" d="M 90 47.167969 L 97.300781 47.167969 L 97.300781 38.285156 L 90 38.285156 Z M 90 47.167969 "/>
<path fill-rule="evenodd" fill="rgb(98.822021%, 99.215698%, 100%)" fill-opacity="1" d="M 97.25 47.167969 L 104.550781 47.167969 L 104.550781 38.285156 L 97.25 38.285156 Z M 97.25 47.167969 "/>
<path fill-rule="evenodd" fill="rgb(98.431396%, 98.822021%, 100%)" fill-opacity="1" d="M 104.5 47.167969 L 111.800781 47.167969 L 111.800781 38.285156 L 104.5 38.285156 Z M 104.5 47.167969 "/>
<path fill-rule="evenodd" fill="rgb(99.606323%, 99.606323%, 100%)" fill-opacity="1" d="M 111.75 47.167969 L 119.050781 47.167969 L 119.050781 38.285156 L 111.75 38.285156 Z M 111.75 47.167969 "/>
<path fill-rule="evenodd" fill="rgb(99.606323%, 99.606323%, 100%)" fill-opacity="1" d="M 119 47.167969 L 126.300781 47.167969 L 126.300781 38.285156 L 119 38.285156 Z M 119 47.167969 "/>
<path fill-rule="evenodd" fill="rgb(99.606323%, 99.606323%, 100%)" fill-opacity="1" d="M 126.25 47.167969 L 133.550781 47.167969 L 133.550781 38.285156 L 126.25 38.285156 Z M 126.25 47.167969 "/>
<path fill-rule="evenodd" fill="rgb(100%, 100%, 100%)" fill-opacity="1" d="M 133.5 47.167969 L 140.800781 47.167969 L 140.800781 38.285156 L 133.5 38.285156 Z M 133.5 47.167969 "/>
<path fill-rule="evenodd" fill="rgb(100%, 100%, 100%)" fill-opacity="1" d="M 140.75 47.167969 L 148.050781 47.167969 L 148.050781 38.285156 L 140.75 38.285156 Z M 140.75 47.167969 "/>
<path fill-rule="evenodd" fill="rgb(100%, 99.215698%, 99.215698%)" fill-opacity="1" d="M 148 47.167969 L 155.300781 47.167969 L 155.300781 38.285156 L 148 38.285156 Z M 148 47.167969 "/>
<path fill-rule="evenodd" fill="rgb(100%, 99.606323%, 99.606323%)" fill-opacity="1" d="M 155.25 47.167969 L 162.550781 47.167969 L 162.550781 38.285156 L 155.25 38.285156 Z M 155.25 47.167969 "/>
<path fill-rule="evenodd" fill="rgb(99.606323%, 100%, 100%)" fill-opacity="1" d="M 162.5 47.167969 L 169.800781 47.167969 L 169.800781 38.285156 L 162.5 38.285156 Z M 162.5 47.167969 "/>
<path fill-rule="evenodd" fill="rgb(98.822021%, 99.215698%, 100%)" fill-opacity="1" d="M 169.75 47.167969 L 177.050781 47.167969 L 177.050781 38.285156 L 169.75 38.285156 Z M 169.75 47.167969 "/>
<path fill-rule="evenodd" fill="rgb(96.469116%, 97.253418%, 99.606323%)" fill-opacity="1" d="M 3 56 L 10.300781 56 L 10.300781 47.117188 L 3 47.117188 Z M 3 56 "/>
<path fill-rule="evenodd" fill="rgb(99.215698%, 99.215698%, 100%)" fill-opacity="1" d="M 10.25 56 L 17.550781 56 L 17.550781 47.117188 L 10.25 47.117188 Z M 10.25 56 "/>
<path fill-rule="evenodd" fill="rgb(94.900513%, 96.469116%, 99.606323%)" fill-opacity="1" d="M 17.5 56 L 24.800781 56 L 24.800781 47.117188 L 17.5 47.117188 Z M 17.5 56 "/>
<path fill-rule="evenodd" fill="rgb(94.900513%, 96.469116%, 99.606323%)" fill-opacity="1" d="M 24.75 56 L 32.050781 56 L 32.050781 47.117188 L 24.75 47.117188 Z M 24.75 56 "/>
<path fill-rule="evenodd" fill="rgb(100%, 100%, 100%)" fill-opacity="1" d="M 32 56 L 39.300781 56 L 39.300781 47.117188 L 32 47.117188 Z M 32 56 "/>
<path fill-rule="evenodd" fill="rgb(100%, 100%, 100%)" fill-opacity="1" d="M 39.25 56 L 46.550781 56 L 46.550781 47.117188 L 39.25 47.117188 Z M 39.25 56 "/>
<path fill-rule="evenodd" fill="rgb(95.684814%, 96.861267%, 99.606323%)" fill-opacity="1" d="M 46.5 56 L 53.800781 56 L 53.800781 47.117188 L 46.5 47.117188 Z M 46.5 56 "/>
<path fill-rule="evenodd" fill="rgb(99.606323%, 99.606323%, 100%)" fill-opacity="1" d="M 53.75 56 L 61.050781 56 L 61.050781 47.117188 L 53.75 47.117188 Z M 53.75 56 "/>
<path fill-rule="evenodd" fill="rgb(100%, 100%, 100%)" fill-opacity="1" d="M 61 56 L 68.300781 56 L 68.300781 47.117188 L 61 47.117188 Z M 61 56 "/>
<path fill-rule="evenodd" fill="rgb(100%, 99.606323%, 99.606323%)" fill-opacity="1" d="M 68.25 56 L 75.550781 56 L 75.550781 47.117188 L 68.25 47.117188 Z M 68.25 56 "/>
<path fill-rule="evenodd" fill="rgb(100%, 99.606323%, 99.606323%)" fill-opacity="1" d="M 75.5 56 L 82.800781 56 L 82.800781 47.117188 L 75.5 47.117188 Z M 75.5 56 "/>
<path fill-rule="evenodd" fill="rgb(99.606323%, 99.606323%, 100%)" fill-opacity="1" d="M 82.75 56 L 90.050781 56 L 90.050781 47.117188 L 82.75 47.117188 Z M 82.75 56 "/>
<path fill-rule="evenodd" fill="rgb(99.606323%, 99.606323%, 100%)" fill-opacity="1" d="M 90 56 L 97.300781 56 L 97.300781 47.117188 L 90 47.117188 Z M 90 56 "/>
<path fill-rule="evenodd" fill="rgb(99.606323%, 97.253418%, 97.253418%)" fill-opacity="1" d="M 97.25 56 L 104.550781 56 L 104.550781 47.117188 L 97.25 47.117188 Z M 97.25 56 "/>
<path fill-rule="evenodd" fill="rgb(99.215698%, 95.684814%, 95.684814%)" fill-opacity="1" d="M 104.5 56 L 111.800781 56 L 111.800781 47.117188 L 104.5 47.117188 Z M 104.5 56 "/>
<path fill-rule="evenodd" fill="rgb(98.822021%, 99.215698%, 100%)" fill-opacity="1" d="M 111.75 56 L 119.050781 56 L 119.050781 47.117188 L 111.75 47.117188 Z M 111.75 56 "/>
<path fill-rule="evenodd" fill="rgb(97.647095%, 98.431396%, 99.606323%)" fill-opacity="1" d="M 119 56 L 126.300781 56 L 126.300781 47.117188 L 119 47.117188 Z M 119 56 "/>
<path fill-rule="evenodd" fill="rgb(94.508362%, 96.076965%, 99.606323%)" fill-opacity="1" d="M 126.25 56 L 133.550781 56 L 133.550781 47.117188 L 126.25 47.117188 Z M 126.25 56 "/>
<path fill-rule="evenodd" fill="rgb(94.900513%, 96.076965%, 99.606323%)" fill-opacity="1" d="M 133.5 56 L 140.800781 56 L 140.800781 47.117188 L 133.5 47.117188 Z M 133.5 56 "/>
<path fill-rule="evenodd" fill="rgb(95.684814%, 96.861267%, 99.606323%)" fill-opacity="1" d="M 140.75 56 L 148.050781 56 L 148.050781 47.117188 L 140.75 47.117188 Z M 140.75 56 "/>
<path fill-rule="evenodd" fill="rgb(92.155457%, 94.508362%, 99.215698%)" fill-opacity="1" d="M 148 56 L 155.300781 56 L 155.300781 47.117188 L 148 47.117188 Z M 148 56 "/>
<path fill-rule="evenodd" fill="rgb(93.331909%, 95.292664%, 99.215698%)" fill-opacity="1" d="M 155.25 56 L 162.550781 56 L 162.550781 47.117188 L 155.25 47.117188 Z M 155.25 56 "/>
<path fill-rule="evenodd" fill="rgb(99.215698%, 99.606323%, 100%)" fill-opacity="1" d="M 162.5 56 L 169.800781 56 L 169.800781 47.117188 L 162.5 47.117188 Z M 162.5 56 "/>
<path fill-rule="evenodd" fill="rgb(97.253418%, 98.03772%, 99.606323%)" fill-opacity="1" d="M 169.75 56 L 177.050781 56 L 177.050781 47.117188 L 169.75 47.117188 Z M 169.75 56 "/>
<path fill-rule="evenodd" fill="rgb(100%, 99.606323%, 99.606323%)" fill-opacity="1" d="M 3 64.832031 L 10.300781 64.832031 L 10.300781 55.949219 L 3 55.949219 Z M 3 64.832031 "/>
<path fill-rule="evenodd" fill="rgb(100%, 99.606323%, 99.606323%)" fill-opacity="1" d="M 10.25 64.832031 L 17.550781 64.832031 L 17.550781 55.949219 L 10.25 55.949219 Z M 10.25 64.832031 "/>
<path fill-rule="evenodd" fill="rgb(99.215698%, 94.508362%, 94.508362%)" fill-opacity="1" d="M 17.5 64.832031 L 24.800781 64.832031 L 24.800781 55.949219 L 17.5 55.949219 Z M 17.5 64.832031 "/>
<path fill-rule="evenodd" fill="rgb(99.215698%, 94.508362%, 94.508362%)" fill-opacity="1" d="M 24.75 64.832031 L 32.050781 64.832031 L 32.050781 55.949219 L 24.75 55.949219 Z M 24.75 64.832031 "/>
<path fill-rule="evenodd" fill="rgb(99.215698%, 94.508362%, 94.508362%)" fill-opacity="1" d="M 32 64.832031 L 39.300781 64.832031 L 39.300781 55.949219 L 32 55.949219 Z M 32 64.832031 "/>
<path fill-rule="evenodd" fill="rgb(98.431396%, 90.194702%, 90.194702%)" fill-opacity="1" d="M 39.25 64.832031 L 46.550781 64.832031 L 46.550781 55.949219 L 39.25 55.949219 Z M 39.25 64.832031 "/>
<path fill-rule="evenodd" fill="rgb(98.431396%, 90.194702%, 90.194702%)" fill-opacity="1" d="M 46.5 64.832031 L 53.800781 64.832031 L 53.800781 55.949219 L 46.5 55.949219 Z M 46.5 64.832031 "/>
<path fill-rule="evenodd" fill="rgb(100%, 99.606323%, 99.606323%)" fill-opacity="1" d="M 53.75 64.832031 L 61.050781 64.832031 L 61.050781 55.949219 L 53.75 55.949219 Z M 53.75 64.832031 "/>
<path fill-rule="evenodd" fill="rgb(99.606323%, 98.822021%, 98.822021%)" fill-opacity="1" d="M 61 64.832031 L 68.300781 64.832031 L 68.300781 55.949219 L 61 55.949219 Z M 61 64.832031 "/>
<path fill-rule="evenodd" fill="rgb(98.822021%, 99.215698%, 100%)" fill-opacity="1" d="M 68.25 64.832031 L 75.550781 64.832031 L 75.550781 55.949219 L 68.25 55.949219 Z M 68.25 64.832031 "/>
<path fill-rule="evenodd" fill="rgb(98.822021%, 99.215698%, 100%)" fill-opacity="1" d="M 75.5 64.832031 L 82.800781 64.832031 L 82.800781 55.949219 L 75.5 55.949219 Z M 75.5 64.832031 "/>
<path fill-rule="evenodd" fill="rgb(98.431396%, 98.822021%, 100%)" fill-opacity="1" d="M 82.75 64.832031 L 90.050781 64.832031 L 90.050781 55.949219 L 82.75 55.949219 Z M 82.75 64.832031 "/>
<path fill-rule="evenodd" fill="rgb(99.215698%, 96.076965%, 96.076965%)" fill-opacity="1" d="M 90 64.832031 L 97.300781 64.832031 L 97.300781 55.949219 L 90 55.949219 Z M 90 64.832031 "/>
<path fill-rule="evenodd" fill="rgb(95.292664%, 96.469116%, 99.606323%)" fill-opacity="1" d="M 97.25 64.832031 L 104.550781 64.832031 L 104.550781 55.949219 L 97.25 55.949219 Z M 97.25 64.832031 "/>
<path fill-rule="evenodd" fill="rgb(92.939758%, 94.900513%, 99.215698%)" fill-opacity="1" d="M 104.5 64.832031 L 111.800781 64.832031 L 111.800781 55.949219 L 104.5 55.949219 Z M 104.5 64.832031 "/>
<path fill-rule="evenodd" fill="rgb(99.606323%, 97.647095%, 97.647095%)" fill-opacity="1" d="M 111.75 64.832031 L 119.050781 64.832031 L 119.050781 55.949219 L 111.75 55.949219 Z M 111.75 64.832031 "/>
<path fill-rule="evenodd" fill="rgb(99.215698%, 95.292664%, 95.292664%)" fill-opacity="1" d="M 119 64.832031 L 126.300781 64.832031 L 126.300781 55.949219 L 119 55.949219 Z M 119 64.832031 "/>
<path fill-rule="evenodd" fill="rgb(98.03772%, 88.626099%, 88.626099%)" fill-opacity="1" d="M 126.25 64.832031 L 133.550781 64.832031 L 133.550781 55.949219 L 126.25 55.949219 Z M 126.25 64.832031 "/>
<path fill-rule="evenodd" fill="rgb(97.647095%, 84.70459%, 84.70459%)" fill-opacity="1" d="M 133.5 64.832031 L 140.800781 64.832031 L 140.800781 55.949219 L 133.5 55.949219 Z M 133.5 64.832031 "/>
<path fill-rule="evenodd" fill="rgb(97.253418%, 82.351685%, 82.351685%)" fill-opacity="1" d="M 140.75 64.832031 L 148.050781 64.832031 L 148.050781 55.949219 L 140.75 55.949219 Z M 140.75 64.832031 "/>
<path fill-rule="evenodd" fill="rgb(96.469116%, 78.038025%, 78.038025%)" fill-opacity="1" d="M 148 64.832031 L 155.300781 64.832031 L 155.300781 55.949219 L 148 55.949219 Z M 148 64.832031 "/>
<path fill-rule="evenodd" fill="rgb(97.253418%, 83.135986%, 83.135986%)" fill-opacity="1" d="M 155.25 64.832031 L 162.550781 64.832031 L 162.550781 55.949219 L 155.25 55.949219 Z M 155.25 64.832031 "/>
<path fill-rule="evenodd" fill="rgb(100%, 98.822021%, 98.822021%)" fill-opacity="1" d="M 162.5 64.832031 L 169.800781 64.832031 L 169.800781 55.949219 L 162.5 55.949219 Z M 162.5 64.832031 "/>
<path fill-rule="evenodd" fill="rgb(98.03772%, 98.431396%, 100%)" fill-opacity="1" d="M 169.75 64.832031 L 177.050781 64.832031 L 177.050781 55.949219 L 169.75 55.949219 Z M 169.75 64.832031 "/>
<path fill-rule="evenodd" fill="rgb(98.822021%, 92.155457%, 92.155457%)" fill-opacity="1" d="M 3 73.667969 L 10.300781 73.667969 L 10.300781 64.785156 L 3 64.785156 Z M 3 73.667969 "/>
<path fill-rule="evenodd" fill="rgb(100%, 99.606323%, 99.606323%)" fill-opacity="1" d="M 10.25 73.667969 L 17.550781 73.667969 L 17.550781 64.785156 L 10.25 64.785156 Z M 10.25 73.667969 "/>
<path fill-rule="evenodd" fill="rgb(98.431396%, 91.371155%, 91.371155%)" fill-opacity="1" d="M 17.5 73.667969 L 24.800781 73.667969 L 24.800781 64.785156 L 17.5 64.785156 Z M 17.5 73.667969 "/>
<path fill-rule="evenodd" fill="rgb(98.822021%, 91.763306%, 91.763306%)" fill-opacity="1" d="M 24.75 73.667969 L 32.050781 73.667969 L 32.050781 64.785156 L 24.75 64.785156 Z M 24.75 73.667969 "/>
<path fill-rule="evenodd" fill="rgb(100%, 99.215698%, 99.215698%)" fill-opacity="1" d="M 32 73.667969 L 39.300781 73.667969 L 39.300781 64.785156 L 32 64.785156 Z M 32 73.667969 "/>
<path fill-rule="evenodd" fill="rgb(99.606323%, 99.606323%, 100%)" fill-opacity="1" d="M 39.25 73.667969 L 46.550781 73.667969 L 46.550781 64.785156 L 39.25 64.785156 Z M 39.25 73.667969 "/>
<path fill-rule="evenodd" fill="rgb(96.469116%, 97.647095%, 99.606323%)" fill-opacity="1" d="M 46.5 73.667969 L 53.800781 73.667969 L 53.800781 64.785156 L 46.5 64.785156 Z M 46.5 73.667969 "/>
<path fill-rule="evenodd" fill="rgb(99.606323%, 98.822021%, 98.822021%)" fill-opacity="1" d="M 53.75 73.667969 L 61.050781 73.667969 L 61.050781 64.785156 L 53.75 64.785156 Z M 53.75 73.667969 "/>
<path fill-rule="evenodd" fill="rgb(100%, 99.606323%, 99.606323%)" fill-opacity="1" d="M 61 73.667969 L 68.300781 73.667969 L 68.300781 64.785156 L 61 64.785156 Z M 61 73.667969 "/>
<path fill-rule="evenodd" fill="rgb(100%, 100%, 100%)" fill-opacity="1" d="M 68.25 73.667969 L 75.550781 73.667969 L 75.550781 64.785156 L 68.25 64.785156 Z M 68.25 73.667969 "/>
<path fill-rule="evenodd" fill="rgb(99.606323%, 97.253418%, 97.253418%)" fill-opacity="1" d="M 75.5 73.667969 L 82.800781 73.667969 L 82.800781 64.785156 L 75.5 64.785156 Z M 75.5 73.667969 "/>
<path fill-rule="evenodd" fill="rgb(98.822021%, 99.215698%, 100%)" fill-opacity="1" d="M 82.75 73.667969 L 90.050781 73.667969 L 90.050781 64.785156 L 82.75 64.785156 Z M 82.75 73.667969 "/>
<path fill-rule="evenodd" fill="rgb(93.331909%, 95.292664%, 99.215698%)" fill-opacity="1" d="M 90 73.667969 L 97.300781 73.667969 L 97.300781 64.785156 L 90 64.785156 Z M 90 73.667969 "/>
<path fill-rule="evenodd" fill="rgb(82.351685%, 87.449646%, 98.431396%)" fill-opacity="1" d="M 97.25 73.667969 L 104.550781 73.667969 L 104.550781 64.785156 L 97.25 64.785156 Z M 97.25 73.667969 "/>
<path fill-rule="evenodd" fill="rgb(100%, 99.215698%, 99.215698%)" fill-opacity="1" d="M 104.5 73.667969 L 111.800781 73.667969 L 111.800781 64.785156 L 104.5 64.785156 Z M 104.5 73.667969 "/>
<path fill-rule="evenodd" fill="rgb(99.606323%, 98.431396%, 98.431396%)" fill-opacity="1" d="M 111.75 73.667969 L 119.050781 73.667969 L 119.050781 64.785156 L 111.75 64.785156 Z M 111.75 73.667969 "/>
<path fill-rule="evenodd" fill="rgb(99.606323%, 98.03772%, 98.03772%)" fill-opacity="1" d="M 119 73.667969 L 126.300781 73.667969 L 126.300781 64.785156 L 119 64.785156 Z M 119 73.667969 "/>
<path fill-rule="evenodd" fill="rgb(99.606323%, 96.861267%, 96.861267%)" fill-opacity="1" d="M 126.25 73.667969 L 133.550781 73.667969 L 133.550781 64.785156 L 126.25 64.785156 Z M 126.25 73.667969 "/>
<path fill-rule="evenodd" fill="rgb(98.03772%, 98.822021%, 100%)" fill-opacity="1" d="M 133.5 73.667969 L 140.800781 73.667969 L 140.800781 64.785156 L 133.5 64.785156 Z M 133.5 73.667969 "/>
<path fill-rule="evenodd" fill="rgb(93.331909%, 95.292664%, 99.215698%)" fill-opacity="1" d="M 140.75 73.667969 L 148.050781 73.667969 L 148.050781 64.785156 L 140.75 64.785156 Z M 140.75 73.667969 "/>
<path fill-rule="evenodd" fill="rgb(83.528137%, 88.233948%, 98.431396%)" fill-opacity="1" d="M 148 73.667969 L 155.300781 73.667969 L 155.300781 64.785156 L 148 64.785156 Z M 148 73.667969 "/>
<path fill-rule="evenodd" fill="rgb(86.665344%, 90.586853%, 98.822021%)" fill-opacity="1" d="M 155.25 73.667969 L 162.550781 73.667969 L 162.550781 64.785156 L 155.25 64.785156 Z M 155.25 73.667969 "/>
<path fill-rule="evenodd" fill="rgb(99.215698%, 96.076965%, 96.076965%)" fill-opacity="1" d="M 162.5 73.667969 L 169.800781 73.667969 L 169.800781 64.785156 L 162.5 64.785156 Z M 162.5 73.667969 "/>
<path fill-rule="evenodd" fill="rgb(98.822021%, 91.763306%, 91.763306%)" fill-opacity="1" d="M 169.75 73.667969 L 177.050781 73.667969 L 177.050781 64.785156 L 169.75 64.785156 Z M 169.75 73.667969 "/>
<path fill-rule="evenodd" fill="rgb(100%, 99.606323%, 99.606323%)" fill-opacity="1" d="M 3 82.5 L 10.300781 82.5 L 10.300781 73.617188 L 3 73.617188 Z M 3 82.5 "/>
<path fill-rule="evenodd" fill="rgb(100%, 100%, 100%)" fill-opacity="1" d="M 10.25 82.5 L 17.550781 82.5 L 17.550781 73.617188 L 10.25 73.617188 Z M 10.25 82.5 "/>
<path fill-rule="evenodd" fill="rgb(100%, 99.606323%, 99.606323%)" fill-opacity="1" d="M 17.5 82.5 L 24.800781 82.5 L 24.800781 73.617188 L 17.5 73.617188 Z M 17.5 82.5 "/>
<path fill-rule="evenodd" fill="rgb(100%, 99.606323%, 99.606323%)" fill-opacity="1" d="M 24.75 82.5 L 32.050781 82.5 L 32.050781 73.617188 L 24.75 73.617188 Z M 24.75 82.5 "/>
<path fill-rule="evenodd" fill="rgb(100%, 99.215698%, 99.215698%)" fill-opacity="1" d="M 32 82.5 L 39.300781 82.5 L 39.300781 73.617188 L 32 73.617188 Z M 32 82.5 "/>
<path fill-rule="evenodd" fill="rgb(99.606323%, 98.431396%, 98.431396%)" fill-opacity="1" d="M 39.25 82.5 L 46.550781 82.5 L 46.550781 73.617188 L 39.25 73.617188 Z M 39.25 82.5 "/>
<path fill-rule="evenodd" fill="rgb(100%, 100%, 100%)" fill-opacity="1" d="M 46.5 82.5 L 53.800781 82.5 L 53.800781 73.617188 L 46.5 73.617188 Z M 46.5 82.5 "/>
<path fill-rule="evenodd" fill="rgb(100%, 100%, 100%)" fill-opacity="1" d="M 53.75 82.5 L 61.050781 82.5 L 61.050781 73.617188 L 53.75 73.617188 Z M 53.75 82.5 "/>
<path fill-rule="evenodd" fill="rgb(100%, 99.606323%, 99.606323%)" fill-opacity="1" d="M 61 82.5 L 68.300781 82.5 L 68.300781 73.617188 L 61 73.617188 Z M 61 82.5 "/>
<path fill-rule="evenodd" fill="rgb(100%, 100%, 100%)" fill-opacity="1" d="M 68.25 82.5 L 75.550781 82.5 L 75.550781 73.617188 L 68.25 73.617188 Z M 68.25 82.5 "/>
<path fill-rule="evenodd" fill="rgb(100%, 100%, 100%)" fill-opacity="1" d="M 75.5 82.5 L 82.800781 82.5 L 82.800781 73.617188 L 75.5 73.617188 Z M 75.5 82.5 "/>
<path fill-rule="evenodd" fill="rgb(99.606323%, 99.606323%, 100%)" fill-opacity="1" d="M 82.75 82.5 L 90.050781 82.5 L 90.050781 73.617188 L 82.75 73.617188 Z M 82.75 82.5 "/>
<path fill-rule="evenodd" fill="rgb(100%, 100%, 100%)" fill-opacity="1" d="M 90 82.5 L 97.300781 82.5 L 97.300781 73.617188 L 90 73.617188 Z M 90 82.5 "/>
<path fill-rule="evenodd" fill="rgb(99.215698%, 99.606323%, 100%)" fill-opacity="1" d="M 97.25 82.5 L 104.550781 82.5 L 104.550781 73.617188 L 97.25 73.617188 Z M 97.25 82.5 "/>
<path fill-rule="evenodd" fill="rgb(98.822021%, 99.215698%, 100%)" fill-opacity="1" d="M 104.5 82.5 L 111.800781 82.5 L 111.800781 73.617188 L 104.5 73.617188 Z M 104.5 82.5 "/>
<path fill-rule="evenodd" fill="rgb(99.606323%, 99.606323%, 100%)" fill-opacity="1" d="M 111.75 82.5 L 119.050781 82.5 L 119.050781 73.617188 L 111.75 73.617188 Z M 111.75 82.5 "/>
<path fill-rule="evenodd" fill="rgb(99.215698%, 99.606323%, 100%)" fill-opacity="1" d="M 119 82.5 L 126.300781 82.5 L 126.300781 73.617188 L 119 73.617188 Z M 119 82.5 "/>
<path fill-rule="evenodd" fill="rgb(99.606323%, 99.606323%, 100%)" fill-opacity="1" d="M 126.25 82.5 L 133.550781 82.5 L 133.550781 73.617188 L 126.25 73.617188 Z M 126.25 82.5 "/>
<path fill-rule="evenodd" fill="rgb(99.606323%, 97.647095%, 97.647095%)" fill-opacity="1" d="M 133.5 82.5 L 140.800781 82.5 L 140.800781 73.617188 L 133.5 73.617188 Z M 133.5 82.5 "/>
<path fill-rule="evenodd" fill="rgb(99.606323%, 97.253418%, 97.253418%)" fill-opacity="1" d="M 140.75 82.5 L 148.050781 82.5 L 148.050781 73.617188 L 140.75 73.617188 Z M 140.75 82.5 "/>
<path fill-rule="evenodd" fill="rgb(99.215698%, 94.508362%, 94.508362%)" fill-opacity="1" d="M 148 82.5 L 155.300781 82.5 L 155.300781 73.617188 L 148 73.617188 Z M 148 82.5 "/>
<path fill-rule="evenodd" fill="rgb(99.215698%, 95.684814%, 95.684814%)" fill-opacity="1" d="M 155.25 82.5 L 162.550781 82.5 L 162.550781 73.617188 L 155.25 73.617188 Z M 155.25 82.5 "/>
<path fill-rule="evenodd" fill="rgb(99.215698%, 99.606323%, 100%)" fill-opacity="1" d="M 162.5 82.5 L 169.800781 82.5 L 169.800781 73.617188 L 162.5 73.617188 Z M 162.5 82.5 "/>
<path fill-rule="evenodd" fill="rgb(98.431396%, 98.822021%, 100%)" fill-opacity="1" d="M 169.75 82.5 L 177.050781 82.5 L 177.050781 73.617188 L 169.75 73.617188 Z M 169.75 82.5 "/>
<path fill-rule="evenodd" fill="rgb(99.606323%, 97.647095%, 97.647095%)" fill-opacity="1" d="M 3 91.332031 L 10.300781 91.332031 L 10.300781 82.449219 L 3 82.449219 Z M 3 91.332031 "/>
<path fill-rule="evenodd" fill="rgb(100%, 99.606323%, 99.606323%)" fill-opacity="1" d="M 10.25 91.332031 L 17.550781 91.332031 L 17.550781 82.449219 L 10.25 82.449219 Z M 10.25 91.332031 "/>
<path fill-rule="evenodd" fill="rgb(99.606323%, 97.647095%, 97.647095%)" fill-opacity="1" d="M 17.5 91.332031 L 24.800781 91.332031 L 24.800781 82.449219 L 17.5 82.449219 Z M 17.5 91.332031 "/>
<path fill-rule="evenodd" fill="rgb(99.606323%, 98.03772%, 98.03772%)" fill-opacity="1" d="M 24.75 91.332031 L 32.050781 91.332031 L 32.050781 82.449219 L 24.75 82.449219 Z M 24.75 91.332031 "/>
<path fill-rule="evenodd" fill="rgb(100%, 100%, 100%)" fill-opacity="1" d="M 32 91.332031 L 39.300781 91.332031 L 39.300781 82.449219 L 32 82.449219 Z M 32 91.332031 "/>
<path fill-rule="evenodd" fill="rgb(99.215698%, 99.606323%, 100%)" fill-opacity="1" d="M 39.25 91.332031 L 46.550781 91.332031 L 46.550781 82.449219 L 39.25 82.449219 Z M 39.25 91.332031 "/>
<path fill-rule="evenodd" fill="rgb(100%, 100%, 100%)" fill-opacity="1" d="M 46.5 91.332031 L 53.800781 91.332031 L 53.800781 82.449219 L 46.5 82.449219 Z M 46.5 91.332031 "/>
<path fill-rule="evenodd" fill="rgb(100%, 99.215698%, 99.215698%)" fill-opacity="1" d="M 53.75 91.332031 L 61.050781 91.332031 L 61.050781 82.449219 L 53.75 82.449219 Z M 53.75 91.332031 "/>
<path fill-rule="evenodd" fill="rgb(100%, 99.215698%, 99.215698%)" fill-opacity="1" d="M 61 91.332031 L 68.300781 91.332031 L 68.300781 82.449219 L 61 82.449219 Z M 61 91.332031 "/>
<path fill-rule="evenodd" fill="rgb(100%, 99.606323%, 99.606323%)" fill-opacity="1" d="M 68.25 91.332031 L 75.550781 91.332031 L 75.550781 82.449219 L 68.25 82.449219 Z M 68.25 91.332031 "/>
<path fill-rule="evenodd" fill="rgb(100%, 99.215698%, 99.215698%)" fill-opacity="1" d="M 75.5 91.332031 L 82.800781 91.332031 L 82.800781 82.449219 L 75.5 82.449219 Z M 75.5 91.332031 "/>
<path fill-rule="evenodd" fill="rgb(100%, 99.215698%, 99.215698%)" fill-opacity="1" d="M 82.75 91.332031 L 90.050781 91.332031 L 90.050781 82.449219 L 82.75 82.449219 Z M 82.75 91.332031 "/>
<path fill-rule="evenodd" fill="rgb(100%, 99.606323%, 99.606323%)" fill-opacity="1" d="M 90 91.332031 L 97.300781 91.332031 L 97.300781 82.449219 L 90 82.449219 Z M 90 91.332031 "/>
<path fill-rule="evenodd" fill="rgb(99.606323%, 98.431396%, 98.431396%)" fill-opacity="1" d="M 97.25 91.332031 L 104.550781 91.332031 L 104.550781 82.449219 L 97.25 82.449219 Z M 97.25 91.332031 "/>
<path fill-rule="evenodd" fill="rgb(99.606323%, 97.647095%, 97.647095%)" fill-opacity="1" d="M 104.5 91.332031 L 111.800781 91.332031 L 111.800781 82.449219 L 104.5 82.449219 Z M 104.5 91.332031 "/>
<path fill-rule="evenodd" fill="rgb(100%, 99.215698%, 99.215698%)" fill-opacity="1" d="M 111.75 91.332031 L 119.050781 91.332031 L 119.050781 82.449219 L 111.75 82.449219 Z M 111.75 91.332031 "/>
<path fill-rule="evenodd" fill="rgb(100%, 99.606323%, 99.606323%)" fill-opacity="1" d="M 119 91.332031 L 126.300781 91.332031 L 126.300781 82.449219 L 119 82.449219 Z M 119 91.332031 "/>
<path fill-rule="evenodd" fill="rgb(100%, 99.606323%, 99.606323%)" fill-opacity="1" d="M 126.25 91.332031 L 133.550781 91.332031 L 133.550781 82.449219 L 126.25 82.449219 Z M 126.25 91.332031 "/>
<path fill-rule="evenodd" fill="rgb(99.606323%, 99.606323%, 100%)" fill-opacity="1" d="M 133.5 91.332031 L 140.800781 91.332031 L 140.800781 82.449219 L 133.5 82.449219 Z M 133.5 91.332031 "/>
<path fill-rule="evenodd" fill="rgb(98.822021%, 99.215698%, 100%)" fill-opacity="1" d="M 140.75 91.332031 L 148.050781 91.332031 L 148.050781 82.449219 L 140.75 82.449219 Z M 140.75 91.332031 "/>
<path fill-rule="evenodd" fill="rgb(99.606323%, 99.606323%, 100%)" fill-opacity="1" d="M 148 91.332031 L 155.300781 91.332031 L 155.300781 82.449219 L 148 82.449219 Z M 148 91.332031 "/>
<path fill-rule="evenodd" fill="rgb(100%, 99.606323%, 99.606323%)" fill-opacity="1" d="M 155.25 91.332031 L 162.550781 91.332031 L 162.550781 82.449219 L 155.25 82.449219 Z M 155.25 91.332031 "/>
<path fill-rule="evenodd" fill="rgb(99.606323%, 98.822021%, 98.822021%)" fill-opacity="1" d="M 162.5 91.332031 L 169.800781 91.332031 L 169.800781 82.449219 L 162.5 82.449219 Z M 162.5 91.332031 "/>
<path fill-rule="evenodd" fill="rgb(99.606323%, 97.647095%, 97.647095%)" fill-opacity="1" d="M 169.75 91.332031 L 177.050781 91.332031 L 177.050781 82.449219 L 169.75 82.449219 Z M 169.75 91.332031 "/>
<path fill-rule="evenodd" fill="rgb(100%, 100%, 100%)" fill-opacity="1" d="M 3 100.167969 L 10.300781 100.167969 L 10.300781 91.285156 L 3 91.285156 Z M 3 100.167969 "/>
<path fill-rule="evenodd" fill="rgb(100%, 100%, 100%)" fill-opacity="1" d="M 10.25 100.167969 L 17.550781 100.167969 L 17.550781 91.285156 L 10.25 91.285156 Z M 10.25 100.167969 "/>
<path fill-rule="evenodd" fill="rgb(100%, 100%, 100%)" fill-opacity="1" d="M 17.5 100.167969 L 24.800781 100.167969 L 24.800781 91.285156 L 17.5 91.285156 Z M 17.5 100.167969 "/>
<path fill-rule="evenodd" fill="rgb(100%, 100%, 100%)" fill-opacity="1" d="M 24.75 100.167969 L 32.050781 100.167969 L 32.050781 91.285156 L 24.75 91.285156 Z M 24.75 100.167969 "/>
<path fill-rule="evenodd" fill="rgb(100%, 100%, 100%)" fill-opacity="1" d="M 32 100.167969 L 39.300781 100.167969 L 39.300781 91.285156 L 32 91.285156 Z M 32 100.167969 "/>
<path fill-rule="evenodd" fill="rgb(100%, 100%, 100%)" fill-opacity="1" d="M 39.25 100.167969 L 46.550781 100.167969 L 46.550781 91.285156 L 39.25 91.285156 Z M 39.25 100.167969 "/>
<path fill-rule="evenodd" fill="rgb(100%, 100%, 100%)" fill-opacity="1" d="M 46.5 100.167969 L 53.800781 100.167969 L 53.800781 91.285156 L 46.5 91.285156 Z M 46.5 100.167969 "/>
<path fill-rule="evenodd" fill="rgb(100%, 100%, 100%)" fill-opacity="1" d="M 53.75 100.167969 L 61.050781 100.167969 L 61.050781 91.285156 L 53.75 91.285156 Z M 53.75 100.167969 "/>
<path fill-rule="evenodd" fill="rgb(100%, 100%, 100%)" fill-opacity="1" d="M 61 100.167969 L 68.300781 100.167969 L 68.300781 91.285156 L 61 91.285156 Z M 61 100.167969 "/>
<path fill-rule="evenodd" fill="rgb(100%, 100%, 100%)" fill-opacity="1" d="M 68.25 100.167969 L 75.550781 100.167969 L 75.550781 91.285156 L 68.25 91.285156 Z M 68.25 100.167969 "/>
<path fill-rule="evenodd" fill="rgb(100%, 100%, 100%)" fill-opacity="1" d="M 75.5 100.167969 L 82.800781 100.167969 L 82.800781 91.285156 L 75.5 91.285156 Z M 75.5 100.167969 "/>
<path fill-rule="evenodd" fill="rgb(100%, 100%, 100%)" fill-opacity="1" d="M 82.75 100.167969 L 90.050781 100.167969 L 90.050781 91.285156 L 82.75 91.285156 Z M 82.75 100.167969 "/>
<path fill-rule="evenodd" fill="rgb(100%, 100%, 100%)" fill-opacity="1" d="M 90 100.167969 L 97.300781 100.167969 L 97.300781 91.285156 L 90 91.285156 Z M 90 100.167969 "/>
<path fill-rule="evenodd" fill="rgb(100%, 100%, 100%)" fill-opacity="1" d="M 97.25 100.167969 L 104.550781 100.167969 L 104.550781 91.285156 L 97.25 91.285156 Z M 97.25 100.167969 "/>
<path fill-rule="evenodd" fill="rgb(100%, 100%, 100%)" fill-opacity="1" d="M 104.5 100.167969 L 111.800781 100.167969 L 111.800781 91.285156 L 104.5 91.285156 Z M 104.5 100.167969 "/>
<path fill-rule="evenodd" fill="rgb(100%, 100%, 100%)" fill-opacity="1" d="M 111.75 100.167969 L 119.050781 100.167969 L 119.050781 91.285156 L 111.75 91.285156 Z M 111.75 100.167969 "/>
<path fill-rule="evenodd" fill="rgb(100%, 100%, 100%)" fill-opacity="1" d="M 119 100.167969 L 126.300781 100.167969 L 126.300781 91.285156 L 119 91.285156 Z M 119 100.167969 "/>
<path fill-rule="evenodd" fill="rgb(100%, 100%, 100%)" fill-opacity="1" d="M 126.25 100.167969 L 133.550781 100.167969 L 133.550781 91.285156 L 126.25 91.285156 Z M 126.25 100.167969 "/>
<path fill-rule="evenodd" fill="rgb(100%, 100%, 100%)" fill-opacity="1" d="M 133.5 100.167969 L 140.800781 100.167969 L 140.800781 91.285156 L 133.5 91.285156 Z M 133.5 100.167969 "/>
<path fill-rule="evenodd" fill="rgb(100%, 100%, 100%)" fill-opacity="1" d="M 140.75 100.167969 L 148.050781 100.167969 L 148.050781 91.285156 L 140.75 91.285156 Z M 140.75 100.167969 "/>
<path fill-rule="evenodd" fill="rgb(100%, 100%, 100%)" fill-opacity="1" d="M 148 100.167969 L 155.300781 100.167969 L 155.300781 91.285156 L 148 91.285156 Z M 148 100.167969 "/>
<path fill-rule="evenodd" fill="rgb(100%, 100%, 100%)" fill-opacity="1" d="M 155.25 100.167969 L 162.550781 100.167969 L 162.550781 91.285156 L 155.25 91.285156 Z M 155.25 100.167969 "/>
<path fill-rule="evenodd" fill="rgb(100%, 100%, 100%)" fill-opacity="1" d="M 162.5 100.167969 L 169.800781 100.167969 L 169.800781 91.285156 L 162.5 91.285156 Z M 162.5 100.167969 "/>
<path fill-rule="evenodd" fill="rgb(100%, 100%, 100%)" fill-opacity="1" d="M 169.75 100.167969 L 177.050781 100.167969 L 177.050781 91.285156 L 169.75 91.285156 Z M 169.75 100.167969 "/>
<path fill-rule="evenodd" fill="rgb(100%, 100%, 100%)" fill-opacity="1" d="M 3 109 L 10.300781 109 L 10.300781 100.117188 L 3 100.117188 Z M 3 109 "/>
<path fill-rule="evenodd" fill="rgb(100%, 100%, 100%)" fill-opacity="1" d="M 10.25 109 L 17.550781 109 L 17.550781 100.117188 L 10.25 100.117188 Z M 10.25 109 "/>
<path fill-rule="evenodd" fill="rgb(100%, 100%, 100%)" fill-opacity="1" d="M 17.5 109 L 24.800781 109 L 24.800781 100.117188 L 17.5 100.117188 Z M 17.5 109 "/>
<path fill-rule="evenodd" fill="rgb(100%, 100%, 100%)" fill-opacity="1" d="M 24.75 109 L 32.050781 109 L 32.050781 100.117188 L 24.75 100.117188 Z M 24.75 109 "/>
<path fill-rule="evenodd" fill="rgb(100%, 100%, 100%)" fill-opacity="1" d="M 32 109 L 39.300781 109 L 39.300781 100.117188 L 32 100.117188 Z M 32 109 "/>
<path fill-rule="evenodd" fill="rgb(100%, 100%, 100%)" fill-opacity="1" d="M 39.25 109 L 46.550781 109 L 46.550781 100.117188 L 39.25 100.117188 Z M 39.25 109 "/>
<path fill-rule="evenodd" fill="rgb(100%, 100%, 100%)" fill-opacity="1" d="M 46.5 109 L 53.800781 109 L 53.800781 100.117188 L 46.5 100.117188 Z M 46.5 109 "/>
<path fill-rule="evenodd" fill="rgb(100%, 100%, 100%)" fill-opacity="1" d="M 53.75 109 L 61.050781 109 L 61.050781 100.117188 L 53.75 100.117188 Z M 53.75 109 "/>
<path fill-rule="evenodd" fill="rgb(100%, 100%, 100%)" fill-opacity="1" d="M 61 109 L 68.300781 109 L 68.300781 100.117188 L 61 100.117188 Z M 61 109 "/>
<path fill-rule="evenodd" fill="rgb(100%, 100%, 100%)" fill-opacity="1" d="M 68.25 109 L 75.550781 109 L 75.550781 100.117188 L 68.25 100.117188 Z M 68.25 109 "/>
<path fill-rule="evenodd" fill="rgb(100%, 100%, 100%)" fill-opacity="1" d="M 75.5 109 L 82.800781 109 L 82.800781 100.117188 L 75.5 100.117188 Z M 75.5 109 "/>
<path fill-rule="evenodd" fill="rgb(100%, 100%, 100%)" fill-opacity="1" d="M 82.75 109 L 90.050781 109 L 90.050781 100.117188 L 82.75 100.117188 Z M 82.75 109 "/>
<path fill-rule="evenodd" fill="rgb(100%, 100%, 100%)" fill-opacity="1" d="M 90 109 L 97.300781 109 L 97.300781 100.117188 L 90 100.117188 Z M 90 109 "/>
<path fill-rule="evenodd" fill="rgb(100%, 100%, 100%)" fill-opacity="1" d="M 97.25 109 L 104.550781 109 L 104.550781 100.117188 L 97.25 100.117188 Z M 97.25 109 "/>
<path fill-rule="evenodd" fill="rgb(100%, 100%, 100%)" fill-opacity="1" d="M 104.5 109 L 111.800781 109 L 111.800781 100.117188 L 104.5 100.117188 Z M 104.5 109 "/>
<path fill-rule="evenodd" fill="rgb(100%, 100%, 100%)" fill-opacity="1" d="M 111.75 109 L 119.050781 109 L 119.050781 100.117188 L 111.75 100.117188 Z M 111.75 109 "/>
<path fill-rule="evenodd" fill="rgb(100%, 100%, 100%)" fill-opacity="1" d="M 119 109 L 126.300781 109 L 126.300781 100.117188 L 119 100.117188 Z M 119 109 "/>
<path fill-rule="evenodd" fill="rgb(100%, 100%, 100%)" fill-opacity="1" d="M 126.25 109 L 133.550781 109 L 133.550781 100.117188 L 126.25 100.117188 Z M 126.25 109 "/>
<path fill-rule="evenodd" fill="rgb(100%, 100%, 100%)" fill-opacity="1" d="M 133.5 109 L 140.800781 109 L 140.800781 100.117188 L 133.5 100.117188 Z M 133.5 109 "/>
<path fill-rule="evenodd" fill="rgb(100%, 100%, 100%)" fill-opacity="1" d="M 140.75 109 L 148.050781 109 L 148.050781 100.117188 L 140.75 100.117188 Z M 140.75 109 "/>
<path fill-rule="evenodd" fill="rgb(100%, 100%, 100%)" fill-opacity="1" d="M 148 109 L 155.300781 109 L 155.300781 100.117188 L 148 100.117188 Z M 148 109 "/>
<path fill-rule="evenodd" fill="rgb(100%, 100%, 100%)" fill-opacity="1" d="M 155.25 109 L 162.550781 109 L 162.550781 100.117188 L 155.25 100.117188 Z M 155.25 109 "/>
<path fill-rule="evenodd" fill="rgb(100%, 100%, 100%)" fill-opacity="1" d="M 162.5 109 L 169.800781 109 L 169.800781 100.117188 L 162.5 100.117188 Z M 162.5 109 "/>
<path fill-rule="evenodd" fill="rgb(100%, 100%, 100%)" fill-opacity="1" d="M 169.75 109 L 177.050781 109 L 177.050781 100.117188 L 169.75 100.117188 Z M 169.75 109 "/>
<path fill="none" stroke-width="0.55" stroke-linecap="butt" stroke-linejoin="miter" stroke="rgb(6.666565%, 9.411621%, 15.293884%)" stroke-opacity="1" stroke-miterlimit="10" d="M 3 3 L 177 3 L 177 109 L 3 109 Z M 3 3 " transform="matrix(1, 0, 0, -1, 0, 112)"/>
</svg>
