<?xml version="1.0" encoding="UTF-8"?>
<svg xmlns="http://www.w3.org/2000/svg" xmlns:xlink="http://www.w3.org/1999/xlink" width="180pt" height="112pt" viewBox="0 0 180 112">
<rect x="-18" y="-11.2" width="216" height="134.4" fill="rgb(100%, 100%, 100%)" fill-opacity="1"/>
<path fill-rule="evenodd" fill="rgb(97.253418%, 98.03772%, 99.606323%)" fill-opacity="1" d="M 3 16.25 L 32.050781 16.25 L 32.050781 2.949219 L 3 2.949219 Z M 3 16.25 "/>
<path fill-rule="evenodd" fill="rgb(99.606323%, 98.03772%, 98.03772%)" fill-opacity="1" d="M 32 16.25 L 61.050781 16.25 L 61.050781 2.949219 L 32 2.949219 Z M 32 16.25 "/>
<path fill-rule="evenodd" fill="rgb(96.469116%, 97.647095%, 99.606323%)" fill-opacity="1" d="M 61 16.25 L 90.050781 16.25 L 90.050781 2.949219 L 61 2.949219 Z M 61 16.25 "/>
<path fill-rule="evenodd" fill="rgb(96.861267%, 97.647095%, 99.606323%)" fill-opacity="1" d="M 90 16.25 L 119.050781 16.25 L 119.050781 2.949219 L 90 2.949219 Z M 90 16.25 "/>
<path fill-rule="evenodd" fill="rgb(88.626099%, 91.763306%, 98.822021%)" fill-opacity="1" d="M 119 16.25 L 148.050781 16.25 L 148.050781 2.949219 L 119 2.949219 Z M 119 16.25 "/>
<path fill-rule="evenodd" fill="rgb(85.881042%, 90.194702%, 98.822021%)" fill-opacity="1" d="M 148 16.25 L 177.050781 16.25 L 177.050781 2.949219 L 148 2.949219 Z M 148 16.25 "/>
<path fill-rule="evenodd" fill="rgb(93.72406%, 62.35199%, 62.35199%)" fill-opacity="1" d="M 3 29.5 L 32.050781 29.5 L 32.050781 16.199219 L 3 16.199219 Z M 3 29.5 "/>
<path fill-rule="evenodd" fill="rgb(97.253418%, 82.743835%, 82.743835%)" fill-opacity="1" d="M 32 29.5 L 61.050781 29.5 L 61.050781 16.199219 L 32 16.199219 Z M 32 29.5 "/>
<path fill-rule="evenodd" fill="rgb(97.647095%, 84.312439%, 84.312439%)" fill-opacity="1" d="M 61 29.5 L 90.050781 29.5 L 90.050781 16.199219 L 61 16.199219 Z M 61 29.5 "/>
<path fill-rule="evenodd" fill="rgb(95.292664%, 70.195007%, 70.195007%)" fill-opacity="1" d="M 90 29.5 L 119.050781 29.5 L 119.050781 16.199219 L 90 16.199219 Z M 90 29.5 "/>
<path fill-rule="evenodd" fill="rgb(92.939758%, 56.861877%, 56.861877%)" fill-opacity="1" d="M 119 29.5 L 148.050781 29.5 L 148.050781 16.199219 L 119 16.199219 Z M 119 29.5 "/>
<path fill-rule="evenodd" fill="rgb(94.900513%, 68.626404%, 68.626404%)" fill-opacity="1" d="M 148 29.5 L 177.050781 29.5 L 177.050781 16.199219 L 148 16.199219 Z M 148 29.5 "/>
<path fill-rule="evenodd" fill="rgb(90.979004%, 45.097351%, 45.097351%)" fill-opacity="1" d="M 3 42.75 L 32.050781 42.75 L 32.050781 29.449219 L 3 29.449219 Z M 3 42.75 "/>
<path fill-rule="evenodd" fill="rgb(92.939758%, 55.685425%, 55.685425%)" fill-opacity="1" d="M 32 42.75 L 61.050781 42.75 L 61.050781 29.449219 L 32 29.449219 Z M 32 42.75 "/>
<path fill-rule="evenodd" fill="rgb(93.331909%, 58.822632%, 58.822632%)" fill-opacity="1" d="M 61 42.75 L 90.050781 42.75 L 90.050781 29.449219 L 61 29.449219 Z M 61 42.75 "/>
<path fill-rule="evenodd" fill="rgb(92.939758%, 55.685425%, 55.685425%)" fill-opacity="1" d="M 90 42.75 L 119.050781 42.75 L 119.050781 29.449219 L 90 29.449219 Z M 90 42.75 "/>
<path fill-rule="evenodd" fill="rgb(90.979004%, 45.097351%, 45.097351%)" fill-opacity="1" d="M 119 42.75 L 148.050781 42.75 L 148.050781 29.449219 L 119 29.449219 Z M 119 42.75 "/>
<path fill-rule="evenodd" fill="rgb(93.72406%, 62.35199%, 62.35199%)" fill-opacity="1" d="M 148 42.75 L 177.050781 42.75 L 177.050781 29.449219 L 148 29.449219 Z M 148 42.75 "/>
<path fill-rule="evenodd" fill="rgb(25.097656%, 46.273804%, 92.939758%)" fill-opacity="1" d="M 3 56 L 32.050781 56 L 32.050781 42.699219 L 3 42.699219 Z M 3 56 "/>
<path fill-rule="evenodd" fill="rgb(63.920593%, 74.116516%, 96.861267%)" fill-opacity="1" d="M 32 56 L 61.050781 56 L 61.050781 42.699219 L 32 42.699219 Z M 32 56 "/>
<path fill-rule="evenodd" fill="rgb(87.841797%, 91.371155%, 98.822021%)" fill-opacity="1" d="M 61 56 L 90.050781 56 L 90.050781 42.699219 L 61 42.699219 Z M 61 56 "/>
<path fill-rule="evenodd" fill="rgb(79.998779%, 85.488892%, 98.03772%)" fill-opacity="1" d="M 90 56 L 119.050781 56 L 119.050781 42.699219 L 90 42.699219 Z M 90 56 "/>
<path fill-rule="evenodd" fill="rgb(48.626709%, 63.136292%, 95.292664%)" fill-opacity="1" d="M 119 56 L 148.050781 56 L 148.050781 42.699219 L 119 42.699219 Z M 119 56 "/>
<path fill-rule="evenodd" fill="rgb(65.097046%, 74.900818%, 96.861267%)" fill-opacity="1" d="M 148 56 L 177.050781 56 L 177.050781 42.699219 L 148 42.699219 Z M 148 56 "/>
<path fill-rule="evenodd" fill="rgb(97.647095%, 86.273193%, 86.273193%)" fill-opacity="1" d="M 3 69.25 L 32.050781 69.25 L 32.050781 55.949219 L 3 55.949219 Z M 3 69.25 "/>
<path fill-rule="evenodd" fill="rgb(98.431396%, 91.371155%, 91.371155%)" fill-opacity="1" d="M 32 69.25 L 61.050781 69.25 L 61.050781 55.949219 L 32 55.949219 Z M 32 69.25 "/>
<path fill-rule="evenodd" fill="rgb(99.606323%, 98.03772%, 98.03772%)" fill-opacity="1" d="M 61 69.25 L 90.050781 69.25 L 90.050781 55.949219 L 61 55.949219 Z M 61 69.25 "/>
<path fill-rule="evenodd" fill="rgb(98.822021%, 99.215698%, 100%)" fill-opacity="1" d="M 90 69.25 L 119.050781 69.25 L 119.050781 55.949219 L 90 55.949219 Z M 90 69.25 "/>
<path fill-rule="evenodd" fill="rgb(91.763306%, 94.116211%, 99.215698%)" fill-opacity="1" d="M 119 69.25 L 148.050781 69.25 L 148.050781 55.949219 L 119 55.949219 Z M 119 69.25 "/>
<path fill-rule="evenodd" fill="rgb(96.861267%, 97.647095%, 99.606323%)" fill-opacity="1" d="M 148 69.25 L 177.050781 69.25 L 177.050781 55.949219 L 148 55.949219 Z M 148 69.25 "/>
<path fill-rule="evenodd" fill="rgb(92.547607%, 94.508362%, 99.215698%)" fill-opacity="1" d="M 3 82.5 L 32.050781 82.5 L 32.050781 69.199219 L 3 69.199219 Z M 3 82.5 "/>
<path fill-rule="evenodd" fill="rgb(95.292664%, 96.469116%, 99.606323%)" fill-opacity="1" d="M 32 82.5 L 61.050781 82.5 L 61.050781 69.199219 L 32 69.199219 Z M 32 82.5 "/>
<path fill-rule="evenodd" fill="rgb(98.822021%, 99.215698%, 100%)" fill-opacity="1" d="M 61 82.5 L 90.050781 82.5 L 90.050781 69.199219 L 61 69.199219 Z M 61 82.5 "/>
<path fill-rule="evenodd" fill="rgb(99.606323%, 98.431396%, 98.431396%)" fill-opacity="1" d="M 90 82.5 L 119.050781 82.5 L 119.050781 69.199219 L 90 69.199219 Z M 90 82.5 "/>
<path fill-rule="evenodd" fill="rgb(100%, 99.606323%, 99.606323%)" fill-opacity="1" d="M 119 82.5 L 148.050781 82.5 L 148.050781 69.199219 L 119 69.199219 Z M 119 82.5 "/>
<path fill-rule="evenodd" fill="rgb(100%, 99.606323%, 99.606323%)" fill-opacity="1" d="M 148 82.5 L 177.050781 82.5 L 177.050781 69.199219 L 148 69.199219 Z M 148 82.5 "/>
<path fill-rule="evenodd" fill="rgb(92.155457%, 94.508362%, 99.215698%)" fill-opacity="1" d="M 3 95.75 L 32.050781 95.75 L 32.050781 82.449219 L 3 82.449219 Z M 3 95.75 "/>
<path fill-rule="evenodd" fill="rgb(90.586853%, 93.331909%, 99.215698%)" fill-opacity="1" d="M 32 95.75 L 61.050781 95.75 L 61.050781 82.449219 L 32 82.449219 Z M 32 95.75 "/>
<path fill-rule="evenodd" fill="rgb(100%, 100%, 100%)" fill-opacity="1" d="M 61 95.75 L 90.050781 95.75 L 90.050781 82.449219 L 61 82.449219 Z M 61 95.75 "/>
<path fill-rule="evenodd" fill="rgb(99.215698%, 99.215698%, 100%)" fill-opacity="1" d="M 90 95.75 L 119.050781 95.75 L 119.050781 82.449219 L 90 82.449219 Z M 90 95.75 "/>
<path fill-rule="evenodd" fill="rgb(99.606323%, 97.647095%, 97.647095%)" fill-opacity="1" d="M 119 95.75 L 148.050781 95.75 L 148.050781 82.449219 L 119 82.449219 Z M 119 95.75 "/>
<path fill-rule="evenodd" fill="rgb(100%, 99.606323%, 99.606323%)" fill-opacity="1" d="M 148 95.75 L 177.050781 95.75 L 177.050781 82.449219 L 148 82.449219 Z M 148 95.75 "/>
<path fill-rule="evenodd" fill="rgb(94.508362%, 96.076965%, 99.606323%)" fill-opacity="1" d="M 3 109 L 32.050781 109 L 32.050781 95.699219 L 3 95.699219 Z M 3 109 "/>
<path fill-rule="evenodd" fill="rgb(92.939758%, 94.900513%, 99.215698%)" fill-opacity="1" d="M 32 109 L 61.050781 109 L 61.050781 95.699219 L 32 95.699219 Z M 32 109 "/>
<path fill-rule="evenodd" fill="rgb(95.684814%, 96.861267%, 99.606323%)" fill-opacity="1" d="M 61 109 L 90.050781 109 L 90.050781 95.699219 L 61 95.699219 Z M 61 109 "/>
<path fill-rule="evenodd" fill="rgb(100%, 98.822021%, 98.822021%)" fill-opacity="1" d="M 90 109 L 119.050781 109 L 119.050781 95.699219 L 90 95.699219 Z M 90 109 "/>
<path fill-rule="evenodd" fill="rgb(98.822021%, 92.547607%, 92.547607%)" fill-opacity="1" d="M 119 109 L 148.050781 109 L 148.050781 95.699219 L 119 95.699219 Z M 119 109 "/>
<path fill-rule="evenodd" fill="rgb(99.606323%, 98.03772%, 98.03772%)" fill-opacity="1" d="M 148 109 L 177.050781 109 L 177.050781 95.699219 L 148 95.699219 Z M 148 109 "/>
<path fill="none" stroke-width="0.55" stroke-linecap="butt" stroke-linejoin="miter" stroke="rgb(6.666565%, 9.411621%, 15.293884%)" stroke-opacity="1" stroke-miterlimit="10" d="M 3 3 L 177 3 L 177 109 L 3 109 Z M 3 3 " transform="matrix(1, 0, 0, -1, 0, 112)"/>
</svg>
