<?xml version="1.0" encoding="UTF-8"?>
<svg xmlns="http://www.w3.org/2000/svg" xmlns:xlink="http://www.w3.org/1999/xlink" width="180pt" height="112pt" viewBox="0 0 180 112">
<defs>
<g>
<g id="glyph-0-0">
<path d="M 0.359375 -2.875 L 0.828125 -2.875 L 0.828125 -2.46875 C 0.941406 -2.613281 1.046875 -2.71875 1.140625 -2.78125 C 1.304688 -2.882812 1.488281 -2.9375 1.6875 -2.9375 C 1.914062 -2.9375 2.097656 -2.878906 2.234375 -2.765625 C 2.316406 -2.703125 2.390625 -2.609375 2.453125 -2.484375 C 2.554688 -2.640625 2.679688 -2.753906 2.828125 -2.828125 C 2.972656 -2.898438 3.140625 -2.9375 3.328125 -2.9375 C 3.710938 -2.9375 3.972656 -2.796875 4.109375 -2.515625 C 4.179688 -2.367188 4.21875 -2.171875 4.21875 -1.921875 L 4.21875 0 L 3.71875 0 L 3.71875 -2 C 3.71875 -2.1875 3.671875 -2.316406 3.578125 -2.390625 C 3.484375 -2.460938 3.367188 -2.5 3.234375 -2.5 C 3.035156 -2.5 2.867188 -2.4375 2.734375 -2.3125 C 2.597656 -2.1875 2.53125 -1.972656 2.53125 -1.671875 L 2.53125 0 L 2.046875 0 L 2.046875 -1.875 C 2.046875 -2.070312 2.019531 -2.210938 1.96875 -2.296875 C 1.894531 -2.429688 1.757812 -2.5 1.5625 -2.5 C 1.375 -2.5 1.207031 -2.425781 1.0625 -2.28125 C 0.914062 -2.144531 0.84375 -1.894531 0.84375 -1.53125 L 0.84375 0 L 0.359375 0 Z M 0.359375 -2.875 "/>
</g>
<g id="glyph-0-1">
<path d="M 0.71875 -0.765625 C 0.71875 -0.628906 0.769531 -0.519531 0.875 -0.4375 C 0.976562 -0.351562 1.097656 -0.3125 1.234375 -0.3125 C 1.410156 -0.3125 1.578125 -0.351562 1.734375 -0.4375 C 2.003906 -0.5625 2.140625 -0.773438 2.140625 -1.078125 L 2.140625 -1.46875 C 2.078125 -1.425781 2 -1.390625 1.90625 -1.359375 C 1.8125 -1.335938 1.722656 -1.320312 1.640625 -1.3125 L 1.34375 -1.28125 C 1.164062 -1.257812 1.035156 -1.222656 0.953125 -1.171875 C 0.796875 -1.085938 0.71875 -0.953125 0.71875 -0.765625 Z M 1.890625 -1.75 C 2.003906 -1.757812 2.082031 -1.800781 2.125 -1.875 C 2.144531 -1.925781 2.15625 -1.988281 2.15625 -2.0625 C 2.15625 -2.226562 2.09375 -2.347656 1.96875 -2.421875 C 1.851562 -2.492188 1.6875 -2.53125 1.46875 -2.53125 C 1.21875 -2.53125 1.039062 -2.460938 0.9375 -2.328125 C 0.875 -2.253906 0.832031 -2.144531 0.8125 -2 L 0.375 -2 C 0.375 -2.351562 0.484375 -2.597656 0.703125 -2.734375 C 0.929688 -2.878906 1.191406 -2.953125 1.484375 -2.953125 C 1.816406 -2.953125 2.09375 -2.882812 2.3125 -2.75 C 2.519531 -2.625 2.625 -2.425781 2.625 -2.15625 L 2.625 -0.5 C 2.625 -0.445312 2.632812 -0.40625 2.65625 -0.375 C 2.675781 -0.34375 2.71875 -0.328125 2.78125 -0.328125 C 2.800781 -0.328125 2.820312 -0.328125 2.84375 -0.328125 C 2.875 -0.328125 2.90625 -0.332031 2.9375 -0.34375 L 2.9375 0.015625 C 2.863281 0.0351562 2.804688 0.046875 2.765625 0.046875 C 2.722656 0.0546875 2.671875 0.0625 2.609375 0.0625 C 2.441406 0.0625 2.320312 0.00390625 2.25 -0.109375 C 2.207031 -0.171875 2.175781 -0.257812 2.15625 -0.375 C 2.0625 -0.25 1.921875 -0.140625 1.734375 -0.046875 C 1.554688 0.0429688 1.351562 0.09375 1.125 0.09375 C 0.863281 0.09375 0.644531 0.0117188 0.46875 -0.140625 C 0.300781 -0.304688 0.21875 -0.507812 0.21875 -0.75 C 0.21875 -1.019531 0.300781 -1.226562 0.46875 -1.375 C 0.632812 -1.519531 0.851562 -1.609375 1.125 -1.640625 Z M 1.5 -2.953125 Z M 1.5 -2.953125 "/>
</g>
<g id="glyph-0-2">
<path d="M 0.078125 -2.875 L 0.703125 -2.875 L 1.359375 -1.859375 L 2.03125 -2.875 L 2.625 -2.859375 L 1.65625 -1.46875 L 2.671875 0 L 2.046875 0 L 1.328125 -1.078125 L 0.640625 0 L 0.03125 0 L 1.046875 -1.46875 Z M 0.078125 -2.875 "/>
</g>
<g id="glyph-0-3">
</g>
<g id="glyph-0-4">
<path d="M 0.53125 -2.71875 L 0.53125 -3.09375 C 0.875 -3.125 1.113281 -3.179688 1.25 -3.265625 C 1.394531 -3.347656 1.5 -3.535156 1.5625 -3.828125 L 1.953125 -3.828125 L 1.953125 0 L 1.4375 0 L 1.4375 -2.71875 Z M 0.53125 -2.71875 "/>
</g>
<g id="glyph-0-5">
<path d="M 0.46875 -0.578125 L 1.03125 -0.578125 L 1.03125 0 L 0.46875 0 Z M 0.46875 -0.578125 "/>
</g>
<g id="glyph-0-6">
<path d="M 0.671875 -0.984375 C 0.710938 -0.703125 0.84375 -0.507812 1.0625 -0.40625 C 1.175781 -0.351562 1.3125 -0.328125 1.46875 -0.328125 C 1.75 -0.328125 1.957031 -0.414062 2.09375 -0.59375 C 2.226562 -0.78125 2.296875 -0.984375 2.296875 -1.203125 C 2.296875 -1.472656 2.210938 -1.679688 2.046875 -1.828125 C 1.890625 -1.972656 1.695312 -2.046875 1.46875 -2.046875 C 1.300781 -2.046875 1.15625 -2.015625 1.03125 -1.953125 C 0.914062 -1.890625 0.816406 -1.800781 0.734375 -1.6875 L 0.3125 -1.703125 L 0.609375 -3.78125 L 2.609375 -3.78125 L 2.609375 -3.3125 L 0.96875 -3.3125 L 0.8125 -2.25 C 0.894531 -2.3125 0.976562 -2.359375 1.0625 -2.390625 C 1.207031 -2.453125 1.375 -2.484375 1.5625 -2.484375 C 1.914062 -2.484375 2.210938 -2.367188 2.453125 -2.140625 C 2.703125 -1.921875 2.828125 -1.632812 2.828125 -1.28125 C 2.828125 -0.914062 2.710938 -0.59375 2.484375 -0.3125 C 2.265625 -0.0390625 1.90625 0.09375 1.40625 0.09375 C 1.09375 0.09375 0.816406 0.00390625 0.578125 -0.171875 C 0.335938 -0.347656 0.203125 -0.617188 0.171875 -0.984375 Z M 0.671875 -0.984375 "/>
</g>
<g id="glyph-0-7">
<path d="M 0.46875 -3.9375 L 3.203125 -3.9375 L 3.203125 -3.46875 L 1 -3.46875 L 1 -2.265625 L 2.9375 -2.265625 L 2.9375 -1.796875 L 1 -1.796875 L 1 0 L 0.46875 0 Z M 0.46875 -3.9375 "/>
</g>
<g id="glyph-0-8">
<path d="M 0.84375 -2.875 L 0.84375 -0.96875 C 0.84375 -0.820312 0.863281 -0.703125 0.90625 -0.609375 C 0.988281 -0.429688 1.148438 -0.34375 1.390625 -0.34375 C 1.722656 -0.34375 1.953125 -0.492188 2.078125 -0.796875 C 2.140625 -0.960938 2.171875 -1.1875 2.171875 -1.46875 L 2.171875 -2.875 L 2.65625 -2.875 L 2.65625 0 L 2.203125 0 L 2.203125 -0.421875 C 2.140625 -0.316406 2.0625 -0.222656 1.96875 -0.140625 C 1.789062 0.00390625 1.566406 0.078125 1.296875 0.078125 C 0.890625 0.078125 0.613281 -0.0546875 0.46875 -0.328125 C 0.382812 -0.472656 0.34375 -0.671875 0.34375 -0.921875 L 0.34375 -2.875 Z M 1.5 -2.953125 Z M 1.5 -2.953125 "/>
</g>
<g id="glyph-0-9">
<path d="M 0.375 -3.9375 L 0.84375 -3.9375 L 0.84375 0 L 0.375 0 Z M 0.375 -3.9375 "/>
</g>
<g id="glyph-0-10">
<path d="M 0.421875 -3.9375 L 1.046875 -3.9375 L 3.046875 -0.75 L 3.046875 -3.9375 L 3.546875 -3.9375 L 3.546875 0 L 2.953125 0 L 0.921875 -3.1875 L 0.921875 0 L 0.421875 0 Z M 1.953125 -3.9375 Z M 1.953125 -3.9375 "/>
</g>
<g id="glyph-0-11">
<path d="M 1.5 -0.3125 C 1.820312 -0.3125 2.039062 -0.429688 2.15625 -0.671875 C 2.269531 -0.921875 2.328125 -1.191406 2.328125 -1.484375 C 2.328125 -1.753906 2.285156 -1.972656 2.203125 -2.140625 C 2.066406 -2.398438 1.832031 -2.53125 1.5 -2.53125 C 1.207031 -2.53125 0.992188 -2.414062 0.859375 -2.1875 C 0.722656 -1.96875 0.65625 -1.703125 0.65625 -1.390625 C 0.65625 -1.078125 0.722656 -0.816406 0.859375 -0.609375 C 0.992188 -0.410156 1.207031 -0.3125 1.5 -0.3125 Z M 1.515625 -2.953125 C 1.890625 -2.953125 2.203125 -2.828125 2.453125 -2.578125 C 2.710938 -2.335938 2.84375 -1.976562 2.84375 -1.5 C 2.84375 -1.03125 2.726562 -0.644531 2.5 -0.34375 C 2.269531 -0.0390625 1.921875 0.109375 1.453125 0.109375 C 1.054688 0.109375 0.738281 -0.0234375 0.5 -0.296875 C 0.269531 -0.566406 0.15625 -0.925781 0.15625 -1.375 C 0.15625 -1.851562 0.273438 -2.234375 0.515625 -2.515625 C 0.765625 -2.804688 1.097656 -2.953125 1.515625 -2.953125 Z M 1.5 -2.953125 Z M 1.5 -2.953125 "/>
</g>
<g id="glyph-0-12">
<path d="M 0.234375 -1.78125 L 1.578125 -1.78125 L 1.578125 -1.28125 L 0.234375 -1.28125 Z M 0.234375 -1.78125 "/>
</g>
</g>
</defs>
<rect x="-18" y="-11.2" width="216" height="134.4" fill="rgb(100%, 100%, 100%)" fill-opacity="1"/>
<path fill="none" stroke-width="0.45" stroke-linecap="butt" stroke-linejoin="miter" stroke="rgb(89.802551%, 90.586853%, 92.155457%)" stroke-opacity="1" stroke-miterlimit="10" d="M 20 37.75 L 174 37.75 " transform="matrix(1, 0, 0, -1, 0, 112)"/>
<path fill="none" stroke-width="0.45" stroke-linecap="butt" stroke-linejoin="miter" stroke="rgb(89.802551%, 90.586853%, 92.155457%)" stroke-opacity="1" stroke-miterlimit="10" d="M 20 58.5 L 174 58.5 " transform="matrix(1, 0, 0, -1, 0, 112)"/>
<path fill="none" stroke-width="0.45" stroke-linecap="butt" stroke-linejoin="miter" stroke="rgb(89.802551%, 90.586853%, 92.155457%)" stroke-opacity="1" stroke-miterlimit="10" d="M 20 79.25 L 174 79.25 " transform="matrix(1, 0, 0, -1, 0, 112)"/>
<path fill="none" stroke-width="0.45" stroke-linecap="butt" stroke-linejoin="miter" stroke="rgb(89.802551%, 90.586853%, 92.155457%)" stroke-opacity="1" stroke-miterlimit="10" d="M 20 100 L 174 100 " transform="matrix(1, 0, 0, -1, 0, 112)"/>
<path fill="none" stroke-width="0.55" stroke-linecap="butt" stroke-linejoin="miter" stroke="rgb(6.666565%, 9.411621%, 15.293884%)" stroke-opacity="1" stroke-miterlimit="10" d="M 20 17 L 174 17 " transform="matrix(1, 0, 0, -1, 0, 112)"/>
<path fill="none" stroke-width="0.55" stroke-linecap="butt" stroke-linejoin="miter" stroke="rgb(6.666565%, 9.411621%, 15.293884%)" stroke-opacity="1" stroke-miterlimit="10" d="M 20 17 L 20 100 " transform="matrix(1, 0, 0, -1, 0, 112)"/>
<path fill="none" stroke-width="1.1" stroke-linecap="butt" stroke-linejoin="miter" stroke="rgb(14.509583%, 38.822937%, 92.155457%)" stroke-opacity="1" stroke-miterlimit="10" d="M 20 98.5625 L 50.800781 35.945312 L 81.601562 21.304688 L 112.398438 17 L 174 17 " transform="matrix(1, 0, 0, -1, 0, 112)"/>
<path fill-rule="evenodd" fill="rgb(14.509583%, 38.822937%, 92.155457%)" fill-opacity="1" d="M 21.101562 13.4375 C 21.101562 12.832031 20.609375 12.339844 20 12.339844 C 19.390625 12.339844 18.898438 12.832031 18.898438 13.4375 C 18.898438 14.046875 19.390625 14.539062 20 14.539062 C 20.609375 14.539062 21.101562 14.046875 21.101562 13.4375 "/>
<path fill-rule="evenodd" fill="rgb(14.509583%, 38.822937%, 92.155457%)" fill-opacity="1" d="M 51.898438 76.054688 C 51.898438 75.449219 51.40625 74.957031 50.800781 74.957031 C 50.191406 74.957031 49.699219 75.449219 49.699219 76.054688 C 49.699219 76.664062 50.191406 77.15625 50.800781 77.15625 C 51.40625 77.15625 51.898438 76.664062 51.898438 76.054688 "/>
<path fill-rule="evenodd" fill="rgb(14.509583%, 38.822937%, 92.155457%)" fill-opacity="1" d="M 82.699219 90.695312 C 82.699219 90.089844 82.207031 89.597656 81.601562 89.597656 C 80.992188 89.597656 80.5 90.089844 80.5 90.695312 C 80.5 91.304688 80.992188 91.796875 81.601562 91.796875 C 82.207031 91.796875 82.699219 91.304688 82.699219 90.695312 "/>
<path fill-rule="evenodd" fill="rgb(14.509583%, 38.822937%, 92.155457%)" fill-opacity="1" d="M 113.5 95 C 113.5 94.390625 113.007812 93.898438 112.398438 93.898438 C 111.792969 93.898438 111.300781 94.390625 111.300781 95 C 111.300781 95.609375 111.792969 96.101562 112.398438 96.101562 C 113.007812 96.101562 113.5 95.609375 113.5 95 "/>
<path fill-rule="evenodd" fill="rgb(14.509583%, 38.822937%, 92.155457%)" fill-opacity="1" d="M 144.300781 95 C 144.300781 94.390625 143.808594 93.898438 143.199219 93.898438 C 142.59375 93.898438 142.101562 94.390625 142.101562 95 C 142.101562 95.609375 142.59375 96.101562 143.199219 96.101562 C 143.808594 96.101562 144.300781 95.609375 144.300781 95 "/>
<path fill-rule="evenodd" fill="rgb(14.509583%, 38.822937%, 92.155457%)" fill-opacity="1" d="M 175.101562 95 C 175.101562 94.390625 174.609375 93.898438 174 93.898438 C 173.390625 93.898438 172.898438 94.390625 172.898438 95 C 172.898438 95.609375 173.390625 96.101562 174 96.101562 C 174.609375 96.101562 175.101562 95.609375 175.101562 95 "/>
<path fill="none" stroke-width="1.1" stroke-linecap="butt" stroke-linejoin="miter" stroke="rgb(86.273193%, 14.901733%, 14.901733%)" stroke-opacity="1" stroke-miterlimit="10" d="M 20 100 L 50.800781 36.246094 L 81.601562 21.453125 L 112.398438 17 L 174 17 " transform="matrix(1, 0, 0, -1, 0, 112)"/>
<path fill-rule="evenodd" fill="rgb(86.273193%, 14.901733%, 14.901733%)" fill-opacity="1" d="M 21.101562 12 C 21.101562 11.390625 20.609375 10.898438 20 10.898438 C 19.390625 10.898438 18.898438 11.390625 18.898438 12 C 18.898438 12.609375 19.390625 13.101562 20 13.101562 C 20.609375 13.101562 21.101562 12.609375 21.101562 12 "/>
<path fill-rule="evenodd" fill="rgb(86.273193%, 14.901733%, 14.901733%)" fill-opacity="1" d="M 51.898438 75.753906 C 51.898438 75.148438 51.40625 74.65625 50.800781 74.65625 C 50.191406 74.65625 49.699219 75.148438 49.699219 75.753906 C 49.699219 76.363281 50.191406 76.855469 50.800781 76.855469 C 51.40625 76.855469 51.898438 76.363281 51.898438 75.753906 "/>
<path fill-rule="evenodd" fill="rgb(86.273193%, 14.901733%, 14.901733%)" fill-opacity="1" d="M 82.699219 90.546875 C 82.699219 89.9375 82.207031 89.445312 81.601562 89.445312 C 80.992188 89.445312 80.5 89.9375 80.5 90.546875 C 80.5 91.152344 80.992188 91.644531 81.601562 91.644531 C 82.207031 91.644531 82.699219 91.152344 82.699219 90.546875 "/>
<path fill-rule="evenodd" fill="rgb(86.273193%, 14.901733%, 14.901733%)" fill-opacity="1" d="M 113.5 95 C 113.5 94.390625 113.007812 93.898438 112.398438 93.898438 C 111.792969 93.898438 111.300781 94.390625 111.300781 95 C 111.300781 95.609375 111.792969 96.101562 112.398438 96.101562 C 113.007812 96.101562 113.5 95.609375 113.5 95 "/>
<path fill-rule="evenodd" fill="rgb(86.273193%, 14.901733%, 14.901733%)" fill-opacity="1" d="M 144.300781 95 C 144.300781 94.390625 143.808594 93.898438 143.199219 93.898438 C 142.59375 93.898438 142.101562 94.390625 142.101562 95 C 142.101562 95.609375 142.59375 96.101562 143.199219 96.101562 C 143.808594 96.101562 144.300781 95.609375 144.300781 95 "/>
<path fill-rule="evenodd" fill="rgb(86.273193%, 14.901733%, 14.901733%)" fill-opacity="1" d="M 175.101562 95 C 175.101562 94.390625 174.609375 93.898438 174 93.898438 C 173.390625 93.898438 172.898438 94.390625 172.898438 95 C 172.898438 95.609375 173.390625 96.101562 174 96.101562 C 174.609375 96.101562 175.101562 95.609375 175.101562 95 "/>
<g fill="rgb(6.666565%, 9.411621%, 15.293884%)" fill-opacity="1">
<use xlink:href="#glyph-0-0" x="20" y="9.5"/>
<use xlink:href="#glyph-0-1" x="24.5815" y="9.5"/>
<use xlink:href="#glyph-0-2" x="27.6395" y="9.5"/>
<use xlink:href="#glyph-0-3" x="30.3895" y="9.5"/>
<use xlink:href="#glyph-0-4" x="31.9185" y="9.5"/>
<use xlink:href="#glyph-0-5" x="34.9765" y="9.5"/>
<use xlink:href="#glyph-0-6" x="36.5055" y="9.5"/>
</g>
<g fill="rgb(14.509583%, 38.822937%, 92.155457%)" fill-opacity="1">
<use xlink:href="#glyph-0-7" x="20" y="107"/>
<use xlink:href="#glyph-0-8" x="23.3605" y="107"/>
<use xlink:href="#glyph-0-9" x="26.4185" y="107"/>
<use xlink:href="#glyph-0-9" x="27.6395" y="107"/>
</g>
<g fill="rgb(86.273193%, 14.901733%, 14.901733%)" fill-opacity="1">
<use xlink:href="#glyph-0-10" x="45" y="107"/>
<use xlink:href="#glyph-0-11" x="48.971" y="107"/>
<use xlink:href="#glyph-0-12" x="52.029" y="107"/>
<use xlink:href="#glyph-0-7" x="53.8605" y="107"/>
<use xlink:href="#glyph-0-10" x="57.221" y="107"/>
</g>
</svg>
