<?xml version="1.0" encoding="UTF-8"?>
<svg xmlns="http://www.w3.org/2000/svg" xmlns:xlink="http://www.w3.org/1999/xlink" width="180pt" height="112pt" viewBox="0 0 180 112">
<rect x="-18" y="-11.2" width="216" height="134.4" fill="rgb(100%, 100%, 100%)" fill-opacity="1"/>
<path fill-rule="evenodd" fill="rgb(88.626099%, 30.195618%, 30.195618%)" fill-opacity="1" d="M 3 8.300781 L 10.300781 8.300781 L 10.300781 2.949219 L 3 2.949219 Z M 3 8.300781 "/>
<path fill-rule="evenodd" fill="rgb(88.626099%, 30.587769%, 30.587769%)" fill-opacity="1" d="M 10.25 8.300781 L 17.550781 8.300781 L 17.550781 2.949219 L 10.25 2.949219 Z M 10.25 8.300781 "/>
<path fill-rule="evenodd" fill="rgb(89.01825%, 30.979919%, 30.979919%)" fill-opacity="1" d="M 17.5 8.300781 L 24.800781 8.300781 L 24.800781 2.949219 L 17.5 2.949219 Z M 17.5 8.300781 "/>
<path fill-rule="evenodd" fill="rgb(89.01825%, 30.979919%, 30.979919%)" fill-opacity="1" d="M 24.75 8.300781 L 32.050781 8.300781 L 32.050781 2.949219 L 24.75 2.949219 Z M 24.75 8.300781 "/>
<path fill-rule="evenodd" fill="rgb(89.01825%, 30.979919%, 30.979919%)" fill-opacity="1" d="M 32 8.300781 L 39.300781 8.300781 L 39.300781 2.949219 L 32 2.949219 Z M 32 8.300781 "/>
<path fill-rule="evenodd" fill="rgb(89.01825%, 31.37207%, 31.37207%)" fill-opacity="1" d="M 39.25 8.300781 L 46.550781 8.300781 L 46.550781 2.949219 L 39.25 2.949219 Z M 39.25 8.300781 "/>
<path fill-rule="evenodd" fill="rgb(89.01825%, 31.37207%, 31.37207%)" fill-opacity="1" d="M 46.5 8.300781 L 53.800781 8.300781 L 53.800781 2.949219 L 46.5 2.949219 Z M 46.5 8.300781 "/>
<path fill-rule="evenodd" fill="rgb(89.01825%, 31.764221%, 31.764221%)" fill-opacity="1" d="M 53.75 8.300781 L 61.050781 8.300781 L 61.050781 2.949219 L 53.75 2.949219 Z M 53.75 8.300781 "/>
<path fill-rule="evenodd" fill="rgb(89.01825%, 31.37207%, 31.37207%)" fill-opacity="1" d="M 61 8.300781 L 68.300781 8.300781 L 68.300781 2.949219 L 61 2.949219 Z M 61 8.300781 "/>
<path fill-rule="evenodd" fill="rgb(89.01825%, 30.979919%, 30.979919%)" fill-opacity="1" d="M 68.25 8.300781 L 75.550781 8.300781 L 75.550781 2.949219 L 68.25 2.949219 Z M 68.25 8.300781 "/>
<path fill-rule="evenodd" fill="rgb(88.626099%, 30.587769%, 30.587769%)" fill-opacity="1" d="M 75.5 8.300781 L 82.800781 8.300781 L 82.800781 2.949219 L 75.5 2.949219 Z M 75.5 8.300781 "/>
<path fill-rule="evenodd" fill="rgb(88.626099%, 30.195618%, 30.195618%)" fill-opacity="1" d="M 82.75 8.300781 L 90.050781 8.300781 L 90.050781 2.949219 L 82.75 2.949219 Z M 82.75 8.300781 "/>
<path fill-rule="evenodd" fill="rgb(88.626099%, 29.803467%, 29.803467%)" fill-opacity="1" d="M 90 8.300781 L 97.300781 8.300781 L 97.300781 2.949219 L 90 2.949219 Z M 90 8.300781 "/>
<path fill-rule="evenodd" fill="rgb(88.626099%, 29.411316%, 29.411316%)" fill-opacity="1" d="M 97.25 8.300781 L 104.550781 8.300781 L 104.550781 2.949219 L 97.25 2.949219 Z M 97.25 8.300781 "/>
<path fill-rule="evenodd" fill="rgb(88.626099%, 29.019165%, 29.019165%)" fill-opacity="1" d="M 104.5 8.300781 L 111.800781 8.300781 L 111.800781 2.949219 L 104.5 2.949219 Z M 104.5 8.300781 "/>
<path fill-rule="evenodd" fill="rgb(88.233948%, 28.234863%, 28.234863%)" fill-opacity="1" d="M 111.75 8.300781 L 119.050781 8.300781 L 119.050781 2.949219 L 111.75 2.949219 Z M 111.75 8.300781 "/>
<path fill-rule="evenodd" fill="rgb(88.233948%, 27.058411%, 27.058411%)" fill-opacity="1" d="M 119 8.300781 L 126.300781 8.300781 L 126.300781 2.949219 L 119 2.949219 Z M 119 8.300781 "/>
<path fill-rule="evenodd" fill="rgb(88.233948%, 26.274109%, 26.274109%)" fill-opacity="1" d="M 126.25 8.300781 L 133.550781 8.300781 L 133.550781 2.949219 L 126.25 2.949219 Z M 126.25 8.300781 "/>
<path fill-rule="evenodd" fill="rgb(87.841797%, 25.097656%, 25.097656%)" fill-opacity="1" d="M 133.5 8.300781 L 140.800781 8.300781 L 140.800781 2.949219 L 133.5 2.949219 Z M 133.5 8.300781 "/>
<path fill-rule="evenodd" fill="rgb(87.841797%, 24.313354%, 24.313354%)" fill-opacity="1" d="M 140.75 8.300781 L 148.050781 8.300781 L 148.050781 2.949219 L 140.75 2.949219 Z M 140.75 8.300781 "/>
<path fill-rule="evenodd" fill="rgb(87.449646%, 23.529053%, 23.529053%)" fill-opacity="1" d="M 148 8.300781 L 155.300781 8.300781 L 155.300781 2.949219 L 148 2.949219 Z M 148 8.300781 "/>
<path fill-rule="evenodd" fill="rgb(87.449646%, 22.744751%, 22.744751%)" fill-opacity="1" d="M 155.25 8.300781 L 162.550781 8.300781 L 162.550781 2.949219 L 155.25 2.949219 Z M 155.25 8.300781 "/>
<path fill-rule="evenodd" fill="rgb(87.449646%, 22.3526%, 22.3526%)" fill-opacity="1" d="M 162.5 8.300781 L 169.800781 8.300781 L 169.800781 2.949219 L 162.5 2.949219 Z M 162.5 8.300781 "/>
<path fill-rule="evenodd" fill="rgb(87.449646%, 21.960449%, 21.960449%)" fill-opacity="1" d="M 169.75 8.300781 L 177.050781 8.300781 L 177.050781 2.949219 L 169.75 2.949219 Z M 169.75 8.300781 "/>
<path fill-rule="evenodd" fill="rgb(60.783386%, 71.763611%, 96.469116%)" fill-opacity="1" d="M 3 13.601562 L 10.300781 13.601562 L 10.300781 8.25 L 3 8.25 Z M 3 13.601562 "/>
<path fill-rule="evenodd" fill="rgb(60.783386%, 72.155762%, 96.469116%)" fill-opacity="1" d="M 10.25 13.601562 L 17.550781 13.601562 L 17.550781 8.25 L 10.25 8.25 Z M 10.25 13.601562 "/>
<path fill-rule="evenodd" fill="rgb(61.175537%, 72.155762%, 96.469116%)" fill-opacity="1" d="M 17.5 13.601562 L 24.800781 13.601562 L 24.800781 8.25 L 17.5 8.25 Z M 17.5 13.601562 "/>
<path fill-rule="evenodd" fill="rgb(61.175537%, 72.155762%, 96.469116%)" fill-opacity="1" d="M 24.75 13.601562 L 32.050781 13.601562 L 32.050781 8.25 L 24.75 8.25 Z M 24.75 13.601562 "/>
<path fill-rule="evenodd" fill="rgb(61.175537%, 72.155762%, 96.469116%)" fill-opacity="1" d="M 32 13.601562 L 39.300781 13.601562 L 39.300781 8.25 L 32 8.25 Z M 32 13.601562 "/>
<path fill-rule="evenodd" fill="rgb(61.175537%, 72.155762%, 96.469116%)" fill-opacity="1" d="M 39.25 13.601562 L 46.550781 13.601562 L 46.550781 8.25 L 39.25 8.25 Z M 39.25 13.601562 "/>
<path fill-rule="evenodd" fill="rgb(61.567688%, 72.547913%, 96.469116%)" fill-opacity="1" d="M 46.5 13.601562 L 53.800781 13.601562 L 53.800781 8.25 L 46.5 8.25 Z M 46.5 13.601562 "/>
<path fill-rule="evenodd" fill="rgb(61.567688%, 72.547913%, 96.469116%)" fill-opacity="1" d="M 53.75 13.601562 L 61.050781 13.601562 L 61.050781 8.25 L 53.75 8.25 Z M 53.75 13.601562 "/>
<path fill-rule="evenodd" fill="rgb(61.567688%, 72.547913%, 96.469116%)" fill-opacity="1" d="M 61 13.601562 L 68.300781 13.601562 L 68.300781 8.25 L 61 8.25 Z M 61 13.601562 "/>
<path fill-rule="evenodd" fill="rgb(61.175537%, 72.155762%, 96.469116%)" fill-opacity="1" d="M 68.25 13.601562 L 75.550781 13.601562 L 75.550781 8.25 L 68.25 8.25 Z M 68.25 13.601562 "/>
<path fill-rule="evenodd" fill="rgb(60.783386%, 72.155762%, 96.469116%)" fill-opacity="1" d="M 75.5 13.601562 L 82.800781 13.601562 L 82.800781 8.25 L 75.5 8.25 Z M 75.5 13.601562 "/>
<path fill-rule="evenodd" fill="rgb(60.783386%, 71.763611%, 96.469116%)" fill-opacity="1" d="M 82.75 13.601562 L 90.050781 13.601562 L 90.050781 8.25 L 82.75 8.25 Z M 82.75 13.601562 "/>
<path fill-rule="evenodd" fill="rgb(60.391235%, 71.763611%, 96.469116%)" fill-opacity="1" d="M 90 13.601562 L 97.300781 13.601562 L 97.300781 8.25 L 90 8.25 Z M 90 13.601562 "/>
<path fill-rule="evenodd" fill="rgb(60.391235%, 71.37146%, 96.469116%)" fill-opacity="1" d="M 97.25 13.601562 L 104.550781 13.601562 L 104.550781 8.25 L 97.25 8.25 Z M 97.25 13.601562 "/>
<path fill-rule="evenodd" fill="rgb(59.999084%, 71.37146%, 96.469116%)" fill-opacity="1" d="M 104.5 13.601562 L 111.800781 13.601562 L 111.800781 8.25 L 104.5 8.25 Z M 104.5 13.601562 "/>
<path fill-rule="evenodd" fill="rgb(59.606934%, 70.979309%, 96.469116%)" fill-opacity="1" d="M 111.75 13.601562 L 119.050781 13.601562 L 119.050781 8.25 L 111.75 8.25 Z M 111.75 13.601562 "/>
<path fill-rule="evenodd" fill="rgb(58.822632%, 70.587158%, 96.076965%)" fill-opacity="1" d="M 119 13.601562 L 126.300781 13.601562 L 126.300781 8.25 L 119 8.25 Z M 119 13.601562 "/>
<path fill-rule="evenodd" fill="rgb(58.430481%, 70.195007%, 96.076965%)" fill-opacity="1" d="M 126.25 13.601562 L 133.550781 13.601562 L 133.550781 8.25 L 126.25 8.25 Z M 126.25 13.601562 "/>
<path fill-rule="evenodd" fill="rgb(58.03833%, 69.802856%, 96.076965%)" fill-opacity="1" d="M 133.5 13.601562 L 140.800781 13.601562 L 140.800781 8.25 L 133.5 8.25 Z M 133.5 13.601562 "/>
<path fill-rule="evenodd" fill="rgb(57.254028%, 69.410706%, 96.076965%)" fill-opacity="1" d="M 140.75 13.601562 L 148.050781 13.601562 L 148.050781 8.25 L 140.75 8.25 Z M 140.75 13.601562 "/>
<path fill-rule="evenodd" fill="rgb(56.861877%, 69.018555%, 96.076965%)" fill-opacity="1" d="M 148 13.601562 L 155.300781 13.601562 L 155.300781 8.25 L 148 8.25 Z M 148 13.601562 "/>
<path fill-rule="evenodd" fill="rgb(56.469727%, 69.018555%, 96.076965%)" fill-opacity="1" d="M 155.25 13.601562 L 162.550781 13.601562 L 162.550781 8.25 L 155.25 8.25 Z M 155.25 13.601562 "/>
<path fill-rule="evenodd" fill="rgb(56.077576%, 68.626404%, 96.076965%)" fill-opacity="1" d="M 162.5 13.601562 L 169.800781 13.601562 L 169.800781 8.25 L 162.5 8.25 Z M 162.5 13.601562 "/>
<path fill-rule="evenodd" fill="rgb(56.077576%, 68.626404%, 96.076965%)" fill-opacity="1" d="M 169.75 13.601562 L 177.050781 13.601562 L 177.050781 8.25 L 169.75 8.25 Z M 169.75 13.601562 "/>
<path fill-rule="evenodd" fill="rgb(81.567383%, 86.665344%, 98.431396%)" fill-opacity="1" d="M 3 18.898438 L 10.300781 18.898438 L 10.300781 13.550781 L 3 13.550781 Z M 3 18.898438 "/>
<path fill-rule="evenodd" fill="rgb(81.567383%, 86.665344%, 98.431396%)" fill-opacity="1" d="M 10.25 18.898438 L 17.550781 18.898438 L 17.550781 13.550781 L 10.25 13.550781 Z M 10.25 18.898438 "/>
<path fill-rule="evenodd" fill="rgb(81.567383%, 86.665344%, 98.431396%)" fill-opacity="1" d="M 17.5 18.898438 L 24.800781 18.898438 L 24.800781 13.550781 L 17.5 13.550781 Z M 17.5 18.898438 "/>
<path fill-rule="evenodd" fill="rgb(81.567383%, 86.665344%, 98.431396%)" fill-opacity="1" d="M 24.75 18.898438 L 32.050781 18.898438 L 32.050781 13.550781 L 24.75 13.550781 Z M 24.75 18.898438 "/>
<path fill-rule="evenodd" fill="rgb(81.567383%, 86.665344%, 98.431396%)" fill-opacity="1" d="M 32 18.898438 L 39.300781 18.898438 L 39.300781 13.550781 L 32 13.550781 Z M 32 18.898438 "/>
<path fill-rule="evenodd" fill="rgb(81.567383%, 86.665344%, 98.431396%)" fill-opacity="1" d="M 39.25 18.898438 L 46.550781 18.898438 L 46.550781 13.550781 L 39.25 13.550781 Z M 39.25 18.898438 "/>
<path fill-rule="evenodd" fill="rgb(81.567383%, 87.057495%, 98.431396%)" fill-opacity="1" d="M 46.5 18.898438 L 53.800781 18.898438 L 53.800781 13.550781 L 46.5 13.550781 Z M 46.5 18.898438 "/>
<path fill-rule="evenodd" fill="rgb(81.567383%, 87.057495%, 98.431396%)" fill-opacity="1" d="M 53.75 18.898438 L 61.050781 18.898438 L 61.050781 13.550781 L 53.75 13.550781 Z M 53.75 18.898438 "/>
<path fill-rule="evenodd" fill="rgb(81.567383%, 87.057495%, 98.431396%)" fill-opacity="1" d="M 61 18.898438 L 68.300781 18.898438 L 68.300781 13.550781 L 61 13.550781 Z M 61 18.898438 "/>
<path fill-rule="evenodd" fill="rgb(81.567383%, 86.665344%, 98.431396%)" fill-opacity="1" d="M 68.25 18.898438 L 75.550781 18.898438 L 75.550781 13.550781 L 68.25 13.550781 Z M 68.25 18.898438 "/>
<path fill-rule="evenodd" fill="rgb(81.567383%, 86.665344%, 98.431396%)" fill-opacity="1" d="M 75.5 18.898438 L 82.800781 18.898438 L 82.800781 13.550781 L 75.5 13.550781 Z M 75.5 18.898438 "/>
<path fill-rule="evenodd" fill="rgb(81.175232%, 86.665344%, 98.431396%)" fill-opacity="1" d="M 82.75 18.898438 L 90.050781 18.898438 L 90.050781 13.550781 L 82.75 13.550781 Z M 82.75 18.898438 "/>
<path fill-rule="evenodd" fill="rgb(81.175232%, 86.665344%, 98.431396%)" fill-opacity="1" d="M 90 18.898438 L 97.300781 18.898438 L 97.300781 13.550781 L 90 13.550781 Z M 90 18.898438 "/>
<path fill-rule="evenodd" fill="rgb(81.175232%, 86.665344%, 98.431396%)" fill-opacity="1" d="M 97.25 18.898438 L 104.550781 18.898438 L 104.550781 13.550781 L 97.25 13.550781 Z M 97.25 18.898438 "/>
<path fill-rule="evenodd" fill="rgb(81.175232%, 86.273193%, 98.431396%)" fill-opacity="1" d="M 104.5 18.898438 L 111.800781 18.898438 L 111.800781 13.550781 L 104.5 13.550781 Z M 104.5 18.898438 "/>
<path fill-rule="evenodd" fill="rgb(80.783081%, 86.273193%, 98.431396%)" fill-opacity="1" d="M 111.75 18.898438 L 119.050781 18.898438 L 119.050781 13.550781 L 111.75 13.550781 Z M 111.75 18.898438 "/>
<path fill-rule="evenodd" fill="rgb(80.39093%, 85.881042%, 98.03772%)" fill-opacity="1" d="M 119 18.898438 L 126.300781 18.898438 L 126.300781 13.550781 L 119 13.550781 Z M 119 18.898438 "/>
<path fill-rule="evenodd" fill="rgb(80.39093%, 85.881042%, 98.03772%)" fill-opacity="1" d="M 126.25 18.898438 L 133.550781 18.898438 L 133.550781 13.550781 L 126.25 13.550781 Z M 126.25 18.898438 "/>
<path fill-rule="evenodd" fill="rgb(79.998779%, 85.881042%, 98.03772%)" fill-opacity="1" d="M 133.5 18.898438 L 140.800781 18.898438 L 140.800781 13.550781 L 133.5 13.550781 Z M 133.5 18.898438 "/>
<path fill-rule="evenodd" fill="rgb(79.606628%, 85.488892%, 98.03772%)" fill-opacity="1" d="M 140.75 18.898438 L 148.050781 18.898438 L 148.050781 13.550781 L 140.75 13.550781 Z M 140.75 18.898438 "/>
<path fill-rule="evenodd" fill="rgb(79.606628%, 85.488892%, 98.03772%)" fill-opacity="1" d="M 148 18.898438 L 155.300781 18.898438 L 155.300781 13.550781 L 148 13.550781 Z M 148 18.898438 "/>
<path fill-rule="evenodd" fill="rgb(79.214478%, 85.096741%, 98.03772%)" fill-opacity="1" d="M 155.25 18.898438 L 162.550781 18.898438 L 162.550781 13.550781 L 155.25 13.550781 Z M 155.25 18.898438 "/>
<path fill-rule="evenodd" fill="rgb(79.214478%, 85.096741%, 98.03772%)" fill-opacity="1" d="M 162.5 18.898438 L 169.800781 18.898438 L 169.800781 13.550781 L 162.5 13.550781 Z M 162.5 18.898438 "/>
<path fill-rule="evenodd" fill="rgb(79.214478%, 85.096741%, 98.03772%)" fill-opacity="1" d="M 169.75 18.898438 L 177.050781 18.898438 L 177.050781 13.550781 L 169.75 13.550781 Z M 169.75 18.898438 "/>
<path fill-rule="evenodd" fill="rgb(94.508362%, 66.665649%, 66.665649%)" fill-opacity="1" d="M 3 24.199219 L 10.300781 24.199219 L 10.300781 18.851562 L 3 18.851562 Z M 3 24.199219 "/>
<path fill-rule="evenodd" fill="rgb(94.508362%, 66.665649%, 66.665649%)" fill-opacity="1" d="M 10.25 24.199219 L 17.550781 24.199219 L 17.550781 18.851562 L 10.25 18.851562 Z M 10.25 24.199219 "/>
<path fill-rule="evenodd" fill="rgb(94.508362%, 66.665649%, 66.665649%)" fill-opacity="1" d="M 17.5 24.199219 L 24.800781 24.199219 L 24.800781 18.851562 L 17.5 18.851562 Z M 17.5 24.199219 "/>
<path fill-rule="evenodd" fill="rgb(94.508362%, 67.0578%, 67.0578%)" fill-opacity="1" d="M 24.75 24.199219 L 32.050781 24.199219 L 32.050781 18.851562 L 24.75 18.851562 Z M 24.75 24.199219 "/>
<path fill-rule="evenodd" fill="rgb(94.508362%, 67.0578%, 67.0578%)" fill-opacity="1" d="M 32 24.199219 L 39.300781 24.199219 L 39.300781 18.851562 L 32 18.851562 Z M 32 24.199219 "/>
<path fill-rule="evenodd" fill="rgb(94.508362%, 67.0578%, 67.0578%)" fill-opacity="1" d="M 39.25 24.199219 L 46.550781 24.199219 L 46.550781 18.851562 L 39.25 18.851562 Z M 39.25 24.199219 "/>
<path fill-rule="evenodd" fill="rgb(94.508362%, 67.0578%, 67.0578%)" fill-opacity="1" d="M 46.5 24.199219 L 53.800781 24.199219 L 53.800781 18.851562 L 46.5 18.851562 Z M 46.5 24.199219 "/>
<path fill-rule="evenodd" fill="rgb(94.900513%, 67.0578%, 67.0578%)" fill-opacity="1" d="M 53.75 24.199219 L 61.050781 24.199219 L 61.050781 18.851562 L 53.75 18.851562 Z M 53.75 24.199219 "/>
<path fill-rule="evenodd" fill="rgb(94.508362%, 67.0578%, 67.0578%)" fill-opacity="1" d="M 61 24.199219 L 68.300781 24.199219 L 68.300781 18.851562 L 61 18.851562 Z M 61 24.199219 "/>
<path fill-rule="evenodd" fill="rgb(94.508362%, 67.0578%, 67.0578%)" fill-opacity="1" d="M 68.25 24.199219 L 75.550781 24.199219 L 75.550781 18.851562 L 68.25 18.851562 Z M 68.25 24.199219 "/>
<path fill-rule="evenodd" fill="rgb(94.508362%, 66.665649%, 66.665649%)" fill-opacity="1" d="M 75.5 24.199219 L 82.800781 24.199219 L 82.800781 18.851562 L 75.5 18.851562 Z M 75.5 24.199219 "/>
<path fill-rule="evenodd" fill="rgb(94.508362%, 66.665649%, 66.665649%)" fill-opacity="1" d="M 82.75 24.199219 L 90.050781 24.199219 L 90.050781 18.851562 L 82.75 18.851562 Z M 82.75 24.199219 "/>
<path fill-rule="evenodd" fill="rgb(94.508362%, 66.273499%, 66.273499%)" fill-opacity="1" d="M 90 24.199219 L 97.300781 24.199219 L 97.300781 18.851562 L 90 18.851562 Z M 90 24.199219 "/>
<path fill-rule="evenodd" fill="rgb(94.508362%, 66.273499%, 66.273499%)" fill-opacity="1" d="M 97.25 24.199219 L 104.550781 24.199219 L 104.550781 18.851562 L 97.25 18.851562 Z M 97.25 24.199219 "/>
<path fill-rule="evenodd" fill="rgb(94.508362%, 65.881348%, 65.881348%)" fill-opacity="1" d="M 104.5 24.199219 L 111.800781 24.199219 L 111.800781 18.851562 L 104.5 18.851562 Z M 104.5 24.199219 "/>
<path fill-rule="evenodd" fill="rgb(94.508362%, 65.489197%, 65.489197%)" fill-opacity="1" d="M 111.75 24.199219 L 119.050781 24.199219 L 119.050781 18.851562 L 111.75 18.851562 Z M 111.75 24.199219 "/>
<path fill-rule="evenodd" fill="rgb(94.508362%, 65.097046%, 65.097046%)" fill-opacity="1" d="M 119 24.199219 L 126.300781 24.199219 L 126.300781 18.851562 L 119 18.851562 Z M 119 24.199219 "/>
<path fill-rule="evenodd" fill="rgb(94.116211%, 64.704895%, 64.704895%)" fill-opacity="1" d="M 126.25 24.199219 L 133.550781 24.199219 L 133.550781 18.851562 L 126.25 18.851562 Z M 126.25 24.199219 "/>
<path fill-rule="evenodd" fill="rgb(94.116211%, 64.312744%, 64.312744%)" fill-opacity="1" d="M 133.5 24.199219 L 140.800781 24.199219 L 140.800781 18.851562 L 133.5 18.851562 Z M 133.5 24.199219 "/>
<path fill-rule="evenodd" fill="rgb(94.116211%, 63.528442%, 63.528442%)" fill-opacity="1" d="M 140.75 24.199219 L 148.050781 24.199219 L 148.050781 18.851562 L 140.75 18.851562 Z M 140.75 24.199219 "/>
<path fill-rule="evenodd" fill="rgb(94.116211%, 63.136292%, 63.136292%)" fill-opacity="1" d="M 148 24.199219 L 155.300781 24.199219 L 155.300781 18.851562 L 148 18.851562 Z M 148 24.199219 "/>
<path fill-rule="evenodd" fill="rgb(94.116211%, 63.136292%, 63.136292%)" fill-opacity="1" d="M 155.25 24.199219 L 162.550781 24.199219 L 162.550781 18.851562 L 155.25 18.851562 Z M 155.25 24.199219 "/>
<path fill-rule="evenodd" fill="rgb(94.116211%, 62.744141%, 62.744141%)" fill-opacity="1" d="M 162.5 24.199219 L 169.800781 24.199219 L 169.800781 18.851562 L 162.5 18.851562 Z M 162.5 24.199219 "/>
<path fill-rule="evenodd" fill="rgb(94.116211%, 62.744141%, 62.744141%)" fill-opacity="1" d="M 169.75 24.199219 L 177.050781 24.199219 L 177.050781 18.851562 L 169.75 18.851562 Z M 169.75 24.199219 "/>
<path fill-rule="evenodd" fill="rgb(92.939758%, 55.293274%, 55.293274%)" fill-opacity="1" d="M 3 29.5 L 10.300781 29.5 L 10.300781 24.148438 L 3 24.148438 Z M 3 29.5 "/>
<path fill-rule="evenodd" fill="rgb(92.939758%, 55.685425%, 55.685425%)" fill-opacity="1" d="M 10.25 29.5 L 17.550781 29.5 L 17.550781 24.148438 L 10.25 24.148438 Z M 10.25 29.5 "/>
<path fill-rule="evenodd" fill="rgb(92.939758%, 55.685425%, 55.685425%)" fill-opacity="1" d="M 17.5 29.5 L 24.800781 29.5 L 24.800781 24.148438 L 17.5 24.148438 Z M 17.5 29.5 "/>
<path fill-rule="evenodd" fill="rgb(92.939758%, 55.685425%, 55.685425%)" fill-opacity="1" d="M 24.75 29.5 L 32.050781 29.5 L 32.050781 24.148438 L 24.75 24.148438 Z M 24.75 29.5 "/>
<path fill-rule="evenodd" fill="rgb(92.939758%, 56.077576%, 56.077576%)" fill-opacity="1" d="M 32 29.5 L 39.300781 29.5 L 39.300781 24.148438 L 32 24.148438 Z M 32 29.5 "/>
<path fill-rule="evenodd" fill="rgb(92.939758%, 56.077576%, 56.077576%)" fill-opacity="1" d="M 39.25 29.5 L 46.550781 29.5 L 46.550781 24.148438 L 39.25 24.148438 Z M 39.25 29.5 "/>
<path fill-rule="evenodd" fill="rgb(92.939758%, 56.077576%, 56.077576%)" fill-opacity="1" d="M 46.5 29.5 L 53.800781 29.5 L 53.800781 24.148438 L 46.5 24.148438 Z M 46.5 29.5 "/>
<path fill-rule="evenodd" fill="rgb(92.939758%, 56.469727%, 56.469727%)" fill-opacity="1" d="M 53.75 29.5 L 61.050781 29.5 L 61.050781 24.148438 L 53.75 24.148438 Z M 53.75 29.5 "/>
<path fill-rule="evenodd" fill="rgb(92.939758%, 56.077576%, 56.077576%)" fill-opacity="1" d="M 61 29.5 L 68.300781 29.5 L 68.300781 24.148438 L 61 24.148438 Z M 61 29.5 "/>
<path fill-rule="evenodd" fill="rgb(92.939758%, 55.685425%, 55.685425%)" fill-opacity="1" d="M 68.25 29.5 L 75.550781 29.5 L 75.550781 24.148438 L 68.25 24.148438 Z M 68.25 29.5 "/>
<path fill-rule="evenodd" fill="rgb(92.939758%, 55.685425%, 55.685425%)" fill-opacity="1" d="M 75.5 29.5 L 82.800781 29.5 L 82.800781 24.148438 L 75.5 24.148438 Z M 75.5 29.5 "/>
<path fill-rule="evenodd" fill="rgb(92.939758%, 55.293274%, 55.293274%)" fill-opacity="1" d="M 82.75 29.5 L 90.050781 29.5 L 90.050781 24.148438 L 82.75 24.148438 Z M 82.75 29.5 "/>
<path fill-rule="evenodd" fill="rgb(92.939758%, 55.293274%, 55.293274%)" fill-opacity="1" d="M 90 29.5 L 97.300781 29.5 L 97.300781 24.148438 L 90 24.148438 Z M 90 29.5 "/>
<path fill-rule="evenodd" fill="rgb(92.547607%, 54.901123%, 54.901123%)" fill-opacity="1" d="M 97.25 29.5 L 104.550781 29.5 L 104.550781 24.148438 L 97.25 24.148438 Z M 97.25 29.5 "/>
<path fill-rule="evenodd" fill="rgb(92.547607%, 54.508972%, 54.508972%)" fill-opacity="1" d="M 104.5 29.5 L 111.800781 29.5 L 111.800781 24.148438 L 104.5 24.148438 Z M 104.5 29.5 "/>
<path fill-rule="evenodd" fill="rgb(92.547607%, 54.116821%, 54.116821%)" fill-opacity="1" d="M 111.75 29.5 L 119.050781 29.5 L 119.050781 24.148438 L 111.75 24.148438 Z M 111.75 29.5 "/>
<path fill-rule="evenodd" fill="rgb(92.547607%, 53.33252%, 53.33252%)" fill-opacity="1" d="M 119 29.5 L 126.300781 29.5 L 126.300781 24.148438 L 119 24.148438 Z M 119 29.5 "/>
<path fill-rule="evenodd" fill="rgb(92.547607%, 52.940369%, 52.940369%)" fill-opacity="1" d="M 126.25 29.5 L 133.550781 29.5 L 133.550781 24.148438 L 126.25 24.148438 Z M 126.25 29.5 "/>
<path fill-rule="evenodd" fill="rgb(92.155457%, 52.156067%, 52.156067%)" fill-opacity="1" d="M 133.5 29.5 L 140.800781 29.5 L 140.800781 24.148438 L 133.5 24.148438 Z M 133.5 29.5 "/>
<path fill-rule="evenodd" fill="rgb(92.155457%, 51.371765%, 51.371765%)" fill-opacity="1" d="M 140.75 29.5 L 148.050781 29.5 L 148.050781 24.148438 L 140.75 24.148438 Z M 140.75 29.5 "/>
<path fill-rule="evenodd" fill="rgb(92.155457%, 50.979614%, 50.979614%)" fill-opacity="1" d="M 148 29.5 L 155.300781 29.5 L 155.300781 24.148438 L 148 24.148438 Z M 148 29.5 "/>
<path fill-rule="evenodd" fill="rgb(92.155457%, 50.587463%, 50.587463%)" fill-opacity="1" d="M 155.25 29.5 L 162.550781 29.5 L 162.550781 24.148438 L 155.25 24.148438 Z M 155.25 29.5 "/>
<path fill-rule="evenodd" fill="rgb(92.155457%, 50.195312%, 50.195312%)" fill-opacity="1" d="M 162.5 29.5 L 169.800781 29.5 L 169.800781 24.148438 L 162.5 24.148438 Z M 162.5 29.5 "/>
<path fill-rule="evenodd" fill="rgb(92.155457%, 50.195312%, 50.195312%)" fill-opacity="1" d="M 169.75 29.5 L 177.050781 29.5 L 177.050781 24.148438 L 169.75 24.148438 Z M 169.75 29.5 "/>
<path fill-rule="evenodd" fill="rgb(94.508362%, 66.665649%, 66.665649%)" fill-opacity="1" d="M 3 34.800781 L 10.300781 34.800781 L 10.300781 29.449219 L 3 29.449219 Z M 3 34.800781 "/>
<path fill-rule="evenodd" fill="rgb(94.508362%, 66.665649%, 66.665649%)" fill-opacity="1" d="M 10.25 34.800781 L 17.550781 34.800781 L 17.550781 29.449219 L 10.25 29.449219 Z M 10.25 34.800781 "/>
<path fill-rule="evenodd" fill="rgb(94.508362%, 66.665649%, 66.665649%)" fill-opacity="1" d="M 17.5 34.800781 L 24.800781 34.800781 L 24.800781 29.449219 L 17.5 29.449219 Z M 17.5 34.800781 "/>
<path fill-rule="evenodd" fill="rgb(94.508362%, 67.0578%, 67.0578%)" fill-opacity="1" d="M 24.75 34.800781 L 32.050781 34.800781 L 32.050781 29.449219 L 24.75 29.449219 Z M 24.75 34.800781 "/>
<path fill-rule="evenodd" fill="rgb(94.508362%, 67.0578%, 67.0578%)" fill-opacity="1" d="M 32 34.800781 L 39.300781 34.800781 L 39.300781 29.449219 L 32 29.449219 Z M 32 34.800781 "/>
<path fill-rule="evenodd" fill="rgb(94.508362%, 67.0578%, 67.0578%)" fill-opacity="1" d="M 39.25 34.800781 L 46.550781 34.800781 L 46.550781 29.449219 L 39.25 29.449219 Z M 39.25 34.800781 "/>
<path fill-rule="evenodd" fill="rgb(94.508362%, 67.0578%, 67.0578%)" fill-opacity="1" d="M 46.5 34.800781 L 53.800781 34.800781 L 53.800781 29.449219 L 46.5 29.449219 Z M 46.5 34.800781 "/>
<path fill-rule="evenodd" fill="rgb(94.900513%, 67.449951%, 67.449951%)" fill-opacity="1" d="M 53.75 34.800781 L 61.050781 34.800781 L 61.050781 29.449219 L 53.75 29.449219 Z M 53.75 34.800781 "/>
<path fill-rule="evenodd" fill="rgb(94.900513%, 67.0578%, 67.0578%)" fill-opacity="1" d="M 61 34.800781 L 68.300781 34.800781 L 68.300781 29.449219 L 61 29.449219 Z M 61 34.800781 "/>
<path fill-rule="evenodd" fill="rgb(94.508362%, 67.0578%, 67.0578%)" fill-opacity="1" d="M 68.25 34.800781 L 75.550781 34.800781 L 75.550781 29.449219 L 68.25 29.449219 Z M 68.25 34.800781 "/>
<path fill-rule="evenodd" fill="rgb(94.508362%, 66.665649%, 66.665649%)" fill-opacity="1" d="M 75.5 34.800781 L 82.800781 34.800781 L 82.800781 29.449219 L 75.5 29.449219 Z M 75.5 34.800781 "/>
<path fill-rule="evenodd" fill="rgb(94.508362%, 66.665649%, 66.665649%)" fill-opacity="1" d="M 82.75 34.800781 L 90.050781 34.800781 L 90.050781 29.449219 L 82.75 29.449219 Z M 82.75 34.800781 "/>
<path fill-rule="evenodd" fill="rgb(94.508362%, 66.273499%, 66.273499%)" fill-opacity="1" d="M 90 34.800781 L 97.300781 34.800781 L 97.300781 29.449219 L 90 29.449219 Z M 90 34.800781 "/>
<path fill-rule="evenodd" fill="rgb(94.508362%, 66.273499%, 66.273499%)" fill-opacity="1" d="M 97.25 34.800781 L 104.550781 34.800781 L 104.550781 29.449219 L 97.25 29.449219 Z M 97.25 34.800781 "/>
<path fill-rule="evenodd" fill="rgb(94.508362%, 65.881348%, 65.881348%)" fill-opacity="1" d="M 104.5 34.800781 L 111.800781 34.800781 L 111.800781 29.449219 L 104.5 29.449219 Z M 104.5 34.800781 "/>
<path fill-rule="evenodd" fill="rgb(94.508362%, 65.489197%, 65.489197%)" fill-opacity="1" d="M 111.75 34.800781 L 119.050781 34.800781 L 119.050781 29.449219 L 111.75 29.449219 Z M 111.75 34.800781 "/>
<path fill-rule="evenodd" fill="rgb(94.508362%, 65.097046%, 65.097046%)" fill-opacity="1" d="M 119 34.800781 L 126.300781 34.800781 L 126.300781 29.449219 L 119 29.449219 Z M 119 34.800781 "/>
<path fill-rule="evenodd" fill="rgb(94.116211%, 64.704895%, 64.704895%)" fill-opacity="1" d="M 126.25 34.800781 L 133.550781 34.800781 L 133.550781 29.449219 L 126.25 29.449219 Z M 126.25 34.800781 "/>
<path fill-rule="evenodd" fill="rgb(94.116211%, 64.312744%, 64.312744%)" fill-opacity="1" d="M 133.5 34.800781 L 140.800781 34.800781 L 140.800781 29.449219 L 133.5 29.449219 Z M 133.5 34.800781 "/>
<path fill-rule="evenodd" fill="rgb(94.116211%, 63.528442%, 63.528442%)" fill-opacity="1" d="M 140.75 34.800781 L 148.050781 34.800781 L 148.050781 29.449219 L 140.75 29.449219 Z M 140.75 34.800781 "/>
<path fill-rule="evenodd" fill="rgb(94.116211%, 63.136292%, 63.136292%)" fill-opacity="1" d="M 148 34.800781 L 155.300781 34.800781 L 155.300781 29.449219 L 148 29.449219 Z M 148 34.800781 "/>
<path fill-rule="evenodd" fill="rgb(94.116211%, 63.136292%, 63.136292%)" fill-opacity="1" d="M 155.25 34.800781 L 162.550781 34.800781 L 162.550781 29.449219 L 155.25 29.449219 Z M 155.25 34.800781 "/>
<path fill-rule="evenodd" fill="rgb(94.116211%, 62.744141%, 62.744141%)" fill-opacity="1" d="M 162.5 34.800781 L 169.800781 34.800781 L 169.800781 29.449219 L 162.5 29.449219 Z M 162.5 34.800781 "/>
<path fill-rule="evenodd" fill="rgb(94.116211%, 62.744141%, 62.744141%)" fill-opacity="1" d="M 169.75 34.800781 L 177.050781 34.800781 L 177.050781 29.449219 L 169.75 29.449219 Z M 169.75 34.800781 "/>
<path fill-rule="evenodd" fill="rgb(53.33252%, 66.665649%, 95.684814%)" fill-opacity="1" d="M 3 40.101562 L 10.300781 40.101562 L 10.300781 34.75 L 3 34.75 Z M 3 40.101562 "/>
<path fill-rule="evenodd" fill="rgb(53.33252%, 66.665649%, 95.684814%)" fill-opacity="1" d="M 10.25 40.101562 L 17.550781 40.101562 L 17.550781 34.75 L 10.25 34.75 Z M 10.25 40.101562 "/>
<path fill-rule="evenodd" fill="rgb(53.72467%, 66.665649%, 95.684814%)" fill-opacity="1" d="M 17.5 40.101562 L 24.800781 40.101562 L 24.800781 34.75 L 17.5 34.75 Z M 17.5 40.101562 "/>
<path fill-rule="evenodd" fill="rgb(53.72467%, 67.0578%, 95.684814%)" fill-opacity="1" d="M 24.75 40.101562 L 32.050781 40.101562 L 32.050781 34.75 L 24.75 34.75 Z M 24.75 40.101562 "/>
<path fill-rule="evenodd" fill="rgb(53.72467%, 67.0578%, 95.684814%)" fill-opacity="1" d="M 32 40.101562 L 39.300781 40.101562 L 39.300781 34.75 L 32 34.75 Z M 32 40.101562 "/>
<path fill-rule="evenodd" fill="rgb(53.72467%, 67.0578%, 95.684814%)" fill-opacity="1" d="M 39.25 40.101562 L 46.550781 40.101562 L 46.550781 34.75 L 39.25 34.75 Z M 39.25 40.101562 "/>
<path fill-rule="evenodd" fill="rgb(54.116821%, 67.0578%, 95.684814%)" fill-opacity="1" d="M 46.5 40.101562 L 53.800781 40.101562 L 53.800781 34.75 L 46.5 34.75 Z M 46.5 40.101562 "/>
<path fill-rule="evenodd" fill="rgb(54.116821%, 67.0578%, 95.684814%)" fill-opacity="1" d="M 53.75 40.101562 L 61.050781 40.101562 L 61.050781 34.75 L 53.75 34.75 Z M 53.75 40.101562 "/>
<path fill-rule="evenodd" fill="rgb(54.116821%, 67.0578%, 95.684814%)" fill-opacity="1" d="M 61 40.101562 L 68.300781 40.101562 L 68.300781 34.75 L 61 34.75 Z M 61 40.101562 "/>
<path fill-rule="evenodd" fill="rgb(53.72467%, 66.665649%, 95.684814%)" fill-opacity="1" d="M 68.25 40.101562 L 75.550781 40.101562 L 75.550781 34.75 L 68.25 34.75 Z M 68.25 40.101562 "/>
<path fill-rule="evenodd" fill="rgb(53.33252%, 66.665649%, 95.684814%)" fill-opacity="1" d="M 75.5 40.101562 L 82.800781 40.101562 L 82.800781 34.75 L 75.5 34.75 Z M 75.5 40.101562 "/>
<path fill-rule="evenodd" fill="rgb(52.940369%, 66.273499%, 95.684814%)" fill-opacity="1" d="M 82.75 40.101562 L 90.050781 40.101562 L 90.050781 34.75 L 82.75 34.75 Z M 82.75 40.101562 "/>
<path fill-rule="evenodd" fill="rgb(52.940369%, 66.273499%, 95.684814%)" fill-opacity="1" d="M 90 40.101562 L 97.300781 40.101562 L 97.300781 34.75 L 90 34.75 Z M 90 40.101562 "/>
<path fill-rule="evenodd" fill="rgb(52.548218%, 66.273499%, 95.684814%)" fill-opacity="1" d="M 97.25 40.101562 L 104.550781 40.101562 L 104.550781 34.75 L 97.25 34.75 Z M 97.25 40.101562 "/>
<path fill-rule="evenodd" fill="rgb(52.156067%, 65.881348%, 95.684814%)" fill-opacity="1" d="M 104.5 40.101562 L 111.800781 40.101562 L 111.800781 34.75 L 104.5 34.75 Z M 104.5 40.101562 "/>
<path fill-rule="evenodd" fill="rgb(51.763916%, 65.489197%, 95.684814%)" fill-opacity="1" d="M 111.75 40.101562 L 119.050781 40.101562 L 119.050781 34.75 L 111.75 34.75 Z M 111.75 40.101562 "/>
<path fill-rule="evenodd" fill="rgb(50.979614%, 65.097046%, 95.684814%)" fill-opacity="1" d="M 119 40.101562 L 126.300781 40.101562 L 126.300781 34.75 L 119 34.75 Z M 119 40.101562 "/>
<path fill-rule="evenodd" fill="rgb(50.587463%, 64.704895%, 95.292664%)" fill-opacity="1" d="M 126.25 40.101562 L 133.550781 40.101562 L 133.550781 34.75 L 126.25 34.75 Z M 126.25 40.101562 "/>
<path fill-rule="evenodd" fill="rgb(49.803162%, 63.920593%, 95.292664%)" fill-opacity="1" d="M 133.5 40.101562 L 140.800781 40.101562 L 140.800781 34.75 L 133.5 34.75 Z M 133.5 40.101562 "/>
<path fill-rule="evenodd" fill="rgb(49.01886%, 63.528442%, 95.292664%)" fill-opacity="1" d="M 140.75 40.101562 L 148.050781 40.101562 L 148.050781 34.75 L 140.75 34.75 Z M 140.75 40.101562 "/>
<path fill-rule="evenodd" fill="rgb(48.626709%, 63.136292%, 95.292664%)" fill-opacity="1" d="M 148 40.101562 L 155.300781 40.101562 L 155.300781 34.75 L 148 34.75 Z M 148 40.101562 "/>
<path fill-rule="evenodd" fill="rgb(48.234558%, 62.744141%, 95.292664%)" fill-opacity="1" d="M 155.25 40.101562 L 162.550781 40.101562 L 162.550781 34.75 L 155.25 34.75 Z M 155.25 40.101562 "/>
<path fill-rule="evenodd" fill="rgb(47.842407%, 62.744141%, 95.292664%)" fill-opacity="1" d="M 162.5 40.101562 L 169.800781 40.101562 L 169.800781 34.75 L 162.5 34.75 Z M 162.5 40.101562 "/>
<path fill-rule="evenodd" fill="rgb(47.842407%, 62.744141%, 95.292664%)" fill-opacity="1" d="M 169.75 40.101562 L 177.050781 40.101562 L 177.050781 34.75 L 169.75 34.75 Z M 169.75 40.101562 "/>
<path fill-rule="evenodd" fill="rgb(75.292969%, 82.351685%, 97.647095%)" fill-opacity="1" d="M 3 45.398438 L 10.300781 45.398438 L 10.300781 40.050781 L 3 40.050781 Z M 3 45.398438 "/>
<path fill-rule="evenodd" fill="rgb(75.292969%, 82.351685%, 97.647095%)" fill-opacity="1" d="M 10.25 45.398438 L 17.550781 45.398438 L 17.550781 40.050781 L 10.25 40.050781 Z M 10.25 45.398438 "/>
<path fill-rule="evenodd" fill="rgb(75.292969%, 82.351685%, 97.647095%)" fill-opacity="1" d="M 17.5 45.398438 L 24.800781 45.398438 L 24.800781 40.050781 L 17.5 40.050781 Z M 17.5 45.398438 "/>
<path fill-rule="evenodd" fill="rgb(75.292969%, 82.351685%, 97.647095%)" fill-opacity="1" d="M 24.75 45.398438 L 32.050781 45.398438 L 32.050781 40.050781 L 24.75 40.050781 Z M 24.75 45.398438 "/>
<path fill-rule="evenodd" fill="rgb(75.68512%, 82.351685%, 97.647095%)" fill-opacity="1" d="M 32 45.398438 L 39.300781 45.398438 L 39.300781 40.050781 L 32 40.050781 Z M 32 45.398438 "/>
<path fill-rule="evenodd" fill="rgb(75.68512%, 82.351685%, 97.647095%)" fill-opacity="1" d="M 39.25 45.398438 L 46.550781 45.398438 L 46.550781 40.050781 L 39.25 40.050781 Z M 39.25 45.398438 "/>
<path fill-rule="evenodd" fill="rgb(75.68512%, 82.743835%, 97.647095%)" fill-opacity="1" d="M 46.5 45.398438 L 53.800781 45.398438 L 53.800781 40.050781 L 46.5 40.050781 Z M 46.5 45.398438 "/>
<path fill-rule="evenodd" fill="rgb(75.68512%, 82.743835%, 97.647095%)" fill-opacity="1" d="M 53.75 45.398438 L 61.050781 45.398438 L 61.050781 40.050781 L 53.75 40.050781 Z M 53.75 45.398438 "/>
<path fill-rule="evenodd" fill="rgb(75.68512%, 82.743835%, 97.647095%)" fill-opacity="1" d="M 61 45.398438 L 68.300781 45.398438 L 68.300781 40.050781 L 61 40.050781 Z M 61 45.398438 "/>
<path fill-rule="evenodd" fill="rgb(75.292969%, 82.351685%, 97.647095%)" fill-opacity="1" d="M 68.25 45.398438 L 75.550781 45.398438 L 75.550781 40.050781 L 68.25 40.050781 Z M 68.25 45.398438 "/>
<path fill-rule="evenodd" fill="rgb(75.292969%, 82.351685%, 97.647095%)" fill-opacity="1" d="M 75.5 45.398438 L 82.800781 45.398438 L 82.800781 40.050781 L 75.5 40.050781 Z M 75.5 45.398438 "/>
<path fill-rule="evenodd" fill="rgb(75.292969%, 82.351685%, 97.647095%)" fill-opacity="1" d="M 82.75 45.398438 L 90.050781 45.398438 L 90.050781 40.050781 L 82.75 40.050781 Z M 82.75 45.398438 "/>
<path fill-rule="evenodd" fill="rgb(74.900818%, 81.959534%, 97.647095%)" fill-opacity="1" d="M 90 45.398438 L 97.300781 45.398438 L 97.300781 40.050781 L 90 40.050781 Z M 90 45.398438 "/>
<path fill-rule="evenodd" fill="rgb(74.900818%, 81.959534%, 97.647095%)" fill-opacity="1" d="M 97.25 45.398438 L 104.550781 45.398438 L 104.550781 40.050781 L 97.25 40.050781 Z M 97.25 45.398438 "/>
<path fill-rule="evenodd" fill="rgb(74.508667%, 81.959534%, 97.647095%)" fill-opacity="1" d="M 104.5 45.398438 L 111.800781 45.398438 L 111.800781 40.050781 L 104.5 40.050781 Z M 104.5 45.398438 "/>
<path fill-rule="evenodd" fill="rgb(74.508667%, 81.567383%, 97.647095%)" fill-opacity="1" d="M 111.75 45.398438 L 119.050781 45.398438 L 119.050781 40.050781 L 111.75 40.050781 Z M 111.75 45.398438 "/>
<path fill-rule="evenodd" fill="rgb(74.116516%, 81.567383%, 97.647095%)" fill-opacity="1" d="M 119 45.398438 L 126.300781 45.398438 L 126.300781 40.050781 L 119 40.050781 Z M 119 45.398438 "/>
<path fill-rule="evenodd" fill="rgb(73.724365%, 81.175232%, 97.647095%)" fill-opacity="1" d="M 126.25 45.398438 L 133.550781 45.398438 L 133.550781 40.050781 L 126.25 40.050781 Z M 126.25 45.398438 "/>
<path fill-rule="evenodd" fill="rgb(73.332214%, 80.783081%, 97.647095%)" fill-opacity="1" d="M 133.5 45.398438 L 140.800781 45.398438 L 140.800781 40.050781 L 133.5 40.050781 Z M 133.5 45.398438 "/>
<path fill-rule="evenodd" fill="rgb(72.940063%, 80.783081%, 97.647095%)" fill-opacity="1" d="M 140.75 45.398438 L 148.050781 45.398438 L 148.050781 40.050781 L 140.75 40.050781 Z M 140.75 45.398438 "/>
<path fill-rule="evenodd" fill="rgb(72.547913%, 80.39093%, 97.647095%)" fill-opacity="1" d="M 148 45.398438 L 155.300781 45.398438 L 155.300781 40.050781 L 148 40.050781 Z M 148 45.398438 "/>
<path fill-rule="evenodd" fill="rgb(72.547913%, 80.39093%, 97.647095%)" fill-opacity="1" d="M 155.25 45.398438 L 162.550781 45.398438 L 162.550781 40.050781 L 155.25 40.050781 Z M 155.25 45.398438 "/>
<path fill-rule="evenodd" fill="rgb(72.547913%, 80.39093%, 97.647095%)" fill-opacity="1" d="M 162.5 45.398438 L 169.800781 45.398438 L 169.800781 40.050781 L 162.5 40.050781 Z M 162.5 45.398438 "/>
<path fill-rule="evenodd" fill="rgb(72.155762%, 79.998779%, 97.647095%)" fill-opacity="1" d="M 169.75 45.398438 L 177.050781 45.398438 L 177.050781 40.050781 L 169.75 40.050781 Z M 169.75 45.398438 "/>
<path fill-rule="evenodd" fill="rgb(97.253418%, 82.351685%, 82.351685%)" fill-opacity="1" d="M 3 50.699219 L 10.300781 50.699219 L 10.300781 45.351562 L 3 45.351562 Z M 3 50.699219 "/>
<path fill-rule="evenodd" fill="rgb(97.253418%, 82.351685%, 82.351685%)" fill-opacity="1" d="M 10.25 50.699219 L 17.550781 50.699219 L 17.550781 45.351562 L 10.25 45.351562 Z M 10.25 50.699219 "/>
<path fill-rule="evenodd" fill="rgb(97.253418%, 82.351685%, 82.351685%)" fill-opacity="1" d="M 17.5 50.699219 L 24.800781 50.699219 L 24.800781 45.351562 L 17.5 45.351562 Z M 17.5 50.699219 "/>
<path fill-rule="evenodd" fill="rgb(97.253418%, 82.351685%, 82.351685%)" fill-opacity="1" d="M 24.75 50.699219 L 32.050781 50.699219 L 32.050781 45.351562 L 24.75 45.351562 Z M 24.75 50.699219 "/>
<path fill-rule="evenodd" fill="rgb(97.253418%, 82.351685%, 82.351685%)" fill-opacity="1" d="M 32 50.699219 L 39.300781 50.699219 L 39.300781 45.351562 L 32 45.351562 Z M 32 50.699219 "/>
<path fill-rule="evenodd" fill="rgb(97.253418%, 82.351685%, 82.351685%)" fill-opacity="1" d="M 39.25 50.699219 L 46.550781 50.699219 L 46.550781 45.351562 L 39.25 45.351562 Z M 39.25 50.699219 "/>
<path fill-rule="evenodd" fill="rgb(97.253418%, 82.743835%, 82.743835%)" fill-opacity="1" d="M 46.5 50.699219 L 53.800781 50.699219 L 53.800781 45.351562 L 46.5 45.351562 Z M 46.5 50.699219 "/>
<path fill-rule="evenodd" fill="rgb(97.253418%, 82.743835%, 82.743835%)" fill-opacity="1" d="M 53.75 50.699219 L 61.050781 50.699219 L 61.050781 45.351562 L 53.75 45.351562 Z M 53.75 50.699219 "/>
<path fill-rule="evenodd" fill="rgb(97.253418%, 82.743835%, 82.743835%)" fill-opacity="1" d="M 61 50.699219 L 68.300781 50.699219 L 68.300781 45.351562 L 61 45.351562 Z M 61 50.699219 "/>
<path fill-rule="evenodd" fill="rgb(97.253418%, 82.351685%, 82.351685%)" fill-opacity="1" d="M 68.25 50.699219 L 75.550781 50.699219 L 75.550781 45.351562 L 68.25 45.351562 Z M 68.25 50.699219 "/>
<path fill-rule="evenodd" fill="rgb(97.253418%, 82.351685%, 82.351685%)" fill-opacity="1" d="M 75.5 50.699219 L 82.800781 50.699219 L 82.800781 45.351562 L 75.5 45.351562 Z M 75.5 50.699219 "/>
<path fill-rule="evenodd" fill="rgb(97.253418%, 82.351685%, 82.351685%)" fill-opacity="1" d="M 82.75 50.699219 L 90.050781 50.699219 L 90.050781 45.351562 L 82.75 45.351562 Z M 82.75 50.699219 "/>
<path fill-rule="evenodd" fill="rgb(97.253418%, 81.959534%, 81.959534%)" fill-opacity="1" d="M 90 50.699219 L 97.300781 50.699219 L 97.300781 45.351562 L 90 45.351562 Z M 90 50.699219 "/>
<path fill-rule="evenodd" fill="rgb(97.253418%, 81.959534%, 81.959534%)" fill-opacity="1" d="M 97.25 50.699219 L 104.550781 50.699219 L 104.550781 45.351562 L 97.25 45.351562 Z M 97.25 50.699219 "/>
<path fill-rule="evenodd" fill="rgb(97.253418%, 81.959534%, 81.959534%)" fill-opacity="1" d="M 104.5 50.699219 L 111.800781 50.699219 L 111.800781 45.351562 L 104.5 45.351562 Z M 104.5 50.699219 "/>
<path fill-rule="evenodd" fill="rgb(96.861267%, 81.567383%, 81.567383%)" fill-opacity="1" d="M 111.75 50.699219 L 119.050781 50.699219 L 119.050781 45.351562 L 111.75 45.351562 Z M 111.75 50.699219 "/>
<path fill-rule="evenodd" fill="rgb(96.861267%, 81.567383%, 81.567383%)" fill-opacity="1" d="M 119 50.699219 L 126.300781 50.699219 L 126.300781 45.351562 L 119 45.351562 Z M 119 50.699219 "/>
<path fill-rule="evenodd" fill="rgb(96.861267%, 81.175232%, 81.175232%)" fill-opacity="1" d="M 126.25 50.699219 L 133.550781 50.699219 L 133.550781 45.351562 L 126.25 45.351562 Z M 126.25 50.699219 "/>
<path fill-rule="evenodd" fill="rgb(96.861267%, 80.783081%, 80.783081%)" fill-opacity="1" d="M 133.5 50.699219 L 140.800781 50.699219 L 140.800781 45.351562 L 133.5 45.351562 Z M 133.5 50.699219 "/>
<path fill-rule="evenodd" fill="rgb(96.861267%, 80.783081%, 80.783081%)" fill-opacity="1" d="M 140.75 50.699219 L 148.050781 50.699219 L 148.050781 45.351562 L 140.75 45.351562 Z M 140.75 50.699219 "/>
<path fill-rule="evenodd" fill="rgb(96.861267%, 80.39093%, 80.39093%)" fill-opacity="1" d="M 148 50.699219 L 155.300781 50.699219 L 155.300781 45.351562 L 148 45.351562 Z M 148 50.699219 "/>
<path fill-rule="evenodd" fill="rgb(96.861267%, 80.39093%, 80.39093%)" fill-opacity="1" d="M 155.25 50.699219 L 162.550781 50.699219 L 162.550781 45.351562 L 155.25 45.351562 Z M 155.25 50.699219 "/>
<path fill-rule="evenodd" fill="rgb(96.861267%, 80.39093%, 80.39093%)" fill-opacity="1" d="M 162.5 50.699219 L 169.800781 50.699219 L 169.800781 45.351562 L 162.5 45.351562 Z M 162.5 50.699219 "/>
<path fill-rule="evenodd" fill="rgb(96.861267%, 79.998779%, 79.998779%)" fill-opacity="1" d="M 169.75 50.699219 L 177.050781 50.699219 L 177.050781 45.351562 L 169.75 45.351562 Z M 169.75 50.699219 "/>
<path fill-rule="evenodd" fill="rgb(81.959534%, 87.057495%, 98.431396%)" fill-opacity="1" d="M 3 56 L 10.300781 56 L 10.300781 50.648438 L 3 50.648438 Z M 3 56 "/>
<path fill-rule="evenodd" fill="rgb(81.959534%, 87.057495%, 98.431396%)" fill-opacity="1" d="M 10.25 56 L 17.550781 56 L 17.550781 50.648438 L 10.25 50.648438 Z M 10.25 56 "/>
<path fill-rule="evenodd" fill="rgb(82.351685%, 87.057495%, 98.431396%)" fill-opacity="1" d="M 17.5 56 L 24.800781 56 L 24.800781 50.648438 L 17.5 50.648438 Z M 17.5 56 "/>
<path fill-rule="evenodd" fill="rgb(82.351685%, 87.449646%, 98.431396%)" fill-opacity="1" d="M 24.75 56 L 32.050781 56 L 32.050781 50.648438 L 24.75 50.648438 Z M 24.75 56 "/>
<path fill-rule="evenodd" fill="rgb(82.351685%, 87.449646%, 98.431396%)" fill-opacity="1" d="M 32 56 L 39.300781 56 L 39.300781 50.648438 L 32 50.648438 Z M 32 56 "/>
<path fill-rule="evenodd" fill="rgb(82.351685%, 87.449646%, 98.431396%)" fill-opacity="1" d="M 39.25 56 L 46.550781 56 L 46.550781 50.648438 L 39.25 50.648438 Z M 39.25 56 "/>
<path fill-rule="evenodd" fill="rgb(82.351685%, 87.449646%, 98.431396%)" fill-opacity="1" d="M 46.5 56 L 53.800781 56 L 53.800781 50.648438 L 46.5 50.648438 Z M 46.5 56 "/>
<path fill-rule="evenodd" fill="rgb(82.351685%, 87.449646%, 98.431396%)" fill-opacity="1" d="M 53.75 56 L 61.050781 56 L 61.050781 50.648438 L 53.75 50.648438 Z M 53.75 56 "/>
<path fill-rule="evenodd" fill="rgb(82.351685%, 87.449646%, 98.431396%)" fill-opacity="1" d="M 61 56 L 68.300781 56 L 68.300781 50.648438 L 61 50.648438 Z M 61 56 "/>
<path fill-rule="evenodd" fill="rgb(82.351685%, 87.449646%, 98.431396%)" fill-opacity="1" d="M 68.25 56 L 75.550781 56 L 75.550781 50.648438 L 68.25 50.648438 Z M 68.25 56 "/>
<path fill-rule="evenodd" fill="rgb(81.959534%, 87.057495%, 98.431396%)" fill-opacity="1" d="M 75.5 56 L 82.800781 56 L 82.800781 50.648438 L 75.5 50.648438 Z M 75.5 56 "/>
<path fill-rule="evenodd" fill="rgb(81.959534%, 87.057495%, 98.431396%)" fill-opacity="1" d="M 82.75 56 L 90.050781 56 L 90.050781 50.648438 L 82.75 50.648438 Z M 82.75 56 "/>
<path fill-rule="evenodd" fill="rgb(81.959534%, 87.057495%, 98.431396%)" fill-opacity="1" d="M 90 56 L 97.300781 56 L 97.300781 50.648438 L 90 50.648438 Z M 90 56 "/>
<path fill-rule="evenodd" fill="rgb(81.959534%, 87.057495%, 98.431396%)" fill-opacity="1" d="M 97.25 56 L 104.550781 56 L 104.550781 50.648438 L 97.25 50.648438 Z M 97.25 56 "/>
<path fill-rule="evenodd" fill="rgb(81.567383%, 87.057495%, 98.431396%)" fill-opacity="1" d="M 104.5 56 L 111.800781 56 L 111.800781 50.648438 L 104.5 50.648438 Z M 104.5 56 "/>
<path fill-rule="evenodd" fill="rgb(81.567383%, 86.665344%, 98.431396%)" fill-opacity="1" d="M 111.75 56 L 119.050781 56 L 119.050781 50.648438 L 111.75 50.648438 Z M 111.75 56 "/>
<path fill-rule="evenodd" fill="rgb(81.175232%, 86.665344%, 98.431396%)" fill-opacity="1" d="M 119 56 L 126.300781 56 L 126.300781 50.648438 L 119 50.648438 Z M 119 56 "/>
<path fill-rule="evenodd" fill="rgb(80.783081%, 86.273193%, 98.431396%)" fill-opacity="1" d="M 126.25 56 L 133.550781 56 L 133.550781 50.648438 L 126.25 50.648438 Z M 126.25 56 "/>
<path fill-rule="evenodd" fill="rgb(80.783081%, 86.273193%, 98.03772%)" fill-opacity="1" d="M 133.5 56 L 140.800781 56 L 140.800781 50.648438 L 133.5 50.648438 Z M 133.5 56 "/>
<path fill-rule="evenodd" fill="rgb(80.39093%, 85.881042%, 98.03772%)" fill-opacity="1" d="M 140.75 56 L 148.050781 56 L 148.050781 50.648438 L 140.75 50.648438 Z M 140.75 56 "/>
<path fill-rule="evenodd" fill="rgb(80.39093%, 85.881042%, 98.03772%)" fill-opacity="1" d="M 148 56 L 155.300781 56 L 155.300781 50.648438 L 148 50.648438 Z M 148 56 "/>
<path fill-rule="evenodd" fill="rgb(79.998779%, 85.881042%, 98.03772%)" fill-opacity="1" d="M 155.25 56 L 162.550781 56 L 162.550781 50.648438 L 155.25 50.648438 Z M 155.25 56 "/>
<path fill-rule="evenodd" fill="rgb(79.998779%, 85.488892%, 98.03772%)" fill-opacity="1" d="M 162.5 56 L 169.800781 56 L 169.800781 50.648438 L 162.5 50.648438 Z M 162.5 56 "/>
<path fill-rule="evenodd" fill="rgb(79.998779%, 85.488892%, 98.03772%)" fill-opacity="1" d="M 169.75 56 L 177.050781 56 L 177.050781 50.648438 L 169.75 50.648438 Z M 169.75 56 "/>
<path fill-rule="evenodd" fill="rgb(97.647095%, 98.03772%, 99.606323%)" fill-opacity="1" d="M 3 61.300781 L 10.300781 61.300781 L 10.300781 55.949219 L 3 55.949219 Z M 3 61.300781 "/>
<path fill-rule="evenodd" fill="rgb(97.647095%, 98.03772%, 99.606323%)" fill-opacity="1" d="M 10.25 61.300781 L 17.550781 61.300781 L 17.550781 55.949219 L 10.25 55.949219 Z M 10.25 61.300781 "/>
<path fill-rule="evenodd" fill="rgb(97.647095%, 98.03772%, 99.606323%)" fill-opacity="1" d="M 17.5 61.300781 L 24.800781 61.300781 L 24.800781 55.949219 L 17.5 55.949219 Z M 17.5 61.300781 "/>
<path fill-rule="evenodd" fill="rgb(97.647095%, 98.03772%, 99.606323%)" fill-opacity="1" d="M 24.75 61.300781 L 32.050781 61.300781 L 32.050781 55.949219 L 24.75 55.949219 Z M 24.75 61.300781 "/>
<path fill-rule="evenodd" fill="rgb(97.647095%, 98.03772%, 99.606323%)" fill-opacity="1" d="M 32 61.300781 L 39.300781 61.300781 L 39.300781 55.949219 L 32 55.949219 Z M 32 61.300781 "/>
<path fill-rule="evenodd" fill="rgb(97.647095%, 98.03772%, 99.606323%)" fill-opacity="1" d="M 39.25 61.300781 L 46.550781 61.300781 L 46.550781 55.949219 L 39.25 55.949219 Z M 39.25 61.300781 "/>
<path fill-rule="evenodd" fill="rgb(97.647095%, 98.03772%, 99.606323%)" fill-opacity="1" d="M 46.5 61.300781 L 53.800781 61.300781 L 53.800781 55.949219 L 46.5 55.949219 Z M 46.5 61.300781 "/>
<path fill-rule="evenodd" fill="rgb(97.647095%, 98.431396%, 99.606323%)" fill-opacity="1" d="M 53.75 61.300781 L 61.050781 61.300781 L 61.050781 55.949219 L 53.75 55.949219 Z M 53.75 61.300781 "/>
<path fill-rule="evenodd" fill="rgb(97.647095%, 98.03772%, 99.606323%)" fill-opacity="1" d="M 61 61.300781 L 68.300781 61.300781 L 68.300781 55.949219 L 61 55.949219 Z M 61 61.300781 "/>
<path fill-rule="evenodd" fill="rgb(97.647095%, 98.03772%, 99.606323%)" fill-opacity="1" d="M 68.25 61.300781 L 75.550781 61.300781 L 75.550781 55.949219 L 68.25 55.949219 Z M 68.25 61.300781 "/>
<path fill-rule="evenodd" fill="rgb(97.647095%, 98.03772%, 99.606323%)" fill-opacity="1" d="M 75.5 61.300781 L 82.800781 61.300781 L 82.800781 55.949219 L 75.5 55.949219 Z M 75.5 61.300781 "/>
<path fill-rule="evenodd" fill="rgb(97.647095%, 98.03772%, 99.606323%)" fill-opacity="1" d="M 82.75 61.300781 L 90.050781 61.300781 L 90.050781 55.949219 L 82.75 55.949219 Z M 82.75 61.300781 "/>
<path fill-rule="evenodd" fill="rgb(97.647095%, 98.03772%, 99.606323%)" fill-opacity="1" d="M 90 61.300781 L 97.300781 61.300781 L 97.300781 55.949219 L 90 55.949219 Z M 90 61.300781 "/>
<path fill-rule="evenodd" fill="rgb(97.647095%, 98.03772%, 99.606323%)" fill-opacity="1" d="M 97.25 61.300781 L 104.550781 61.300781 L 104.550781 55.949219 L 97.25 55.949219 Z M 97.25 61.300781 "/>
<path fill-rule="evenodd" fill="rgb(97.253418%, 98.03772%, 99.606323%)" fill-opacity="1" d="M 104.5 61.300781 L 111.800781 61.300781 L 111.800781 55.949219 L 104.5 55.949219 Z M 104.5 61.300781 "/>
<path fill-rule="evenodd" fill="rgb(97.253418%, 98.03772%, 99.606323%)" fill-opacity="1" d="M 111.75 61.300781 L 119.050781 61.300781 L 119.050781 55.949219 L 111.75 55.949219 Z M 111.75 61.300781 "/>
<path fill-rule="evenodd" fill="rgb(97.253418%, 98.03772%, 99.606323%)" fill-opacity="1" d="M 119 61.300781 L 126.300781 61.300781 L 126.300781 55.949219 L 119 55.949219 Z M 119 61.300781 "/>
<path fill-rule="evenodd" fill="rgb(97.253418%, 98.03772%, 99.606323%)" fill-opacity="1" d="M 126.25 61.300781 L 133.550781 61.300781 L 133.550781 55.949219 L 126.25 55.949219 Z M 126.25 61.300781 "/>
<path fill-rule="evenodd" fill="rgb(97.253418%, 98.03772%, 99.606323%)" fill-opacity="1" d="M 133.5 61.300781 L 140.800781 61.300781 L 140.800781 55.949219 L 133.5 55.949219 Z M 133.5 61.300781 "/>
<path fill-rule="evenodd" fill="rgb(97.253418%, 98.03772%, 99.606323%)" fill-opacity="1" d="M 140.75 61.300781 L 148.050781 61.300781 L 148.050781 55.949219 L 140.75 55.949219 Z M 140.75 61.300781 "/>
<path fill-rule="evenodd" fill="rgb(97.253418%, 98.03772%, 99.606323%)" fill-opacity="1" d="M 148 61.300781 L 155.300781 61.300781 L 155.300781 55.949219 L 148 55.949219 Z M 148 61.300781 "/>
<path fill-rule="evenodd" fill="rgb(97.253418%, 98.03772%, 99.606323%)" fill-opacity="1" d="M 155.25 61.300781 L 162.550781 61.300781 L 162.550781 55.949219 L 155.25 55.949219 Z M 155.25 61.300781 "/>
<path fill-rule="evenodd" fill="rgb(97.253418%, 98.03772%, 99.606323%)" fill-opacity="1" d="M 162.5 61.300781 L 169.800781 61.300781 L 169.800781 55.949219 L 162.5 55.949219 Z M 162.5 61.300781 "/>
<path fill-rule="evenodd" fill="rgb(97.253418%, 98.03772%, 99.606323%)" fill-opacity="1" d="M 169.75 61.300781 L 177.050781 61.300781 L 177.050781 55.949219 L 169.75 55.949219 Z M 169.75 61.300781 "/>
<path fill-rule="evenodd" fill="rgb(28.627014%, 49.01886%, 93.331909%)" fill-opacity="1" d="M 3 66.601562 L 10.300781 66.601562 L 10.300781 61.25 L 3 61.25 Z M 3 66.601562 "/>
<path fill-rule="evenodd" fill="rgb(29.019165%, 49.01886%, 93.331909%)" fill-opacity="1" d="M 10.25 66.601562 L 17.550781 66.601562 L 17.550781 61.25 L 10.25 61.25 Z M 10.25 66.601562 "/>
<path fill-rule="evenodd" fill="rgb(29.411316%, 49.411011%, 93.331909%)" fill-opacity="1" d="M 17.5 66.601562 L 24.800781 66.601562 L 24.800781 61.25 L 17.5 61.25 Z M 17.5 66.601562 "/>
<path fill-rule="evenodd" fill="rgb(29.411316%, 49.411011%, 93.72406%)" fill-opacity="1" d="M 24.75 66.601562 L 32.050781 66.601562 L 32.050781 61.25 L 24.75 61.25 Z M 24.75 66.601562 "/>
<path fill-rule="evenodd" fill="rgb(29.411316%, 49.803162%, 93.72406%)" fill-opacity="1" d="M 32 66.601562 L 39.300781 66.601562 L 39.300781 61.25 L 32 61.25 Z M 32 66.601562 "/>
<path fill-rule="evenodd" fill="rgb(29.803467%, 49.803162%, 93.72406%)" fill-opacity="1" d="M 39.25 66.601562 L 46.550781 66.601562 L 46.550781 61.25 L 39.25 61.25 Z M 39.25 66.601562 "/>
<path fill-rule="evenodd" fill="rgb(29.803467%, 49.803162%, 93.72406%)" fill-opacity="1" d="M 46.5 66.601562 L 53.800781 66.601562 L 53.800781 61.25 L 46.5 61.25 Z M 46.5 66.601562 "/>
<path fill-rule="evenodd" fill="rgb(30.195618%, 50.195312%, 93.72406%)" fill-opacity="1" d="M 53.75 66.601562 L 61.050781 66.601562 L 61.050781 61.25 L 53.75 61.25 Z M 53.75 66.601562 "/>
<path fill-rule="evenodd" fill="rgb(30.195618%, 49.803162%, 93.72406%)" fill-opacity="1" d="M 61 66.601562 L 68.300781 66.601562 L 68.300781 61.25 L 61 61.25 Z M 61 66.601562 "/>
<path fill-rule="evenodd" fill="rgb(29.411316%, 49.411011%, 93.331909%)" fill-opacity="1" d="M 68.25 66.601562 L 75.550781 66.601562 L 75.550781 61.25 L 68.25 61.25 Z M 68.25 66.601562 "/>
<path fill-rule="evenodd" fill="rgb(29.019165%, 49.01886%, 93.331909%)" fill-opacity="1" d="M 75.5 66.601562 L 82.800781 66.601562 L 82.800781 61.25 L 75.5 61.25 Z M 75.5 66.601562 "/>
<path fill-rule="evenodd" fill="rgb(28.627014%, 49.01886%, 93.331909%)" fill-opacity="1" d="M 82.75 66.601562 L 90.050781 66.601562 L 90.050781 61.25 L 82.75 61.25 Z M 82.75 66.601562 "/>
<path fill-rule="evenodd" fill="rgb(28.234863%, 48.626709%, 93.331909%)" fill-opacity="1" d="M 90 66.601562 L 97.300781 66.601562 L 97.300781 61.25 L 90 61.25 Z M 90 66.601562 "/>
<path fill-rule="evenodd" fill="rgb(27.842712%, 48.234558%, 93.331909%)" fill-opacity="1" d="M 97.25 66.601562 L 104.550781 66.601562 L 104.550781 61.25 L 97.25 61.25 Z M 97.25 66.601562 "/>
<path fill-rule="evenodd" fill="rgb(27.450562%, 47.842407%, 93.331909%)" fill-opacity="1" d="M 104.5 66.601562 L 111.800781 66.601562 L 111.800781 61.25 L 104.5 61.25 Z M 104.5 66.601562 "/>
<path fill-rule="evenodd" fill="rgb(26.66626%, 47.450256%, 93.331909%)" fill-opacity="1" d="M 111.75 66.601562 L 119.050781 66.601562 L 119.050781 61.25 L 111.75 61.25 Z M 111.75 66.601562 "/>
<path fill-rule="evenodd" fill="rgb(25.489807%, 46.665955%, 93.331909%)" fill-opacity="1" d="M 119 66.601562 L 126.300781 66.601562 L 126.300781 61.25 L 119 61.25 Z M 119 66.601562 "/>
<path fill-rule="evenodd" fill="rgb(24.705505%, 45.881653%, 92.939758%)" fill-opacity="1" d="M 126.25 66.601562 L 133.550781 66.601562 L 133.550781 61.25 L 126.25 61.25 Z M 126.25 66.601562 "/>
<path fill-rule="evenodd" fill="rgb(23.529053%, 45.489502%, 92.939758%)" fill-opacity="1" d="M 133.5 66.601562 L 140.800781 66.601562 L 140.800781 61.25 L 133.5 61.25 Z M 133.5 66.601562 "/>
<path fill-rule="evenodd" fill="rgb(22.744751%, 44.7052%, 92.939758%)" fill-opacity="1" d="M 140.75 66.601562 L 148.050781 66.601562 L 148.050781 61.25 L 140.75 61.25 Z M 140.75 66.601562 "/>
<path fill-rule="evenodd" fill="rgb(21.568298%, 43.920898%, 92.939758%)" fill-opacity="1" d="M 148 66.601562 L 155.300781 66.601562 L 155.300781 61.25 L 148 61.25 Z M 148 66.601562 "/>
<path fill-rule="evenodd" fill="rgb(21.176147%, 43.528748%, 92.939758%)" fill-opacity="1" d="M 155.25 66.601562 L 162.550781 66.601562 L 162.550781 61.25 L 155.25 61.25 Z M 155.25 66.601562 "/>
<path fill-rule="evenodd" fill="rgb(20.783997%, 43.136597%, 92.547607%)" fill-opacity="1" d="M 162.5 66.601562 L 169.800781 66.601562 L 169.800781 61.25 L 162.5 61.25 Z M 162.5 66.601562 "/>
<path fill-rule="evenodd" fill="rgb(20.391846%, 43.136597%, 92.547607%)" fill-opacity="1" d="M 169.75 66.601562 L 177.050781 66.601562 L 177.050781 61.25 L 169.75 61.25 Z M 169.75 66.601562 "/>
<path fill-rule="evenodd" fill="rgb(94.116211%, 63.528442%, 63.528442%)" fill-opacity="1" d="M 3 71.898438 L 10.300781 71.898438 L 10.300781 66.550781 L 3 66.550781 Z M 3 71.898438 "/>
<path fill-rule="evenodd" fill="rgb(94.116211%, 63.528442%, 63.528442%)" fill-opacity="1" d="M 10.25 71.898438 L 17.550781 71.898438 L 17.550781 66.550781 L 10.25 66.550781 Z M 10.25 71.898438 "/>
<path fill-rule="evenodd" fill="rgb(94.116211%, 63.528442%, 63.528442%)" fill-opacity="1" d="M 17.5 71.898438 L 24.800781 71.898438 L 24.800781 66.550781 L 17.5 66.550781 Z M 17.5 71.898438 "/>
<path fill-rule="evenodd" fill="rgb(94.116211%, 63.920593%, 63.920593%)" fill-opacity="1" d="M 24.75 71.898438 L 32.050781 71.898438 L 32.050781 66.550781 L 24.75 66.550781 Z M 24.75 71.898438 "/>
<path fill-rule="evenodd" fill="rgb(94.116211%, 63.920593%, 63.920593%)" fill-opacity="1" d="M 32 71.898438 L 39.300781 71.898438 L 39.300781 66.550781 L 32 66.550781 Z M 32 71.898438 "/>
<path fill-rule="evenodd" fill="rgb(94.116211%, 63.920593%, 63.920593%)" fill-opacity="1" d="M 39.25 71.898438 L 46.550781 71.898438 L 46.550781 66.550781 L 39.25 66.550781 Z M 39.25 71.898438 "/>
<path fill-rule="evenodd" fill="rgb(94.116211%, 63.920593%, 63.920593%)" fill-opacity="1" d="M 46.5 71.898438 L 53.800781 71.898438 L 53.800781 66.550781 L 46.5 66.550781 Z M 46.5 71.898438 "/>
<path fill-rule="evenodd" fill="rgb(94.116211%, 63.920593%, 63.920593%)" fill-opacity="1" d="M 53.75 71.898438 L 61.050781 71.898438 L 61.050781 66.550781 L 53.75 66.550781 Z M 53.75 71.898438 "/>
<path fill-rule="evenodd" fill="rgb(94.116211%, 63.920593%, 63.920593%)" fill-opacity="1" d="M 61 71.898438 L 68.300781 71.898438 L 68.300781 66.550781 L 61 66.550781 Z M 61 71.898438 "/>
<path fill-rule="evenodd" fill="rgb(94.116211%, 63.920593%, 63.920593%)" fill-opacity="1" d="M 68.25 71.898438 L 75.550781 71.898438 L 75.550781 66.550781 L 68.25 66.550781 Z M 68.25 71.898438 "/>
<path fill-rule="evenodd" fill="rgb(94.116211%, 63.528442%, 63.528442%)" fill-opacity="1" d="M 75.5 71.898438 L 82.800781 71.898438 L 82.800781 66.550781 L 75.5 66.550781 Z M 75.5 71.898438 "/>
<path fill-rule="evenodd" fill="rgb(94.116211%, 63.136292%, 63.136292%)" fill-opacity="1" d="M 82.75 71.898438 L 90.050781 71.898438 L 90.050781 66.550781 L 82.75 66.550781 Z M 82.75 71.898438 "/>
<path fill-rule="evenodd" fill="rgb(94.116211%, 63.136292%, 63.136292%)" fill-opacity="1" d="M 90 71.898438 L 97.300781 71.898438 L 97.300781 66.550781 L 90 66.550781 Z M 90 71.898438 "/>
<path fill-rule="evenodd" fill="rgb(94.116211%, 62.744141%, 62.744141%)" fill-opacity="1" d="M 97.25 71.898438 L 104.550781 71.898438 L 104.550781 66.550781 L 97.25 66.550781 Z M 97.25 71.898438 "/>
<path fill-rule="evenodd" fill="rgb(94.116211%, 62.744141%, 62.744141%)" fill-opacity="1" d="M 104.5 71.898438 L 111.800781 71.898438 L 111.800781 66.550781 L 104.5 66.550781 Z M 104.5 71.898438 "/>
<path fill-rule="evenodd" fill="rgb(93.72406%, 62.35199%, 62.35199%)" fill-opacity="1" d="M 111.75 71.898438 L 119.050781 71.898438 L 119.050781 66.550781 L 111.75 66.550781 Z M 111.75 71.898438 "/>
<path fill-rule="evenodd" fill="rgb(93.72406%, 61.567688%, 61.567688%)" fill-opacity="1" d="M 119 71.898438 L 126.300781 71.898438 L 126.300781 66.550781 L 119 66.550781 Z M 119 71.898438 "/>
<path fill-rule="evenodd" fill="rgb(93.72406%, 61.175537%, 61.175537%)" fill-opacity="1" d="M 126.25 71.898438 L 133.550781 71.898438 L 133.550781 66.550781 L 126.25 66.550781 Z M 126.25 71.898438 "/>
<path fill-rule="evenodd" fill="rgb(93.72406%, 60.783386%, 60.783386%)" fill-opacity="1" d="M 133.5 71.898438 L 140.800781 71.898438 L 140.800781 66.550781 L 133.5 66.550781 Z M 133.5 71.898438 "/>
<path fill-rule="evenodd" fill="rgb(93.72406%, 59.999084%, 59.999084%)" fill-opacity="1" d="M 140.75 71.898438 L 148.050781 71.898438 L 148.050781 66.550781 L 140.75 66.550781 Z M 140.75 71.898438 "/>
<path fill-rule="evenodd" fill="rgb(93.331909%, 59.606934%, 59.606934%)" fill-opacity="1" d="M 148 71.898438 L 155.300781 71.898438 L 155.300781 66.550781 L 148 66.550781 Z M 148 71.898438 "/>
<path fill-rule="evenodd" fill="rgb(93.331909%, 59.606934%, 59.606934%)" fill-opacity="1" d="M 155.25 71.898438 L 162.550781 71.898438 L 162.550781 66.550781 L 155.25 66.550781 Z M 155.25 71.898438 "/>
<path fill-rule="evenodd" fill="rgb(93.331909%, 59.214783%, 59.214783%)" fill-opacity="1" d="M 162.5 71.898438 L 169.800781 71.898438 L 169.800781 66.550781 L 162.5 66.550781 Z M 162.5 71.898438 "/>
<path fill-rule="evenodd" fill="rgb(93.331909%, 59.214783%, 59.214783%)" fill-opacity="1" d="M 169.75 71.898438 L 177.050781 71.898438 L 177.050781 66.550781 L 169.75 66.550781 Z M 169.75 71.898438 "/>
<path fill-rule="evenodd" fill="rgb(99.606323%, 98.822021%, 98.822021%)" fill-opacity="1" d="M 3 77.199219 L 10.300781 77.199219 L 10.300781 71.851562 L 3 71.851562 Z M 3 77.199219 "/>
<path fill-rule="evenodd" fill="rgb(99.606323%, 98.822021%, 98.822021%)" fill-opacity="1" d="M 10.25 77.199219 L 17.550781 77.199219 L 17.550781 71.851562 L 10.25 71.851562 Z M 10.25 77.199219 "/>
<path fill-rule="evenodd" fill="rgb(100%, 98.822021%, 98.822021%)" fill-opacity="1" d="M 17.5 77.199219 L 24.800781 77.199219 L 24.800781 71.851562 L 17.5 71.851562 Z M 17.5 77.199219 "/>
<path fill-rule="evenodd" fill="rgb(100%, 98.822021%, 98.822021%)" fill-opacity="1" d="M 24.75 77.199219 L 32.050781 77.199219 L 32.050781 71.851562 L 24.75 71.851562 Z M 24.75 77.199219 "/>
<path fill-rule="evenodd" fill="rgb(100%, 98.822021%, 98.822021%)" fill-opacity="1" d="M 32 77.199219 L 39.300781 77.199219 L 39.300781 71.851562 L 32 71.851562 Z M 32 77.199219 "/>
<path fill-rule="evenodd" fill="rgb(100%, 98.822021%, 98.822021%)" fill-opacity="1" d="M 39.25 77.199219 L 46.550781 77.199219 L 46.550781 71.851562 L 39.25 71.851562 Z M 39.25 77.199219 "/>
<path fill-rule="evenodd" fill="rgb(100%, 98.822021%, 98.822021%)" fill-opacity="1" d="M 46.5 77.199219 L 53.800781 77.199219 L 53.800781 71.851562 L 46.5 71.851562 Z M 46.5 77.199219 "/>
<path fill-rule="evenodd" fill="rgb(100%, 98.822021%, 98.822021%)" fill-opacity="1" d="M 53.75 77.199219 L 61.050781 77.199219 L 61.050781 71.851562 L 53.75 71.851562 Z M 53.75 77.199219 "/>
<path fill-rule="evenodd" fill="rgb(100%, 98.822021%, 98.822021%)" fill-opacity="1" d="M 61 77.199219 L 68.300781 77.199219 L 68.300781 71.851562 L 61 71.851562 Z M 61 77.199219 "/>
<path fill-rule="evenodd" fill="rgb(100%, 98.822021%, 98.822021%)" fill-opacity="1" d="M 68.25 77.199219 L 75.550781 77.199219 L 75.550781 71.851562 L 68.25 71.851562 Z M 68.25 77.199219 "/>
<path fill-rule="evenodd" fill="rgb(99.606323%, 98.822021%, 98.822021%)" fill-opacity="1" d="M 75.5 77.199219 L 82.800781 77.199219 L 82.800781 71.851562 L 75.5 71.851562 Z M 75.5 77.199219 "/>
<path fill-rule="evenodd" fill="rgb(99.606323%, 98.822021%, 98.822021%)" fill-opacity="1" d="M 82.75 77.199219 L 90.050781 77.199219 L 90.050781 71.851562 L 82.75 71.851562 Z M 82.75 77.199219 "/>
<path fill-rule="evenodd" fill="rgb(99.606323%, 98.822021%, 98.822021%)" fill-opacity="1" d="M 90 77.199219 L 97.300781 77.199219 L 97.300781 71.851562 L 90 71.851562 Z M 90 77.199219 "/>
<path fill-rule="evenodd" fill="rgb(99.606323%, 98.822021%, 98.822021%)" fill-opacity="1" d="M 97.25 77.199219 L 104.550781 77.199219 L 104.550781 71.851562 L 97.25 71.851562 Z M 97.25 77.199219 "/>
<path fill-rule="evenodd" fill="rgb(99.606323%, 98.822021%, 98.822021%)" fill-opacity="1" d="M 104.5 77.199219 L 111.800781 77.199219 L 111.800781 71.851562 L 104.5 71.851562 Z M 104.5 77.199219 "/>
<path fill-rule="evenodd" fill="rgb(99.606323%, 98.822021%, 98.822021%)" fill-opacity="1" d="M 111.75 77.199219 L 119.050781 77.199219 L 119.050781 71.851562 L 111.75 71.851562 Z M 111.75 77.199219 "/>
<path fill-rule="evenodd" fill="rgb(99.606323%, 98.822021%, 98.822021%)" fill-opacity="1" d="M 119 77.199219 L 126.300781 77.199219 L 126.300781 71.851562 L 119 71.851562 Z M 119 77.199219 "/>
<path fill-rule="evenodd" fill="rgb(99.606323%, 98.822021%, 98.822021%)" fill-opacity="1" d="M 126.25 77.199219 L 133.550781 77.199219 L 133.550781 71.851562 L 126.25 71.851562 Z M 126.25 77.199219 "/>
<path fill-rule="evenodd" fill="rgb(99.606323%, 98.822021%, 98.822021%)" fill-opacity="1" d="M 133.5 77.199219 L 140.800781 77.199219 L 140.800781 71.851562 L 133.5 71.851562 Z M 133.5 77.199219 "/>
<path fill-rule="evenodd" fill="rgb(99.606323%, 98.822021%, 98.822021%)" fill-opacity="1" d="M 140.75 77.199219 L 148.050781 77.199219 L 148.050781 71.851562 L 140.75 71.851562 Z M 140.75 77.199219 "/>
<path fill-rule="evenodd" fill="rgb(99.606323%, 98.822021%, 98.822021%)" fill-opacity="1" d="M 148 77.199219 L 155.300781 77.199219 L 155.300781 71.851562 L 148 71.851562 Z M 148 77.199219 "/>
<path fill-rule="evenodd" fill="rgb(99.606323%, 98.822021%, 98.822021%)" fill-opacity="1" d="M 155.25 77.199219 L 162.550781 77.199219 L 162.550781 71.851562 L 155.25 71.851562 Z M 155.25 77.199219 "/>
<path fill-rule="evenodd" fill="rgb(99.606323%, 98.822021%, 98.822021%)" fill-opacity="1" d="M 162.5 77.199219 L 169.800781 77.199219 L 169.800781 71.851562 L 162.5 71.851562 Z M 162.5 77.199219 "/>
<path fill-rule="evenodd" fill="rgb(99.606323%, 98.822021%, 98.822021%)" fill-opacity="1" d="M 169.75 77.199219 L 177.050781 77.199219 L 177.050781 71.851562 L 169.75 71.851562 Z M 169.75 77.199219 "/>
<path fill-rule="evenodd" fill="rgb(95.292664%, 69.802856%, 69.802856%)" fill-opacity="1" d="M 3 82.5 L 10.300781 82.5 L 10.300781 77.148438 L 3 77.148438 Z M 3 82.5 "/>
<path fill-rule="evenodd" fill="rgb(95.292664%, 69.802856%, 69.802856%)" fill-opacity="1" d="M 10.25 82.5 L 17.550781 82.5 L 17.550781 77.148438 L 10.25 77.148438 Z M 10.25 82.5 "/>
<path fill-rule="evenodd" fill="rgb(95.292664%, 69.802856%, 69.802856%)" fill-opacity="1" d="M 17.5 82.5 L 24.800781 82.5 L 24.800781 77.148438 L 17.5 77.148438 Z M 17.5 82.5 "/>
<path fill-rule="evenodd" fill="rgb(95.292664%, 69.802856%, 69.802856%)" fill-opacity="1" d="M 24.75 82.5 L 32.050781 82.5 L 32.050781 77.148438 L 24.75 77.148438 Z M 24.75 82.5 "/>
<path fill-rule="evenodd" fill="rgb(95.292664%, 69.802856%, 69.802856%)" fill-opacity="1" d="M 32 82.5 L 39.300781 82.5 L 39.300781 77.148438 L 32 77.148438 Z M 32 82.5 "/>
<path fill-rule="evenodd" fill="rgb(95.292664%, 70.195007%, 70.195007%)" fill-opacity="1" d="M 39.25 82.5 L 46.550781 82.5 L 46.550781 77.148438 L 39.25 77.148438 Z M 39.25 82.5 "/>
<path fill-rule="evenodd" fill="rgb(95.292664%, 70.195007%, 70.195007%)" fill-opacity="1" d="M 46.5 82.5 L 53.800781 82.5 L 53.800781 77.148438 L 46.5 77.148438 Z M 46.5 82.5 "/>
<path fill-rule="evenodd" fill="rgb(95.292664%, 70.195007%, 70.195007%)" fill-opacity="1" d="M 53.75 82.5 L 61.050781 82.5 L 61.050781 77.148438 L 53.75 77.148438 Z M 53.75 82.5 "/>
<path fill-rule="evenodd" fill="rgb(95.292664%, 70.195007%, 70.195007%)" fill-opacity="1" d="M 61 82.5 L 68.300781 82.5 L 68.300781 77.148438 L 61 77.148438 Z M 61 82.5 "/>
<path fill-rule="evenodd" fill="rgb(95.292664%, 69.802856%, 69.802856%)" fill-opacity="1" d="M 68.25 82.5 L 75.550781 82.5 L 75.550781 77.148438 L 68.25 77.148438 Z M 68.25 82.5 "/>
<path fill-rule="evenodd" fill="rgb(95.292664%, 69.802856%, 69.802856%)" fill-opacity="1" d="M 75.5 82.5 L 82.800781 82.5 L 82.800781 77.148438 L 75.5 77.148438 Z M 75.5 82.5 "/>
<path fill-rule="evenodd" fill="rgb(94.900513%, 69.410706%, 69.410706%)" fill-opacity="1" d="M 82.75 82.5 L 90.050781 82.5 L 90.050781 77.148438 L 82.75 77.148438 Z M 82.75 82.5 "/>
<path fill-rule="evenodd" fill="rgb(94.900513%, 69.410706%, 69.410706%)" fill-opacity="1" d="M 90 82.5 L 97.300781 82.5 L 97.300781 77.148438 L 90 77.148438 Z M 90 82.5 "/>
<path fill-rule="evenodd" fill="rgb(94.900513%, 69.410706%, 69.410706%)" fill-opacity="1" d="M 97.25 82.5 L 104.550781 82.5 L 104.550781 77.148438 L 97.25 77.148438 Z M 97.25 82.5 "/>
<path fill-rule="evenodd" fill="rgb(94.900513%, 69.018555%, 69.018555%)" fill-opacity="1" d="M 104.5 82.5 L 111.800781 82.5 L 111.800781 77.148438 L 104.5 77.148438 Z M 104.5 82.5 "/>
<path fill-rule="evenodd" fill="rgb(94.900513%, 68.626404%, 68.626404%)" fill-opacity="1" d="M 111.75 82.5 L 119.050781 82.5 L 119.050781 77.148438 L 111.75 77.148438 Z M 111.75 82.5 "/>
<path fill-rule="evenodd" fill="rgb(94.900513%, 68.234253%, 68.234253%)" fill-opacity="1" d="M 119 82.5 L 126.300781 82.5 L 126.300781 77.148438 L 119 77.148438 Z M 119 82.5 "/>
<path fill-rule="evenodd" fill="rgb(94.900513%, 67.842102%, 67.842102%)" fill-opacity="1" d="M 126.25 82.5 L 133.550781 82.5 L 133.550781 77.148438 L 126.25 77.148438 Z M 126.25 82.5 "/>
<path fill-rule="evenodd" fill="rgb(94.900513%, 67.449951%, 67.449951%)" fill-opacity="1" d="M 133.5 82.5 L 140.800781 82.5 L 140.800781 77.148438 L 133.5 77.148438 Z M 133.5 82.5 "/>
<path fill-rule="evenodd" fill="rgb(94.508362%, 67.0578%, 67.0578%)" fill-opacity="1" d="M 140.75 82.5 L 148.050781 82.5 L 148.050781 77.148438 L 140.75 77.148438 Z M 140.75 82.5 "/>
<path fill-rule="evenodd" fill="rgb(94.508362%, 66.665649%, 66.665649%)" fill-opacity="1" d="M 148 82.5 L 155.300781 82.5 L 155.300781 77.148438 L 148 77.148438 Z M 148 82.5 "/>
<path fill-rule="evenodd" fill="rgb(94.508362%, 66.273499%, 66.273499%)" fill-opacity="1" d="M 155.25 82.5 L 162.550781 82.5 L 162.550781 77.148438 L 155.25 77.148438 Z M 155.25 82.5 "/>
<path fill-rule="evenodd" fill="rgb(94.508362%, 66.273499%, 66.273499%)" fill-opacity="1" d="M 162.5 82.5 L 169.800781 82.5 L 169.800781 77.148438 L 162.5 77.148438 Z M 162.5 82.5 "/>
<path fill-rule="evenodd" fill="rgb(94.508362%, 65.881348%, 65.881348%)" fill-opacity="1" d="M 169.75 82.5 L 177.050781 82.5 L 177.050781 77.148438 L 169.75 77.148438 Z M 169.75 82.5 "/>
<path fill-rule="evenodd" fill="rgb(31.37207%, 50.979614%, 93.72406%)" fill-opacity="1" d="M 3 87.800781 L 10.300781 87.800781 L 10.300781 82.449219 L 3 82.449219 Z M 3 87.800781 "/>
<path fill-rule="evenodd" fill="rgb(31.764221%, 50.979614%, 93.72406%)" fill-opacity="1" d="M 10.25 87.800781 L 17.550781 87.800781 L 17.550781 82.449219 L 10.25 82.449219 Z M 10.25 87.800781 "/>
<path fill-rule="evenodd" fill="rgb(32.156372%, 51.371765%, 93.72406%)" fill-opacity="1" d="M 17.5 87.800781 L 24.800781 87.800781 L 24.800781 82.449219 L 17.5 82.449219 Z M 17.5 87.800781 "/>
<path fill-rule="evenodd" fill="rgb(32.156372%, 51.371765%, 93.72406%)" fill-opacity="1" d="M 24.75 87.800781 L 32.050781 87.800781 L 32.050781 82.449219 L 24.75 82.449219 Z M 24.75 87.800781 "/>
<path fill-rule="evenodd" fill="rgb(32.156372%, 51.371765%, 93.72406%)" fill-opacity="1" d="M 32 87.800781 L 39.300781 87.800781 L 39.300781 82.449219 L 32 82.449219 Z M 32 87.800781 "/>
<path fill-rule="evenodd" fill="rgb(32.548523%, 51.763916%, 93.72406%)" fill-opacity="1" d="M 39.25 87.800781 L 46.550781 87.800781 L 46.550781 82.449219 L 39.25 82.449219 Z M 39.25 87.800781 "/>
<path fill-rule="evenodd" fill="rgb(32.548523%, 51.763916%, 93.72406%)" fill-opacity="1" d="M 46.5 87.800781 L 53.800781 87.800781 L 53.800781 82.449219 L 46.5 82.449219 Z M 46.5 87.800781 "/>
<path fill-rule="evenodd" fill="rgb(32.940674%, 51.763916%, 93.72406%)" fill-opacity="1" d="M 53.75 87.800781 L 61.050781 87.800781 L 61.050781 82.449219 L 53.75 82.449219 Z M 53.75 87.800781 "/>
<path fill-rule="evenodd" fill="rgb(32.548523%, 51.763916%, 93.72406%)" fill-opacity="1" d="M 61 87.800781 L 68.300781 87.800781 L 68.300781 82.449219 L 61 82.449219 Z M 61 87.800781 "/>
<path fill-rule="evenodd" fill="rgb(32.156372%, 51.371765%, 93.72406%)" fill-opacity="1" d="M 68.25 87.800781 L 75.550781 87.800781 L 75.550781 82.449219 L 68.25 82.449219 Z M 68.25 87.800781 "/>
<path fill-rule="evenodd" fill="rgb(31.764221%, 50.979614%, 93.72406%)" fill-opacity="1" d="M 75.5 87.800781 L 82.800781 87.800781 L 82.800781 82.449219 L 75.5 82.449219 Z M 75.5 87.800781 "/>
<path fill-rule="evenodd" fill="rgb(31.37207%, 50.979614%, 93.72406%)" fill-opacity="1" d="M 82.75 87.800781 L 90.050781 87.800781 L 90.050781 82.449219 L 82.75 82.449219 Z M 82.75 87.800781 "/>
<path fill-rule="evenodd" fill="rgb(30.979919%, 50.587463%, 93.72406%)" fill-opacity="1" d="M 90 87.800781 L 97.300781 87.800781 L 97.300781 82.449219 L 90 82.449219 Z M 90 87.800781 "/>
<path fill-rule="evenodd" fill="rgb(30.587769%, 50.195312%, 93.72406%)" fill-opacity="1" d="M 97.25 87.800781 L 104.550781 87.800781 L 104.550781 82.449219 L 97.25 82.449219 Z M 97.25 87.800781 "/>
<path fill-rule="evenodd" fill="rgb(30.195618%, 49.803162%, 93.72406%)" fill-opacity="1" d="M 104.5 87.800781 L 111.800781 87.800781 L 111.800781 82.449219 L 104.5 82.449219 Z M 104.5 87.800781 "/>
<path fill-rule="evenodd" fill="rgb(29.411316%, 49.411011%, 93.331909%)" fill-opacity="1" d="M 111.75 87.800781 L 119.050781 87.800781 L 119.050781 82.449219 L 111.75 82.449219 Z M 111.75 87.800781 "/>
<path fill-rule="evenodd" fill="rgb(28.234863%, 48.626709%, 93.331909%)" fill-opacity="1" d="M 119 87.800781 L 126.300781 87.800781 L 126.300781 82.449219 L 119 82.449219 Z M 119 87.800781 "/>
<path fill-rule="evenodd" fill="rgb(27.450562%, 47.842407%, 93.331909%)" fill-opacity="1" d="M 126.25 87.800781 L 133.550781 87.800781 L 133.550781 82.449219 L 126.25 82.449219 Z M 126.25 87.800781 "/>
<path fill-rule="evenodd" fill="rgb(26.274109%, 47.450256%, 93.331909%)" fill-opacity="1" d="M 133.5 87.800781 L 140.800781 87.800781 L 140.800781 82.449219 L 133.5 82.449219 Z M 133.5 87.800781 "/>
<path fill-rule="evenodd" fill="rgb(25.489807%, 46.665955%, 93.331909%)" fill-opacity="1" d="M 140.75 87.800781 L 148.050781 87.800781 L 148.050781 82.449219 L 140.75 82.449219 Z M 140.75 87.800781 "/>
<path fill-rule="evenodd" fill="rgb(24.705505%, 46.273804%, 92.939758%)" fill-opacity="1" d="M 148 87.800781 L 155.300781 87.800781 L 155.300781 82.449219 L 148 82.449219 Z M 148 87.800781 "/>
<path fill-rule="evenodd" fill="rgb(23.921204%, 45.489502%, 92.939758%)" fill-opacity="1" d="M 155.25 87.800781 L 162.550781 87.800781 L 162.550781 82.449219 L 155.25 82.449219 Z M 155.25 87.800781 "/>
<path fill-rule="evenodd" fill="rgb(23.529053%, 45.489502%, 92.939758%)" fill-opacity="1" d="M 162.5 87.800781 L 169.800781 87.800781 L 169.800781 82.449219 L 162.5 82.449219 Z M 162.5 87.800781 "/>
<path fill-rule="evenodd" fill="rgb(23.529053%, 45.097351%, 92.939758%)" fill-opacity="1" d="M 169.75 87.800781 L 177.050781 87.800781 L 177.050781 82.449219 L 169.75 82.449219 Z M 169.75 87.800781 "/>
<path fill-rule="evenodd" fill="rgb(94.508362%, 96.076965%, 99.606323%)" fill-opacity="1" d="M 3 93.101562 L 10.300781 93.101562 L 10.300781 87.75 L 3 87.75 Z M 3 93.101562 "/>
<path fill-rule="evenodd" fill="rgb(94.508362%, 96.076965%, 99.606323%)" fill-opacity="1" d="M 10.25 93.101562 L 17.550781 93.101562 L 17.550781 87.75 L 10.25 87.75 Z M 10.25 93.101562 "/>
<path fill-rule="evenodd" fill="rgb(94.508362%, 96.076965%, 99.606323%)" fill-opacity="1" d="M 17.5 93.101562 L 24.800781 93.101562 L 24.800781 87.75 L 17.5 87.75 Z M 17.5 93.101562 "/>
<path fill-rule="evenodd" fill="rgb(94.508362%, 96.076965%, 99.606323%)" fill-opacity="1" d="M 24.75 93.101562 L 32.050781 93.101562 L 32.050781 87.75 L 24.75 87.75 Z M 24.75 93.101562 "/>
<path fill-rule="evenodd" fill="rgb(94.508362%, 96.076965%, 99.606323%)" fill-opacity="1" d="M 32 93.101562 L 39.300781 93.101562 L 39.300781 87.75 L 32 87.75 Z M 32 93.101562 "/>
<path fill-rule="evenodd" fill="rgb(94.508362%, 96.076965%, 99.606323%)" fill-opacity="1" d="M 39.25 93.101562 L 46.550781 93.101562 L 46.550781 87.75 L 39.25 87.75 Z M 39.25 93.101562 "/>
<path fill-rule="evenodd" fill="rgb(94.508362%, 96.076965%, 99.606323%)" fill-opacity="1" d="M 46.5 93.101562 L 53.800781 93.101562 L 53.800781 87.75 L 46.5 87.75 Z M 46.5 93.101562 "/>
<path fill-rule="evenodd" fill="rgb(94.508362%, 96.076965%, 99.606323%)" fill-opacity="1" d="M 53.75 93.101562 L 61.050781 93.101562 L 61.050781 87.75 L 53.75 87.75 Z M 53.75 93.101562 "/>
<path fill-rule="evenodd" fill="rgb(94.508362%, 96.076965%, 99.606323%)" fill-opacity="1" d="M 61 93.101562 L 68.300781 93.101562 L 68.300781 87.75 L 61 87.75 Z M 61 93.101562 "/>
<path fill-rule="evenodd" fill="rgb(94.508362%, 96.076965%, 99.606323%)" fill-opacity="1" d="M 68.25 93.101562 L 75.550781 93.101562 L 75.550781 87.75 L 68.25 87.75 Z M 68.25 93.101562 "/>
<path fill-rule="evenodd" fill="rgb(94.508362%, 96.076965%, 99.606323%)" fill-opacity="1" d="M 75.5 93.101562 L 82.800781 93.101562 L 82.800781 87.75 L 75.5 87.75 Z M 75.5 93.101562 "/>
<path fill-rule="evenodd" fill="rgb(94.508362%, 96.076965%, 99.606323%)" fill-opacity="1" d="M 82.75 93.101562 L 90.050781 93.101562 L 90.050781 87.75 L 82.75 87.75 Z M 82.75 93.101562 "/>
<path fill-rule="evenodd" fill="rgb(94.508362%, 96.076965%, 99.606323%)" fill-opacity="1" d="M 90 93.101562 L 97.300781 93.101562 L 97.300781 87.75 L 90 87.75 Z M 90 93.101562 "/>
<path fill-rule="evenodd" fill="rgb(94.116211%, 96.076965%, 99.606323%)" fill-opacity="1" d="M 97.25 93.101562 L 104.550781 93.101562 L 104.550781 87.75 L 97.25 87.75 Z M 97.25 93.101562 "/>
<path fill-rule="evenodd" fill="rgb(94.116211%, 95.684814%, 99.606323%)" fill-opacity="1" d="M 104.5 93.101562 L 111.800781 93.101562 L 111.800781 87.75 L 104.5 87.75 Z M 104.5 93.101562 "/>
<path fill-rule="evenodd" fill="rgb(94.116211%, 95.684814%, 99.606323%)" fill-opacity="1" d="M 111.75 93.101562 L 119.050781 93.101562 L 119.050781 87.75 L 111.75 87.75 Z M 111.75 93.101562 "/>
<path fill-rule="evenodd" fill="rgb(94.116211%, 95.684814%, 99.606323%)" fill-opacity="1" d="M 119 93.101562 L 126.300781 93.101562 L 126.300781 87.75 L 119 87.75 Z M 119 93.101562 "/>
<path fill-rule="evenodd" fill="rgb(94.116211%, 95.684814%, 99.606323%)" fill-opacity="1" d="M 126.25 93.101562 L 133.550781 93.101562 L 133.550781 87.75 L 126.25 87.75 Z M 126.25 93.101562 "/>
<path fill-rule="evenodd" fill="rgb(94.116211%, 95.684814%, 99.606323%)" fill-opacity="1" d="M 133.5 93.101562 L 140.800781 93.101562 L 140.800781 87.75 L 133.5 87.75 Z M 133.5 93.101562 "/>
<path fill-rule="evenodd" fill="rgb(93.72406%, 95.684814%, 99.606323%)" fill-opacity="1" d="M 140.75 93.101562 L 148.050781 93.101562 L 148.050781 87.75 L 140.75 87.75 Z M 140.75 93.101562 "/>
<path fill-rule="evenodd" fill="rgb(93.72406%, 95.684814%, 99.606323%)" fill-opacity="1" d="M 148 93.101562 L 155.300781 93.101562 L 155.300781 87.75 L 148 87.75 Z M 148 93.101562 "/>
<path fill-rule="evenodd" fill="rgb(93.72406%, 95.684814%, 99.606323%)" fill-opacity="1" d="M 155.25 93.101562 L 162.550781 93.101562 L 162.550781 87.75 L 155.25 87.75 Z M 155.25 93.101562 "/>
<path fill-rule="evenodd" fill="rgb(93.72406%, 95.684814%, 99.606323%)" fill-opacity="1" d="M 162.5 93.101562 L 169.800781 93.101562 L 169.800781 87.75 L 162.5 87.75 Z M 162.5 93.101562 "/>
<path fill-rule="evenodd" fill="rgb(93.72406%, 95.292664%, 99.606323%)" fill-opacity="1" d="M 169.75 93.101562 L 177.050781 93.101562 L 177.050781 87.75 L 169.75 87.75 Z M 169.75 93.101562 "/>
<path fill-rule="evenodd" fill="rgb(99.215698%, 94.508362%, 94.508362%)" fill-opacity="1" d="M 3 98.398438 L 10.300781 98.398438 L 10.300781 93.050781 L 3 93.050781 Z M 3 98.398438 "/>
<path fill-rule="evenodd" fill="rgb(99.215698%, 94.508362%, 94.508362%)" fill-opacity="1" d="M 10.25 98.398438 L 17.550781 98.398438 L 17.550781 93.050781 L 10.25 93.050781 Z M 10.25 98.398438 "/>
<path fill-rule="evenodd" fill="rgb(99.215698%, 94.508362%, 94.508362%)" fill-opacity="1" d="M 17.5 98.398438 L 24.800781 98.398438 L 24.800781 93.050781 L 17.5 93.050781 Z M 17.5 98.398438 "/>
<path fill-rule="evenodd" fill="rgb(99.215698%, 94.508362%, 94.508362%)" fill-opacity="1" d="M 24.75 98.398438 L 32.050781 98.398438 L 32.050781 93.050781 L 24.75 93.050781 Z M 24.75 98.398438 "/>
<path fill-rule="evenodd" fill="rgb(99.215698%, 94.508362%, 94.508362%)" fill-opacity="1" d="M 32 98.398438 L 39.300781 98.398438 L 39.300781 93.050781 L 32 93.050781 Z M 32 98.398438 "/>
<path fill-rule="evenodd" fill="rgb(99.215698%, 94.508362%, 94.508362%)" fill-opacity="1" d="M 39.25 98.398438 L 46.550781 98.398438 L 46.550781 93.050781 L 39.25 93.050781 Z M 39.25 98.398438 "/>
<path fill-rule="evenodd" fill="rgb(99.215698%, 94.508362%, 94.508362%)" fill-opacity="1" d="M 46.5 98.398438 L 53.800781 98.398438 L 53.800781 93.050781 L 46.5 93.050781 Z M 46.5 98.398438 "/>
<path fill-rule="evenodd" fill="rgb(99.215698%, 94.508362%, 94.508362%)" fill-opacity="1" d="M 53.75 98.398438 L 61.050781 98.398438 L 61.050781 93.050781 L 53.75 93.050781 Z M 53.75 98.398438 "/>
<path fill-rule="evenodd" fill="rgb(99.215698%, 94.508362%, 94.508362%)" fill-opacity="1" d="M 61 98.398438 L 68.300781 98.398438 L 68.300781 93.050781 L 61 93.050781 Z M 61 98.398438 "/>
<path fill-rule="evenodd" fill="rgb(99.215698%, 94.508362%, 94.508362%)" fill-opacity="1" d="M 68.25 98.398438 L 75.550781 98.398438 L 75.550781 93.050781 L 68.25 93.050781 Z M 68.25 98.398438 "/>
<path fill-rule="evenodd" fill="rgb(99.215698%, 94.508362%, 94.508362%)" fill-opacity="1" d="M 75.5 98.398438 L 82.800781 98.398438 L 82.800781 93.050781 L 75.5 93.050781 Z M 75.5 98.398438 "/>
<path fill-rule="evenodd" fill="rgb(99.215698%, 94.508362%, 94.508362%)" fill-opacity="1" d="M 82.75 98.398438 L 90.050781 98.398438 L 90.050781 93.050781 L 82.75 93.050781 Z M 82.75 98.398438 "/>
<path fill-rule="evenodd" fill="rgb(99.215698%, 94.508362%, 94.508362%)" fill-opacity="1" d="M 90 98.398438 L 97.300781 98.398438 L 97.300781 93.050781 L 90 93.050781 Z M 90 98.398438 "/>
<path fill-rule="evenodd" fill="rgb(99.215698%, 94.508362%, 94.508362%)" fill-opacity="1" d="M 97.25 98.398438 L 104.550781 98.398438 L 104.550781 93.050781 L 97.25 93.050781 Z M 97.25 98.398438 "/>
<path fill-rule="evenodd" fill="rgb(99.215698%, 94.116211%, 94.116211%)" fill-opacity="1" d="M 104.5 98.398438 L 111.800781 98.398438 L 111.800781 93.050781 L 104.5 93.050781 Z M 104.5 98.398438 "/>
<path fill-rule="evenodd" fill="rgb(99.215698%, 94.116211%, 94.116211%)" fill-opacity="1" d="M 111.75 98.398438 L 119.050781 98.398438 L 119.050781 93.050781 L 111.75 93.050781 Z M 111.75 98.398438 "/>
<path fill-rule="evenodd" fill="rgb(99.215698%, 94.116211%, 94.116211%)" fill-opacity="1" d="M 119 98.398438 L 126.300781 98.398438 L 126.300781 93.050781 L 119 93.050781 Z M 119 98.398438 "/>
<path fill-rule="evenodd" fill="rgb(99.215698%, 94.116211%, 94.116211%)" fill-opacity="1" d="M 126.25 98.398438 L 133.550781 98.398438 L 133.550781 93.050781 L 126.25 93.050781 Z M 126.25 98.398438 "/>
<path fill-rule="evenodd" fill="rgb(99.215698%, 94.116211%, 94.116211%)" fill-opacity="1" d="M 133.5 98.398438 L 140.800781 98.398438 L 140.800781 93.050781 L 133.5 93.050781 Z M 133.5 98.398438 "/>
<path fill-rule="evenodd" fill="rgb(98.822021%, 93.72406%, 93.72406%)" fill-opacity="1" d="M 140.75 98.398438 L 148.050781 98.398438 L 148.050781 93.050781 L 140.75 93.050781 Z M 140.75 98.398438 "/>
<path fill-rule="evenodd" fill="rgb(98.822021%, 93.72406%, 93.72406%)" fill-opacity="1" d="M 148 98.398438 L 155.300781 98.398438 L 155.300781 93.050781 L 148 93.050781 Z M 148 98.398438 "/>
<path fill-rule="evenodd" fill="rgb(98.822021%, 93.72406%, 93.72406%)" fill-opacity="1" d="M 155.25 98.398438 L 162.550781 98.398438 L 162.550781 93.050781 L 155.25 93.050781 Z M 155.25 98.398438 "/>
<path fill-rule="evenodd" fill="rgb(98.822021%, 93.72406%, 93.72406%)" fill-opacity="1" d="M 162.5 98.398438 L 169.800781 98.398438 L 169.800781 93.050781 L 162.5 93.050781 Z M 162.5 98.398438 "/>
<path fill-rule="evenodd" fill="rgb(98.822021%, 93.72406%, 93.72406%)" fill-opacity="1" d="M 169.75 98.398438 L 177.050781 98.398438 L 177.050781 93.050781 L 169.75 93.050781 Z M 169.75 98.398438 "/>
<path fill-rule="evenodd" fill="rgb(29.803467%, 49.803162%, 93.72406%)" fill-opacity="1" d="M 3 103.699219 L 10.300781 103.699219 L 10.300781 98.351562 L 3 98.351562 Z M 3 103.699219 "/>
<path fill-rule="evenodd" fill="rgb(30.195618%, 49.803162%, 93.72406%)" fill-opacity="1" d="M 10.25 103.699219 L 17.550781 103.699219 L 17.550781 98.351562 L 10.25 98.351562 Z M 10.25 103.699219 "/>
<path fill-rule="evenodd" fill="rgb(30.195618%, 50.195312%, 93.72406%)" fill-opacity="1" d="M 17.5 103.699219 L 24.800781 103.699219 L 24.800781 98.351562 L 17.5 98.351562 Z M 17.5 103.699219 "/>
<path fill-rule="evenodd" fill="rgb(30.587769%, 50.195312%, 93.72406%)" fill-opacity="1" d="M 24.75 103.699219 L 32.050781 103.699219 L 32.050781 98.351562 L 24.75 98.351562 Z M 24.75 103.699219 "/>
<path fill-rule="evenodd" fill="rgb(30.587769%, 50.195312%, 93.72406%)" fill-opacity="1" d="M 32 103.699219 L 39.300781 103.699219 L 39.300781 98.351562 L 32 98.351562 Z M 32 103.699219 "/>
<path fill-rule="evenodd" fill="rgb(30.587769%, 50.587463%, 93.72406%)" fill-opacity="1" d="M 39.25 103.699219 L 46.550781 103.699219 L 46.550781 98.351562 L 39.25 98.351562 Z M 39.25 103.699219 "/>
<path fill-rule="evenodd" fill="rgb(30.979919%, 50.587463%, 93.72406%)" fill-opacity="1" d="M 46.5 103.699219 L 53.800781 103.699219 L 53.800781 98.351562 L 46.5 98.351562 Z M 46.5 103.699219 "/>
<path fill-rule="evenodd" fill="rgb(31.37207%, 50.587463%, 93.72406%)" fill-opacity="1" d="M 53.75 103.699219 L 61.050781 103.699219 L 61.050781 98.351562 L 53.75 98.351562 Z M 53.75 103.699219 "/>
<path fill-rule="evenodd" fill="rgb(30.979919%, 50.587463%, 93.72406%)" fill-opacity="1" d="M 61 103.699219 L 68.300781 103.699219 L 68.300781 98.351562 L 61 98.351562 Z M 61 103.699219 "/>
<path fill-rule="evenodd" fill="rgb(30.587769%, 50.195312%, 93.72406%)" fill-opacity="1" d="M 68.25 103.699219 L 75.550781 103.699219 L 75.550781 98.351562 L 68.25 98.351562 Z M 68.25 103.699219 "/>
<path fill-rule="evenodd" fill="rgb(29.803467%, 49.803162%, 93.72406%)" fill-opacity="1" d="M 75.5 103.699219 L 82.800781 103.699219 L 82.800781 98.351562 L 75.5 98.351562 Z M 75.5 103.699219 "/>
<path fill-rule="evenodd" fill="rgb(29.803467%, 49.803162%, 93.72406%)" fill-opacity="1" d="M 82.75 103.699219 L 90.050781 103.699219 L 90.050781 98.351562 L 82.75 98.351562 Z M 82.75 103.699219 "/>
<path fill-rule="evenodd" fill="rgb(29.411316%, 49.411011%, 93.331909%)" fill-opacity="1" d="M 90 103.699219 L 97.300781 103.699219 L 97.300781 98.351562 L 90 98.351562 Z M 90 103.699219 "/>
<path fill-rule="evenodd" fill="rgb(29.019165%, 49.01886%, 93.331909%)" fill-opacity="1" d="M 97.25 103.699219 L 104.550781 103.699219 L 104.550781 98.351562 L 97.25 98.351562 Z M 97.25 103.699219 "/>
<path fill-rule="evenodd" fill="rgb(28.234863%, 48.626709%, 93.331909%)" fill-opacity="1" d="M 104.5 103.699219 L 111.800781 103.699219 L 111.800781 98.351562 L 104.5 98.351562 Z M 104.5 103.699219 "/>
<path fill-rule="evenodd" fill="rgb(27.450562%, 48.234558%, 93.331909%)" fill-opacity="1" d="M 111.75 103.699219 L 119.050781 103.699219 L 119.050781 98.351562 L 111.75 98.351562 Z M 111.75 103.699219 "/>
<path fill-rule="evenodd" fill="rgb(26.66626%, 47.450256%, 93.331909%)" fill-opacity="1" d="M 119 103.699219 L 126.300781 103.699219 L 126.300781 98.351562 L 119 98.351562 Z M 119 103.699219 "/>
<path fill-rule="evenodd" fill="rgb(25.489807%, 46.665955%, 93.331909%)" fill-opacity="1" d="M 126.25 103.699219 L 133.550781 103.699219 L 133.550781 98.351562 L 126.25 98.351562 Z M 126.25 103.699219 "/>
<path fill-rule="evenodd" fill="rgb(24.705505%, 46.273804%, 92.939758%)" fill-opacity="1" d="M 133.5 103.699219 L 140.800781 103.699219 L 140.800781 98.351562 L 133.5 98.351562 Z M 133.5 103.699219 "/>
<path fill-rule="evenodd" fill="rgb(23.529053%, 45.489502%, 92.939758%)" fill-opacity="1" d="M 140.75 103.699219 L 148.050781 103.699219 L 148.050781 98.351562 L 140.75 98.351562 Z M 140.75 103.699219 "/>
<path fill-rule="evenodd" fill="rgb(22.744751%, 44.7052%, 92.939758%)" fill-opacity="1" d="M 148 103.699219 L 155.300781 103.699219 L 155.300781 98.351562 L 148 98.351562 Z M 148 103.699219 "/>
<path fill-rule="evenodd" fill="rgb(22.3526%, 44.313049%, 92.939758%)" fill-opacity="1" d="M 155.25 103.699219 L 162.550781 103.699219 L 162.550781 98.351562 L 155.25 98.351562 Z M 155.25 103.699219 "/>
<path fill-rule="evenodd" fill="rgb(21.960449%, 43.920898%, 92.939758%)" fill-opacity="1" d="M 162.5 103.699219 L 169.800781 103.699219 L 169.800781 98.351562 L 162.5 98.351562 Z M 162.5 103.699219 "/>
<path fill-rule="evenodd" fill="rgb(21.568298%, 43.920898%, 92.939758%)" fill-opacity="1" d="M 169.75 103.699219 L 177.050781 103.699219 L 177.050781 98.351562 L 169.75 98.351562 Z M 169.75 103.699219 "/>
<path fill-rule="evenodd" fill="rgb(88.626099%, 30.195618%, 30.195618%)" fill-opacity="1" d="M 3 109 L 10.300781 109 L 10.300781 103.648438 L 3 103.648438 Z M 3 109 "/>
<path fill-rule="evenodd" fill="rgb(88.626099%, 30.195618%, 30.195618%)" fill-opacity="1" d="M 10.25 109 L 17.550781 109 L 17.550781 103.648438 L 10.25 103.648438 Z M 10.25 109 "/>
<path fill-rule="evenodd" fill="rgb(88.626099%, 30.587769%, 30.587769%)" fill-opacity="1" d="M 17.5 109 L 24.800781 109 L 24.800781 103.648438 L 17.5 103.648438 Z M 17.5 109 "/>
<path fill-rule="evenodd" fill="rgb(89.01825%, 30.979919%, 30.979919%)" fill-opacity="1" d="M 24.75 109 L 32.050781 109 L 32.050781 103.648438 L 24.75 103.648438 Z M 24.75 109 "/>
<path fill-rule="evenodd" fill="rgb(89.01825%, 30.979919%, 30.979919%)" fill-opacity="1" d="M 32 109 L 39.300781 109 L 39.300781 103.648438 L 32 103.648438 Z M 32 109 "/>
<path fill-rule="evenodd" fill="rgb(89.01825%, 30.979919%, 30.979919%)" fill-opacity="1" d="M 39.25 109 L 46.550781 109 L 46.550781 103.648438 L 39.25 103.648438 Z M 39.25 109 "/>
<path fill-rule="evenodd" fill="rgb(89.01825%, 31.37207%, 31.37207%)" fill-opacity="1" d="M 46.5 109 L 53.800781 109 L 53.800781 103.648438 L 46.5 103.648438 Z M 46.5 109 "/>
<path fill-rule="evenodd" fill="rgb(89.01825%, 31.37207%, 31.37207%)" fill-opacity="1" d="M 53.75 109 L 61.050781 109 L 61.050781 103.648438 L 53.75 103.648438 Z M 53.75 109 "/>
<path fill-rule="evenodd" fill="rgb(89.01825%, 31.37207%, 31.37207%)" fill-opacity="1" d="M 61 109 L 68.300781 109 L 68.300781 103.648438 L 61 103.648438 Z M 61 109 "/>
<path fill-rule="evenodd" fill="rgb(89.01825%, 30.979919%, 30.979919%)" fill-opacity="1" d="M 68.25 109 L 75.550781 109 L 75.550781 103.648438 L 68.25 103.648438 Z M 68.25 109 "/>
<path fill-rule="evenodd" fill="rgb(88.626099%, 30.195618%, 30.195618%)" fill-opacity="1" d="M 75.5 109 L 82.800781 109 L 82.800781 103.648438 L 75.5 103.648438 Z M 75.5 109 "/>
<path fill-rule="evenodd" fill="rgb(88.626099%, 29.803467%, 29.803467%)" fill-opacity="1" d="M 82.75 109 L 90.050781 109 L 90.050781 103.648438 L 82.75 103.648438 Z M 82.75 109 "/>
<path fill-rule="evenodd" fill="rgb(88.626099%, 29.803467%, 29.803467%)" fill-opacity="1" d="M 90 109 L 97.300781 109 L 97.300781 103.648438 L 90 103.648438 Z M 90 109 "/>
<path fill-rule="evenodd" fill="rgb(88.626099%, 29.411316%, 29.411316%)" fill-opacity="1" d="M 97.25 109 L 104.550781 109 L 104.550781 103.648438 L 97.25 103.648438 Z M 97.25 109 "/>
<path fill-rule="evenodd" fill="rgb(88.626099%, 28.627014%, 28.627014%)" fill-opacity="1" d="M 104.5 109 L 111.800781 109 L 111.800781 103.648438 L 104.5 103.648438 Z M 104.5 109 "/>
<path fill-rule="evenodd" fill="rgb(88.233948%, 27.842712%, 27.842712%)" fill-opacity="1" d="M 111.75 109 L 119.050781 109 L 119.050781 103.648438 L 111.75 103.648438 Z M 111.75 109 "/>
<path fill-rule="evenodd" fill="rgb(88.233948%, 27.058411%, 27.058411%)" fill-opacity="1" d="M 119 109 L 126.300781 109 L 126.300781 103.648438 L 119 103.648438 Z M 119 109 "/>
<path fill-rule="evenodd" fill="rgb(88.233948%, 25.881958%, 25.881958%)" fill-opacity="1" d="M 126.25 109 L 133.550781 109 L 133.550781 103.648438 L 126.25 103.648438 Z M 126.25 109 "/>
<path fill-rule="evenodd" fill="rgb(87.841797%, 25.097656%, 25.097656%)" fill-opacity="1" d="M 133.5 109 L 140.800781 109 L 140.800781 103.648438 L 133.5 103.648438 Z M 133.5 109 "/>
<path fill-rule="evenodd" fill="rgb(87.841797%, 23.921204%, 23.921204%)" fill-opacity="1" d="M 140.75 109 L 148.050781 109 L 148.050781 103.648438 L 140.75 103.648438 Z M 140.75 109 "/>
<path fill-rule="evenodd" fill="rgb(87.449646%, 23.136902%, 23.136902%)" fill-opacity="1" d="M 148 109 L 155.300781 109 L 155.300781 103.648438 L 148 103.648438 Z M 148 109 "/>
<path fill-rule="evenodd" fill="rgb(87.449646%, 22.744751%, 22.744751%)" fill-opacity="1" d="M 155.25 109 L 162.550781 109 L 162.550781 103.648438 L 155.25 103.648438 Z M 155.25 109 "/>
<path fill-rule="evenodd" fill="rgb(87.449646%, 21.960449%, 21.960449%)" fill-opacity="1" d="M 162.5 109 L 169.800781 109 L 169.800781 103.648438 L 162.5 103.648438 Z M 162.5 109 "/>
<path fill-rule="evenodd" fill="rgb(87.449646%, 21.960449%, 21.960449%)" fill-opacity="1" d="M 169.75 109 L 177.050781 109 L 177.050781 103.648438 L 169.75 103.648438 Z M 169.75 109 "/>
<path fill="none" stroke-width="0.55" stroke-linecap="butt" stroke-linejoin="miter" stroke="rgb(6.666565%, 9.411621%, 15.293884%)" stroke-opacity="1" stroke-miterlimit="10" d="M 3 3 L 177 3 L 177 109 L 3 109 Z M 3 3 " transform="matrix(1, 0, 0, -1, 0, 112)"/>
</svg>
