<?xml version="1.0" encoding="UTF-8"?>
<svg xmlns="http://www.w3.org/2000/svg" xmlns:xlink="http://www.w3.org/1999/xlink" width="180pt" height="112pt" viewBox="0 0 180 112">
<rect x="-18" y="-11.2" width="216" height="134.4" fill="rgb(100%, 100%, 100%)" fill-opacity="1"/>
<path fill-rule="evenodd" fill="rgb(94.900513%, 69.410706%, 69.410706%)" fill-opacity="1" d="M 3 8.300781 L 10.300781 8.300781 L 10.300781 2.949219 L 3 2.949219 Z M 3 8.300781 "/>
<path fill-rule="evenodd" fill="rgb(95.292664%, 70.195007%, 70.195007%)" fill-opacity="1" d="M 10.25 8.300781 L 17.550781 8.300781 L 17.550781 2.949219 L 10.25 2.949219 Z M 10.25 8.300781 "/>
<path fill-rule="evenodd" fill="rgb(95.292664%, 70.979309%, 70.979309%)" fill-opacity="1" d="M 17.5 8.300781 L 24.800781 8.300781 L 24.800781 2.949219 L 17.5 2.949219 Z M 17.5 8.300781 "/>
<path fill-rule="evenodd" fill="rgb(95.292664%, 71.763611%, 71.763611%)" fill-opacity="1" d="M 24.75 8.300781 L 32.050781 8.300781 L 32.050781 2.949219 L 24.75 2.949219 Z M 24.75 8.300781 "/>
<path fill-rule="evenodd" fill="rgb(95.684814%, 72.155762%, 72.155762%)" fill-opacity="1" d="M 32 8.300781 L 39.300781 8.300781 L 39.300781 2.949219 L 32 2.949219 Z M 32 8.300781 "/>
<path fill-rule="evenodd" fill="rgb(95.684814%, 72.547913%, 72.547913%)" fill-opacity="1" d="M 39.25 8.300781 L 46.550781 8.300781 L 46.550781 2.949219 L 39.25 2.949219 Z M 39.25 8.300781 "/>
<path fill-rule="evenodd" fill="rgb(95.684814%, 74.116516%, 74.116516%)" fill-opacity="1" d="M 46.5 8.300781 L 53.800781 8.300781 L 53.800781 2.949219 L 46.5 2.949219 Z M 46.5 8.300781 "/>
<path fill-rule="evenodd" fill="rgb(96.076965%, 76.077271%, 76.077271%)" fill-opacity="1" d="M 53.75 8.300781 L 61.050781 8.300781 L 61.050781 2.949219 L 53.75 2.949219 Z M 53.75 8.300781 "/>
<path fill-rule="evenodd" fill="rgb(96.076965%, 76.469421%, 76.469421%)" fill-opacity="1" d="M 61 8.300781 L 68.300781 8.300781 L 68.300781 2.949219 L 61 2.949219 Z M 61 8.300781 "/>
<path fill-rule="evenodd" fill="rgb(96.076965%, 75.292969%, 75.292969%)" fill-opacity="1" d="M 68.25 8.300781 L 75.550781 8.300781 L 75.550781 2.949219 L 68.25 2.949219 Z M 68.25 8.300781 "/>
<path fill-rule="evenodd" fill="rgb(96.076965%, 74.508667%, 74.508667%)" fill-opacity="1" d="M 75.5 8.300781 L 82.800781 8.300781 L 82.800781 2.949219 L 75.5 2.949219 Z M 75.5 8.300781 "/>
<path fill-rule="evenodd" fill="rgb(95.684814%, 74.508667%, 74.508667%)" fill-opacity="1" d="M 82.75 8.300781 L 90.050781 8.300781 L 90.050781 2.949219 L 82.75 2.949219 Z M 82.75 8.300781 "/>
<path fill-rule="evenodd" fill="rgb(95.684814%, 74.508667%, 74.508667%)" fill-opacity="1" d="M 90 8.300781 L 97.300781 8.300781 L 97.300781 2.949219 L 90 2.949219 Z M 90 8.300781 "/>
<path fill-rule="evenodd" fill="rgb(95.684814%, 74.508667%, 74.508667%)" fill-opacity="1" d="M 97.25 8.300781 L 104.550781 8.300781 L 104.550781 2.949219 L 97.25 2.949219 Z M 97.25 8.300781 "/>
<path fill-rule="evenodd" fill="rgb(95.684814%, 74.116516%, 74.116516%)" fill-opacity="1" d="M 104.5 8.300781 L 111.800781 8.300781 L 111.800781 2.949219 L 104.5 2.949219 Z M 104.5 8.300781 "/>
<path fill-rule="evenodd" fill="rgb(95.684814%, 73.724365%, 73.724365%)" fill-opacity="1" d="M 111.75 8.300781 L 119.050781 8.300781 L 119.050781 2.949219 L 111.75 2.949219 Z M 111.75 8.300781 "/>
<path fill-rule="evenodd" fill="rgb(95.684814%, 72.940063%, 72.940063%)" fill-opacity="1" d="M 119 8.300781 L 126.300781 8.300781 L 126.300781 2.949219 L 119 2.949219 Z M 119 8.300781 "/>
<path fill-rule="evenodd" fill="rgb(95.684814%, 72.155762%, 72.155762%)" fill-opacity="1" d="M 126.25 8.300781 L 133.550781 8.300781 L 133.550781 2.949219 L 126.25 2.949219 Z M 126.25 8.300781 "/>
<path fill-rule="evenodd" fill="rgb(95.292664%, 71.37146%, 71.37146%)" fill-opacity="1" d="M 133.5 8.300781 L 140.800781 8.300781 L 140.800781 2.949219 L 133.5 2.949219 Z M 133.5 8.300781 "/>
<path fill-rule="evenodd" fill="rgb(95.292664%, 70.195007%, 70.195007%)" fill-opacity="1" d="M 140.75 8.300781 L 148.050781 8.300781 L 148.050781 2.949219 L 140.75 2.949219 Z M 140.75 8.300781 "/>
<path fill-rule="evenodd" fill="rgb(94.900513%, 69.410706%, 69.410706%)" fill-opacity="1" d="M 148 8.300781 L 155.300781 8.300781 L 155.300781 2.949219 L 148 2.949219 Z M 148 8.300781 "/>
<path fill-rule="evenodd" fill="rgb(94.900513%, 68.626404%, 68.626404%)" fill-opacity="1" d="M 155.25 8.300781 L 162.550781 8.300781 L 162.550781 2.949219 L 155.25 2.949219 Z M 155.25 8.300781 "/>
<path fill-rule="evenodd" fill="rgb(94.900513%, 68.234253%, 68.234253%)" fill-opacity="1" d="M 162.5 8.300781 L 169.800781 8.300781 L 169.800781 2.949219 L 162.5 2.949219 Z M 162.5 8.300781 "/>
<path fill-rule="evenodd" fill="rgb(94.900513%, 67.842102%, 67.842102%)" fill-opacity="1" d="M 169.75 8.300781 L 177.050781 8.300781 L 177.050781 2.949219 L 169.75 2.949219 Z M 169.75 8.300781 "/>
<path fill-rule="evenodd" fill="rgb(100%, 100%, 100%)" fill-opacity="1" d="M 3 13.601562 L 10.300781 13.601562 L 10.300781 8.25 L 3 8.25 Z M 3 13.601562 "/>
<path fill-rule="evenodd" fill="rgb(100%, 100%, 100%)" fill-opacity="1" d="M 10.25 13.601562 L 17.550781 13.601562 L 17.550781 8.25 L 10.25 8.25 Z M 10.25 13.601562 "/>
<path fill-rule="evenodd" fill="rgb(100%, 100%, 100%)" fill-opacity="1" d="M 17.5 13.601562 L 24.800781 13.601562 L 24.800781 8.25 L 17.5 8.25 Z M 17.5 13.601562 "/>
<path fill-rule="evenodd" fill="rgb(100%, 100%, 100%)" fill-opacity="1" d="M 24.75 13.601562 L 32.050781 13.601562 L 32.050781 8.25 L 24.75 8.25 Z M 24.75 13.601562 "/>
<path fill-rule="evenodd" fill="rgb(100%, 100%, 100%)" fill-opacity="1" d="M 32 13.601562 L 39.300781 13.601562 L 39.300781 8.25 L 32 8.25 Z M 32 13.601562 "/>
<path fill-rule="evenodd" fill="rgb(100%, 100%, 100%)" fill-opacity="1" d="M 39.25 13.601562 L 46.550781 13.601562 L 46.550781 8.25 L 39.25 8.25 Z M 39.25 13.601562 "/>
<path fill-rule="evenodd" fill="rgb(100%, 100%, 100%)" fill-opacity="1" d="M 46.5 13.601562 L 53.800781 13.601562 L 53.800781 8.25 L 46.5 8.25 Z M 46.5 13.601562 "/>
<path fill-rule="evenodd" fill="rgb(100%, 100%, 100%)" fill-opacity="1" d="M 53.75 13.601562 L 61.050781 13.601562 L 61.050781 8.25 L 53.75 8.25 Z M 53.75 13.601562 "/>
<path fill-rule="evenodd" fill="rgb(100%, 100%, 100%)" fill-opacity="1" d="M 61 13.601562 L 68.300781 13.601562 L 68.300781 8.25 L 61 8.25 Z M 61 13.601562 "/>
<path fill-rule="evenodd" fill="rgb(100%, 100%, 100%)" fill-opacity="1" d="M 68.25 13.601562 L 75.550781 13.601562 L 75.550781 8.25 L 68.25 8.25 Z M 68.25 13.601562 "/>
<path fill-rule="evenodd" fill="rgb(100%, 100%, 100%)" fill-opacity="1" d="M 75.5 13.601562 L 82.800781 13.601562 L 82.800781 8.25 L 75.5 8.25 Z M 75.5 13.601562 "/>
<path fill-rule="evenodd" fill="rgb(100%, 100%, 100%)" fill-opacity="1" d="M 82.75 13.601562 L 90.050781 13.601562 L 90.050781 8.25 L 82.75 8.25 Z M 82.75 13.601562 "/>
<path fill-rule="evenodd" fill="rgb(100%, 100%, 100%)" fill-opacity="1" d="M 90 13.601562 L 97.300781 13.601562 L 97.300781 8.25 L 90 8.25 Z M 90 13.601562 "/>
<path fill-rule="evenodd" fill="rgb(100%, 100%, 100%)" fill-opacity="1" d="M 97.25 13.601562 L 104.550781 13.601562 L 104.550781 8.25 L 97.25 8.25 Z M 97.25 13.601562 "/>
<path fill-rule="evenodd" fill="rgb(100%, 100%, 100%)" fill-opacity="1" d="M 104.5 13.601562 L 111.800781 13.601562 L 111.800781 8.25 L 104.5 8.25 Z M 104.5 13.601562 "/>
<path fill-rule="evenodd" fill="rgb(100%, 100%, 100%)" fill-opacity="1" d="M 111.75 13.601562 L 119.050781 13.601562 L 119.050781 8.25 L 111.75 8.25 Z M 111.75 13.601562 "/>
<path fill-rule="evenodd" fill="rgb(100%, 100%, 100%)" fill-opacity="1" d="M 119 13.601562 L 126.300781 13.601562 L 126.300781 8.25 L 119 8.25 Z M 119 13.601562 "/>
<path fill-rule="evenodd" fill="rgb(100%, 100%, 100%)" fill-opacity="1" d="M 126.25 13.601562 L 133.550781 13.601562 L 133.550781 8.25 L 126.25 8.25 Z M 126.25 13.601562 "/>
<path fill-rule="evenodd" fill="rgb(100%, 100%, 100%)" fill-opacity="1" d="M 133.5 13.601562 L 140.800781 13.601562 L 140.800781 8.25 L 133.5 8.25 Z M 133.5 13.601562 "/>
<path fill-rule="evenodd" fill="rgb(100%, 100%, 100%)" fill-opacity="1" d="M 140.75 13.601562 L 148.050781 13.601562 L 148.050781 8.25 L 140.75 8.25 Z M 140.75 13.601562 "/>
<path fill-rule="evenodd" fill="rgb(100%, 100%, 100%)" fill-opacity="1" d="M 148 13.601562 L 155.300781 13.601562 L 155.300781 8.25 L 148 8.25 Z M 148 13.601562 "/>
<path fill-rule="evenodd" fill="rgb(100%, 100%, 100%)" fill-opacity="1" d="M 155.25 13.601562 L 162.550781 13.601562 L 162.550781 8.25 L 155.25 8.25 Z M 155.25 13.601562 "/>
<path fill-rule="evenodd" fill="rgb(100%, 100%, 100%)" fill-opacity="1" d="M 162.5 13.601562 L 169.800781 13.601562 L 169.800781 8.25 L 162.5 8.25 Z M 162.5 13.601562 "/>
<path fill-rule="evenodd" fill="rgb(100%, 100%, 100%)" fill-opacity="1" d="M 169.75 13.601562 L 177.050781 13.601562 L 177.050781 8.25 L 169.75 8.25 Z M 169.75 13.601562 "/>
<path fill-rule="evenodd" fill="rgb(100%, 100%, 100%)" fill-opacity="1" d="M 3 18.898438 L 10.300781 18.898438 L 10.300781 13.550781 L 3 13.550781 Z M 3 18.898438 "/>
<path fill-rule="evenodd" fill="rgb(100%, 100%, 100%)" fill-opacity="1" d="M 10.25 18.898438 L 17.550781 18.898438 L 17.550781 13.550781 L 10.25 13.550781 Z M 10.25 18.898438 "/>
<path fill-rule="evenodd" fill="rgb(100%, 100%, 100%)" fill-opacity="1" d="M 17.5 18.898438 L 24.800781 18.898438 L 24.800781 13.550781 L 17.5 13.550781 Z M 17.5 18.898438 "/>
<path fill-rule="evenodd" fill="rgb(100%, 100%, 100%)" fill-opacity="1" d="M 24.75 18.898438 L 32.050781 18.898438 L 32.050781 13.550781 L 24.75 13.550781 Z M 24.75 18.898438 "/>
<path fill-rule="evenodd" fill="rgb(100%, 100%, 100%)" fill-opacity="1" d="M 32 18.898438 L 39.300781 18.898438 L 39.300781 13.550781 L 32 13.550781 Z M 32 18.898438 "/>
<path fill-rule="evenodd" fill="rgb(100%, 100%, 100%)" fill-opacity="1" d="M 39.25 18.898438 L 46.550781 18.898438 L 46.550781 13.550781 L 39.25 13.550781 Z M 39.25 18.898438 "/>
<path fill-rule="evenodd" fill="rgb(100%, 100%, 100%)" fill-opacity="1" d="M 46.5 18.898438 L 53.800781 18.898438 L 53.800781 13.550781 L 46.5 13.550781 Z M 46.5 18.898438 "/>
<path fill-rule="evenodd" fill="rgb(100%, 100%, 100%)" fill-opacity="1" d="M 53.75 18.898438 L 61.050781 18.898438 L 61.050781 13.550781 L 53.75 13.550781 Z M 53.75 18.898438 "/>
<path fill-rule="evenodd" fill="rgb(100%, 100%, 100%)" fill-opacity="1" d="M 61 18.898438 L 68.300781 18.898438 L 68.300781 13.550781 L 61 13.550781 Z M 61 18.898438 "/>
<path fill-rule="evenodd" fill="rgb(100%, 100%, 100%)" fill-opacity="1" d="M 68.25 18.898438 L 75.550781 18.898438 L 75.550781 13.550781 L 68.25 13.550781 Z M 68.25 18.898438 "/>
<path fill-rule="evenodd" fill="rgb(100%, 100%, 100%)" fill-opacity="1" d="M 75.5 18.898438 L 82.800781 18.898438 L 82.800781 13.550781 L 75.5 13.550781 Z M 75.5 18.898438 "/>
<path fill-rule="evenodd" fill="rgb(100%, 100%, 100%)" fill-opacity="1" d="M 82.75 18.898438 L 90.050781 18.898438 L 90.050781 13.550781 L 82.75 13.550781 Z M 82.75 18.898438 "/>
<path fill-rule="evenodd" fill="rgb(100%, 100%, 100%)" fill-opacity="1" d="M 90 18.898438 L 97.300781 18.898438 L 97.300781 13.550781 L 90 13.550781 Z M 90 18.898438 "/>
<path fill-rule="evenodd" fill="rgb(100%, 100%, 100%)" fill-opacity="1" d="M 97.25 18.898438 L 104.550781 18.898438 L 104.550781 13.550781 L 97.25 13.550781 Z M 97.25 18.898438 "/>
<path fill-rule="evenodd" fill="rgb(100%, 100%, 100%)" fill-opacity="1" d="M 104.5 18.898438 L 111.800781 18.898438 L 111.800781 13.550781 L 104.5 13.550781 Z M 104.5 18.898438 "/>
<path fill-rule="evenodd" fill="rgb(100%, 100%, 100%)" fill-opacity="1" d="M 111.75 18.898438 L 119.050781 18.898438 L 119.050781 13.550781 L 111.75 13.550781 Z M 111.75 18.898438 "/>
<path fill-rule="evenodd" fill="rgb(100%, 100%, 100%)" fill-opacity="1" d="M 119 18.898438 L 126.300781 18.898438 L 126.300781 13.550781 L 119 13.550781 Z M 119 18.898438 "/>
<path fill-rule="evenodd" fill="rgb(100%, 100%, 100%)" fill-opacity="1" d="M 126.25 18.898438 L 133.550781 18.898438 L 133.550781 13.550781 L 126.25 13.550781 Z M 126.25 18.898438 "/>
<path fill-rule="evenodd" fill="rgb(100%, 100%, 100%)" fill-opacity="1" d="M 133.5 18.898438 L 140.800781 18.898438 L 140.800781 13.550781 L 133.5 13.550781 Z M 133.5 18.898438 "/>
<path fill-rule="evenodd" fill="rgb(100%, 100%, 100%)" fill-opacity="1" d="M 140.75 18.898438 L 148.050781 18.898438 L 148.050781 13.550781 L 140.75 13.550781 Z M 140.75 18.898438 "/>
<path fill-rule="evenodd" fill="rgb(100%, 100%, 100%)" fill-opacity="1" d="M 148 18.898438 L 155.300781 18.898438 L 155.300781 13.550781 L 148 13.550781 Z M 148 18.898438 "/>
<path fill-rule="evenodd" fill="rgb(100%, 100%, 100%)" fill-opacity="1" d="M 155.25 18.898438 L 162.550781 18.898438 L 162.550781 13.550781 L 155.25 13.550781 Z M 155.25 18.898438 "/>
<path fill-rule="evenodd" fill="rgb(100%, 100%, 100%)" fill-opacity="1" d="M 162.5 18.898438 L 169.800781 18.898438 L 169.800781 13.550781 L 162.5 13.550781 Z M 162.5 18.898438 "/>
<path fill-rule="evenodd" fill="rgb(100%, 100%, 100%)" fill-opacity="1" d="M 169.75 18.898438 L 177.050781 18.898438 L 177.050781 13.550781 L 169.75 13.550781 Z M 169.75 18.898438 "/>
<path fill-rule="evenodd" fill="rgb(100%, 100%, 100%)" fill-opacity="1" d="M 3 24.199219 L 10.300781 24.199219 L 10.300781 18.851562 L 3 18.851562 Z M 3 24.199219 "/>
<path fill-rule="evenodd" fill="rgb(100%, 100%, 100%)" fill-opacity="1" d="M 10.25 24.199219 L 17.550781 24.199219 L 17.550781 18.851562 L 10.25 18.851562 Z M 10.25 24.199219 "/>
<path fill-rule="evenodd" fill="rgb(100%, 100%, 100%)" fill-opacity="1" d="M 17.5 24.199219 L 24.800781 24.199219 L 24.800781 18.851562 L 17.5 18.851562 Z M 17.5 24.199219 "/>
<path fill-rule="evenodd" fill="rgb(100%, 100%, 100%)" fill-opacity="1" d="M 24.75 24.199219 L 32.050781 24.199219 L 32.050781 18.851562 L 24.75 18.851562 Z M 24.75 24.199219 "/>
<path fill-rule="evenodd" fill="rgb(100%, 100%, 100%)" fill-opacity="1" d="M 32 24.199219 L 39.300781 24.199219 L 39.300781 18.851562 L 32 18.851562 Z M 32 24.199219 "/>
<path fill-rule="evenodd" fill="rgb(100%, 100%, 100%)" fill-opacity="1" d="M 39.25 24.199219 L 46.550781 24.199219 L 46.550781 18.851562 L 39.25 18.851562 Z M 39.25 24.199219 "/>
<path fill-rule="evenodd" fill="rgb(100%, 100%, 100%)" fill-opacity="1" d="M 46.5 24.199219 L 53.800781 24.199219 L 53.800781 18.851562 L 46.5 18.851562 Z M 46.5 24.199219 "/>
<path fill-rule="evenodd" fill="rgb(100%, 100%, 100%)" fill-opacity="1" d="M 53.75 24.199219 L 61.050781 24.199219 L 61.050781 18.851562 L 53.75 18.851562 Z M 53.75 24.199219 "/>
<path fill-rule="evenodd" fill="rgb(100%, 100%, 100%)" fill-opacity="1" d="M 61 24.199219 L 68.300781 24.199219 L 68.300781 18.851562 L 61 18.851562 Z M 61 24.199219 "/>
<path fill-rule="evenodd" fill="rgb(100%, 100%, 100%)" fill-opacity="1" d="M 68.25 24.199219 L 75.550781 24.199219 L 75.550781 18.851562 L 68.25 18.851562 Z M 68.25 24.199219 "/>
<path fill-rule="evenodd" fill="rgb(100%, 100%, 100%)" fill-opacity="1" d="M 75.5 24.199219 L 82.800781 24.199219 L 82.800781 18.851562 L 75.5 18.851562 Z M 75.5 24.199219 "/>
<path fill-rule="evenodd" fill="rgb(100%, 100%, 100%)" fill-opacity="1" d="M 82.75 24.199219 L 90.050781 24.199219 L 90.050781 18.851562 L 82.75 18.851562 Z M 82.75 24.199219 "/>
<path fill-rule="evenodd" fill="rgb(100%, 100%, 100%)" fill-opacity="1" d="M 90 24.199219 L 97.300781 24.199219 L 97.300781 18.851562 L 90 18.851562 Z M 90 24.199219 "/>
<path fill-rule="evenodd" fill="rgb(100%, 100%, 100%)" fill-opacity="1" d="M 97.25 24.199219 L 104.550781 24.199219 L 104.550781 18.851562 L 97.25 18.851562 Z M 97.25 24.199219 "/>
<path fill-rule="evenodd" fill="rgb(100%, 100%, 100%)" fill-opacity="1" d="M 104.5 24.199219 L 111.800781 24.199219 L 111.800781 18.851562 L 104.5 18.851562 Z M 104.5 24.199219 "/>
<path fill-rule="evenodd" fill="rgb(100%, 100%, 100%)" fill-opacity="1" d="M 111.75 24.199219 L 119.050781 24.199219 L 119.050781 18.851562 L 111.75 18.851562 Z M 111.75 24.199219 "/>
<path fill-rule="evenodd" fill="rgb(100%, 100%, 100%)" fill-opacity="1" d="M 119 24.199219 L 126.300781 24.199219 L 126.300781 18.851562 L 119 18.851562 Z M 119 24.199219 "/>
<path fill-rule="evenodd" fill="rgb(100%, 100%, 100%)" fill-opacity="1" d="M 126.25 24.199219 L 133.550781 24.199219 L 133.550781 18.851562 L 126.25 18.851562 Z M 126.25 24.199219 "/>
<path fill-rule="evenodd" fill="rgb(100%, 100%, 100%)" fill-opacity="1" d="M 133.5 24.199219 L 140.800781 24.199219 L 140.800781 18.851562 L 133.5 18.851562 Z M 133.5 24.199219 "/>
<path fill-rule="evenodd" fill="rgb(100%, 100%, 100%)" fill-opacity="1" d="M 140.75 24.199219 L 148.050781 24.199219 L 148.050781 18.851562 L 140.75 18.851562 Z M 140.75 24.199219 "/>
<path fill-rule="evenodd" fill="rgb(100%, 100%, 100%)" fill-opacity="1" d="M 148 24.199219 L 155.300781 24.199219 L 155.300781 18.851562 L 148 18.851562 Z M 148 24.199219 "/>
<path fill-rule="evenodd" fill="rgb(100%, 100%, 100%)" fill-opacity="1" d="M 155.25 24.199219 L 162.550781 24.199219 L 162.550781 18.851562 L 155.25 18.851562 Z M 155.25 24.199219 "/>
<path fill-rule="evenodd" fill="rgb(100%, 100%, 100%)" fill-opacity="1" d="M 162.5 24.199219 L 169.800781 24.199219 L 169.800781 18.851562 L 162.5 18.851562 Z M 162.5 24.199219 "/>
<path fill-rule="evenodd" fill="rgb(100%, 100%, 100%)" fill-opacity="1" d="M 169.75 24.199219 L 177.050781 24.199219 L 177.050781 18.851562 L 169.75 18.851562 Z M 169.75 24.199219 "/>
<path fill-rule="evenodd" fill="rgb(100%, 100%, 100%)" fill-opacity="1" d="M 3 29.5 L 10.300781 29.5 L 10.300781 24.148438 L 3 24.148438 Z M 3 29.5 "/>
<path fill-rule="evenodd" fill="rgb(100%, 100%, 100%)" fill-opacity="1" d="M 10.25 29.5 L 17.550781 29.5 L 17.550781 24.148438 L 10.25 24.148438 Z M 10.25 29.5 "/>
<path fill-rule="evenodd" fill="rgb(100%, 100%, 100%)" fill-opacity="1" d="M 17.5 29.5 L 24.800781 29.5 L 24.800781 24.148438 L 17.5 24.148438 Z M 17.5 29.5 "/>
<path fill-rule="evenodd" fill="rgb(100%, 100%, 100%)" fill-opacity="1" d="M 24.75 29.5 L 32.050781 29.5 L 32.050781 24.148438 L 24.75 24.148438 Z M 24.75 29.5 "/>
<path fill-rule="evenodd" fill="rgb(100%, 100%, 100%)" fill-opacity="1" d="M 32 29.5 L 39.300781 29.5 L 39.300781 24.148438 L 32 24.148438 Z M 32 29.5 "/>
<path fill-rule="evenodd" fill="rgb(100%, 100%, 100%)" fill-opacity="1" d="M 39.25 29.5 L 46.550781 29.5 L 46.550781 24.148438 L 39.25 24.148438 Z M 39.25 29.5 "/>
<path fill-rule="evenodd" fill="rgb(100%, 100%, 100%)" fill-opacity="1" d="M 46.5 29.5 L 53.800781 29.5 L 53.800781 24.148438 L 46.5 24.148438 Z M 46.5 29.5 "/>
<path fill-rule="evenodd" fill="rgb(100%, 100%, 100%)" fill-opacity="1" d="M 53.75 29.5 L 61.050781 29.5 L 61.050781 24.148438 L 53.75 24.148438 Z M 53.75 29.5 "/>
<path fill-rule="evenodd" fill="rgb(100%, 100%, 100%)" fill-opacity="1" d="M 61 29.5 L 68.300781 29.5 L 68.300781 24.148438 L 61 24.148438 Z M 61 29.5 "/>
<path fill-rule="evenodd" fill="rgb(100%, 100%, 100%)" fill-opacity="1" d="M 68.25 29.5 L 75.550781 29.5 L 75.550781 24.148438 L 68.25 24.148438 Z M 68.25 29.5 "/>
<path fill-rule="evenodd" fill="rgb(100%, 100%, 100%)" fill-opacity="1" d="M 75.5 29.5 L 82.800781 29.5 L 82.800781 24.148438 L 75.5 24.148438 Z M 75.5 29.5 "/>
<path fill-rule="evenodd" fill="rgb(100%, 100%, 100%)" fill-opacity="1" d="M 82.75 29.5 L 90.050781 29.5 L 90.050781 24.148438 L 82.75 24.148438 Z M 82.75 29.5 "/>
<path fill-rule="evenodd" fill="rgb(100%, 100%, 100%)" fill-opacity="1" d="M 90 29.5 L 97.300781 29.5 L 97.300781 24.148438 L 90 24.148438 Z M 90 29.5 "/>
<path fill-rule="evenodd" fill="rgb(100%, 100%, 100%)" fill-opacity="1" d="M 97.25 29.5 L 104.550781 29.5 L 104.550781 24.148438 L 97.25 24.148438 Z M 97.25 29.5 "/>
<path fill-rule="evenodd" fill="rgb(100%, 100%, 100%)" fill-opacity="1" d="M 104.5 29.5 L 111.800781 29.5 L 111.800781 24.148438 L 104.5 24.148438 Z M 104.5 29.5 "/>
<path fill-rule="evenodd" fill="rgb(100%, 100%, 100%)" fill-opacity="1" d="M 111.75 29.5 L 119.050781 29.5 L 119.050781 24.148438 L 111.75 24.148438 Z M 111.75 29.5 "/>
<path fill-rule="evenodd" fill="rgb(100%, 100%, 100%)" fill-opacity="1" d="M 119 29.5 L 126.300781 29.5 L 126.300781 24.148438 L 119 24.148438 Z M 119 29.5 "/>
<path fill-rule="evenodd" fill="rgb(100%, 100%, 100%)" fill-opacity="1" d="M 126.25 29.5 L 133.550781 29.5 L 133.550781 24.148438 L 126.25 24.148438 Z M 126.25 29.5 "/>
<path fill-rule="evenodd" fill="rgb(100%, 100%, 100%)" fill-opacity="1" d="M 133.5 29.5 L 140.800781 29.5 L 140.800781 24.148438 L 133.5 24.148438 Z M 133.5 29.5 "/>
<path fill-rule="evenodd" fill="rgb(100%, 100%, 100%)" fill-opacity="1" d="M 140.75 29.5 L 148.050781 29.5 L 148.050781 24.148438 L 140.75 24.148438 Z M 140.75 29.5 "/>
<path fill-rule="evenodd" fill="rgb(100%, 100%, 100%)" fill-opacity="1" d="M 148 29.5 L 155.300781 29.5 L 155.300781 24.148438 L 148 24.148438 Z M 148 29.5 "/>
<path fill-rule="evenodd" fill="rgb(100%, 100%, 100%)" fill-opacity="1" d="M 155.25 29.5 L 162.550781 29.5 L 162.550781 24.148438 L 155.25 24.148438 Z M 155.25 29.5 "/>
<path fill-rule="evenodd" fill="rgb(100%, 100%, 100%)" fill-opacity="1" d="M 162.5 29.5 L 169.800781 29.5 L 169.800781 24.148438 L 162.5 24.148438 Z M 162.5 29.5 "/>
<path fill-rule="evenodd" fill="rgb(100%, 100%, 100%)" fill-opacity="1" d="M 169.75 29.5 L 177.050781 29.5 L 177.050781 24.148438 L 169.75 24.148438 Z M 169.75 29.5 "/>
<path fill-rule="evenodd" fill="rgb(100%, 100%, 100%)" fill-opacity="1" d="M 3 34.800781 L 10.300781 34.800781 L 10.300781 29.449219 L 3 29.449219 Z M 3 34.800781 "/>
<path fill-rule="evenodd" fill="rgb(100%, 100%, 100%)" fill-opacity="1" d="M 10.25 34.800781 L 17.550781 34.800781 L 17.550781 29.449219 L 10.25 29.449219 Z M 10.25 34.800781 "/>
<path fill-rule="evenodd" fill="rgb(100%, 100%, 100%)" fill-opacity="1" d="M 17.5 34.800781 L 24.800781 34.800781 L 24.800781 29.449219 L 17.5 29.449219 Z M 17.5 34.800781 "/>
<path fill-rule="evenodd" fill="rgb(100%, 100%, 100%)" fill-opacity="1" d="M 24.75 34.800781 L 32.050781 34.800781 L 32.050781 29.449219 L 24.75 29.449219 Z M 24.75 34.800781 "/>
<path fill-rule="evenodd" fill="rgb(100%, 100%, 100%)" fill-opacity="1" d="M 32 34.800781 L 39.300781 34.800781 L 39.300781 29.449219 L 32 29.449219 Z M 32 34.800781 "/>
<path fill-rule="evenodd" fill="rgb(100%, 100%, 100%)" fill-opacity="1" d="M 39.25 34.800781 L 46.550781 34.800781 L 46.550781 29.449219 L 39.25 29.449219 Z M 39.25 34.800781 "/>
<path fill-rule="evenodd" fill="rgb(100%, 100%, 100%)" fill-opacity="1" d="M 46.5 34.800781 L 53.800781 34.800781 L 53.800781 29.449219 L 46.5 29.449219 Z M 46.5 34.800781 "/>
<path fill-rule="evenodd" fill="rgb(100%, 100%, 100%)" fill-opacity="1" d="M 53.75 34.800781 L 61.050781 34.800781 L 61.050781 29.449219 L 53.75 29.449219 Z M 53.75 34.800781 "/>
<path fill-rule="evenodd" fill="rgb(100%, 100%, 100%)" fill-opacity="1" d="M 61 34.800781 L 68.300781 34.800781 L 68.300781 29.449219 L 61 29.449219 Z M 61 34.800781 "/>
<path fill-rule="evenodd" fill="rgb(100%, 100%, 100%)" fill-opacity="1" d="M 68.25 34.800781 L 75.550781 34.800781 L 75.550781 29.449219 L 68.25 29.449219 Z M 68.25 34.800781 "/>
<path fill-rule="evenodd" fill="rgb(100%, 100%, 100%)" fill-opacity="1" d="M 75.5 34.800781 L 82.800781 34.800781 L 82.800781 29.449219 L 75.5 29.449219 Z M 75.5 34.800781 "/>
<path fill-rule="evenodd" fill="rgb(100%, 100%, 100%)" fill-opacity="1" d="M 82.75 34.800781 L 90.050781 34.800781 L 90.050781 29.449219 L 82.75 29.449219 Z M 82.75 34.800781 "/>
<path fill-rule="evenodd" fill="rgb(100%, 100%, 100%)" fill-opacity="1" d="M 90 34.800781 L 97.300781 34.800781 L 97.300781 29.449219 L 90 29.449219 Z M 90 34.800781 "/>
<path fill-rule="evenodd" fill="rgb(100%, 100%, 100%)" fill-opacity="1" d="M 97.25 34.800781 L 104.550781 34.800781 L 104.550781 29.449219 L 97.25 29.449219 Z M 97.25 34.800781 "/>
<path fill-rule="evenodd" fill="rgb(100%, 100%, 100%)" fill-opacity="1" d="M 104.5 34.800781 L 111.800781 34.800781 L 111.800781 29.449219 L 104.5 29.449219 Z M 104.5 34.800781 "/>
<path fill-rule="evenodd" fill="rgb(100%, 100%, 100%)" fill-opacity="1" d="M 111.75 34.800781 L 119.050781 34.800781 L 119.050781 29.449219 L 111.75 29.449219 Z M 111.75 34.800781 "/>
<path fill-rule="evenodd" fill="rgb(100%, 100%, 100%)" fill-opacity="1" d="M 119 34.800781 L 126.300781 34.800781 L 126.300781 29.449219 L 119 29.449219 Z M 119 34.800781 "/>
<path fill-rule="evenodd" fill="rgb(100%, 100%, 100%)" fill-opacity="1" d="M 126.25 34.800781 L 133.550781 34.800781 L 133.550781 29.449219 L 126.25 29.449219 Z M 126.25 34.800781 "/>
<path fill-rule="evenodd" fill="rgb(100%, 100%, 100%)" fill-opacity="1" d="M 133.5 34.800781 L 140.800781 34.800781 L 140.800781 29.449219 L 133.5 29.449219 Z M 133.5 34.800781 "/>
<path fill-rule="evenodd" fill="rgb(100%, 100%, 100%)" fill-opacity="1" d="M 140.75 34.800781 L 148.050781 34.800781 L 148.050781 29.449219 L 140.75 29.449219 Z M 140.75 34.800781 "/>
<path fill-rule="evenodd" fill="rgb(100%, 100%, 100%)" fill-opacity="1" d="M 148 34.800781 L 155.300781 34.800781 L 155.300781 29.449219 L 148 29.449219 Z M 148 34.800781 "/>
<path fill-rule="evenodd" fill="rgb(100%, 100%, 100%)" fill-opacity="1" d="M 155.25 34.800781 L 162.550781 34.800781 L 162.550781 29.449219 L 155.25 29.449219 Z M 155.25 34.800781 "/>
<path fill-rule="evenodd" fill="rgb(100%, 100%, 100%)" fill-opacity="1" d="M 162.5 34.800781 L 169.800781 34.800781 L 169.800781 29.449219 L 162.5 29.449219 Z M 162.5 34.800781 "/>
<path fill-rule="evenodd" fill="rgb(100%, 100%, 100%)" fill-opacity="1" d="M 169.75 34.800781 L 177.050781 34.800781 L 177.050781 29.449219 L 169.75 29.449219 Z M 169.75 34.800781 "/>
<path fill-rule="evenodd" fill="rgb(100%, 100%, 100%)" fill-opacity="1" d="M 3 40.101562 L 10.300781 40.101562 L 10.300781 34.75 L 3 34.75 Z M 3 40.101562 "/>
<path fill-rule="evenodd" fill="rgb(100%, 100%, 100%)" fill-opacity="1" d="M 10.25 40.101562 L 17.550781 40.101562 L 17.550781 34.75 L 10.25 34.75 Z M 10.25 40.101562 "/>
<path fill-rule="evenodd" fill="rgb(100%, 100%, 100%)" fill-opacity="1" d="M 17.5 40.101562 L 24.800781 40.101562 L 24.800781 34.75 L 17.5 34.75 Z M 17.5 40.101562 "/>
<path fill-rule="evenodd" fill="rgb(100%, 100%, 100%)" fill-opacity="1" d="M 24.75 40.101562 L 32.050781 40.101562 L 32.050781 34.75 L 24.75 34.75 Z M 24.75 40.101562 "/>
<path fill-rule="evenodd" fill="rgb(100%, 100%, 100%)" fill-opacity="1" d="M 32 40.101562 L 39.300781 40.101562 L 39.300781 34.75 L 32 34.75 Z M 32 40.101562 "/>
<path fill-rule="evenodd" fill="rgb(100%, 100%, 100%)" fill-opacity="1" d="M 39.25 40.101562 L 46.550781 40.101562 L 46.550781 34.75 L 39.25 34.75 Z M 39.25 40.101562 "/>
<path fill-rule="evenodd" fill="rgb(100%, 100%, 100%)" fill-opacity="1" d="M 46.5 40.101562 L 53.800781 40.101562 L 53.800781 34.75 L 46.5 34.75 Z M 46.5 40.101562 "/>
<path fill-rule="evenodd" fill="rgb(100%, 100%, 100%)" fill-opacity="1" d="M 53.75 40.101562 L 61.050781 40.101562 L 61.050781 34.75 L 53.75 34.75 Z M 53.75 40.101562 "/>
<path fill-rule="evenodd" fill="rgb(100%, 100%, 100%)" fill-opacity="1" d="M 61 40.101562 L 68.300781 40.101562 L 68.300781 34.75 L 61 34.75 Z M 61 40.101562 "/>
<path fill-rule="evenodd" fill="rgb(100%, 100%, 100%)" fill-opacity="1" d="M 68.25 40.101562 L 75.550781 40.101562 L 75.550781 34.75 L 68.25 34.75 Z M 68.25 40.101562 "/>
<path fill-rule="evenodd" fill="rgb(100%, 100%, 100%)" fill-opacity="1" d="M 75.5 40.101562 L 82.800781 40.101562 L 82.800781 34.75 L 75.5 34.75 Z M 75.5 40.101562 "/>
<path fill-rule="evenodd" fill="rgb(100%, 100%, 100%)" fill-opacity="1" d="M 82.75 40.101562 L 90.050781 40.101562 L 90.050781 34.75 L 82.75 34.75 Z M 82.75 40.101562 "/>
<path fill-rule="evenodd" fill="rgb(100%, 100%, 100%)" fill-opacity="1" d="M 90 40.101562 L 97.300781 40.101562 L 97.300781 34.75 L 90 34.75 Z M 90 40.101562 "/>
<path fill-rule="evenodd" fill="rgb(100%, 100%, 100%)" fill-opacity="1" d="M 97.25 40.101562 L 104.550781 40.101562 L 104.550781 34.75 L 97.25 34.75 Z M 97.25 40.101562 "/>
<path fill-rule="evenodd" fill="rgb(100%, 100%, 100%)" fill-opacity="1" d="M 104.5 40.101562 L 111.800781 40.101562 L 111.800781 34.75 L 104.5 34.75 Z M 104.5 40.101562 "/>
<path fill-rule="evenodd" fill="rgb(100%, 100%, 100%)" fill-opacity="1" d="M 111.75 40.101562 L 119.050781 40.101562 L 119.050781 34.75 L 111.75 34.75 Z M 111.75 40.101562 "/>
<path fill-rule="evenodd" fill="rgb(100%, 100%, 100%)" fill-opacity="1" d="M 119 40.101562 L 126.300781 40.101562 L 126.300781 34.75 L 119 34.75 Z M 119 40.101562 "/>
<path fill-rule="evenodd" fill="rgb(100%, 100%, 100%)" fill-opacity="1" d="M 126.25 40.101562 L 133.550781 40.101562 L 133.550781 34.75 L 126.25 34.75 Z M 126.25 40.101562 "/>
<path fill-rule="evenodd" fill="rgb(100%, 100%, 100%)" fill-opacity="1" d="M 133.5 40.101562 L 140.800781 40.101562 L 140.800781 34.75 L 133.5 34.75 Z M 133.5 40.101562 "/>
<path fill-rule="evenodd" fill="rgb(100%, 100%, 100%)" fill-opacity="1" d="M 140.75 40.101562 L 148.050781 40.101562 L 148.050781 34.75 L 140.75 34.75 Z M 140.75 40.101562 "/>
<path fill-rule="evenodd" fill="rgb(100%, 100%, 100%)" fill-opacity="1" d="M 148 40.101562 L 155.300781 40.101562 L 155.300781 34.75 L 148 34.75 Z M 148 40.101562 "/>
<path fill-rule="evenodd" fill="rgb(100%, 100%, 100%)" fill-opacity="1" d="M 155.25 40.101562 L 162.550781 40.101562 L 162.550781 34.75 L 155.25 34.75 Z M 155.25 40.101562 "/>
<path fill-rule="evenodd" fill="rgb(100%, 100%, 100%)" fill-opacity="1" d="M 162.5 40.101562 L 169.800781 40.101562 L 169.800781 34.75 L 162.5 34.75 Z M 162.5 40.101562 "/>
<path fill-rule="evenodd" fill="rgb(100%, 100%, 100%)" fill-opacity="1" d="M 169.75 40.101562 L 177.050781 40.101562 L 177.050781 34.75 L 169.75 34.75 Z M 169.75 40.101562 "/>
<path fill-rule="evenodd" fill="rgb(100%, 100%, 100%)" fill-opacity="1" d="M 3 45.398438 L 10.300781 45.398438 L 10.300781 40.050781 L 3 40.050781 Z M 3 45.398438 "/>
<path fill-rule="evenodd" fill="rgb(100%, 100%, 100%)" fill-opacity="1" d="M 10.25 45.398438 L 17.550781 45.398438 L 17.550781 40.050781 L 10.25 40.050781 Z M 10.25 45.398438 "/>
<path fill-rule="evenodd" fill="rgb(100%, 100%, 100%)" fill-opacity="1" d="M 17.5 45.398438 L 24.800781 45.398438 L 24.800781 40.050781 L 17.5 40.050781 Z M 17.5 45.398438 "/>
<path fill-rule="evenodd" fill="rgb(100%, 100%, 100%)" fill-opacity="1" d="M 24.75 45.398438 L 32.050781 45.398438 L 32.050781 40.050781 L 24.75 40.050781 Z M 24.75 45.398438 "/>
<path fill-rule="evenodd" fill="rgb(100%, 100%, 100%)" fill-opacity="1" d="M 32 45.398438 L 39.300781 45.398438 L 39.300781 40.050781 L 32 40.050781 Z M 32 45.398438 "/>
<path fill-rule="evenodd" fill="rgb(100%, 100%, 100%)" fill-opacity="1" d="M 39.25 45.398438 L 46.550781 45.398438 L 46.550781 40.050781 L 39.25 40.050781 Z M 39.25 45.398438 "/>
<path fill-rule="evenodd" fill="rgb(100%, 100%, 100%)" fill-opacity="1" d="M 46.5 45.398438 L 53.800781 45.398438 L 53.800781 40.050781 L 46.5 40.050781 Z M 46.5 45.398438 "/>
<path fill-rule="evenodd" fill="rgb(100%, 100%, 100%)" fill-opacity="1" d="M 53.75 45.398438 L 61.050781 45.398438 L 61.050781 40.050781 L 53.75 40.050781 Z M 53.75 45.398438 "/>
<path fill-rule="evenodd" fill="rgb(100%, 100%, 100%)" fill-opacity="1" d="M 61 45.398438 L 68.300781 45.398438 L 68.300781 40.050781 L 61 40.050781 Z M 61 45.398438 "/>
<path fill-rule="evenodd" fill="rgb(100%, 100%, 100%)" fill-opacity="1" d="M 68.25 45.398438 L 75.550781 45.398438 L 75.550781 40.050781 L 68.25 40.050781 Z M 68.25 45.398438 "/>
<path fill-rule="evenodd" fill="rgb(100%, 100%, 100%)" fill-opacity="1" d="M 75.5 45.398438 L 82.800781 45.398438 L 82.800781 40.050781 L 75.5 40.050781 Z M 75.5 45.398438 "/>
<path fill-rule="evenodd" fill="rgb(100%, 100%, 100%)" fill-opacity="1" d="M 82.75 45.398438 L 90.050781 45.398438 L 90.050781 40.050781 L 82.75 40.050781 Z M 82.75 45.398438 "/>
<path fill-rule="evenodd" fill="rgb(100%, 100%, 100%)" fill-opacity="1" d="M 90 45.398438 L 97.300781 45.398438 L 97.300781 40.050781 L 90 40.050781 Z M 90 45.398438 "/>
<path fill-rule="evenodd" fill="rgb(100%, 100%, 100%)" fill-opacity="1" d="M 97.25 45.398438 L 104.550781 45.398438 L 104.550781 40.050781 L 97.25 40.050781 Z M 97.25 45.398438 "/>
<path fill-rule="evenodd" fill="rgb(100%, 100%, 100%)" fill-opacity="1" d="M 104.5 45.398438 L 111.800781 45.398438 L 111.800781 40.050781 L 104.5 40.050781 Z M 104.5 45.398438 "/>
<path fill-rule="evenodd" fill="rgb(100%, 100%, 100%)" fill-opacity="1" d="M 111.75 45.398438 L 119.050781 45.398438 L 119.050781 40.050781 L 111.75 40.050781 Z M 111.75 45.398438 "/>
<path fill-rule="evenodd" fill="rgb(100%, 100%, 100%)" fill-opacity="1" d="M 119 45.398438 L 126.300781 45.398438 L 126.300781 40.050781 L 119 40.050781 Z M 119 45.398438 "/>
<path fill-rule="evenodd" fill="rgb(100%, 100%, 100%)" fill-opacity="1" d="M 126.25 45.398438 L 133.550781 45.398438 L 133.550781 40.050781 L 126.25 40.050781 Z M 126.25 45.398438 "/>
<path fill-rule="evenodd" fill="rgb(100%, 100%, 100%)" fill-opacity="1" d="M 133.5 45.398438 L 140.800781 45.398438 L 140.800781 40.050781 L 133.5 40.050781 Z M 133.5 45.398438 "/>
<path fill-rule="evenodd" fill="rgb(100%, 100%, 100%)" fill-opacity="1" d="M 140.75 45.398438 L 148.050781 45.398438 L 148.050781 40.050781 L 140.75 40.050781 Z M 140.75 45.398438 "/>
<path fill-rule="evenodd" fill="rgb(100%, 100%, 100%)" fill-opacity="1" d="M 148 45.398438 L 155.300781 45.398438 L 155.300781 40.050781 L 148 40.050781 Z M 148 45.398438 "/>
<path fill-rule="evenodd" fill="rgb(100%, 100%, 100%)" fill-opacity="1" d="M 155.25 45.398438 L 162.550781 45.398438 L 162.550781 40.050781 L 155.25 40.050781 Z M 155.25 45.398438 "/>
<path fill-rule="evenodd" fill="rgb(100%, 100%, 100%)" fill-opacity="1" d="M 162.5 45.398438 L 169.800781 45.398438 L 169.800781 40.050781 L 162.5 40.050781 Z M 162.5 45.398438 "/>
<path fill-rule="evenodd" fill="rgb(100%, 100%, 100%)" fill-opacity="1" d="M 169.75 45.398438 L 177.050781 45.398438 L 177.050781 40.050781 L 169.75 40.050781 Z M 169.75 45.398438 "/>
<path fill-rule="evenodd" fill="rgb(100%, 100%, 100%)" fill-opacity="1" d="M 3 50.699219 L 10.300781 50.699219 L 10.300781 45.351562 L 3 45.351562 Z M 3 50.699219 "/>
<path fill-rule="evenodd" fill="rgb(100%, 100%, 100%)" fill-opacity="1" d="M 10.25 50.699219 L 17.550781 50.699219 L 17.550781 45.351562 L 10.25 45.351562 Z M 10.25 50.699219 "/>
<path fill-rule="evenodd" fill="rgb(100%, 100%, 100%)" fill-opacity="1" d="M 17.5 50.699219 L 24.800781 50.699219 L 24.800781 45.351562 L 17.5 45.351562 Z M 17.5 50.699219 "/>
<path fill-rule="evenodd" fill="rgb(100%, 100%, 100%)" fill-opacity="1" d="M 24.75 50.699219 L 32.050781 50.699219 L 32.050781 45.351562 L 24.75 45.351562 Z M 24.75 50.699219 "/>
<path fill-rule="evenodd" fill="rgb(100%, 100%, 100%)" fill-opacity="1" d="M 32 50.699219 L 39.300781 50.699219 L 39.300781 45.351562 L 32 45.351562 Z M 32 50.699219 "/>
<path fill-rule="evenodd" fill="rgb(100%, 100%, 100%)" fill-opacity="1" d="M 39.25 50.699219 L 46.550781 50.699219 L 46.550781 45.351562 L 39.25 45.351562 Z M 39.25 50.699219 "/>
<path fill-rule="evenodd" fill="rgb(100%, 100%, 100%)" fill-opacity="1" d="M 46.5 50.699219 L 53.800781 50.699219 L 53.800781 45.351562 L 46.5 45.351562 Z M 46.5 50.699219 "/>
<path fill-rule="evenodd" fill="rgb(100%, 100%, 100%)" fill-opacity="1" d="M 53.75 50.699219 L 61.050781 50.699219 L 61.050781 45.351562 L 53.75 45.351562 Z M 53.75 50.699219 "/>
<path fill-rule="evenodd" fill="rgb(100%, 100%, 100%)" fill-opacity="1" d="M 61 50.699219 L 68.300781 50.699219 L 68.300781 45.351562 L 61 45.351562 Z M 61 50.699219 "/>
<path fill-rule="evenodd" fill="rgb(100%, 100%, 100%)" fill-opacity="1" d="M 68.25 50.699219 L 75.550781 50.699219 L 75.550781 45.351562 L 68.25 45.351562 Z M 68.25 50.699219 "/>
<path fill-rule="evenodd" fill="rgb(100%, 100%, 100%)" fill-opacity="1" d="M 75.5 50.699219 L 82.800781 50.699219 L 82.800781 45.351562 L 75.5 45.351562 Z M 75.5 50.699219 "/>
<path fill-rule="evenodd" fill="rgb(100%, 100%, 100%)" fill-opacity="1" d="M 82.75 50.699219 L 90.050781 50.699219 L 90.050781 45.351562 L 82.75 45.351562 Z M 82.75 50.699219 "/>
<path fill-rule="evenodd" fill="rgb(100%, 100%, 100%)" fill-opacity="1" d="M 90 50.699219 L 97.300781 50.699219 L 97.300781 45.351562 L 90 45.351562 Z M 90 50.699219 "/>
<path fill-rule="evenodd" fill="rgb(100%, 100%, 100%)" fill-opacity="1" d="M 97.25 50.699219 L 104.550781 50.699219 L 104.550781 45.351562 L 97.25 45.351562 Z M 97.25 50.699219 "/>
<path fill-rule="evenodd" fill="rgb(100%, 100%, 100%)" fill-opacity="1" d="M 104.5 50.699219 L 111.800781 50.699219 L 111.800781 45.351562 L 104.5 45.351562 Z M 104.5 50.699219 "/>
<path fill-rule="evenodd" fill="rgb(100%, 100%, 100%)" fill-opacity="1" d="M 111.75 50.699219 L 119.050781 50.699219 L 119.050781 45.351562 L 111.75 45.351562 Z M 111.75 50.699219 "/>
<path fill-rule="evenodd" fill="rgb(100%, 100%, 100%)" fill-opacity="1" d="M 119 50.699219 L 126.300781 50.699219 L 126.300781 45.351562 L 119 45.351562 Z M 119 50.699219 "/>
<path fill-rule="evenodd" fill="rgb(100%, 100%, 100%)" fill-opacity="1" d="M 126.25 50.699219 L 133.550781 50.699219 L 133.550781 45.351562 L 126.25 45.351562 Z M 126.25 50.699219 "/>
<path fill-rule="evenodd" fill="rgb(100%, 100%, 100%)" fill-opacity="1" d="M 133.5 50.699219 L 140.800781 50.699219 L 140.800781 45.351562 L 133.5 45.351562 Z M 133.5 50.699219 "/>
<path fill-rule="evenodd" fill="rgb(100%, 100%, 100%)" fill-opacity="1" d="M 140.75 50.699219 L 148.050781 50.699219 L 148.050781 45.351562 L 140.75 45.351562 Z M 140.75 50.699219 "/>
<path fill-rule="evenodd" fill="rgb(100%, 100%, 100%)" fill-opacity="1" d="M 148 50.699219 L 155.300781 50.699219 L 155.300781 45.351562 L 148 45.351562 Z M 148 50.699219 "/>
<path fill-rule="evenodd" fill="rgb(100%, 100%, 100%)" fill-opacity="1" d="M 155.25 50.699219 L 162.550781 50.699219 L 162.550781 45.351562 L 155.25 45.351562 Z M 155.25 50.699219 "/>
<path fill-rule="evenodd" fill="rgb(100%, 100%, 100%)" fill-opacity="1" d="M 162.5 50.699219 L 169.800781 50.699219 L 169.800781 45.351562 L 162.5 45.351562 Z M 162.5 50.699219 "/>
<path fill-rule="evenodd" fill="rgb(100%, 100%, 100%)" fill-opacity="1" d="M 169.75 50.699219 L 177.050781 50.699219 L 177.050781 45.351562 L 169.75 45.351562 Z M 169.75 50.699219 "/>
<path fill-rule="evenodd" fill="rgb(100%, 100%, 100%)" fill-opacity="1" d="M 3 56 L 10.300781 56 L 10.300781 50.648438 L 3 50.648438 Z M 3 56 "/>
<path fill-rule="evenodd" fill="rgb(100%, 100%, 100%)" fill-opacity="1" d="M 10.25 56 L 17.550781 56 L 17.550781 50.648438 L 10.25 50.648438 Z M 10.25 56 "/>
<path fill-rule="evenodd" fill="rgb(100%, 100%, 100%)" fill-opacity="1" d="M 17.5 56 L 24.800781 56 L 24.800781 50.648438 L 17.5 50.648438 Z M 17.5 56 "/>
<path fill-rule="evenodd" fill="rgb(100%, 100%, 100%)" fill-opacity="1" d="M 24.75 56 L 32.050781 56 L 32.050781 50.648438 L 24.75 50.648438 Z M 24.75 56 "/>
<path fill-rule="evenodd" fill="rgb(100%, 100%, 100%)" fill-opacity="1" d="M 32 56 L 39.300781 56 L 39.300781 50.648438 L 32 50.648438 Z M 32 56 "/>
<path fill-rule="evenodd" fill="rgb(100%, 100%, 100%)" fill-opacity="1" d="M 39.25 56 L 46.550781 56 L 46.550781 50.648438 L 39.25 50.648438 Z M 39.25 56 "/>
<path fill-rule="evenodd" fill="rgb(100%, 100%, 100%)" fill-opacity="1" d="M 46.5 56 L 53.800781 56 L 53.800781 50.648438 L 46.5 50.648438 Z M 46.5 56 "/>
<path fill-rule="evenodd" fill="rgb(100%, 100%, 100%)" fill-opacity="1" d="M 53.75 56 L 61.050781 56 L 61.050781 50.648438 L 53.75 50.648438 Z M 53.75 56 "/>
<path fill-rule="evenodd" fill="rgb(100%, 100%, 100%)" fill-opacity="1" d="M 61 56 L 68.300781 56 L 68.300781 50.648438 L 61 50.648438 Z M 61 56 "/>
<path fill-rule="evenodd" fill="rgb(100%, 100%, 100%)" fill-opacity="1" d="M 68.25 56 L 75.550781 56 L 75.550781 50.648438 L 68.25 50.648438 Z M 68.25 56 "/>
<path fill-rule="evenodd" fill="rgb(100%, 100%, 100%)" fill-opacity="1" d="M 75.5 56 L 82.800781 56 L 82.800781 50.648438 L 75.5 50.648438 Z M 75.5 56 "/>
<path fill-rule="evenodd" fill="rgb(100%, 100%, 100%)" fill-opacity="1" d="M 82.75 56 L 90.050781 56 L 90.050781 50.648438 L 82.75 50.648438 Z M 82.75 56 "/>
<path fill-rule="evenodd" fill="rgb(100%, 100%, 100%)" fill-opacity="1" d="M 90 56 L 97.300781 56 L 97.300781 50.648438 L 90 50.648438 Z M 90 56 "/>
<path fill-rule="evenodd" fill="rgb(100%, 100%, 100%)" fill-opacity="1" d="M 97.25 56 L 104.550781 56 L 104.550781 50.648438 L 97.25 50.648438 Z M 97.25 56 "/>
<path fill-rule="evenodd" fill="rgb(100%, 100%, 100%)" fill-opacity="1" d="M 104.5 56 L 111.800781 56 L 111.800781 50.648438 L 104.5 50.648438 Z M 104.5 56 "/>
<path fill-rule="evenodd" fill="rgb(100%, 100%, 100%)" fill-opacity="1" d="M 111.75 56 L 119.050781 56 L 119.050781 50.648438 L 111.75 50.648438 Z M 111.75 56 "/>
<path fill-rule="evenodd" fill="rgb(100%, 100%, 100%)" fill-opacity="1" d="M 119 56 L 126.300781 56 L 126.300781 50.648438 L 119 50.648438 Z M 119 56 "/>
<path fill-rule="evenodd" fill="rgb(100%, 100%, 100%)" fill-opacity="1" d="M 126.25 56 L 133.550781 56 L 133.550781 50.648438 L 126.25 50.648438 Z M 126.25 56 "/>
<path fill-rule="evenodd" fill="rgb(100%, 100%, 100%)" fill-opacity="1" d="M 133.5 56 L 140.800781 56 L 140.800781 50.648438 L 133.5 50.648438 Z M 133.5 56 "/>
<path fill-rule="evenodd" fill="rgb(100%, 100%, 100%)" fill-opacity="1" d="M 140.75 56 L 148.050781 56 L 148.050781 50.648438 L 140.75 50.648438 Z M 140.75 56 "/>
<path fill-rule="evenodd" fill="rgb(100%, 100%, 100%)" fill-opacity="1" d="M 148 56 L 155.300781 56 L 155.300781 50.648438 L 148 50.648438 Z M 148 56 "/>
<path fill-rule="evenodd" fill="rgb(100%, 100%, 100%)" fill-opacity="1" d="M 155.25 56 L 162.550781 56 L 162.550781 50.648438 L 155.25 50.648438 Z M 155.25 56 "/>
<path fill-rule="evenodd" fill="rgb(100%, 100%, 100%)" fill-opacity="1" d="M 162.5 56 L 169.800781 56 L 169.800781 50.648438 L 162.5 50.648438 Z M 162.5 56 "/>
<path fill-rule="evenodd" fill="rgb(100%, 100%, 100%)" fill-opacity="1" d="M 169.75 56 L 177.050781 56 L 177.050781 50.648438 L 169.75 50.648438 Z M 169.75 56 "/>
<path fill-rule="evenodd" fill="rgb(100%, 100%, 100%)" fill-opacity="1" d="M 3 61.300781 L 10.300781 61.300781 L 10.300781 55.949219 L 3 55.949219 Z M 3 61.300781 "/>
<path fill-rule="evenodd" fill="rgb(100%, 100%, 100%)" fill-opacity="1" d="M 10.25 61.300781 L 17.550781 61.300781 L 17.550781 55.949219 L 10.25 55.949219 Z M 10.25 61.300781 "/>
<path fill-rule="evenodd" fill="rgb(100%, 100%, 100%)" fill-opacity="1" d="M 17.5 61.300781 L 24.800781 61.300781 L 24.800781 55.949219 L 17.5 55.949219 Z M 17.5 61.300781 "/>
<path fill-rule="evenodd" fill="rgb(100%, 100%, 100%)" fill-opacity="1" d="M 24.75 61.300781 L 32.050781 61.300781 L 32.050781 55.949219 L 24.75 55.949219 Z M 24.75 61.300781 "/>
<path fill-rule="evenodd" fill="rgb(100%, 100%, 100%)" fill-opacity="1" d="M 32 61.300781 L 39.300781 61.300781 L 39.300781 55.949219 L 32 55.949219 Z M 32 61.300781 "/>
<path fill-rule="evenodd" fill="rgb(100%, 100%, 100%)" fill-opacity="1" d="M 39.25 61.300781 L 46.550781 61.300781 L 46.550781 55.949219 L 39.25 55.949219 Z M 39.25 61.300781 "/>
<path fill-rule="evenodd" fill="rgb(100%, 100%, 100%)" fill-opacity="1" d="M 46.5 61.300781 L 53.800781 61.300781 L 53.800781 55.949219 L 46.5 55.949219 Z M 46.5 61.300781 "/>
<path fill-rule="evenodd" fill="rgb(100%, 100%, 100%)" fill-opacity="1" d="M 53.75 61.300781 L 61.050781 61.300781 L 61.050781 55.949219 L 53.75 55.949219 Z M 53.75 61.300781 "/>
<path fill-rule="evenodd" fill="rgb(100%, 100%, 100%)" fill-opacity="1" d="M 61 61.300781 L 68.300781 61.300781 L 68.300781 55.949219 L 61 55.949219 Z M 61 61.300781 "/>
<path fill-rule="evenodd" fill="rgb(100%, 100%, 100%)" fill-opacity="1" d="M 68.25 61.300781 L 75.550781 61.300781 L 75.550781 55.949219 L 68.25 55.949219 Z M 68.25 61.300781 "/>
<path fill-rule="evenodd" fill="rgb(100%, 100%, 100%)" fill-opacity="1" d="M 75.5 61.300781 L 82.800781 61.300781 L 82.800781 55.949219 L 75.5 55.949219 Z M 75.5 61.300781 "/>
<path fill-rule="evenodd" fill="rgb(100%, 100%, 100%)" fill-opacity="1" d="M 82.75 61.300781 L 90.050781 61.300781 L 90.050781 55.949219 L 82.75 55.949219 Z M 82.75 61.300781 "/>
<path fill-rule="evenodd" fill="rgb(100%, 100%, 100%)" fill-opacity="1" d="M 90 61.300781 L 97.300781 61.300781 L 97.300781 55.949219 L 90 55.949219 Z M 90 61.300781 "/>
<path fill-rule="evenodd" fill="rgb(100%, 100%, 100%)" fill-opacity="1" d="M 97.25 61.300781 L 104.550781 61.300781 L 104.550781 55.949219 L 97.25 55.949219 Z M 97.25 61.300781 "/>
<path fill-rule="evenodd" fill="rgb(100%, 100%, 100%)" fill-opacity="1" d="M 104.5 61.300781 L 111.800781 61.300781 L 111.800781 55.949219 L 104.5 55.949219 Z M 104.5 61.300781 "/>
<path fill-rule="evenodd" fill="rgb(100%, 100%, 100%)" fill-opacity="1" d="M 111.75 61.300781 L 119.050781 61.300781 L 119.050781 55.949219 L 111.75 55.949219 Z M 111.75 61.300781 "/>
<path fill-rule="evenodd" fill="rgb(100%, 100%, 100%)" fill-opacity="1" d="M 119 61.300781 L 126.300781 61.300781 L 126.300781 55.949219 L 119 55.949219 Z M 119 61.300781 "/>
<path fill-rule="evenodd" fill="rgb(100%, 100%, 100%)" fill-opacity="1" d="M 126.25 61.300781 L 133.550781 61.300781 L 133.550781 55.949219 L 126.25 55.949219 Z M 126.25 61.300781 "/>
<path fill-rule="evenodd" fill="rgb(100%, 100%, 100%)" fill-opacity="1" d="M 133.5 61.300781 L 140.800781 61.300781 L 140.800781 55.949219 L 133.5 55.949219 Z M 133.5 61.300781 "/>
<path fill-rule="evenodd" fill="rgb(100%, 100%, 100%)" fill-opacity="1" d="M 140.75 61.300781 L 148.050781 61.300781 L 148.050781 55.949219 L 140.75 55.949219 Z M 140.75 61.300781 "/>
<path fill-rule="evenodd" fill="rgb(100%, 100%, 100%)" fill-opacity="1" d="M 148 61.300781 L 155.300781 61.300781 L 155.300781 55.949219 L 148 55.949219 Z M 148 61.300781 "/>
<path fill-rule="evenodd" fill="rgb(100%, 100%, 100%)" fill-opacity="1" d="M 155.25 61.300781 L 162.550781 61.300781 L 162.550781 55.949219 L 155.25 55.949219 Z M 155.25 61.300781 "/>
<path fill-rule="evenodd" fill="rgb(100%, 100%, 100%)" fill-opacity="1" d="M 162.5 61.300781 L 169.800781 61.300781 L 169.800781 55.949219 L 162.5 55.949219 Z M 162.5 61.300781 "/>
<path fill-rule="evenodd" fill="rgb(100%, 100%, 100%)" fill-opacity="1" d="M 169.75 61.300781 L 177.050781 61.300781 L 177.050781 55.949219 L 169.75 55.949219 Z M 169.75 61.300781 "/>
<path fill-rule="evenodd" fill="rgb(65.097046%, 74.900818%, 96.861267%)" fill-opacity="1" d="M 3 66.601562 L 10.300781 66.601562 L 10.300781 61.25 L 3 61.25 Z M 3 66.601562 "/>
<path fill-rule="evenodd" fill="rgb(65.881348%, 75.68512%, 96.861267%)" fill-opacity="1" d="M 10.25 66.601562 L 17.550781 66.601562 L 17.550781 61.25 L 10.25 61.25 Z M 10.25 66.601562 "/>
<path fill-rule="evenodd" fill="rgb(67.0578%, 76.469421%, 96.861267%)" fill-opacity="1" d="M 17.5 66.601562 L 24.800781 66.601562 L 24.800781 61.25 L 17.5 61.25 Z M 17.5 66.601562 "/>
<path fill-rule="evenodd" fill="rgb(67.842102%, 76.861572%, 96.861267%)" fill-opacity="1" d="M 24.75 66.601562 L 32.050781 66.601562 L 32.050781 61.25 L 24.75 61.25 Z M 24.75 66.601562 "/>
<path fill-rule="evenodd" fill="rgb(68.626404%, 77.253723%, 97.253418%)" fill-opacity="1" d="M 32 66.601562 L 39.300781 66.601562 L 39.300781 61.25 L 32 61.25 Z M 32 66.601562 "/>
<path fill-rule="evenodd" fill="rgb(69.018555%, 78.038025%, 97.253418%)" fill-opacity="1" d="M 39.25 66.601562 L 46.550781 66.601562 L 46.550781 61.25 L 39.25 61.25 Z M 39.25 66.601562 "/>
<path fill-rule="evenodd" fill="rgb(70.979309%, 79.214478%, 97.253418%)" fill-opacity="1" d="M 46.5 66.601562 L 53.800781 66.601562 L 53.800781 61.25 L 46.5 61.25 Z M 46.5 66.601562 "/>
<path fill-rule="evenodd" fill="rgb(72.940063%, 80.39093%, 97.647095%)" fill-opacity="1" d="M 53.75 66.601562 L 61.050781 66.601562 L 61.050781 61.25 L 53.75 61.25 Z M 53.75 66.601562 "/>
<path fill-rule="evenodd" fill="rgb(73.332214%, 80.783081%, 97.647095%)" fill-opacity="1" d="M 61 66.601562 L 68.300781 66.601562 L 68.300781 61.25 L 61 61.25 Z M 61 66.601562 "/>
<path fill-rule="evenodd" fill="rgb(72.155762%, 79.998779%, 97.253418%)" fill-opacity="1" d="M 68.25 66.601562 L 75.550781 66.601562 L 75.550781 61.25 L 68.25 61.25 Z M 68.25 66.601562 "/>
<path fill-rule="evenodd" fill="rgb(71.37146%, 79.606628%, 97.253418%)" fill-opacity="1" d="M 75.5 66.601562 L 82.800781 66.601562 L 82.800781 61.25 L 75.5 61.25 Z M 75.5 66.601562 "/>
<path fill-rule="evenodd" fill="rgb(70.979309%, 79.214478%, 97.253418%)" fill-opacity="1" d="M 82.75 66.601562 L 90.050781 66.601562 L 90.050781 61.25 L 82.75 61.25 Z M 82.75 66.601562 "/>
<path fill-rule="evenodd" fill="rgb(70.979309%, 79.214478%, 97.253418%)" fill-opacity="1" d="M 90 66.601562 L 97.300781 66.601562 L 97.300781 61.25 L 90 61.25 Z M 90 66.601562 "/>
<path fill-rule="evenodd" fill="rgb(70.979309%, 79.214478%, 97.253418%)" fill-opacity="1" d="M 97.25 66.601562 L 104.550781 66.601562 L 104.550781 61.25 L 97.25 61.25 Z M 97.25 66.601562 "/>
<path fill-rule="evenodd" fill="rgb(70.587158%, 79.214478%, 97.253418%)" fill-opacity="1" d="M 104.5 66.601562 L 111.800781 66.601562 L 111.800781 61.25 L 104.5 61.25 Z M 104.5 66.601562 "/>
<path fill-rule="evenodd" fill="rgb(70.195007%, 78.822327%, 97.253418%)" fill-opacity="1" d="M 111.75 66.601562 L 119.050781 66.601562 L 119.050781 61.25 L 111.75 61.25 Z M 111.75 66.601562 "/>
<path fill-rule="evenodd" fill="rgb(69.410706%, 78.038025%, 97.253418%)" fill-opacity="1" d="M 119 66.601562 L 126.300781 66.601562 L 126.300781 61.25 L 119 61.25 Z M 119 66.601562 "/>
<path fill-rule="evenodd" fill="rgb(68.234253%, 77.253723%, 97.253418%)" fill-opacity="1" d="M 126.25 66.601562 L 133.550781 66.601562 L 133.550781 61.25 L 126.25 61.25 Z M 126.25 66.601562 "/>
<path fill-rule="evenodd" fill="rgb(67.842102%, 76.861572%, 96.861267%)" fill-opacity="1" d="M 133.5 66.601562 L 140.800781 66.601562 L 140.800781 61.25 L 133.5 61.25 Z M 133.5 66.601562 "/>
<path fill-rule="evenodd" fill="rgb(66.273499%, 76.077271%, 96.861267%)" fill-opacity="1" d="M 140.75 66.601562 L 148.050781 66.601562 L 148.050781 61.25 L 140.75 61.25 Z M 140.75 66.601562 "/>
<path fill-rule="evenodd" fill="rgb(65.489197%, 75.292969%, 96.861267%)" fill-opacity="1" d="M 148 66.601562 L 155.300781 66.601562 L 155.300781 61.25 L 148 61.25 Z M 148 66.601562 "/>
<path fill-rule="evenodd" fill="rgb(64.312744%, 74.508667%, 96.861267%)" fill-opacity="1" d="M 155.25 66.601562 L 162.550781 66.601562 L 162.550781 61.25 L 155.25 61.25 Z M 155.25 66.601562 "/>
<path fill-rule="evenodd" fill="rgb(63.920593%, 74.116516%, 96.861267%)" fill-opacity="1" d="M 162.5 66.601562 L 169.800781 66.601562 L 169.800781 61.25 L 162.5 61.25 Z M 162.5 66.601562 "/>
<path fill-rule="evenodd" fill="rgb(63.528442%, 74.116516%, 96.469116%)" fill-opacity="1" d="M 169.75 66.601562 L 177.050781 66.601562 L 177.050781 61.25 L 169.75 61.25 Z M 169.75 66.601562 "/>
<path fill-rule="evenodd" fill="rgb(100%, 100%, 100%)" fill-opacity="1" d="M 3 71.898438 L 10.300781 71.898438 L 10.300781 66.550781 L 3 66.550781 Z M 3 71.898438 "/>
<path fill-rule="evenodd" fill="rgb(100%, 100%, 100%)" fill-opacity="1" d="M 10.25 71.898438 L 17.550781 71.898438 L 17.550781 66.550781 L 10.25 66.550781 Z M 10.25 71.898438 "/>
<path fill-rule="evenodd" fill="rgb(100%, 100%, 100%)" fill-opacity="1" d="M 17.5 71.898438 L 24.800781 71.898438 L 24.800781 66.550781 L 17.5 66.550781 Z M 17.5 71.898438 "/>
<path fill-rule="evenodd" fill="rgb(100%, 100%, 100%)" fill-opacity="1" d="M 24.75 71.898438 L 32.050781 71.898438 L 32.050781 66.550781 L 24.75 66.550781 Z M 24.75 71.898438 "/>
<path fill-rule="evenodd" fill="rgb(100%, 100%, 100%)" fill-opacity="1" d="M 32 71.898438 L 39.300781 71.898438 L 39.300781 66.550781 L 32 66.550781 Z M 32 71.898438 "/>
<path fill-rule="evenodd" fill="rgb(100%, 100%, 100%)" fill-opacity="1" d="M 39.25 71.898438 L 46.550781 71.898438 L 46.550781 66.550781 L 39.25 66.550781 Z M 39.25 71.898438 "/>
<path fill-rule="evenodd" fill="rgb(100%, 100%, 100%)" fill-opacity="1" d="M 46.5 71.898438 L 53.800781 71.898438 L 53.800781 66.550781 L 46.5 66.550781 Z M 46.5 71.898438 "/>
<path fill-rule="evenodd" fill="rgb(100%, 100%, 100%)" fill-opacity="1" d="M 53.75 71.898438 L 61.050781 71.898438 L 61.050781 66.550781 L 53.75 66.550781 Z M 53.75 71.898438 "/>
<path fill-rule="evenodd" fill="rgb(100%, 100%, 100%)" fill-opacity="1" d="M 61 71.898438 L 68.300781 71.898438 L 68.300781 66.550781 L 61 66.550781 Z M 61 71.898438 "/>
<path fill-rule="evenodd" fill="rgb(100%, 100%, 100%)" fill-opacity="1" d="M 68.25 71.898438 L 75.550781 71.898438 L 75.550781 66.550781 L 68.25 66.550781 Z M 68.25 71.898438 "/>
<path fill-rule="evenodd" fill="rgb(100%, 100%, 100%)" fill-opacity="1" d="M 75.5 71.898438 L 82.800781 71.898438 L 82.800781 66.550781 L 75.5 66.550781 Z M 75.5 71.898438 "/>
<path fill-rule="evenodd" fill="rgb(100%, 100%, 100%)" fill-opacity="1" d="M 82.75 71.898438 L 90.050781 71.898438 L 90.050781 66.550781 L 82.75 66.550781 Z M 82.75 71.898438 "/>
<path fill-rule="evenodd" fill="rgb(100%, 100%, 100%)" fill-opacity="1" d="M 90 71.898438 L 97.300781 71.898438 L 97.300781 66.550781 L 90 66.550781 Z M 90 71.898438 "/>
<path fill-rule="evenodd" fill="rgb(100%, 100%, 100%)" fill-opacity="1" d="M 97.25 71.898438 L 104.550781 71.898438 L 104.550781 66.550781 L 97.25 66.550781 Z M 97.25 71.898438 "/>
<path fill-rule="evenodd" fill="rgb(100%, 100%, 100%)" fill-opacity="1" d="M 104.5 71.898438 L 111.800781 71.898438 L 111.800781 66.550781 L 104.5 66.550781 Z M 104.5 71.898438 "/>
<path fill-rule="evenodd" fill="rgb(100%, 100%, 100%)" fill-opacity="1" d="M 111.75 71.898438 L 119.050781 71.898438 L 119.050781 66.550781 L 111.75 66.550781 Z M 111.75 71.898438 "/>
<path fill-rule="evenodd" fill="rgb(100%, 100%, 100%)" fill-opacity="1" d="M 119 71.898438 L 126.300781 71.898438 L 126.300781 66.550781 L 119 66.550781 Z M 119 71.898438 "/>
<path fill-rule="evenodd" fill="rgb(100%, 100%, 100%)" fill-opacity="1" d="M 126.25 71.898438 L 133.550781 71.898438 L 133.550781 66.550781 L 126.25 66.550781 Z M 126.25 71.898438 "/>
<path fill-rule="evenodd" fill="rgb(100%, 100%, 100%)" fill-opacity="1" d="M 133.5 71.898438 L 140.800781 71.898438 L 140.800781 66.550781 L 133.5 66.550781 Z M 133.5 71.898438 "/>
<path fill-rule="evenodd" fill="rgb(100%, 100%, 100%)" fill-opacity="1" d="M 140.75 71.898438 L 148.050781 71.898438 L 148.050781 66.550781 L 140.75 66.550781 Z M 140.75 71.898438 "/>
<path fill-rule="evenodd" fill="rgb(100%, 100%, 100%)" fill-opacity="1" d="M 148 71.898438 L 155.300781 71.898438 L 155.300781 66.550781 L 148 66.550781 Z M 148 71.898438 "/>
<path fill-rule="evenodd" fill="rgb(100%, 100%, 100%)" fill-opacity="1" d="M 155.25 71.898438 L 162.550781 71.898438 L 162.550781 66.550781 L 155.25 66.550781 Z M 155.25 71.898438 "/>
<path fill-rule="evenodd" fill="rgb(100%, 100%, 100%)" fill-opacity="1" d="M 162.5 71.898438 L 169.800781 71.898438 L 169.800781 66.550781 L 162.5 66.550781 Z M 162.5 71.898438 "/>
<path fill-rule="evenodd" fill="rgb(100%, 100%, 100%)" fill-opacity="1" d="M 169.75 71.898438 L 177.050781 71.898438 L 177.050781 66.550781 L 169.75 66.550781 Z M 169.75 71.898438 "/>
<path fill-rule="evenodd" fill="rgb(100%, 100%, 100%)" fill-opacity="1" d="M 3 77.199219 L 10.300781 77.199219 L 10.300781 71.851562 L 3 71.851562 Z M 3 77.199219 "/>
<path fill-rule="evenodd" fill="rgb(100%, 100%, 100%)" fill-opacity="1" d="M 10.25 77.199219 L 17.550781 77.199219 L 17.550781 71.851562 L 10.25 71.851562 Z M 10.25 77.199219 "/>
<path fill-rule="evenodd" fill="rgb(100%, 100%, 100%)" fill-opacity="1" d="M 17.5 77.199219 L 24.800781 77.199219 L 24.800781 71.851562 L 17.5 71.851562 Z M 17.5 77.199219 "/>
<path fill-rule="evenodd" fill="rgb(100%, 100%, 100%)" fill-opacity="1" d="M 24.75 77.199219 L 32.050781 77.199219 L 32.050781 71.851562 L 24.75 71.851562 Z M 24.75 77.199219 "/>
<path fill-rule="evenodd" fill="rgb(100%, 100%, 100%)" fill-opacity="1" d="M 32 77.199219 L 39.300781 77.199219 L 39.300781 71.851562 L 32 71.851562 Z M 32 77.199219 "/>
<path fill-rule="evenodd" fill="rgb(100%, 100%, 100%)" fill-opacity="1" d="M 39.25 77.199219 L 46.550781 77.199219 L 46.550781 71.851562 L 39.25 71.851562 Z M 39.25 77.199219 "/>
<path fill-rule="evenodd" fill="rgb(100%, 100%, 100%)" fill-opacity="1" d="M 46.5 77.199219 L 53.800781 77.199219 L 53.800781 71.851562 L 46.5 71.851562 Z M 46.5 77.199219 "/>
<path fill-rule="evenodd" fill="rgb(100%, 100%, 100%)" fill-opacity="1" d="M 53.75 77.199219 L 61.050781 77.199219 L 61.050781 71.851562 L 53.75 71.851562 Z M 53.75 77.199219 "/>
<path fill-rule="evenodd" fill="rgb(100%, 100%, 100%)" fill-opacity="1" d="M 61 77.199219 L 68.300781 77.199219 L 68.300781 71.851562 L 61 71.851562 Z M 61 77.199219 "/>
<path fill-rule="evenodd" fill="rgb(100%, 100%, 100%)" fill-opacity="1" d="M 68.25 77.199219 L 75.550781 77.199219 L 75.550781 71.851562 L 68.25 71.851562 Z M 68.25 77.199219 "/>
<path fill-rule="evenodd" fill="rgb(100%, 100%, 100%)" fill-opacity="1" d="M 75.5 77.199219 L 82.800781 77.199219 L 82.800781 71.851562 L 75.5 71.851562 Z M 75.5 77.199219 "/>
<path fill-rule="evenodd" fill="rgb(100%, 100%, 100%)" fill-opacity="1" d="M 82.75 77.199219 L 90.050781 77.199219 L 90.050781 71.851562 L 82.75 71.851562 Z M 82.75 77.199219 "/>
<path fill-rule="evenodd" fill="rgb(100%, 100%, 100%)" fill-opacity="1" d="M 90 77.199219 L 97.300781 77.199219 L 97.300781 71.851562 L 90 71.851562 Z M 90 77.199219 "/>
<path fill-rule="evenodd" fill="rgb(100%, 100%, 100%)" fill-opacity="1" d="M 97.25 77.199219 L 104.550781 77.199219 L 104.550781 71.851562 L 97.25 71.851562 Z M 97.25 77.199219 "/>
<path fill-rule="evenodd" fill="rgb(100%, 100%, 100%)" fill-opacity="1" d="M 104.5 77.199219 L 111.800781 77.199219 L 111.800781 71.851562 L 104.5 71.851562 Z M 104.5 77.199219 "/>
<path fill-rule="evenodd" fill="rgb(100%, 100%, 100%)" fill-opacity="1" d="M 111.75 77.199219 L 119.050781 77.199219 L 119.050781 71.851562 L 111.75 71.851562 Z M 111.75 77.199219 "/>
<path fill-rule="evenodd" fill="rgb(100%, 100%, 100%)" fill-opacity="1" d="M 119 77.199219 L 126.300781 77.199219 L 126.300781 71.851562 L 119 71.851562 Z M 119 77.199219 "/>
<path fill-rule="evenodd" fill="rgb(100%, 100%, 100%)" fill-opacity="1" d="M 126.25 77.199219 L 133.550781 77.199219 L 133.550781 71.851562 L 126.25 71.851562 Z M 126.25 77.199219 "/>
<path fill-rule="evenodd" fill="rgb(100%, 100%, 100%)" fill-opacity="1" d="M 133.5 77.199219 L 140.800781 77.199219 L 140.800781 71.851562 L 133.5 71.851562 Z M 133.5 77.199219 "/>
<path fill-rule="evenodd" fill="rgb(100%, 100%, 100%)" fill-opacity="1" d="M 140.75 77.199219 L 148.050781 77.199219 L 148.050781 71.851562 L 140.75 71.851562 Z M 140.75 77.199219 "/>
<path fill-rule="evenodd" fill="rgb(100%, 100%, 100%)" fill-opacity="1" d="M 148 77.199219 L 155.300781 77.199219 L 155.300781 71.851562 L 148 71.851562 Z M 148 77.199219 "/>
<path fill-rule="evenodd" fill="rgb(100%, 100%, 100%)" fill-opacity="1" d="M 155.25 77.199219 L 162.550781 77.199219 L 162.550781 71.851562 L 155.25 71.851562 Z M 155.25 77.199219 "/>
<path fill-rule="evenodd" fill="rgb(100%, 100%, 100%)" fill-opacity="1" d="M 162.5 77.199219 L 169.800781 77.199219 L 169.800781 71.851562 L 162.5 71.851562 Z M 162.5 77.199219 "/>
<path fill-rule="evenodd" fill="rgb(100%, 100%, 100%)" fill-opacity="1" d="M 169.75 77.199219 L 177.050781 77.199219 L 177.050781 71.851562 L 169.75 71.851562 Z M 169.75 77.199219 "/>
<path fill-rule="evenodd" fill="rgb(100%, 100%, 100%)" fill-opacity="1" d="M 3 82.5 L 10.300781 82.5 L 10.300781 77.148438 L 3 77.148438 Z M 3 82.5 "/>
<path fill-rule="evenodd" fill="rgb(100%, 100%, 100%)" fill-opacity="1" d="M 10.25 82.5 L 17.550781 82.5 L 17.550781 77.148438 L 10.25 77.148438 Z M 10.25 82.5 "/>
<path fill-rule="evenodd" fill="rgb(100%, 100%, 100%)" fill-opacity="1" d="M 17.5 82.5 L 24.800781 82.5 L 24.800781 77.148438 L 17.5 77.148438 Z M 17.5 82.5 "/>
<path fill-rule="evenodd" fill="rgb(100%, 100%, 100%)" fill-opacity="1" d="M 24.75 82.5 L 32.050781 82.5 L 32.050781 77.148438 L 24.75 77.148438 Z M 24.75 82.5 "/>
<path fill-rule="evenodd" fill="rgb(100%, 100%, 100%)" fill-opacity="1" d="M 32 82.5 L 39.300781 82.5 L 39.300781 77.148438 L 32 77.148438 Z M 32 82.5 "/>
<path fill-rule="evenodd" fill="rgb(100%, 100%, 100%)" fill-opacity="1" d="M 39.25 82.5 L 46.550781 82.5 L 46.550781 77.148438 L 39.25 77.148438 Z M 39.25 82.5 "/>
<path fill-rule="evenodd" fill="rgb(100%, 100%, 100%)" fill-opacity="1" d="M 46.5 82.5 L 53.800781 82.5 L 53.800781 77.148438 L 46.5 77.148438 Z M 46.5 82.5 "/>
<path fill-rule="evenodd" fill="rgb(100%, 100%, 100%)" fill-opacity="1" d="M 53.75 82.5 L 61.050781 82.5 L 61.050781 77.148438 L 53.75 77.148438 Z M 53.75 82.5 "/>
<path fill-rule="evenodd" fill="rgb(100%, 100%, 100%)" fill-opacity="1" d="M 61 82.5 L 68.300781 82.5 L 68.300781 77.148438 L 61 77.148438 Z M 61 82.5 "/>
<path fill-rule="evenodd" fill="rgb(100%, 100%, 100%)" fill-opacity="1" d="M 68.25 82.5 L 75.550781 82.5 L 75.550781 77.148438 L 68.25 77.148438 Z M 68.25 82.5 "/>
<path fill-rule="evenodd" fill="rgb(100%, 100%, 100%)" fill-opacity="1" d="M 75.5 82.5 L 82.800781 82.5 L 82.800781 77.148438 L 75.5 77.148438 Z M 75.5 82.5 "/>
<path fill-rule="evenodd" fill="rgb(100%, 100%, 100%)" fill-opacity="1" d="M 82.75 82.5 L 90.050781 82.5 L 90.050781 77.148438 L 82.75 77.148438 Z M 82.75 82.5 "/>
<path fill-rule="evenodd" fill="rgb(100%, 100%, 100%)" fill-opacity="1" d="M 90 82.5 L 97.300781 82.5 L 97.300781 77.148438 L 90 77.148438 Z M 90 82.5 "/>
<path fill-rule="evenodd" fill="rgb(100%, 100%, 100%)" fill-opacity="1" d="M 97.25 82.5 L 104.550781 82.5 L 104.550781 77.148438 L 97.25 77.148438 Z M 97.25 82.5 "/>
<path fill-rule="evenodd" fill="rgb(100%, 100%, 100%)" fill-opacity="1" d="M 104.5 82.5 L 111.800781 82.5 L 111.800781 77.148438 L 104.5 77.148438 Z M 104.5 82.5 "/>
<path fill-rule="evenodd" fill="rgb(100%, 100%, 100%)" fill-opacity="1" d="M 111.75 82.5 L 119.050781 82.5 L 119.050781 77.148438 L 111.75 77.148438 Z M 111.75 82.5 "/>
<path fill-rule="evenodd" fill="rgb(100%, 100%, 100%)" fill-opacity="1" d="M 119 82.5 L 126.300781 82.5 L 126.300781 77.148438 L 119 77.148438 Z M 119 82.5 "/>
<path fill-rule="evenodd" fill="rgb(100%, 100%, 100%)" fill-opacity="1" d="M 126.25 82.5 L 133.550781 82.5 L 133.550781 77.148438 L 126.25 77.148438 Z M 126.25 82.5 "/>
<path fill-rule="evenodd" fill="rgb(100%, 100%, 100%)" fill-opacity="1" d="M 133.5 82.5 L 140.800781 82.5 L 140.800781 77.148438 L 133.5 77.148438 Z M 133.5 82.5 "/>
<path fill-rule="evenodd" fill="rgb(100%, 100%, 100%)" fill-opacity="1" d="M 140.75 82.5 L 148.050781 82.5 L 148.050781 77.148438 L 140.75 77.148438 Z M 140.75 82.5 "/>
<path fill-rule="evenodd" fill="rgb(100%, 100%, 100%)" fill-opacity="1" d="M 148 82.5 L 155.300781 82.5 L 155.300781 77.148438 L 148 77.148438 Z M 148 82.5 "/>
<path fill-rule="evenodd" fill="rgb(100%, 100%, 100%)" fill-opacity="1" d="M 155.25 82.5 L 162.550781 82.5 L 162.550781 77.148438 L 155.25 77.148438 Z M 155.25 82.5 "/>
<path fill-rule="evenodd" fill="rgb(100%, 100%, 100%)" fill-opacity="1" d="M 162.5 82.5 L 169.800781 82.5 L 169.800781 77.148438 L 162.5 77.148438 Z M 162.5 82.5 "/>
<path fill-rule="evenodd" fill="rgb(100%, 100%, 100%)" fill-opacity="1" d="M 169.75 82.5 L 177.050781 82.5 L 177.050781 77.148438 L 169.75 77.148438 Z M 169.75 82.5 "/>
<path fill-rule="evenodd" fill="rgb(90.194702%, 92.939758%, 99.215698%)" fill-opacity="1" d="M 3 87.800781 L 10.300781 87.800781 L 10.300781 82.449219 L 3 82.449219 Z M 3 87.800781 "/>
<path fill-rule="evenodd" fill="rgb(90.194702%, 92.939758%, 99.215698%)" fill-opacity="1" d="M 10.25 87.800781 L 17.550781 87.800781 L 17.550781 82.449219 L 10.25 82.449219 Z M 10.25 87.800781 "/>
<path fill-rule="evenodd" fill="rgb(90.586853%, 93.331909%, 99.215698%)" fill-opacity="1" d="M 17.5 87.800781 L 24.800781 87.800781 L 24.800781 82.449219 L 17.5 82.449219 Z M 17.5 87.800781 "/>
<path fill-rule="evenodd" fill="rgb(90.979004%, 93.331909%, 99.215698%)" fill-opacity="1" d="M 24.75 87.800781 L 32.050781 87.800781 L 32.050781 82.449219 L 24.75 82.449219 Z M 24.75 87.800781 "/>
<path fill-rule="evenodd" fill="rgb(90.979004%, 93.72406%, 99.215698%)" fill-opacity="1" d="M 32 87.800781 L 39.300781 87.800781 L 39.300781 82.449219 L 32 82.449219 Z M 32 87.800781 "/>
<path fill-rule="evenodd" fill="rgb(91.371155%, 93.72406%, 99.215698%)" fill-opacity="1" d="M 39.25 87.800781 L 46.550781 87.800781 L 46.550781 82.449219 L 39.25 82.449219 Z M 39.25 87.800781 "/>
<path fill-rule="evenodd" fill="rgb(91.763306%, 94.116211%, 99.215698%)" fill-opacity="1" d="M 46.5 87.800781 L 53.800781 87.800781 L 53.800781 82.449219 L 46.5 82.449219 Z M 46.5 87.800781 "/>
<path fill-rule="evenodd" fill="rgb(92.155457%, 94.508362%, 99.215698%)" fill-opacity="1" d="M 53.75 87.800781 L 61.050781 87.800781 L 61.050781 82.449219 L 53.75 82.449219 Z M 53.75 87.800781 "/>
<path fill-rule="evenodd" fill="rgb(92.547607%, 94.508362%, 99.215698%)" fill-opacity="1" d="M 61 87.800781 L 68.300781 87.800781 L 68.300781 82.449219 L 61 82.449219 Z M 61 87.800781 "/>
<path fill-rule="evenodd" fill="rgb(92.155457%, 94.508362%, 99.215698%)" fill-opacity="1" d="M 68.25 87.800781 L 75.550781 87.800781 L 75.550781 82.449219 L 68.25 82.449219 Z M 68.25 87.800781 "/>
<path fill-rule="evenodd" fill="rgb(91.763306%, 94.116211%, 99.215698%)" fill-opacity="1" d="M 75.5 87.800781 L 82.800781 87.800781 L 82.800781 82.449219 L 75.5 82.449219 Z M 75.5 87.800781 "/>
<path fill-rule="evenodd" fill="rgb(91.763306%, 94.116211%, 99.215698%)" fill-opacity="1" d="M 82.75 87.800781 L 90.050781 87.800781 L 90.050781 82.449219 L 82.75 82.449219 Z M 82.75 87.800781 "/>
<path fill-rule="evenodd" fill="rgb(91.763306%, 94.116211%, 99.215698%)" fill-opacity="1" d="M 90 87.800781 L 97.300781 87.800781 L 97.300781 82.449219 L 90 82.449219 Z M 90 87.800781 "/>
<path fill-rule="evenodd" fill="rgb(91.763306%, 94.116211%, 99.215698%)" fill-opacity="1" d="M 97.25 87.800781 L 104.550781 87.800781 L 104.550781 82.449219 L 97.25 82.449219 Z M 97.25 87.800781 "/>
<path fill-rule="evenodd" fill="rgb(91.763306%, 94.116211%, 99.215698%)" fill-opacity="1" d="M 104.5 87.800781 L 111.800781 87.800781 L 111.800781 82.449219 L 104.5 82.449219 Z M 104.5 87.800781 "/>
<path fill-rule="evenodd" fill="rgb(91.371155%, 94.116211%, 99.215698%)" fill-opacity="1" d="M 111.75 87.800781 L 119.050781 87.800781 L 119.050781 82.449219 L 111.75 82.449219 Z M 111.75 87.800781 "/>
<path fill-rule="evenodd" fill="rgb(91.371155%, 93.72406%, 99.215698%)" fill-opacity="1" d="M 119 87.800781 L 126.300781 87.800781 L 126.300781 82.449219 L 119 82.449219 Z M 119 87.800781 "/>
<path fill-rule="evenodd" fill="rgb(90.979004%, 93.72406%, 99.215698%)" fill-opacity="1" d="M 126.25 87.800781 L 133.550781 87.800781 L 133.550781 82.449219 L 126.25 82.449219 Z M 126.25 87.800781 "/>
<path fill-rule="evenodd" fill="rgb(90.979004%, 93.331909%, 99.215698%)" fill-opacity="1" d="M 133.5 87.800781 L 140.800781 87.800781 L 140.800781 82.449219 L 133.5 82.449219 Z M 133.5 87.800781 "/>
<path fill-rule="evenodd" fill="rgb(90.586853%, 93.331909%, 99.215698%)" fill-opacity="1" d="M 140.75 87.800781 L 148.050781 87.800781 L 148.050781 82.449219 L 140.75 82.449219 Z M 140.75 87.800781 "/>
<path fill-rule="evenodd" fill="rgb(90.194702%, 92.939758%, 99.215698%)" fill-opacity="1" d="M 148 87.800781 L 155.300781 87.800781 L 155.300781 82.449219 L 148 82.449219 Z M 148 87.800781 "/>
<path fill-rule="evenodd" fill="rgb(89.802551%, 92.939758%, 99.215698%)" fill-opacity="1" d="M 155.25 87.800781 L 162.550781 87.800781 L 162.550781 82.449219 L 155.25 82.449219 Z M 155.25 87.800781 "/>
<path fill-rule="evenodd" fill="rgb(89.802551%, 92.547607%, 99.215698%)" fill-opacity="1" d="M 162.5 87.800781 L 169.800781 87.800781 L 169.800781 82.449219 L 162.5 82.449219 Z M 162.5 87.800781 "/>
<path fill-rule="evenodd" fill="rgb(89.802551%, 92.547607%, 99.215698%)" fill-opacity="1" d="M 169.75 87.800781 L 177.050781 87.800781 L 177.050781 82.449219 L 169.75 82.449219 Z M 169.75 87.800781 "/>
<path fill-rule="evenodd" fill="rgb(100%, 100%, 100%)" fill-opacity="1" d="M 3 93.101562 L 10.300781 93.101562 L 10.300781 87.75 L 3 87.75 Z M 3 93.101562 "/>
<path fill-rule="evenodd" fill="rgb(100%, 100%, 100%)" fill-opacity="1" d="M 10.25 93.101562 L 17.550781 93.101562 L 17.550781 87.75 L 10.25 87.75 Z M 10.25 93.101562 "/>
<path fill-rule="evenodd" fill="rgb(100%, 100%, 100%)" fill-opacity="1" d="M 17.5 93.101562 L 24.800781 93.101562 L 24.800781 87.75 L 17.5 87.75 Z M 17.5 93.101562 "/>
<path fill-rule="evenodd" fill="rgb(100%, 100%, 100%)" fill-opacity="1" d="M 24.75 93.101562 L 32.050781 93.101562 L 32.050781 87.75 L 24.75 87.75 Z M 24.75 93.101562 "/>
<path fill-rule="evenodd" fill="rgb(100%, 100%, 100%)" fill-opacity="1" d="M 32 93.101562 L 39.300781 93.101562 L 39.300781 87.75 L 32 87.75 Z M 32 93.101562 "/>
<path fill-rule="evenodd" fill="rgb(100%, 100%, 100%)" fill-opacity="1" d="M 39.25 93.101562 L 46.550781 93.101562 L 46.550781 87.75 L 39.25 87.75 Z M 39.25 93.101562 "/>
<path fill-rule="evenodd" fill="rgb(100%, 100%, 100%)" fill-opacity="1" d="M 46.5 93.101562 L 53.800781 93.101562 L 53.800781 87.75 L 46.5 87.75 Z M 46.5 93.101562 "/>
<path fill-rule="evenodd" fill="rgb(100%, 100%, 100%)" fill-opacity="1" d="M 53.75 93.101562 L 61.050781 93.101562 L 61.050781 87.75 L 53.75 87.75 Z M 53.75 93.101562 "/>
<path fill-rule="evenodd" fill="rgb(100%, 100%, 100%)" fill-opacity="1" d="M 61 93.101562 L 68.300781 93.101562 L 68.300781 87.75 L 61 87.75 Z M 61 93.101562 "/>
<path fill-rule="evenodd" fill="rgb(100%, 100%, 100%)" fill-opacity="1" d="M 68.25 93.101562 L 75.550781 93.101562 L 75.550781 87.75 L 68.25 87.75 Z M 68.25 93.101562 "/>
<path fill-rule="evenodd" fill="rgb(100%, 100%, 100%)" fill-opacity="1" d="M 75.5 93.101562 L 82.800781 93.101562 L 82.800781 87.75 L 75.5 87.75 Z M 75.5 93.101562 "/>
<path fill-rule="evenodd" fill="rgb(100%, 100%, 100%)" fill-opacity="1" d="M 82.75 93.101562 L 90.050781 93.101562 L 90.050781 87.75 L 82.75 87.75 Z M 82.75 93.101562 "/>
<path fill-rule="evenodd" fill="rgb(100%, 100%, 100%)" fill-opacity="1" d="M 90 93.101562 L 97.300781 93.101562 L 97.300781 87.75 L 90 87.75 Z M 90 93.101562 "/>
<path fill-rule="evenodd" fill="rgb(100%, 100%, 100%)" fill-opacity="1" d="M 97.25 93.101562 L 104.550781 93.101562 L 104.550781 87.75 L 97.25 87.75 Z M 97.25 93.101562 "/>
<path fill-rule="evenodd" fill="rgb(100%, 100%, 100%)" fill-opacity="1" d="M 104.5 93.101562 L 111.800781 93.101562 L 111.800781 87.75 L 104.5 87.75 Z M 104.5 93.101562 "/>
<path fill-rule="evenodd" fill="rgb(100%, 100%, 100%)" fill-opacity="1" d="M 111.75 93.101562 L 119.050781 93.101562 L 119.050781 87.75 L 111.75 87.75 Z M 111.75 93.101562 "/>
<path fill-rule="evenodd" fill="rgb(100%, 100%, 100%)" fill-opacity="1" d="M 119 93.101562 L 126.300781 93.101562 L 126.300781 87.75 L 119 87.75 Z M 119 93.101562 "/>
<path fill-rule="evenodd" fill="rgb(100%, 100%, 100%)" fill-opacity="1" d="M 126.25 93.101562 L 133.550781 93.101562 L 133.550781 87.75 L 126.25 87.75 Z M 126.25 93.101562 "/>
<path fill-rule="evenodd" fill="rgb(100%, 100%, 100%)" fill-opacity="1" d="M 133.5 93.101562 L 140.800781 93.101562 L 140.800781 87.75 L 133.5 87.75 Z M 133.5 93.101562 "/>
<path fill-rule="evenodd" fill="rgb(100%, 100%, 100%)" fill-opacity="1" d="M 140.75 93.101562 L 148.050781 93.101562 L 148.050781 87.75 L 140.75 87.75 Z M 140.75 93.101562 "/>
<path fill-rule="evenodd" fill="rgb(100%, 100%, 100%)" fill-opacity="1" d="M 148 93.101562 L 155.300781 93.101562 L 155.300781 87.75 L 148 87.75 Z M 148 93.101562 "/>
<path fill-rule="evenodd" fill="rgb(100%, 100%, 100%)" fill-opacity="1" d="M 155.25 93.101562 L 162.550781 93.101562 L 162.550781 87.75 L 155.25 87.75 Z M 155.25 93.101562 "/>
<path fill-rule="evenodd" fill="rgb(100%, 100%, 100%)" fill-opacity="1" d="M 162.5 93.101562 L 169.800781 93.101562 L 169.800781 87.75 L 162.5 87.75 Z M 162.5 93.101562 "/>
<path fill-rule="evenodd" fill="rgb(100%, 100%, 100%)" fill-opacity="1" d="M 169.75 93.101562 L 177.050781 93.101562 L 177.050781 87.75 L 169.75 87.75 Z M 169.75 93.101562 "/>
<path fill-rule="evenodd" fill="rgb(100%, 100%, 100%)" fill-opacity="1" d="M 3 98.398438 L 10.300781 98.398438 L 10.300781 93.050781 L 3 93.050781 Z M 3 98.398438 "/>
<path fill-rule="evenodd" fill="rgb(100%, 100%, 100%)" fill-opacity="1" d="M 10.25 98.398438 L 17.550781 98.398438 L 17.550781 93.050781 L 10.25 93.050781 Z M 10.25 98.398438 "/>
<path fill-rule="evenodd" fill="rgb(100%, 100%, 100%)" fill-opacity="1" d="M 17.5 98.398438 L 24.800781 98.398438 L 24.800781 93.050781 L 17.5 93.050781 Z M 17.5 98.398438 "/>
<path fill-rule="evenodd" fill="rgb(100%, 100%, 100%)" fill-opacity="1" d="M 24.75 98.398438 L 32.050781 98.398438 L 32.050781 93.050781 L 24.75 93.050781 Z M 24.75 98.398438 "/>
<path fill-rule="evenodd" fill="rgb(100%, 100%, 100%)" fill-opacity="1" d="M 32 98.398438 L 39.300781 98.398438 L 39.300781 93.050781 L 32 93.050781 Z M 32 98.398438 "/>
<path fill-rule="evenodd" fill="rgb(100%, 100%, 100%)" fill-opacity="1" d="M 39.25 98.398438 L 46.550781 98.398438 L 46.550781 93.050781 L 39.25 93.050781 Z M 39.25 98.398438 "/>
<path fill-rule="evenodd" fill="rgb(100%, 100%, 100%)" fill-opacity="1" d="M 46.5 98.398438 L 53.800781 98.398438 L 53.800781 93.050781 L 46.5 93.050781 Z M 46.5 98.398438 "/>
<path fill-rule="evenodd" fill="rgb(100%, 100%, 100%)" fill-opacity="1" d="M 53.75 98.398438 L 61.050781 98.398438 L 61.050781 93.050781 L 53.75 93.050781 Z M 53.75 98.398438 "/>
<path fill-rule="evenodd" fill="rgb(100%, 100%, 100%)" fill-opacity="1" d="M 61 98.398438 L 68.300781 98.398438 L 68.300781 93.050781 L 61 93.050781 Z M 61 98.398438 "/>
<path fill-rule="evenodd" fill="rgb(100%, 100%, 100%)" fill-opacity="1" d="M 68.25 98.398438 L 75.550781 98.398438 L 75.550781 93.050781 L 68.25 93.050781 Z M 68.25 98.398438 "/>
<path fill-rule="evenodd" fill="rgb(100%, 100%, 100%)" fill-opacity="1" d="M 75.5 98.398438 L 82.800781 98.398438 L 82.800781 93.050781 L 75.5 93.050781 Z M 75.5 98.398438 "/>
<path fill-rule="evenodd" fill="rgb(100%, 100%, 100%)" fill-opacity="1" d="M 82.75 98.398438 L 90.050781 98.398438 L 90.050781 93.050781 L 82.75 93.050781 Z M 82.75 98.398438 "/>
<path fill-rule="evenodd" fill="rgb(100%, 100%, 100%)" fill-opacity="1" d="M 90 98.398438 L 97.300781 98.398438 L 97.300781 93.050781 L 90 93.050781 Z M 90 98.398438 "/>
<path fill-rule="evenodd" fill="rgb(100%, 100%, 100%)" fill-opacity="1" d="M 97.25 98.398438 L 104.550781 98.398438 L 104.550781 93.050781 L 97.25 93.050781 Z M 97.25 98.398438 "/>
<path fill-rule="evenodd" fill="rgb(100%, 100%, 100%)" fill-opacity="1" d="M 104.5 98.398438 L 111.800781 98.398438 L 111.800781 93.050781 L 104.5 93.050781 Z M 104.5 98.398438 "/>
<path fill-rule="evenodd" fill="rgb(100%, 100%, 100%)" fill-opacity="1" d="M 111.75 98.398438 L 119.050781 98.398438 L 119.050781 93.050781 L 111.75 93.050781 Z M 111.75 98.398438 "/>
<path fill-rule="evenodd" fill="rgb(100%, 100%, 100%)" fill-opacity="1" d="M 119 98.398438 L 126.300781 98.398438 L 126.300781 93.050781 L 119 93.050781 Z M 119 98.398438 "/>
<path fill-rule="evenodd" fill="rgb(100%, 100%, 100%)" fill-opacity="1" d="M 126.25 98.398438 L 133.550781 98.398438 L 133.550781 93.050781 L 126.25 93.050781 Z M 126.25 98.398438 "/>
<path fill-rule="evenodd" fill="rgb(100%, 100%, 100%)" fill-opacity="1" d="M 133.5 98.398438 L 140.800781 98.398438 L 140.800781 93.050781 L 133.5 93.050781 Z M 133.5 98.398438 "/>
<path fill-rule="evenodd" fill="rgb(100%, 100%, 100%)" fill-opacity="1" d="M 140.75 98.398438 L 148.050781 98.398438 L 148.050781 93.050781 L 140.75 93.050781 Z M 140.75 98.398438 "/>
<path fill-rule="evenodd" fill="rgb(100%, 100%, 100%)" fill-opacity="1" d="M 148 98.398438 L 155.300781 98.398438 L 155.300781 93.050781 L 148 93.050781 Z M 148 98.398438 "/>
<path fill-rule="evenodd" fill="rgb(100%, 100%, 100%)" fill-opacity="1" d="M 155.25 98.398438 L 162.550781 98.398438 L 162.550781 93.050781 L 155.25 93.050781 Z M 155.25 98.398438 "/>
<path fill-rule="evenodd" fill="rgb(100%, 100%, 100%)" fill-opacity="1" d="M 162.5 98.398438 L 169.800781 98.398438 L 169.800781 93.050781 L 162.5 93.050781 Z M 162.5 98.398438 "/>
<path fill-rule="evenodd" fill="rgb(100%, 100%, 100%)" fill-opacity="1" d="M 169.75 98.398438 L 177.050781 98.398438 L 177.050781 93.050781 L 169.75 93.050781 Z M 169.75 98.398438 "/>
<path fill-rule="evenodd" fill="rgb(76.861572%, 83.528137%, 98.03772%)" fill-opacity="1" d="M 3 103.699219 L 10.300781 103.699219 L 10.300781 98.351562 L 3 98.351562 Z M 3 103.699219 "/>
<path fill-rule="evenodd" fill="rgb(77.645874%, 83.920288%, 98.03772%)" fill-opacity="1" d="M 10.25 103.699219 L 17.550781 103.699219 L 17.550781 98.351562 L 10.25 98.351562 Z M 10.25 103.699219 "/>
<path fill-rule="evenodd" fill="rgb(78.430176%, 84.70459%, 98.03772%)" fill-opacity="1" d="M 17.5 103.699219 L 24.800781 103.699219 L 24.800781 98.351562 L 17.5 98.351562 Z M 17.5 103.699219 "/>
<path fill-rule="evenodd" fill="rgb(78.822327%, 84.70459%, 98.03772%)" fill-opacity="1" d="M 24.75 103.699219 L 32.050781 103.699219 L 32.050781 98.351562 L 24.75 98.351562 Z M 24.75 103.699219 "/>
<path fill-rule="evenodd" fill="rgb(79.214478%, 85.096741%, 98.03772%)" fill-opacity="1" d="M 32 103.699219 L 39.300781 103.699219 L 39.300781 98.351562 L 32 98.351562 Z M 32 103.699219 "/>
<path fill-rule="evenodd" fill="rgb(79.606628%, 85.488892%, 98.03772%)" fill-opacity="1" d="M 39.25 103.699219 L 46.550781 103.699219 L 46.550781 98.351562 L 39.25 98.351562 Z M 39.25 103.699219 "/>
<path fill-rule="evenodd" fill="rgb(80.783081%, 86.273193%, 98.431396%)" fill-opacity="1" d="M 46.5 103.699219 L 53.800781 103.699219 L 53.800781 98.351562 L 46.5 98.351562 Z M 46.5 103.699219 "/>
<path fill-rule="evenodd" fill="rgb(81.959534%, 87.057495%, 98.431396%)" fill-opacity="1" d="M 53.75 103.699219 L 61.050781 103.699219 L 61.050781 98.351562 L 53.75 98.351562 Z M 53.75 103.699219 "/>
<path fill-rule="evenodd" fill="rgb(82.351685%, 87.449646%, 98.431396%)" fill-opacity="1" d="M 61 103.699219 L 68.300781 103.699219 L 68.300781 98.351562 L 61 98.351562 Z M 61 103.699219 "/>
<path fill-rule="evenodd" fill="rgb(81.567383%, 87.057495%, 98.431396%)" fill-opacity="1" d="M 68.25 103.699219 L 75.550781 103.699219 L 75.550781 98.351562 L 68.25 98.351562 Z M 68.25 103.699219 "/>
<path fill-rule="evenodd" fill="rgb(81.175232%, 86.665344%, 98.431396%)" fill-opacity="1" d="M 75.5 103.699219 L 82.800781 103.699219 L 82.800781 98.351562 L 75.5 98.351562 Z M 75.5 103.699219 "/>
<path fill-rule="evenodd" fill="rgb(80.783081%, 86.273193%, 98.431396%)" fill-opacity="1" d="M 82.75 103.699219 L 90.050781 103.699219 L 90.050781 98.351562 L 82.75 98.351562 Z M 82.75 103.699219 "/>
<path fill-rule="evenodd" fill="rgb(80.783081%, 86.273193%, 98.431396%)" fill-opacity="1" d="M 90 103.699219 L 97.300781 103.699219 L 97.300781 98.351562 L 90 98.351562 Z M 90 103.699219 "/>
<path fill-rule="evenodd" fill="rgb(80.783081%, 86.273193%, 98.431396%)" fill-opacity="1" d="M 97.25 103.699219 L 104.550781 103.699219 L 104.550781 98.351562 L 97.25 98.351562 Z M 97.25 103.699219 "/>
<path fill-rule="evenodd" fill="rgb(80.783081%, 86.273193%, 98.431396%)" fill-opacity="1" d="M 104.5 103.699219 L 111.800781 103.699219 L 111.800781 98.351562 L 104.5 98.351562 Z M 104.5 103.699219 "/>
<path fill-rule="evenodd" fill="rgb(80.39093%, 85.881042%, 98.03772%)" fill-opacity="1" d="M 111.75 103.699219 L 119.050781 103.699219 L 119.050781 98.351562 L 111.75 98.351562 Z M 111.75 103.699219 "/>
<path fill-rule="evenodd" fill="rgb(79.998779%, 85.488892%, 98.03772%)" fill-opacity="1" d="M 119 103.699219 L 126.300781 103.699219 L 126.300781 98.351562 L 119 98.351562 Z M 119 103.699219 "/>
<path fill-rule="evenodd" fill="rgb(79.214478%, 85.096741%, 98.03772%)" fill-opacity="1" d="M 126.25 103.699219 L 133.550781 103.699219 L 133.550781 98.351562 L 126.25 98.351562 Z M 126.25 103.699219 "/>
<path fill-rule="evenodd" fill="rgb(78.822327%, 84.70459%, 98.03772%)" fill-opacity="1" d="M 133.5 103.699219 L 140.800781 103.699219 L 140.800781 98.351562 L 133.5 98.351562 Z M 133.5 103.699219 "/>
<path fill-rule="evenodd" fill="rgb(78.038025%, 84.312439%, 98.03772%)" fill-opacity="1" d="M 140.75 103.699219 L 148.050781 103.699219 L 148.050781 98.351562 L 140.75 98.351562 Z M 140.75 103.699219 "/>
<path fill-rule="evenodd" fill="rgb(77.253723%, 83.528137%, 98.03772%)" fill-opacity="1" d="M 148 103.699219 L 155.300781 103.699219 L 155.300781 98.351562 L 148 98.351562 Z M 148 103.699219 "/>
<path fill-rule="evenodd" fill="rgb(76.469421%, 83.135986%, 98.03772%)" fill-opacity="1" d="M 155.25 103.699219 L 162.550781 103.699219 L 162.550781 98.351562 L 155.25 98.351562 Z M 155.25 103.699219 "/>
<path fill-rule="evenodd" fill="rgb(76.077271%, 83.135986%, 97.647095%)" fill-opacity="1" d="M 162.5 103.699219 L 169.800781 103.699219 L 169.800781 98.351562 L 162.5 98.351562 Z M 162.5 103.699219 "/>
<path fill-rule="evenodd" fill="rgb(76.077271%, 82.743835%, 97.647095%)" fill-opacity="1" d="M 169.75 103.699219 L 177.050781 103.699219 L 177.050781 98.351562 L 169.75 98.351562 Z M 169.75 103.699219 "/>
<path fill-rule="evenodd" fill="rgb(96.469116%, 77.253723%, 77.253723%)" fill-opacity="1" d="M 3 109 L 10.300781 109 L 10.300781 103.648438 L 3 103.648438 Z M 3 109 "/>
<path fill-rule="evenodd" fill="rgb(96.469116%, 77.645874%, 77.645874%)" fill-opacity="1" d="M 10.25 109 L 17.550781 109 L 17.550781 103.648438 L 10.25 103.648438 Z M 10.25 109 "/>
<path fill-rule="evenodd" fill="rgb(96.469116%, 78.430176%, 78.430176%)" fill-opacity="1" d="M 17.5 109 L 24.800781 109 L 24.800781 103.648438 L 17.5 103.648438 Z M 17.5 109 "/>
<path fill-rule="evenodd" fill="rgb(96.469116%, 78.822327%, 78.822327%)" fill-opacity="1" d="M 24.75 109 L 32.050781 109 L 32.050781 103.648438 L 24.75 103.648438 Z M 24.75 109 "/>
<path fill-rule="evenodd" fill="rgb(96.861267%, 79.214478%, 79.214478%)" fill-opacity="1" d="M 32 109 L 39.300781 109 L 39.300781 103.648438 L 32 103.648438 Z M 32 109 "/>
<path fill-rule="evenodd" fill="rgb(96.861267%, 79.606628%, 79.606628%)" fill-opacity="1" d="M 39.25 109 L 46.550781 109 L 46.550781 103.648438 L 39.25 103.648438 Z M 39.25 109 "/>
<path fill-rule="evenodd" fill="rgb(96.861267%, 80.783081%, 80.783081%)" fill-opacity="1" d="M 46.5 109 L 53.800781 109 L 53.800781 103.648438 L 46.5 103.648438 Z M 46.5 109 "/>
<path fill-rule="evenodd" fill="rgb(97.253418%, 82.351685%, 82.351685%)" fill-opacity="1" d="M 53.75 109 L 61.050781 109 L 61.050781 103.648438 L 53.75 103.648438 Z M 53.75 109 "/>
<path fill-rule="evenodd" fill="rgb(97.253418%, 82.743835%, 82.743835%)" fill-opacity="1" d="M 61 109 L 68.300781 109 L 68.300781 103.648438 L 61 103.648438 Z M 61 109 "/>
<path fill-rule="evenodd" fill="rgb(97.253418%, 81.959534%, 81.959534%)" fill-opacity="1" d="M 68.25 109 L 75.550781 109 L 75.550781 103.648438 L 68.25 103.648438 Z M 68.25 109 "/>
<path fill-rule="evenodd" fill="rgb(96.861267%, 81.175232%, 81.175232%)" fill-opacity="1" d="M 75.5 109 L 82.800781 109 L 82.800781 103.648438 L 75.5 103.648438 Z M 75.5 109 "/>
<path fill-rule="evenodd" fill="rgb(96.861267%, 81.175232%, 81.175232%)" fill-opacity="1" d="M 82.75 109 L 90.050781 109 L 90.050781 103.648438 L 82.75 103.648438 Z M 82.75 109 "/>
<path fill-rule="evenodd" fill="rgb(96.861267%, 81.175232%, 81.175232%)" fill-opacity="1" d="M 90 109 L 97.300781 109 L 97.300781 103.648438 L 90 103.648438 Z M 90 109 "/>
<path fill-rule="evenodd" fill="rgb(96.861267%, 80.783081%, 80.783081%)" fill-opacity="1" d="M 97.25 109 L 104.550781 109 L 104.550781 103.648438 L 97.25 103.648438 Z M 97.25 109 "/>
<path fill-rule="evenodd" fill="rgb(96.861267%, 80.783081%, 80.783081%)" fill-opacity="1" d="M 104.5 109 L 111.800781 109 L 111.800781 103.648438 L 104.5 103.648438 Z M 104.5 109 "/>
<path fill-rule="evenodd" fill="rgb(96.861267%, 80.39093%, 80.39093%)" fill-opacity="1" d="M 111.75 109 L 119.050781 109 L 119.050781 103.648438 L 111.75 103.648438 Z M 111.75 109 "/>
<path fill-rule="evenodd" fill="rgb(96.861267%, 79.998779%, 79.998779%)" fill-opacity="1" d="M 119 109 L 126.300781 109 L 126.300781 103.648438 L 119 103.648438 Z M 119 109 "/>
<path fill-rule="evenodd" fill="rgb(96.469116%, 79.214478%, 79.214478%)" fill-opacity="1" d="M 126.25 109 L 133.550781 109 L 133.550781 103.648438 L 126.25 103.648438 Z M 126.25 109 "/>
<path fill-rule="evenodd" fill="rgb(96.469116%, 78.822327%, 78.822327%)" fill-opacity="1" d="M 133.5 109 L 140.800781 109 L 140.800781 103.648438 L 133.5 103.648438 Z M 133.5 109 "/>
<path fill-rule="evenodd" fill="rgb(96.469116%, 78.038025%, 78.038025%)" fill-opacity="1" d="M 140.75 109 L 148.050781 109 L 148.050781 103.648438 L 140.75 103.648438 Z M 140.75 109 "/>
<path fill-rule="evenodd" fill="rgb(96.469116%, 77.253723%, 77.253723%)" fill-opacity="1" d="M 148 109 L 155.300781 109 L 155.300781 103.648438 L 148 103.648438 Z M 148 109 "/>
<path fill-rule="evenodd" fill="rgb(96.076965%, 76.861572%, 76.861572%)" fill-opacity="1" d="M 155.25 109 L 162.550781 109 L 162.550781 103.648438 L 155.25 103.648438 Z M 155.25 109 "/>
<path fill-rule="evenodd" fill="rgb(96.076965%, 76.469421%, 76.469421%)" fill-opacity="1" d="M 162.5 109 L 169.800781 109 L 169.800781 103.648438 L 162.5 103.648438 Z M 162.5 109 "/>
<path fill-rule="evenodd" fill="rgb(96.076965%, 76.077271%, 76.077271%)" fill-opacity="1" d="M 169.75 109 L 177.050781 109 L 177.050781 103.648438 L 169.75 103.648438 Z M 169.75 109 "/>
<path fill="none" stroke-width="0.55" stroke-linecap="butt" stroke-linejoin="miter" stroke="rgb(6.666565%, 9.411621%, 15.293884%)" stroke-opacity="1" stroke-miterlimit="10" d="M 3 3 L 177 3 L 177 109 L 3 109 Z M 3 3 " transform="matrix(1, 0, 0, -1, 0, 112)"/>
</svg>
